<svg width="44" height="44" viewBox="0 0 44 44" fill="none" xmlns="http://www.w3.org/2000/svg">
<rect width="44" height="44" fill="#0E0E0E"/>
<path d="M19.5631 20.2656V13.5156C19.5632 13.4256 19.5416 13.3369 19.5003 13.2569C19.4589 13.177 19.399 13.1081 19.3255 13.0561C19.252 13.0041 19.1672 12.9706 19.078 12.9582C18.9888 12.9458 18.898 12.955 18.8131 12.985C16.6657 13.7441 14.8597 15.2448 13.7202 17.2169C12.5807 19.1891 12.1826 21.5032 12.5975 23.7428C12.6138 23.8314 12.6512 23.9147 12.7064 23.9859C12.7616 24.057 12.8331 24.1139 12.9149 24.1516C12.9967 24.1894 13.0863 24.207 13.1763 24.2029C13.2662 24.1988 13.3539 24.1731 13.4319 24.1281L19.2819 20.7531C19.3675 20.7037 19.4385 20.6327 19.4879 20.5471C19.5373 20.4615 19.5632 20.3644 19.5631 20.2656ZM18.4381 19.9375L13.595 22.7313C13.5738 22.4881 13.5631 22.2444 13.5631 22C13.5644 20.3936 14.0236 18.8208 14.8871 17.4661C15.7506 16.1115 16.9824 15.0312 18.4381 14.3519V19.9375ZM22.0006 12.4375C21.8515 12.4375 21.7084 12.4968 21.6029 12.6023C21.4974 12.7077 21.4381 12.8508 21.4381 13V21.7188L13.9569 26.0744C13.893 26.1117 13.8371 26.1612 13.7923 26.2201C13.7476 26.2791 13.7149 26.3463 13.6962 26.4179C13.6775 26.4895 13.6731 26.564 13.6832 26.6373C13.6934 26.7106 13.7179 26.7812 13.7553 26.845C14.6042 28.2894 15.8177 29.4855 17.2742 30.3134C18.7308 31.1413 20.3793 31.572 22.0546 31.5623C23.73 31.5527 25.3734 31.103 26.8203 30.2584C28.2673 29.4138 29.4669 28.2038 30.2991 26.7497C31.1312 25.2956 31.5668 23.6484 31.562 21.973C31.5573 20.2976 31.1125 18.6529 30.2721 17.2035C29.4317 15.7541 28.2253 14.5509 26.7736 13.7145C25.322 12.8781 23.676 12.4377 22.0006 12.4375ZM22.0006 30.4375C20.6268 30.4338 19.2744 30.0965 18.0597 29.4546C16.8451 28.8126 15.8045 27.8852 15.0275 26.7522L22.2819 22.5259C22.3673 22.4766 22.4383 22.4057 22.4876 22.3203C22.537 22.2349 22.563 22.138 22.5631 22.0394V13.5813C24.7474 13.7271 26.7894 14.7162 28.258 16.3395C29.7266 17.9629 30.5068 20.0935 30.4338 22.2814C30.3608 24.4693 29.4403 26.5431 27.8667 28.065C26.2932 29.5869 24.1897 30.4376 22.0006 30.4375Z" fill="#EFEEEC"/>
</svg>
