<svg width="44" height="44" viewBox="0 0 44 44" fill="none" xmlns="http://www.w3.org/2000/svg">
<rect width="44" height="44" fill="#0E0E0E"/>
<path d="M21.5 12.4375C19.6087 12.4375 17.7599 12.9983 16.1874 14.0491C14.6148 15.0998 13.3892 16.5933 12.6654 18.3406C11.9416 20.0879 11.7523 22.0106 12.1212 23.8656C12.4902 25.7205 13.401 27.4244 14.7383 28.7617C16.0756 30.099 17.7795 31.0098 19.6345 31.3788C21.4894 31.7477 23.4121 31.5584 25.1594 30.8346C26.9067 30.1108 28.4002 28.8852 29.4509 27.3126C30.5017 25.7401 31.0625 23.8913 31.0625 22C31.0595 19.4648 30.0511 17.0343 28.2584 15.2416C26.4658 13.4489 24.0352 12.4405 21.5 12.4375ZM22.0625 30.4188V27.25C22.0625 27.1008 22.0032 26.9577 21.8978 26.8523C21.7923 26.7468 21.6492 26.6875 21.5 26.6875C21.3508 26.6875 21.2077 26.7468 21.1023 26.8523C20.9968 26.9577 20.9375 27.1008 20.9375 27.25V30.4188C18.8997 30.2796 16.9813 29.4072 15.537 27.963C14.0928 26.5187 13.2204 24.6003 13.0813 22.5625H16.25C16.3992 22.5625 16.5423 22.5032 16.6478 22.3977C16.7532 22.2923 16.8125 22.1492 16.8125 22C16.8125 21.8508 16.7532 21.7077 16.6478 21.6023C16.5423 21.4968 16.3992 21.4375 16.25 21.4375H13.0813C13.2204 19.3997 14.0928 17.4813 15.537 16.037C16.9813 14.5928 18.8997 13.7204 20.9375 13.5813V16.75C20.9375 16.8992 20.9968 17.0423 21.1023 17.1477C21.2077 17.2532 21.3508 17.3125 21.5 17.3125C21.6492 17.3125 21.7923 17.2532 21.8978 17.1477C22.0032 17.0423 22.0625 16.8992 22.0625 16.75V13.5813C24.1003 13.7204 26.0187 14.5928 27.463 16.037C28.9072 17.4813 29.7796 19.3997 29.9188 21.4375H26.75C26.6008 21.4375 26.4577 21.4968 26.3523 21.6023C26.2468 21.7077 26.1875 21.8508 26.1875 22C26.1875 22.1492 26.2468 22.2923 26.3523 22.3977C26.4577 22.5032 26.6008 22.5625 26.75 22.5625H29.9188C29.7796 24.6003 28.9072 26.5187 27.463 27.963C26.0187 29.4072 24.1003 30.2796 22.0625 30.4188Z" fill="#EFEEEC"/>
</svg>
