<svg width="44" height="44" viewBox="0 0 44 44" fill="none" xmlns="http://www.w3.org/2000/svg">
<rect width="44" height="44" fill="#0E0E0E"/>
<path d="M22.0015 12.4375C21.8523 12.4375 21.7092 12.4968 21.6037 12.6023C21.4982 12.7077 21.439 12.8508 21.439 13V18.25C21.439 18.3992 21.4982 18.5423 21.6037 18.6477C21.7092 18.7532 21.8523 18.8125 22.0015 18.8125C22.7031 18.8126 23.3851 19.0442 23.9417 19.4714C24.4983 19.8987 24.8984 20.4976 25.08 21.1754C25.2615 21.8531 25.2143 22.5719 24.9457 23.2201C24.6772 23.8683 24.2022 24.4098 23.5945 24.7606C22.9868 25.1114 22.2804 25.2518 21.5847 25.1602C20.8891 25.0686 20.2431 24.75 19.747 24.2538C19.2509 23.7577 18.9323 23.1116 18.8407 22.416C18.7492 21.7203 18.8897 21.0139 19.2405 20.4062C19.2775 20.3422 19.3015 20.2716 19.3111 20.1983C19.3208 20.125 19.3159 20.0505 19.2967 19.9791C19.2776 19.9077 19.2445 19.8408 19.1995 19.7822C19.1545 19.7236 19.0983 19.6744 19.0343 19.6375L14.4874 17.0125C14.4234 16.9755 14.3527 16.9515 14.2794 16.9419C14.2061 16.9322 14.1317 16.9371 14.0603 16.9563C13.9889 16.9754 13.922 17.0085 13.8633 17.0535C13.8047 17.0986 13.7556 17.1547 13.7186 17.2188C12.6662 19.0417 12.2446 21.161 12.5193 23.248C12.794 25.3349 13.7497 27.273 15.238 28.7615C16.7264 30.2499 18.6644 31.2057 20.7513 31.4806C22.8383 31.7555 24.9576 31.3341 26.7806 30.2817C28.6037 29.2294 30.0285 27.6049 30.8343 25.6602C31.64 23.7156 31.7815 21.5594 31.237 19.5261C30.6924 17.4928 29.4921 15.696 27.8223 14.4143C26.1525 13.1327 24.1064 12.4378 22.0015 12.4375ZM14.4274 18.2772L18.0171 20.3491C17.8003 20.8725 17.6888 21.4335 17.689 22C17.6897 22.1881 17.7022 22.376 17.7265 22.5625L13.7233 23.6359C13.366 21.8207 13.6133 19.9385 14.4274 18.2772ZM14.0149 24.7188L18.018 23.6462C18.3087 24.3449 18.7776 24.955 19.3779 25.4156C19.9782 25.8763 20.6889 26.1713 21.439 26.2712V30.415C19.7782 30.3016 18.1879 29.7007 16.8672 28.6874C15.5466 27.6741 14.5543 26.2935 14.0149 24.7188ZM22.564 30.4188V26.275C23.601 26.1382 24.5531 25.6291 25.2427 24.8426C25.9323 24.056 26.3125 23.0456 26.3125 21.9995C26.3125 20.9535 25.9323 19.9431 25.2427 19.1565C24.5531 18.3699 23.601 17.8609 22.564 17.7241V13.5813C24.6996 13.7239 26.7013 14.6728 28.1635 16.236C29.6258 17.7991 30.4393 19.8596 30.4393 22C30.4393 24.1404 29.6258 26.2009 28.1635 27.764C26.7013 29.3272 24.6996 30.2761 22.564 30.4188Z" fill="#EFEEEC"/>
</svg>
