<svg width="37" height="32" viewBox="0 0 37 32" fill="none" xmlns="http://www.w3.org/2000/svg">
<g clip-path="url(#clip0_3793_3536)">
<path d="M6.14784 0C3.08876 0 0.609375 2.47938 0.609375 5.53846V21.2308V31.3846H6.14784V21.2308H9.84014V31.3846H15.3786V21.2308H19.0709V24.9231H24.6094V21.2308H33.8401V0H6.14784Z" fill="#737373"/>
<path d="M28.3125 21.2305H33.851L36.6202 30.4612H31.0817L28.3125 21.2305Z" fill="#737373"/>
<path d="M28.3101 4.61719H8.0024C6.9824 4.61719 6.15625 5.44334 6.15625 6.46334V7.38642H26.4639C27.4839 7.38642 28.3101 6.56026 28.3101 5.54026V4.61719Z" fill="#EFEEEC"/>
<path d="M28.3101 9.23047H8.0024C6.9824 9.23047 6.15625 10.0566 6.15625 11.0766V11.9997H26.4639C27.4839 11.9997 28.3101 11.1735 28.3101 10.1535V9.23047Z" fill="#EFEEEC"/>
<path d="M20.0024 13.8477H8.0024C6.9824 13.8477 6.15625 14.6738 6.15625 15.6938V16.6169H18.1562C19.1763 16.6169 20.0024 15.7907 20.0024 14.7707V13.8477Z" fill="#EFEEEC"/>
</g>
<defs>
<clipPath id="clip0_3793_3536">
<rect width="36.9231" height="32" fill="white"/>
</clipPath>
</defs>
</svg>
