<svg width="44" height="44" viewBox="0 0 44 44" fill="none" xmlns="http://www.w3.org/2000/svg">
<rect width="44" height="44" fill="#0E0E0E"/>
<path d="M29.8975 17.8525L24.6475 12.6025C24.5421 12.497 24.3991 12.4376 24.25 12.4375H15.25C14.9019 12.4375 14.5681 12.5758 14.3219 12.8219C14.0758 13.0681 13.9375 13.4019 13.9375 13.75V30.25C13.9375 30.5981 14.0758 30.9319 14.3219 31.1781C14.5681 31.4242 14.9019 31.5625 15.25 31.5625H28.75C29.0981 31.5625 29.4319 31.4242 29.6781 31.1781C29.9242 30.9319 30.0625 30.5981 30.0625 30.25V18.25C30.0624 18.1009 30.003 17.9579 29.8975 17.8525ZM24.8125 14.3575L28.1425 17.6875H24.8125V14.3575ZM28.75 30.4375H15.25C15.2003 30.4375 15.1526 30.4177 15.1174 30.3826C15.0823 30.3474 15.0625 30.2997 15.0625 30.25V13.75C15.0625 13.7003 15.0823 13.6526 15.1174 13.6174C15.1526 13.5823 15.2003 13.5625 15.25 13.5625H23.6875V18.25C23.6875 18.3992 23.7468 18.5423 23.8523 18.6477C23.9577 18.7532 24.1008 18.8125 24.25 18.8125H28.9375V30.25C28.9375 30.2997 28.9177 30.3474 28.8826 30.3826C28.8474 30.4177 28.7997 30.4375 28.75 30.4375Z" fill="#EFEEEC"/>
</svg>
