<svg width="44" height="44" viewBox="0 0 44 44" fill="none" xmlns="http://www.w3.org/2000/svg">
<rect width="44" height="44" fill="#0E0E0E"/>
<path d="M28.25 17.6875H26.5625V16C26.5625 15.4097 26.3768 14.8344 26.0316 14.3555C25.6865 13.8766 25.1994 13.5185 24.6394 13.3318C24.0794 13.1452 23.4748 13.1394 22.9114 13.3154C22.348 13.4914 21.8542 13.8403 21.5 14.3125C21.1458 13.8403 20.652 13.4914 20.0886 13.3154C19.5252 13.1394 18.9206 13.1452 18.3606 13.3318C17.8006 13.5185 17.3135 13.8766 16.9684 14.3555C16.6232 14.8344 16.4375 15.4097 16.4375 16C16.0196 15.6866 15.5228 15.4958 15.0026 15.4489C14.4824 15.402 13.9594 15.5008 13.4922 15.7344C13.025 15.968 12.6321 16.3271 12.3575 16.7714C12.0829 17.2157 11.9375 17.7277 11.9375 18.25V22C11.9375 24.5361 12.945 26.9684 14.7383 28.7617C16.5316 30.555 18.9639 31.5625 21.5 31.5625C24.0361 31.5625 26.4684 30.555 28.2617 28.7617C30.055 26.9684 31.0625 24.5361 31.0625 22V20.5C31.0625 19.7541 30.7662 19.0387 30.2387 18.5113C29.7113 17.9838 28.9959 17.6875 28.25 17.6875ZM23.75 14.3125C24.1976 14.3125 24.6268 14.4903 24.9432 14.8068C25.2597 15.1232 25.4375 15.5524 25.4375 16V17.6875H22.25C22.1872 17.6883 22.1246 17.6933 22.0625 17.7025V16C22.0625 15.5524 22.2403 15.1232 22.5568 14.8068C22.8732 14.4903 23.3024 14.3125 23.75 14.3125ZM17.5625 16C17.5625 15.5524 17.7403 15.1232 18.0568 14.8068C18.3732 14.4903 18.8024 14.3125 19.25 14.3125C19.6976 14.3125 20.1268 14.4903 20.4432 14.8068C20.7597 15.1232 20.9375 15.5524 20.9375 16V19.75C20.9375 20.1976 20.7597 20.6268 20.4432 20.9432C20.1268 21.2597 19.6976 21.4375 19.25 21.4375C18.8024 21.4375 18.3732 21.2597 18.0568 20.9432C17.7403 20.6268 17.5625 20.1976 17.5625 19.75V16ZM13.0625 18.25C13.0625 17.8024 13.2403 17.3732 13.5568 17.0568C13.8732 16.7403 14.3024 16.5625 14.75 16.5625C15.1976 16.5625 15.6268 16.7403 15.9432 17.0568C16.2597 17.3732 16.4375 17.8024 16.4375 18.25V19.75C16.4375 20.1976 16.2597 20.6268 15.9432 20.9432C15.6268 21.2597 15.1976 21.4375 14.75 21.4375C14.3024 21.4375 13.8732 21.2597 13.5568 20.9432C13.2403 20.6268 13.0625 20.1976 13.0625 19.75V18.25ZM29.9375 22C29.9375 24.2378 29.0486 26.3839 27.4662 27.9662C25.8839 29.5486 23.7378 30.4375 21.5 30.4375C19.2622 30.4375 17.1161 29.5486 15.5338 27.9662C13.9514 26.3839 13.0625 24.2378 13.0625 22C13.6592 22.4476 14.4093 22.6397 15.1477 22.5342C15.8862 22.4287 16.5524 22.0342 17 21.4375C17.2412 21.759 17.5485 22.0251 17.9012 22.2178C18.2539 22.4105 18.6438 22.5254 19.0446 22.5547C19.4454 22.584 19.8479 22.5271 20.2249 22.3877C20.6019 22.2484 20.9446 22.0299 21.23 21.7469C21.5246 22.3406 22.0183 22.8121 22.625 23.0791C22.0998 23.4813 21.6743 23.9991 21.3817 24.5924C21.089 25.1857 20.937 25.8385 20.9375 26.5C20.9375 26.6492 20.9968 26.7923 21.1023 26.8977C21.2077 27.0032 21.3508 27.0625 21.5 27.0625C21.6492 27.0625 21.7923 27.0032 21.8977 26.8977C22.0032 26.7923 22.0625 26.6492 22.0625 26.5C22.0625 25.6546 22.3983 24.8439 22.9961 24.2461C23.5939 23.6483 24.4046 23.3125 25.25 23.3125C25.3992 23.3125 25.5423 23.2532 25.6477 23.1477C25.7532 23.0423 25.8125 22.8992 25.8125 22.75C25.8125 22.6008 25.7532 22.4577 25.6477 22.3523C25.5423 22.2468 25.3992 22.1875 25.25 22.1875H23.75C23.3024 22.1875 22.8732 22.0097 22.5568 21.6932C22.2403 21.3768 22.0625 20.9476 22.0625 20.5V19C22.0625 18.9503 22.0823 18.9026 22.1174 18.8674C22.1526 18.8323 22.2003 18.8125 22.25 18.8125H28.25C28.6976 18.8125 29.1268 18.9903 29.4432 19.3068C29.7597 19.6232 29.9375 20.0524 29.9375 20.5V22Z" fill="#EFEEEC"/>
</svg>
