<svg width="33" height="33" viewBox="0 0 33 33" fill="none" xmlns="http://www.w3.org/2000/svg">
<path fill-rule="evenodd" clip-rule="evenodd" d="M14.6546 2.66447C8.03264 2.66447 2.66447 8.03264 2.66447 14.6546C2.66447 21.2766 8.03264 26.6447 14.6546 26.6447C17.966 26.6447 20.9617 25.3042 23.1329 23.1329C25.3042 20.9617 26.6447 17.966 26.6447 14.6546C26.6447 8.03264 21.2766 2.66447 14.6546 2.66447ZM0 14.6546C0 6.56109 6.56109 0 14.6546 0C22.7481 0 29.3092 6.56109 29.3092 14.6546C29.3092 18.2211 28.0338 21.4917 25.9163 24.0323L31.9857 30.1016C32.5059 30.6219 32.5059 31.4654 31.9857 31.9857C31.4654 32.5059 30.6219 32.5059 30.1016 31.9857L24.0323 25.9163C21.4917 28.0338 18.2211 29.3092 14.6546 29.3092C6.56109 29.3092 0 22.7481 0 14.6546Z" fill="#737373"/>
</svg>
