<svg width="44" height="44" viewBox="0 0 44 44" fill="none" xmlns="http://www.w3.org/2000/svg">
<rect width="44" height="44" fill="#0E0E0E"/>
<path d="M26 13.1875C24.0172 13.1875 22.3344 15.0766 21.5 17.8994C20.6656 15.0766 18.9828 13.1875 17 13.1875C14.1612 13.1875 11.9375 17.0584 11.9375 22C11.9375 26.9416 14.1612 30.8125 17 30.8125C18.9828 30.8125 20.6656 28.9234 21.5 26.1006C22.3344 28.9234 24.0172 30.8125 26 30.8125C28.8388 30.8125 31.0625 26.9416 31.0625 22C31.0625 17.0584 28.8388 13.1875 26 13.1875ZM17 29.6875C15.29 29.6875 13.7947 27.4281 13.2659 24.3878C13.6918 24.6529 14.1808 24.7992 14.6822 24.8116C15.1837 24.8241 15.6793 24.7022 16.1178 24.4586C16.5563 24.2151 16.9216 23.8587 17.176 23.4264C17.4304 22.9941 17.5645 22.5016 17.5645 22C17.5645 21.4984 17.4304 21.0059 17.176 20.5736C16.9216 20.1413 16.5563 19.7849 16.1178 19.5414C15.6793 19.2978 15.1837 19.1759 14.6822 19.1884C14.1808 19.2008 13.6918 19.3471 13.2659 19.6122C13.7947 16.5719 15.29 14.3125 17 14.3125C19.1347 14.3125 20.9375 17.8328 20.9375 22C20.9375 26.1672 19.1347 29.6875 17 29.6875ZM13.0625 22C13.0625 21.6662 13.1615 21.34 13.3469 21.0625C13.5323 20.785 13.7959 20.5687 14.1042 20.441C14.4126 20.3132 14.7519 20.2798 15.0792 20.3449C15.4066 20.41 15.7072 20.5708 15.9432 20.8068C16.1792 21.0428 16.34 21.3434 16.4051 21.6708C16.4702 21.9981 16.4368 22.3374 16.309 22.6458C16.1813 22.9541 15.965 23.2177 15.6875 23.4031C15.41 23.5885 15.0838 23.6875 14.75 23.6875C14.3024 23.6875 13.8732 23.5097 13.5568 23.1932C13.2403 22.8768 13.0625 22.4476 13.0625 22ZM26 29.6875C24.29 29.6875 22.7947 27.4281 22.2659 24.3878C22.6918 24.6529 23.1808 24.7992 23.6822 24.8116C24.1837 24.8241 24.6793 24.7022 25.1178 24.4586C25.5563 24.2151 25.9216 23.8587 26.176 23.4264C26.4304 22.9941 26.5645 22.5016 26.5645 22C26.5645 21.4984 26.4304 21.0059 26.176 20.5736C25.9216 20.1413 25.5563 19.7849 25.1178 19.5414C24.6793 19.2978 24.1837 19.1759 23.6822 19.1884C23.1808 19.2008 22.6918 19.3471 22.2659 19.6122C22.7947 16.5719 24.29 14.3125 26 14.3125C28.1347 14.3125 29.9375 17.8328 29.9375 22C29.9375 26.1672 28.1347 29.6875 26 29.6875ZM22.0625 22C22.0625 21.6662 22.1615 21.34 22.3469 21.0625C22.5323 20.785 22.7959 20.5687 23.1042 20.441C23.4126 20.3132 23.7519 20.2798 24.0792 20.3449C24.4066 20.41 24.7072 20.5708 24.9432 20.8068C25.1792 21.0428 25.34 21.3434 25.4051 21.6708C25.4702 21.9981 25.4368 22.3374 25.309 22.6458C25.1813 22.9541 24.965 23.2177 24.6875 23.4031C24.41 23.5885 24.0838 23.6875 23.75 23.6875C23.3024 23.6875 22.8732 23.5097 22.5568 23.1932C22.2403 22.8768 22.0625 22.4476 22.0625 22Z" fill="#EFEEEC"/>
</svg>
