<svg width="44" height="44" viewBox="0 0 44 44" fill="none" xmlns="http://www.w3.org/2000/svg">
<rect width="44" height="44" fill="#0E0E0E"/>
<path d="M31.0525 19.7322C30.0091 19.1641 28.6066 18.7553 27.0625 18.5631V17.875C27.0625 16.7387 26.1644 15.7094 24.5312 14.9753C23.0463 14.3059 21.0813 13.9375 19 13.9375C16.9187 13.9375 14.9538 14.3059 13.4688 14.9753C11.8356 15.7094 10.9375 16.7387 10.9375 17.875V21.625C10.9375 22.7612 11.8356 23.7906 13.4688 24.5247C14.4522 24.9672 15.6447 25.2747 16.9375 25.4369V26.125C16.9375 27.2612 17.8356 28.2906 19.4688 29.0247C20.9537 29.6941 22.9187 30.0625 25 30.0625C27.0812 30.0625 29.0462 29.6941 30.5312 29.0247C32.1616 28.2906 33.0625 27.2612 33.0625 26.125V22.375C33.0625 21.3766 32.3491 20.4381 31.0525 19.7322ZM30.5144 20.7203C31.4322 21.22 31.9375 21.8125 31.9375 22.375C31.9375 23.7053 29.0884 25.1875 25 25.1875C24.3352 25.1879 23.671 25.1459 23.0116 25.0619C23.5313 24.9224 24.0393 24.7428 24.5312 24.5247C26.1616 23.7906 27.0625 22.7612 27.0625 21.625V19.6966C28.4125 19.8775 29.6219 20.2337 30.5144 20.7203ZM20.14 24.3981C19.7725 24.4234 19.39 24.4375 19 24.4375C18.5031 24.4375 18.025 24.415 17.5675 24.3747C17.556 24.3736 17.5444 24.3736 17.5328 24.3747C17.1972 24.3438 16.8766 24.3025 16.5625 24.2528V21.6363C17.3696 21.7545 18.1843 21.8134 19 21.8125C19.8157 21.8134 20.6304 21.7545 21.4375 21.6363V24.25C21.0306 24.3147 20.6022 24.3644 20.1541 24.3962L20.14 24.3981ZM25.9375 19.9272V21.625C25.9375 22.5194 24.6484 23.4812 22.5625 24.0166V21.4234C23.2381 21.2709 23.8974 21.0537 24.5312 20.7747C25.0355 20.5557 25.5084 20.2707 25.9375 19.9272ZM19 15.0625C23.0884 15.0625 25.9375 16.5447 25.9375 17.875C25.9375 19.2053 23.0884 20.6875 19 20.6875C14.9116 20.6875 12.0625 19.2053 12.0625 17.875C12.0625 16.5447 14.9116 15.0625 19 15.0625ZM12.0625 21.625V19.9272C12.4919 20.2694 12.9647 20.5531 13.4688 20.7709C14.1026 21.0499 14.7619 21.2672 15.4375 21.4197V24.0128C13.3516 23.4812 12.0625 22.5194 12.0625 21.625ZM18.0625 26.125V25.5363C18.3719 25.5531 18.6841 25.5625 19 25.5625C19.3694 25.5625 19.7338 25.5509 20.0931 25.5278C20.5328 25.6865 20.9818 25.8183 21.4375 25.9225V28.5166C19.3516 27.9812 18.0625 27.0194 18.0625 26.125ZM22.5625 28.75V26.1344C23.3696 26.2532 24.1842 26.3128 25 26.3125C25.8157 26.3134 26.6304 26.2545 27.4375 26.1362V28.75C25.8221 29 24.1779 29 22.5625 28.75ZM28.5625 28.5166V25.9234C29.2381 25.7709 29.8974 25.5537 30.5312 25.2747C31.0353 25.0569 31.5081 24.7732 31.9375 24.4309V26.125C31.9375 27.0194 30.6484 27.9812 28.5625 28.5166Z" fill="#EFEEEC"/>
</svg>
