<svg width="44" height="44" viewBox="0 0 44 44" fill="none" xmlns="http://www.w3.org/2000/svg">
<rect width="44" height="44" fill="#0E0E0E"/>
<path d="M14.5625 22.75C14.5625 22.8992 14.5032 23.0423 14.3977 23.1477C14.2923 23.2532 14.1492 23.3125 14 23.3125H11.75C11.6008 23.3125 11.4577 23.2532 11.3523 23.1477C11.2468 23.0423 11.1875 22.8992 11.1875 22.75C11.1875 22.6008 11.2468 22.4577 11.3523 22.3523C11.4577 22.2468 11.6008 22.1875 11.75 22.1875H12.6875V15.8125H11.75C11.6008 15.8125 11.4577 15.7532 11.3523 15.6477C11.2468 15.5423 11.1875 15.3992 11.1875 15.25C11.1875 15.1008 11.2468 14.9577 11.3523 14.8523C11.4577 14.7468 11.6008 14.6875 11.75 14.6875H13.25C13.3453 14.6873 13.439 14.7112 13.5225 14.7571C13.6059 14.8031 13.6764 14.8694 13.7272 14.95L17 20.1888L20.2728 14.9519C20.3234 14.8709 20.3937 14.8042 20.4772 14.758C20.5607 14.7117 20.6546 14.6875 20.75 14.6875H22.25C22.3992 14.6875 22.5423 14.7468 22.6477 14.8523C22.7532 14.9577 22.8125 15.1008 22.8125 15.25C22.8125 15.3992 22.7532 15.5423 22.6477 15.6477C22.5423 15.7532 22.3992 15.8125 22.25 15.8125H21.3125V22.1875H22.25C22.3992 22.1875 22.5423 22.2468 22.6477 22.3523C22.7532 22.4577 22.8125 22.6008 22.8125 22.75C22.8125 22.8992 22.7532 23.0423 22.6477 23.1477C22.5423 23.2532 22.3992 23.3125 22.25 23.3125H20C19.8508 23.3125 19.7077 23.2532 19.6023 23.1477C19.4968 23.0423 19.4375 22.8992 19.4375 22.75C19.4375 22.6008 19.4968 22.4577 19.6023 22.3523C19.7077 22.2468 19.8508 22.1875 20 22.1875H20.1875V17.2113L17.4772 21.5481C17.4266 21.6291 17.3563 21.6959 17.2728 21.7422C17.1894 21.7885 17.0955 21.8128 17 21.8128C16.9045 21.8128 16.8106 21.7885 16.7272 21.7422C16.6437 21.6959 16.5734 21.6291 16.5228 21.5481L13.8125 17.2113V22.1875H14C14.1492 22.1875 14.2923 22.2468 14.3977 22.3523C14.5032 22.4577 14.5625 22.6008 14.5625 22.75ZM25.25 20.3125H31.25C31.3992 20.3125 31.5423 20.2532 31.6477 20.1477C31.7532 20.0423 31.8125 19.8992 31.8125 19.75C31.8125 19.6008 31.7532 19.4577 31.6477 19.3523C31.5423 19.2468 31.3992 19.1875 31.25 19.1875H25.25C25.1008 19.1875 24.9577 19.2468 24.8523 19.3523C24.7468 19.4577 24.6875 19.6008 24.6875 19.75C24.6875 19.8992 24.7468 20.0423 24.8523 20.1477C24.9577 20.2532 25.1008 20.3125 25.25 20.3125ZM31.25 22.1875H25.25C25.1008 22.1875 24.9577 22.2468 24.8523 22.3523C24.7468 22.4577 24.6875 22.6008 24.6875 22.75C24.6875 22.8992 24.7468 23.0423 24.8523 23.1477C24.9577 23.2532 25.1008 23.3125 25.25 23.3125H31.25C31.3992 23.3125 31.5423 23.2532 31.6477 23.1477C31.7532 23.0423 31.8125 22.8992 31.8125 22.75C31.8125 22.6008 31.7532 22.4577 31.6477 22.3523C31.5423 22.2468 31.3992 22.1875 31.25 22.1875ZM31.25 25.1875H17C16.8508 25.1875 16.7077 25.2468 16.6023 25.3523C16.4968 25.4577 16.4375 25.6008 16.4375 25.75C16.4375 25.8992 16.4968 26.0423 16.6023 26.1477C16.7077 26.2532 16.8508 26.3125 17 26.3125H31.25C31.3992 26.3125 31.5423 26.2532 31.6477 26.1477C31.7532 26.0423 31.8125 25.8992 31.8125 25.75C31.8125 25.6008 31.7532 25.4577 31.6477 25.3523C31.5423 25.2468 31.3992 25.1875 31.25 25.1875ZM31.25 28.1875H17C16.8508 28.1875 16.7077 28.2468 16.6023 28.3523C16.4968 28.4577 16.4375 28.6008 16.4375 28.75C16.4375 28.8992 16.4968 29.0423 16.6023 29.1477C16.7077 29.2532 16.8508 29.3125 17 29.3125H31.25C31.3992 29.3125 31.5423 29.2532 31.6477 29.1477C31.7532 29.0423 31.8125 28.8992 31.8125 28.75C31.8125 28.6008 31.7532 28.4577 31.6477 28.3523C31.5423 28.2468 31.3992 28.1875 31.25 28.1875Z" fill="#EFEEEC"/>
</svg>
