<svg width="1209" height="429" viewBox="0 0 1209 429" fill="none" xmlns="http://www.w3.org/2000/svg">
<circle cx="386" cy="140" r="112" fill="#EFEEEC"/>
<path d="M384.642 100C379.163 100 374.471 103.433 372.58 108.254C368.624 108.782 365.09 111.089 363.056 114.613C360.317 119.358 360.941 125.136 364.17 129.184C362.651 132.872 362.88 137.087 364.912 140.609C367.652 145.356 372.974 147.704 378.095 146.93C380.53 150.09 384.293 152 388.361 152C393.84 152 398.533 148.567 400.424 143.746C404.379 143.218 407.913 140.911 409.947 137.387C412.686 132.642 412.062 126.864 408.834 122.816C410.353 119.128 410.123 114.913 408.092 111.391C405.351 106.644 400.03 104.296 394.908 105.07C392.473 101.91 388.71 100 384.642 100ZM384.642 104C386.955 104 389.123 104.909 390.763 106.453C390.638 106.52 390.508 106.573 390.384 106.645L381.506 111.773C380.582 112.305 380.01 113.291 380.006 114.359L379.951 126.293L375.681 123.801V112.961C375.681 108.021 379.702 104 384.642 104ZM397.486 108.934C400.357 109.138 403.083 110.717 404.627 113.391C405.783 115.392 406.081 117.726 405.564 119.918C405.442 119.842 405.33 119.756 405.205 119.684L396.322 114.555C395.398 114.023 394.26 114.021 393.334 114.551L382.974 120.473L382.998 115.531L392.384 110.109C393.989 109.183 395.764 108.811 397.486 108.934ZM371.701 112.535C371.696 112.678 371.681 112.817 371.681 112.961V123.215C371.681 124.283 372.248 125.271 373.17 125.809L383.478 131.82L379.189 134.27L369.799 128.852C365.521 126.382 364.051 120.887 366.521 116.609C367.676 114.609 369.546 113.185 371.701 112.535ZM393.814 117.73L403.205 123.148C407.483 125.618 408.952 131.113 406.482 135.391C405.327 137.391 403.458 138.815 401.302 139.465C401.307 139.322 401.322 139.183 401.322 139.039V128.785C401.322 127.717 400.756 126.729 399.834 126.191L389.525 120.18L393.814 117.73ZM386.521 121.895L390.064 123.961L390.045 128.07L386.482 130.105L382.939 128.035L382.959 123.93L386.521 121.895ZM393.052 125.707L397.322 128.199V139.039C397.322 143.979 393.301 148 388.361 148C386.049 148 383.88 147.091 382.24 145.547C382.365 145.48 382.495 145.427 382.619 145.355L391.498 140.227C392.422 139.695 392.994 138.709 392.998 137.641L393.052 125.707ZM390.029 131.527L390.006 136.469L380.619 141.891C376.341 144.361 370.847 142.887 368.377 138.609C367.221 136.608 366.923 134.274 367.439 132.082C367.561 132.158 367.673 132.244 367.799 132.316L376.681 137.445C377.605 137.977 378.744 137.979 379.67 137.449L390.029 131.527Z" fill="#0E0E0E"/>
<path d="M353.159 170H351.045C350.92 169.392 350.702 168.858 350.389 168.398C350.082 167.938 349.707 167.551 349.264 167.239C348.827 166.92 348.341 166.682 347.807 166.523C347.273 166.364 346.716 166.284 346.136 166.284C345.08 166.284 344.122 166.551 343.264 167.085C342.412 167.619 341.733 168.406 341.227 169.446C340.727 170.486 340.477 171.761 340.477 173.273C340.477 174.784 340.727 176.06 341.227 177.099C341.733 178.139 342.412 178.926 343.264 179.46C344.122 179.994 345.08 180.261 346.136 180.261C346.716 180.261 347.273 180.182 347.807 180.023C348.341 179.864 348.827 179.628 349.264 179.315C349.707 178.997 350.082 178.608 350.389 178.148C350.702 177.682 350.92 177.148 351.045 176.545H353.159C353 177.437 352.71 178.236 352.29 178.94C351.869 179.645 351.347 180.244 350.722 180.739C350.097 181.227 349.395 181.599 348.616 181.855C347.844 182.111 347.017 182.239 346.136 182.239C344.648 182.239 343.324 181.875 342.165 181.148C341.006 180.42 340.094 179.386 339.429 178.045C338.764 176.705 338.432 175.114 338.432 173.273C338.432 171.432 338.764 169.841 339.429 168.5C340.094 167.159 341.006 166.125 342.165 165.398C343.324 164.67 344.648 164.307 346.136 164.307C347.017 164.307 347.844 164.435 348.616 164.69C349.395 164.946 350.097 165.321 350.722 165.815C351.347 166.304 351.869 166.901 352.29 167.605C352.71 168.304 353 169.102 353.159 170ZM357.593 174.125V182H355.582V164.545H357.593V170.955H357.764C358.07 170.278 358.531 169.741 359.144 169.344C359.764 168.94 360.588 168.739 361.616 168.739C362.508 168.739 363.289 168.918 363.96 169.276C364.63 169.628 365.15 170.17 365.519 170.903C365.894 171.631 366.082 172.557 366.082 173.682V182H364.07V173.818C364.07 172.778 363.801 171.974 363.261 171.406C362.727 170.832 361.985 170.545 361.036 170.545C360.377 170.545 359.786 170.685 359.264 170.963C358.747 171.241 358.338 171.648 358.036 172.182C357.741 172.716 357.593 173.364 357.593 174.125ZM372.894 182.307C372.064 182.307 371.311 182.151 370.635 181.838C369.959 181.52 369.422 181.062 369.024 180.466C368.627 179.864 368.428 179.136 368.428 178.284C368.428 177.534 368.576 176.926 368.871 176.46C369.167 175.989 369.561 175.619 370.056 175.352C370.55 175.085 371.096 174.886 371.692 174.756C372.294 174.619 372.899 174.511 373.507 174.432C374.303 174.33 374.948 174.253 375.442 174.202C375.942 174.145 376.306 174.051 376.533 173.92C376.766 173.79 376.882 173.562 376.882 173.239V173.17C376.882 172.33 376.652 171.676 376.192 171.21C375.738 170.744 375.047 170.511 374.121 170.511C373.161 170.511 372.408 170.722 371.863 171.142C371.317 171.562 370.934 172.011 370.712 172.489L368.803 171.807C369.144 171.011 369.598 170.392 370.167 169.949C370.74 169.5 371.365 169.187 372.042 169.011C372.723 168.83 373.394 168.739 374.053 168.739C374.473 168.739 374.956 168.79 375.502 168.892C376.053 168.989 376.584 169.19 377.096 169.497C377.613 169.804 378.042 170.267 378.382 170.886C378.723 171.506 378.894 172.335 378.894 173.375V182H376.882V180.227H376.78C376.644 180.511 376.417 180.815 376.098 181.139C375.78 181.463 375.357 181.739 374.828 181.966C374.3 182.193 373.655 182.307 372.894 182.307ZM373.201 180.5C373.996 180.5 374.667 180.344 375.212 180.031C375.763 179.719 376.178 179.315 376.456 178.821C376.74 178.327 376.882 177.807 376.882 177.261V175.42C376.797 175.523 376.61 175.616 376.32 175.702C376.036 175.781 375.706 175.852 375.331 175.915C374.962 175.972 374.601 176.023 374.249 176.068C373.902 176.108 373.621 176.142 373.405 176.17C372.882 176.239 372.394 176.349 371.939 176.503C371.49 176.651 371.127 176.875 370.848 177.176C370.576 177.472 370.439 177.875 370.439 178.386C370.439 179.085 370.698 179.614 371.215 179.972C371.738 180.324 372.399 180.5 373.201 180.5ZM387.538 168.909V170.614H380.754V168.909H387.538ZM382.731 165.773H384.743V178.25C384.743 178.818 384.825 179.244 384.99 179.528C385.16 179.807 385.376 179.994 385.638 180.091C385.905 180.182 386.186 180.227 386.481 180.227C386.703 180.227 386.885 180.216 387.027 180.193C387.169 180.165 387.282 180.142 387.368 180.125L387.777 181.932C387.64 181.983 387.45 182.034 387.206 182.085C386.961 182.142 386.652 182.17 386.277 182.17C385.709 182.17 385.152 182.048 384.606 181.804C384.067 181.56 383.618 181.188 383.26 180.688C382.907 180.188 382.731 179.557 382.731 178.795V165.773ZM402.048 170C401.861 169.426 401.614 168.912 401.307 168.457C401.006 167.997 400.645 167.605 400.224 167.281C399.81 166.957 399.338 166.71 398.81 166.54C398.281 166.369 397.702 166.284 397.071 166.284C396.037 166.284 395.097 166.551 394.25 167.085C393.403 167.619 392.73 168.406 392.23 169.446C391.73 170.486 391.48 171.761 391.48 173.273C391.48 174.784 391.733 176.06 392.239 177.099C392.744 178.139 393.429 178.926 394.293 179.46C395.156 179.994 396.128 180.261 397.207 180.261C398.207 180.261 399.088 180.048 399.849 179.622C400.616 179.19 401.213 178.582 401.639 177.798C402.071 177.009 402.287 176.08 402.287 175.011L402.935 175.148H397.685V173.273H404.332V175.148C404.332 176.585 404.026 177.835 403.412 178.898C402.804 179.96 401.963 180.784 400.889 181.369C399.821 181.949 398.594 182.239 397.207 182.239C395.662 182.239 394.304 181.875 393.133 181.148C391.969 180.42 391.06 179.386 390.406 178.045C389.758 176.705 389.435 175.114 389.435 173.273C389.435 171.892 389.619 170.651 389.989 169.548C390.364 168.44 390.892 167.497 391.574 166.719C392.256 165.94 393.062 165.344 393.994 164.929C394.926 164.514 395.952 164.307 397.071 164.307C397.991 164.307 398.849 164.446 399.645 164.724C400.446 164.997 401.159 165.386 401.784 165.892C402.415 166.392 402.94 166.991 403.361 167.69C403.781 168.384 404.071 169.153 404.23 170H402.048ZM407.232 182V164.545H413.13C414.499 164.545 415.619 164.793 416.488 165.287C417.363 165.776 418.011 166.438 418.431 167.273C418.852 168.108 419.062 169.04 419.062 170.068C419.062 171.097 418.852 172.031 418.431 172.872C418.016 173.713 417.374 174.384 416.505 174.884C415.636 175.378 414.522 175.625 413.164 175.625H408.937V173.75H413.096C414.034 173.75 414.786 173.588 415.355 173.264C415.923 172.94 416.335 172.503 416.59 171.952C416.852 171.395 416.982 170.767 416.982 170.068C416.982 169.369 416.852 168.744 416.59 168.193C416.335 167.642 415.92 167.21 415.346 166.898C414.772 166.58 414.011 166.42 413.062 166.42H409.346V182H407.232ZM420.792 166.42V164.545H433.883V166.42H428.394V182H426.281V166.42H420.792Z" fill="#0E0E0E"/>
<circle cx="112" cy="317" r="112" fill="#EFEEEC"/>
<g clip-path="url(#clip0_1889_2340)">
<path d="M104.781 272.008C106.845 271.988 108.909 271.987 110.973 272.005C112.288 272.014 113.755 271.921 115.045 272.173C116.02 272.362 116.978 272.751 117.778 273.342C119.064 274.292 119.996 275.754 120.226 277.352C120.448 278.899 119.854 280.645 118.917 281.866C118.156 282.857 117.122 283.56 115.935 283.937C115.711 284.008 115.435 284.107 115.199 284.111C114.679 284.121 114.07 283.812 113.567 283.669C112.293 283.306 110.932 283.023 109.716 282.498C108.719 282.067 107.735 281.583 106.758 281.107C106.231 280.85 105.654 280.501 105.089 280.347C104.325 280.138 101.955 280.273 101.132 280.387C100.47 280.479 99.814 280.665 99.1678 280.833C98.5666 280.989 97.9477 281.13 97.3649 281.346C95.5453 282.033 93.9571 283.222 92.7837 284.773C91.3616 286.69 90.9673 289.155 90.951 291.486C90.9472 292.035 90.9301 292.595 91.0149 293.139C91.3008 294.974 91.7804 296.822 92.7348 298.433C93.1154 299.076 93.6144 299.638 94.101 300.201C94.6054 300.784 95.1004 301.393 95.662 301.923C96.1034 302.339 96.6 302.711 97.0735 303.09C98.6203 304.33 100.129 305.363 101.74 306.502C103.035 307.435 104.322 308.379 105.601 309.335C105.148 309.847 104.797 310.472 104.419 311.042L102.521 313.896C99.9328 317.812 97.3244 321.715 94.6956 325.604C93.8025 326.959 92.8567 328.287 91.929 329.619C91.3678 330.424 90.8221 331.338 90.151 332.053C86.4985 332.004 82.8462 332.066 79.1953 331.901C79.4658 331.15 80.2825 330.106 80.7238 329.391C83.1608 325.44 85.8113 321.642 88.4062 317.795C89.7637 315.782 90.9796 313.677 92.3689 311.687C91.0306 310.512 89.5268 309.492 88.2452 308.257C87.6406 307.674 87.0611 307.06 86.4734 306.461C85.8938 305.869 85.2832 305.282 84.7649 304.635C81.9385 301.107 80.4237 296.481 80.3514 291.975C80.2589 288.416 81.1262 284.898 82.862 281.79C83.158 281.26 83.4444 280.712 83.7997 280.218C84.412 279.368 85.2071 278.547 85.9396 277.795C86.559 277.16 87.2699 276.669 87.9915 276.16C88.4924 275.807 88.9896 275.433 89.5224 275.129C90.5515 274.542 92.4265 273.739 93.5701 273.411C94.3918 273.175 95.2515 273.017 96.0871 272.831C96.8387 272.664 97.5937 272.477 98.3577 272.377C100.477 272.098 102.646 272.039 104.781 272.008Z" fill="#0E0E0E"/>
<path d="M113.812 303.934C117.284 303.444 120.49 305.876 120.956 309.351C121.421 312.826 118.967 316.016 115.489 316.457C112.045 316.895 108.893 314.47 108.432 311.028C107.971 307.587 110.373 304.418 113.812 303.934Z" fill="#0E0E0E"/>
<path d="M113.857 287.51C117.309 287.045 120.484 289.466 120.95 292.918C121.416 296.37 118.996 299.546 115.544 300.012C112.091 300.479 108.914 298.058 108.448 294.605C107.982 291.152 110.404 287.976 113.857 287.51Z" fill="#0E0E0E"/>
<path d="M113.696 320.147C116.938 319.823 119.831 322.185 120.162 325.426C120.493 328.667 118.137 331.565 114.897 331.903C111.646 332.241 108.738 329.877 108.406 326.626C108.074 323.375 110.444 320.472 113.696 320.147Z" fill="#0E0E0E"/>
<path d="M129.342 305.132C132.148 304.755 134.723 306.738 135.077 309.546C135.432 312.355 133.429 314.914 130.617 315.246C127.837 315.574 125.313 313.599 124.962 310.822C124.612 308.044 126.568 305.504 129.342 305.132Z" fill="#0E0E0E"/>
<path d="M129.554 288.729C132.367 288.467 134.856 290.547 135.097 293.362C135.338 296.177 133.24 298.649 130.423 298.87C127.636 299.088 125.195 297.016 124.956 294.231C124.718 291.445 126.771 288.989 129.554 288.729Z" fill="#0E0E0E"/>
<path d="M127.148 321.811C129.491 321.595 131.566 323.317 131.787 325.659C132.007 328.002 130.29 330.08 127.948 330.306C125.599 330.531 123.514 328.808 123.293 326.459C123.071 324.11 124.799 322.028 127.148 321.811Z" fill="#0E0E0E"/>
<path d="M127.898 273.754C130.216 273.951 131.942 275.979 131.767 278.298C131.592 280.618 129.581 282.363 127.26 282.211C124.907 282.057 123.132 280.012 123.309 277.66C123.487 275.309 125.548 273.554 127.898 273.754Z" fill="#0E0E0E"/>
<path d="M141.023 296.819C139.5 296.1 138.731 294.376 139.214 292.762C139.697 291.148 141.287 290.13 142.955 290.366C144.623 290.602 145.867 292.022 145.883 293.706C145.899 295.391 144.682 296.834 143.018 297.102C142.935 297.138 142.961 297.121 142.896 297.168C142.76 297.264 142.596 297.401 142.423 297.418C142.201 297.441 141.976 297.21 141.815 297.08C141.542 297.026 141.276 296.938 141.023 296.819Z" fill="#0E0E0E"/>
<path d="M142.412 306.805C144.267 306.766 145.809 308.226 145.871 310.081C145.934 311.935 144.493 313.495 142.64 313.581C141.42 313.637 140.264 313.033 139.614 311.999C138.964 310.965 138.92 309.662 139.499 308.587C140.078 307.512 141.191 306.831 142.412 306.805Z" fill="#0E0E0E"/>
<path d="M138.267 323.45C139.697 323.425 140.874 324.568 140.89 325.997C140.907 327.427 139.757 328.597 138.327 328.605C136.909 328.613 135.751 327.475 135.735 326.057C135.718 324.639 136.85 323.474 138.267 323.45Z" fill="#0E0E0E"/>
<path d="M137.984 275.368C139.369 275.177 140.65 276.136 140.857 277.519C141.064 278.902 140.118 280.194 138.737 280.416C137.831 280.561 136.916 280.208 136.342 279.492C135.767 278.775 135.623 277.805 135.962 276.952C136.302 276.099 137.074 275.494 137.984 275.368Z" fill="#0E0E0E"/>
</g>
<path d="M54.1705 340.545V358H52.0568V342.42H43.2614V358H41.1477V340.545H54.1705ZM62.7594 358.273C61.5776 358.273 60.5407 357.991 59.6486 357.429C58.7622 356.866 58.0691 356.08 57.5691 355.068C57.0747 354.057 56.8276 352.875 56.8276 351.523C56.8276 350.159 57.0747 348.969 57.5691 347.952C58.0691 346.935 58.7622 346.145 59.6486 345.582C60.5407 345.02 61.5776 344.739 62.7594 344.739C63.9412 344.739 64.9753 345.02 65.8617 345.582C66.7537 346.145 67.4469 346.935 67.9412 347.952C68.4412 348.969 68.6912 350.159 68.6912 351.523C68.6912 352.875 68.4412 354.057 67.9412 355.068C67.4469 356.08 66.7537 356.866 65.8617 357.429C64.9753 357.991 63.9412 358.273 62.7594 358.273ZM62.7594 356.466C63.6571 356.466 64.3958 356.236 64.9753 355.776C65.5549 355.315 65.9838 354.71 66.2622 353.96C66.5407 353.21 66.6799 352.398 66.6799 351.523C66.6799 350.648 66.5407 349.832 66.2622 349.077C65.9838 348.321 65.5549 347.71 64.9753 347.244C64.3958 346.778 63.6571 346.545 62.7594 346.545C61.8617 346.545 61.123 346.778 60.5435 347.244C59.9639 347.71 59.535 348.321 59.2566 349.077C58.9782 349.832 58.8389 350.648 58.8389 351.523C58.8389 352.398 58.9782 353.21 59.2566 353.96C59.535 354.71 59.9639 355.315 60.5435 355.776C61.123 356.236 61.8617 356.466 62.7594 356.466ZM73.0529 355.034L79.3597 344.909H81.6779V358H79.6665V347.875L73.3938 358H71.0415V344.909H73.0529V355.034ZM89.96 358.273C88.7328 358.273 87.6759 357.983 86.7896 357.403C85.9032 356.824 85.2214 356.026 84.7441 355.009C84.2668 353.991 84.0282 352.83 84.0282 351.523C84.0282 350.193 84.2725 349.02 84.7612 348.003C85.2555 346.98 85.943 346.182 86.8237 345.608C87.71 345.028 88.7441 344.739 89.9259 344.739C90.8464 344.739 91.6759 344.909 92.4146 345.25C93.1532 345.591 93.7583 346.068 94.2299 346.682C94.7015 347.295 94.9941 348.011 95.1078 348.83H93.0964C92.943 348.233 92.6021 347.705 92.0737 347.244C91.5509 346.778 90.8464 346.545 89.96 346.545C89.1759 346.545 88.4884 346.75 87.8975 347.159C87.3123 347.562 86.8549 348.134 86.5254 348.872C86.2015 349.605 86.0396 350.466 86.0396 351.455C86.0396 352.466 86.1987 353.347 86.5168 354.097C86.8407 354.847 87.2953 355.429 87.8805 355.844C88.4714 356.259 89.1646 356.466 89.96 356.466C90.4828 356.466 90.9572 356.375 91.3833 356.193C91.8095 356.011 92.1703 355.75 92.4657 355.409C92.7612 355.068 92.9714 354.659 93.0964 354.182H95.1078C94.9941 354.955 94.7129 355.651 94.264 356.27C93.8208 356.884 93.2328 357.372 92.4998 357.736C91.7725 358.094 90.9259 358.273 89.96 358.273ZM97.3281 358V344.909H99.3395V350.602H100.669L105.374 344.909H107.964L102.68 351.216L108.033 358H105.442L101.146 352.477H99.3395V358H97.3281ZM115.801 358V340.545H117.915V348.318H127.222V340.545H129.336V358H127.222V350.193H117.915V358H115.801ZM138.063 358.273C136.802 358.273 135.714 357.994 134.799 357.438C133.89 356.875 133.188 356.091 132.694 355.085C132.205 354.074 131.961 352.898 131.961 351.557C131.961 350.216 132.205 349.034 132.694 348.011C133.188 346.983 133.875 346.182 134.756 345.608C135.643 345.028 136.677 344.739 137.858 344.739C138.54 344.739 139.214 344.852 139.878 345.08C140.543 345.307 141.148 345.676 141.694 346.188C142.239 346.693 142.674 347.364 142.998 348.199C143.322 349.034 143.483 350.062 143.483 351.284V352.136H133.393V350.398H141.438C141.438 349.659 141.29 349 140.995 348.42C140.705 347.841 140.29 347.384 139.75 347.048C139.216 346.713 138.586 346.545 137.858 346.545C137.057 346.545 136.364 346.744 135.779 347.142C135.199 347.534 134.753 348.045 134.441 348.676C134.128 349.307 133.972 349.983 133.972 350.705V351.864C133.972 352.852 134.143 353.69 134.483 354.378C134.83 355.06 135.31 355.58 135.924 355.938C136.537 356.29 137.25 356.466 138.063 356.466C138.591 356.466 139.069 356.392 139.495 356.244C139.927 356.091 140.299 355.864 140.611 355.562C140.924 355.256 141.165 354.875 141.336 354.42L143.279 354.966C143.074 355.625 142.731 356.205 142.248 356.705C141.765 357.199 141.168 357.585 140.458 357.864C139.748 358.136 138.949 358.273 138.063 358.273ZM147.834 355.034L154.141 344.909H156.459V358H154.448V347.875L148.175 358H145.823V344.909H147.834V355.034ZM152.812 340.545H154.687C154.687 341.466 154.369 342.219 153.732 342.804C153.096 343.389 152.232 343.682 151.141 343.682C150.067 343.682 149.212 343.389 148.576 342.804C147.945 342.219 147.63 341.466 147.63 340.545H149.505C149.505 340.989 149.627 341.378 149.871 341.713C150.121 342.048 150.545 342.216 151.141 342.216C151.738 342.216 152.164 342.048 152.42 341.713C152.681 341.378 152.812 340.989 152.812 340.545ZM159.423 362.909V344.909H161.367V346.989H161.605C161.753 346.761 161.957 346.472 162.219 346.119C162.486 345.761 162.867 345.443 163.361 345.165C163.861 344.881 164.537 344.739 165.389 344.739C166.492 344.739 167.463 345.014 168.304 345.565C169.145 346.116 169.801 346.898 170.273 347.909C170.744 348.92 170.98 350.114 170.98 351.489C170.98 352.875 170.744 354.077 170.273 355.094C169.801 356.105 169.148 356.889 168.313 357.446C167.477 357.997 166.514 358.273 165.423 358.273C164.582 358.273 163.909 358.134 163.404 357.855C162.898 357.571 162.509 357.25 162.236 356.892C161.963 356.528 161.753 356.227 161.605 355.989H161.435V362.909H159.423ZM161.401 351.455C161.401 352.443 161.546 353.315 161.835 354.071C162.125 354.821 162.548 355.409 163.105 355.835C163.662 356.256 164.344 356.466 165.151 356.466C165.992 356.466 166.693 356.244 167.256 355.801C167.824 355.352 168.25 354.75 168.534 353.994C168.824 353.233 168.969 352.386 168.969 351.455C168.969 350.534 168.827 349.705 168.543 348.966C168.264 348.222 167.841 347.634 167.273 347.202C166.71 346.764 166.003 346.545 165.151 346.545C164.332 346.545 163.645 346.753 163.088 347.168C162.531 347.577 162.111 348.151 161.827 348.889C161.543 349.622 161.401 350.477 161.401 351.455ZM178.647 358.273C177.465 358.273 176.428 357.991 175.536 357.429C174.649 356.866 173.956 356.08 173.456 355.068C172.962 354.057 172.715 352.875 172.715 351.523C172.715 350.159 172.962 348.969 173.456 347.952C173.956 346.935 174.649 346.145 175.536 345.582C176.428 345.02 177.465 344.739 178.647 344.739C179.828 344.739 180.863 345.02 181.749 345.582C182.641 346.145 183.334 346.935 183.828 347.952C184.328 348.969 184.578 350.159 184.578 351.523C184.578 352.875 184.328 354.057 183.828 355.068C183.334 356.08 182.641 356.866 181.749 357.429C180.863 357.991 179.828 358.273 178.647 358.273ZM178.647 356.466C179.544 356.466 180.283 356.236 180.863 355.776C181.442 355.315 181.871 354.71 182.149 353.96C182.428 353.21 182.567 352.398 182.567 351.523C182.567 350.648 182.428 349.832 182.149 349.077C181.871 348.321 181.442 347.71 180.863 347.244C180.283 346.778 179.544 346.545 178.647 346.545C177.749 346.545 177.01 346.778 176.431 347.244C175.851 347.71 175.422 348.321 175.144 349.077C174.865 349.832 174.726 350.648 174.726 351.523C174.726 352.398 174.865 353.21 175.144 353.96C175.422 354.71 175.851 355.315 176.431 355.776C177.01 356.236 177.749 356.466 178.647 356.466Z" fill="#0E0E0E"/>
<circle cx="1104" cy="321" r="105" fill="#EFEEEC"/>
<path d="M1113.71 277C1103.16 277 1094.19 285.118 1093.06 295.565C1082.62 296.694 1074.5 305.659 1074.5 316.212C1074.5 327.682 1083.82 337 1095.29 337C1105.84 337 1114.84 328.882 1115.94 318.435C1126.38 317.306 1134.5 308.341 1134.5 297.788C1134.5 286.318 1125.18 277 1113.71 277ZM1129.63 300.118C1128.61 307.071 1123.03 312.647 1116.08 313.671V300.118H1129.63ZM1079.37 313.882C1080.39 306.894 1085.97 301.318 1092.92 300.294V313.847H1079.37V313.882ZM1111.21 318.576C1110.04 326.447 1103.3 332.306 1095.29 332.306C1087.28 332.306 1080.54 326.447 1079.37 318.576H1111.21ZM1111.38 300.118V313.847H1097.62V300.118H1111.38ZM1129.63 295.424H1097.79C1098.96 287.553 1105.7 281.694 1113.71 281.694C1121.72 281.694 1128.46 287.553 1129.63 295.424Z" fill="#0E0E0E"/>
<path d="M1081.3 351C1081.11 350.426 1080.86 349.912 1080.56 349.457C1080.26 348.997 1079.9 348.605 1079.47 348.281C1079.06 347.957 1078.59 347.71 1078.06 347.54C1077.53 347.369 1076.95 347.284 1076.32 347.284C1075.29 347.284 1074.35 347.551 1073.5 348.085C1072.65 348.619 1071.98 349.406 1071.48 350.446C1070.98 351.486 1070.73 352.761 1070.73 354.273C1070.73 355.784 1070.98 357.06 1071.49 358.099C1071.99 359.139 1072.68 359.926 1073.54 360.46C1074.41 360.994 1075.38 361.261 1076.46 361.261C1077.46 361.261 1078.34 361.048 1079.1 360.622C1079.87 360.19 1080.46 359.582 1080.89 358.798C1081.32 358.009 1081.54 357.08 1081.54 356.011L1082.18 356.148H1076.93V354.273H1083.58V356.148C1083.58 357.585 1083.28 358.835 1082.66 359.898C1082.05 360.96 1081.21 361.784 1080.14 362.369C1079.07 362.949 1077.84 363.239 1076.46 363.239C1074.91 363.239 1073.55 362.875 1072.38 362.148C1071.22 361.42 1070.31 360.386 1069.66 359.045C1069.01 357.705 1068.68 356.114 1068.68 354.273C1068.68 352.892 1068.87 351.651 1069.24 350.548C1069.61 349.44 1070.14 348.497 1070.82 347.719C1071.51 346.94 1072.31 346.344 1073.24 345.929C1074.18 345.514 1075.2 345.307 1076.32 345.307C1077.24 345.307 1078.1 345.446 1078.9 345.724C1079.7 345.997 1080.41 346.386 1081.03 346.892C1081.67 347.392 1082.19 347.991 1082.61 348.69C1083.03 349.384 1083.32 350.153 1083.48 351H1081.3ZM1091.7 363.273C1090.44 363.273 1089.35 362.994 1088.43 362.438C1087.53 361.875 1086.82 361.091 1086.33 360.085C1085.84 359.074 1085.6 357.898 1085.6 356.557C1085.6 355.216 1085.84 354.034 1086.33 353.011C1086.82 351.983 1087.51 351.182 1088.39 350.608C1089.28 350.028 1090.31 349.739 1091.49 349.739C1092.18 349.739 1092.85 349.852 1093.51 350.08C1094.18 350.307 1094.78 350.676 1095.33 351.188C1095.87 351.693 1096.31 352.364 1096.63 353.199C1096.96 354.034 1097.12 355.062 1097.12 356.284V357.136H1087.03V355.398H1095.07C1095.07 354.659 1094.93 354 1094.63 353.42C1094.34 352.841 1093.93 352.384 1093.39 352.048C1092.85 351.713 1092.22 351.545 1091.49 351.545C1090.69 351.545 1090 351.744 1089.41 352.142C1088.83 352.534 1088.39 353.045 1088.08 353.676C1087.76 354.307 1087.61 354.983 1087.61 355.705V356.864C1087.61 357.852 1087.78 358.69 1088.12 359.378C1088.47 360.06 1088.95 360.58 1089.56 360.938C1090.17 361.29 1090.89 361.466 1091.7 361.466C1092.23 361.466 1092.7 361.392 1093.13 361.244C1093.56 361.091 1093.93 360.864 1094.25 360.562C1094.56 360.256 1094.8 359.875 1094.97 359.42L1096.91 359.966C1096.71 360.625 1096.37 361.205 1095.88 361.705C1095.4 362.199 1094.8 362.585 1094.09 362.864C1093.38 363.136 1092.58 363.273 1091.7 363.273ZM1099.46 363V349.909H1101.4V351.955H1101.57C1101.85 351.256 1102.29 350.713 1102.89 350.327C1103.5 349.935 1104.23 349.739 1105.08 349.739C1105.95 349.739 1106.67 349.935 1107.24 350.327C1107.82 350.713 1108.27 351.256 1108.6 351.955H1108.73C1109.07 351.278 1109.57 350.741 1110.24 350.344C1110.91 349.94 1111.71 349.739 1112.65 349.739C1113.82 349.739 1114.78 350.105 1115.52 350.838C1116.27 351.565 1116.64 352.699 1116.64 354.239V363H1114.63V354.239C1114.63 353.273 1114.36 352.582 1113.84 352.168C1113.31 351.753 1112.69 351.545 1111.97 351.545C1111.05 351.545 1110.34 351.824 1109.83 352.381C1109.33 352.932 1109.07 353.631 1109.07 354.477V363H1107.03V354.034C1107.03 353.29 1106.79 352.69 1106.3 352.236C1105.82 351.776 1105.2 351.545 1104.44 351.545C1103.91 351.545 1103.42 351.685 1102.97 351.963C1102.52 352.241 1102.16 352.628 1101.88 353.122C1101.61 353.611 1101.47 354.176 1101.47 354.818V363H1099.46ZM1119.6 363V349.909H1121.61V363H1119.6ZM1120.62 347.727C1120.23 347.727 1119.89 347.594 1119.61 347.327C1119.33 347.06 1119.19 346.739 1119.19 346.364C1119.19 345.989 1119.33 345.668 1119.61 345.401C1119.89 345.134 1120.23 345 1120.62 345C1121.01 345 1121.35 345.134 1121.63 345.401C1121.91 345.668 1122.05 345.989 1122.05 346.364C1122.05 346.739 1121.91 347.06 1121.63 347.327C1121.35 347.594 1121.01 347.727 1120.62 347.727ZM1126.58 355.125V363H1124.57V349.909H1126.52V351.955H1126.69C1126.99 351.29 1127.46 350.756 1128.08 350.352C1128.71 349.943 1129.52 349.739 1130.51 349.739C1131.39 349.739 1132.17 349.92 1132.83 350.284C1133.5 350.642 1134.01 351.188 1134.38 351.92C1134.75 352.648 1134.94 353.568 1134.94 354.682V363H1132.93V354.818C1132.93 353.79 1132.66 352.989 1132.12 352.415C1131.59 351.835 1130.86 351.545 1129.93 351.545C1129.28 351.545 1128.71 351.685 1128.2 351.963C1127.7 352.241 1127.31 352.648 1127.02 353.182C1126.73 353.716 1126.58 354.364 1126.58 355.125ZM1137.89 363V349.909H1139.9V363H1137.89ZM1138.92 347.727C1138.52 347.727 1138.19 347.594 1137.9 347.327C1137.62 347.06 1137.48 346.739 1137.48 346.364C1137.48 345.989 1137.62 345.668 1137.9 345.401C1138.19 345.134 1138.52 345 1138.92 345C1139.31 345 1139.64 345.134 1139.92 345.401C1140.2 345.668 1140.35 345.989 1140.35 346.364C1140.35 346.739 1140.2 347.06 1139.92 347.327C1139.64 347.594 1139.31 347.727 1138.92 347.727Z" fill="#0E0E0E"/>
<circle cx="905" cy="130" r="130" fill="#EFEEEC"/>
<path d="M906.112 110.545V122.163H922.587C921.864 125.9 919.693 129.064 916.437 131.191L926.372 138.745C932.16 133.509 935.5 125.818 935.5 116.682C935.5 114.555 935.305 112.509 934.943 110.546L906.112 110.545Z" fill="#0E0E0E"/>
<path d="M888.956 121.71L886.715 123.391L878.783 129.445C883.821 139.236 894.144 146 906.111 146C914.376 146 921.306 143.327 926.371 138.746L916.436 131.191C913.708 132.991 910.23 134.082 906.111 134.082C898.152 134.082 891.39 128.818 888.968 121.727L888.956 121.71Z" fill="#0E0E0E"/>
<path d="M878.784 102.555C876.697 106.591 875.5 111.145 875.5 116C875.5 120.854 876.696 125.409 878.783 129.445C878.783 129.473 888.969 121.7 888.969 121.7C888.357 119.9 887.995 117.991 887.995 115.999C887.995 114.008 888.357 112.099 888.969 110.299L878.784 102.555Z" fill="#0E0E0E"/>
<path d="M906.112 97.9454C910.62 97.9454 914.627 99.4727 917.828 102.418L926.594 93.8274C921.279 88.9729 914.377 86 906.112 86C894.145 86 883.821 92.7363 878.784 102.555L888.969 110.299C891.39 103.208 898.153 97.9454 906.112 97.9454Z" fill="#0E0E0E"/>
<path d="M880.463 160C880.275 159.426 880.028 158.912 879.721 158.457C879.42 157.997 879.059 157.605 878.639 157.281C878.224 156.957 877.752 156.71 877.224 156.54C876.696 156.369 876.116 156.284 875.485 156.284C874.451 156.284 873.511 156.551 872.664 157.085C871.818 157.619 871.144 158.406 870.644 159.446C870.144 160.486 869.894 161.761 869.894 163.273C869.894 164.784 870.147 166.06 870.653 167.099C871.159 168.139 871.843 168.926 872.707 169.46C873.571 169.994 874.542 170.261 875.622 170.261C876.622 170.261 877.502 170.048 878.264 169.622C879.031 169.19 879.627 168.582 880.054 167.798C880.485 167.009 880.701 166.08 880.701 165.011L881.349 165.148H876.099V163.273H882.747V165.148C882.747 166.585 882.44 167.835 881.826 168.898C881.218 169.96 880.377 170.784 879.304 171.369C878.235 171.949 877.008 172.239 875.622 172.239C874.076 172.239 872.718 171.875 871.548 171.148C870.383 170.42 869.474 169.386 868.821 168.045C868.173 166.705 867.849 165.114 867.849 163.273C867.849 161.892 868.034 160.651 868.403 159.548C868.778 158.44 869.306 157.497 869.988 156.719C870.67 155.94 871.477 155.344 872.409 154.929C873.34 154.514 874.366 154.307 875.485 154.307C876.406 154.307 877.264 154.446 878.059 154.724C878.86 154.997 879.573 155.386 880.198 155.892C880.829 156.392 881.355 156.991 881.775 157.69C882.196 158.384 882.485 159.153 882.644 160H880.463ZM890.692 172.273C889.51 172.273 888.473 171.991 887.581 171.429C886.695 170.866 886.002 170.08 885.502 169.068C885.008 168.057 884.76 166.875 884.76 165.523C884.76 164.159 885.008 162.969 885.502 161.952C886.002 160.935 886.695 160.145 887.581 159.582C888.473 159.02 889.51 158.739 890.692 158.739C891.874 158.739 892.908 159.02 893.794 159.582C894.687 160.145 895.38 160.935 895.874 161.952C896.374 162.969 896.624 164.159 896.624 165.523C896.624 166.875 896.374 168.057 895.874 169.068C895.38 170.08 894.687 170.866 893.794 171.429C892.908 171.991 891.874 172.273 890.692 172.273ZM890.692 170.466C891.59 170.466 892.329 170.236 892.908 169.776C893.488 169.315 893.917 168.71 894.195 167.96C894.473 167.21 894.613 166.398 894.613 165.523C894.613 164.648 894.473 163.832 894.195 163.077C893.917 162.321 893.488 161.71 892.908 161.244C892.329 160.778 891.59 160.545 890.692 160.545C889.794 160.545 889.056 160.778 888.476 161.244C887.897 161.71 887.468 162.321 887.189 163.077C886.911 163.832 886.772 164.648 886.772 165.523C886.772 166.398 886.911 167.21 887.189 167.96C887.468 168.71 887.897 169.315 888.476 169.776C889.056 170.236 889.794 170.466 890.692 170.466ZM904.293 172.273C903.111 172.273 902.074 171.991 901.182 171.429C900.295 170.866 899.602 170.08 899.102 169.068C898.608 168.057 898.361 166.875 898.361 165.523C898.361 164.159 898.608 162.969 899.102 161.952C899.602 160.935 900.295 160.145 901.182 159.582C902.074 159.02 903.111 158.739 904.293 158.739C905.474 158.739 906.508 159.02 907.395 159.582C908.287 160.145 908.98 160.935 909.474 161.952C909.974 162.969 910.224 164.159 910.224 165.523C910.224 166.875 909.974 168.057 909.474 169.068C908.98 170.08 908.287 170.866 907.395 171.429C906.508 171.991 905.474 172.273 904.293 172.273ZM904.293 170.466C905.19 170.466 905.929 170.236 906.508 169.776C907.088 169.315 907.517 168.71 907.795 167.96C908.074 167.21 908.213 166.398 908.213 165.523C908.213 164.648 908.074 163.832 907.795 163.077C907.517 162.321 907.088 161.71 906.508 161.244C905.929 160.778 905.19 160.545 904.293 160.545C903.395 160.545 902.656 160.778 902.077 161.244C901.497 161.71 901.068 162.321 900.79 163.077C900.511 163.832 900.372 164.648 900.372 165.523C900.372 166.398 900.511 167.21 900.79 167.96C901.068 168.71 901.497 169.315 902.077 169.776C902.656 170.236 903.395 170.466 904.293 170.466ZM917.859 177.182C916.887 177.182 916.052 177.057 915.353 176.807C914.654 176.562 914.072 176.239 913.606 175.835C913.146 175.438 912.779 175.011 912.506 174.557L914.109 173.432C914.291 173.67 914.521 173.943 914.799 174.25C915.077 174.562 915.458 174.832 915.941 175.06C916.43 175.293 917.069 175.409 917.859 175.409C918.916 175.409 919.788 175.153 920.475 174.642C921.163 174.131 921.506 173.33 921.506 172.239V169.58H921.336C921.188 169.818 920.978 170.114 920.705 170.466C920.438 170.812 920.052 171.122 919.546 171.395C919.046 171.662 918.37 171.795 917.518 171.795C916.461 171.795 915.512 171.545 914.671 171.045C913.836 170.545 913.174 169.818 912.685 168.864C912.202 167.909 911.961 166.75 911.961 165.386C911.961 164.045 912.197 162.878 912.668 161.884C913.14 160.884 913.796 160.111 914.637 159.565C915.478 159.014 916.45 158.739 917.552 158.739C918.404 158.739 919.08 158.881 919.58 159.165C920.086 159.443 920.472 159.761 920.739 160.119C921.012 160.472 921.222 160.761 921.37 160.989H921.575V158.909H923.518V172.375C923.518 173.5 923.262 174.415 922.751 175.119C922.245 175.83 921.563 176.349 920.705 176.679C919.853 177.014 918.904 177.182 917.859 177.182ZM917.791 169.989C918.597 169.989 919.279 169.804 919.836 169.435C920.393 169.065 920.816 168.534 921.106 167.841C921.396 167.148 921.541 166.318 921.541 165.352C921.541 164.409 921.399 163.577 921.114 162.855C920.83 162.134 920.41 161.568 919.853 161.159C919.296 160.75 918.609 160.545 917.791 160.545C916.938 160.545 916.228 160.761 915.66 161.193C915.097 161.625 914.674 162.205 914.39 162.932C914.112 163.659 913.972 164.466 913.972 165.352C913.972 166.261 914.114 167.065 914.399 167.764C914.688 168.457 915.114 169.003 915.677 169.401C916.245 169.793 916.95 169.989 917.791 169.989ZM928.491 154.545V172H926.48V154.545H928.491ZM936.944 172.273C935.682 172.273 934.594 171.994 933.679 171.438C932.77 170.875 932.069 170.091 931.574 169.085C931.086 168.074 930.841 166.898 930.841 165.557C930.841 164.216 931.086 163.034 931.574 162.011C932.069 160.983 932.756 160.182 933.637 159.608C934.523 159.028 935.557 158.739 936.739 158.739C937.421 158.739 938.094 158.852 938.759 159.08C939.424 159.307 940.029 159.676 940.574 160.188C941.12 160.693 941.554 161.364 941.878 162.199C942.202 163.034 942.364 164.062 942.364 165.284V166.136H932.273V164.398H940.319C940.319 163.659 940.171 163 939.875 162.42C939.586 161.841 939.171 161.384 938.631 161.048C938.097 160.713 937.466 160.545 936.739 160.545C935.938 160.545 935.245 160.744 934.66 161.142C934.08 161.534 933.634 162.045 933.321 162.676C933.009 163.307 932.853 163.983 932.853 164.705V165.864C932.853 166.852 933.023 167.69 933.364 168.378C933.711 169.06 934.191 169.58 934.804 169.938C935.418 170.29 936.131 170.466 936.944 170.466C937.472 170.466 937.949 170.392 938.375 170.244C938.807 170.091 939.179 169.864 939.492 169.562C939.804 169.256 940.046 168.875 940.216 168.42L942.16 168.966C941.955 169.625 941.611 170.205 941.128 170.705C940.645 171.199 940.049 171.585 939.338 171.864C938.628 172.136 937.83 172.273 936.944 172.273Z" fill="#0E0E0E"/>
<circle cx="646" cy="297" r="130" fill="#EFEEEC"/>
<path d="M665.945 313H655.461V261.11H650.78C642.209 261.11 637.725 265.396 637.725 271.791C637.725 279.044 640.824 282.407 647.22 286.692L652.494 290.253L637.329 313H626.055L639.703 292.692C631.857 287.088 627.439 281.615 627.439 272.385C627.439 260.846 635.483 253 650.714 253H665.879L665.945 313Z" fill="#0E0E0E"/>
<path d="M619.391 339H617.277V323.42H613.561C612.618 323.42 611.859 323.565 611.285 323.855C610.712 324.139 610.294 324.543 610.033 325.065C609.771 325.588 609.641 326.199 609.641 326.898C609.641 327.597 609.768 328.199 610.024 328.705C610.285 329.205 610.7 329.591 611.268 329.864C611.842 330.136 612.595 330.273 613.527 330.273H618.231V332.182H613.459C612.106 332.182 610.996 331.957 610.126 331.509C609.257 331.054 608.612 330.429 608.192 329.634C607.771 328.838 607.561 327.926 607.561 326.898C607.561 325.869 607.771 324.952 608.192 324.145C608.612 323.338 609.26 322.705 610.135 322.244C611.01 321.778 612.129 321.545 613.493 321.545H619.391V339ZM611.175 331.159H613.561L609.334 339H606.879L611.175 331.159ZM631.397 331.534V333.409H624.17V331.534H631.397ZM624.647 325.909V339H622.636V325.909H624.647ZM632.931 325.909V339H630.92V325.909H632.931ZM634.487 342.75V337.125H635.578C635.845 336.847 636.075 336.545 636.268 336.222C636.461 335.898 636.629 335.514 636.771 335.071C636.919 334.622 637.044 334.077 637.146 333.435C637.248 332.787 637.339 332.006 637.419 331.091L637.862 325.909H646.18V337.125H648.191V342.75H646.18V339H636.498V342.75H634.487ZM637.862 337.125H644.169V327.784H639.737L639.396 331.091C639.254 332.46 639.078 333.656 638.867 334.679C638.657 335.702 638.322 336.517 637.862 337.125ZM655.63 339.273C654.368 339.273 653.28 338.994 652.365 338.438C651.456 337.875 650.755 337.091 650.26 336.085C649.772 335.074 649.527 333.898 649.527 332.557C649.527 331.216 649.772 330.034 650.26 329.011C650.755 327.983 651.442 327.182 652.323 326.608C653.209 326.028 654.243 325.739 655.425 325.739C656.107 325.739 656.78 325.852 657.445 326.08C658.11 326.307 658.715 326.676 659.26 327.188C659.806 327.693 660.24 328.364 660.564 329.199C660.888 330.034 661.05 331.062 661.05 332.284V333.136H650.959V331.398H659.005C659.005 330.659 658.857 330 658.562 329.42C658.272 328.841 657.857 328.384 657.317 328.048C656.783 327.713 656.152 327.545 655.425 327.545C654.624 327.545 653.931 327.744 653.346 328.142C652.766 328.534 652.32 329.045 652.008 329.676C651.695 330.307 651.539 330.983 651.539 331.705V332.864C651.539 333.852 651.709 334.69 652.05 335.378C652.397 336.06 652.877 336.58 653.49 336.938C654.104 337.29 654.817 337.466 655.63 337.466C656.158 337.466 656.635 337.392 657.062 337.244C657.493 337.091 657.865 336.864 658.178 336.562C658.49 336.256 658.732 335.875 658.902 335.42L660.846 335.966C660.641 336.625 660.297 337.205 659.814 337.705C659.331 338.199 658.735 338.585 658.025 338.864C657.314 339.136 656.516 339.273 655.63 339.273ZM663.39 339V325.909H665.401V331.602H666.731L671.435 325.909H674.026L668.742 332.216L674.094 339H671.503L667.208 333.477H665.401V339H663.39ZM680.34 339.273C679.112 339.273 678.055 338.983 677.169 338.403C676.283 337.824 675.601 337.026 675.124 336.009C674.646 334.991 674.408 333.83 674.408 332.523C674.408 331.193 674.652 330.02 675.141 329.003C675.635 327.98 676.323 327.182 677.203 326.608C678.09 326.028 679.124 325.739 680.305 325.739C681.226 325.739 682.055 325.909 682.794 326.25C683.533 326.591 684.138 327.068 684.609 327.682C685.081 328.295 685.374 329.011 685.487 329.83H683.476C683.323 329.233 682.982 328.705 682.453 328.244C681.93 327.778 681.226 327.545 680.34 327.545C679.555 327.545 678.868 327.75 678.277 328.159C677.692 328.562 677.234 329.134 676.905 329.872C676.581 330.605 676.419 331.466 676.419 332.455C676.419 333.466 676.578 334.347 676.896 335.097C677.22 335.847 677.675 336.429 678.26 336.844C678.851 337.259 679.544 337.466 680.34 337.466C680.862 337.466 681.337 337.375 681.763 337.193C682.189 337.011 682.55 336.75 682.845 336.409C683.141 336.068 683.351 335.659 683.476 335.182H685.487C685.374 335.955 685.092 336.651 684.644 337.27C684.2 337.884 683.612 338.372 682.879 338.736C682.152 339.094 681.305 339.273 680.34 339.273Z" fill="#0E0E0E"/>
<defs>
<clipPath id="clip0_1889_2340">
<rect width="71" height="60" fill="white" transform="translate(77 272)"/>
</clipPath>
</defs>
</svg>
