<svg width="290" height="378" viewBox="0 0 290 378" fill="none" xmlns="http://www.w3.org/2000/svg">
<circle cx="64" cy="60" r="60" fill="#EFEEEC"/>
<g clip-path="url(#clip0_1892_2547)">
<path d="M60.1972 36.004C61.2108 35.994 62.2245 35.9935 63.2381 36.0024C63.8836 36.0067 64.6039 35.9614 65.2377 36.0847C65.7164 36.1779 66.1869 36.3689 66.5795 36.6589C67.211 37.1256 67.6689 37.8433 67.7816 38.6283C67.8906 39.3876 67.5993 40.2454 67.139 40.845C66.7655 41.3315 66.2574 41.6768 65.6747 41.8619C65.5644 41.8969 65.4292 41.9455 65.313 41.9475C65.0578 41.9521 64.7587 41.8003 64.5117 41.7301C63.8862 41.5522 63.2177 41.4131 62.6209 41.1554C62.1309 40.9437 61.6481 40.7058 61.168 40.4721C60.9091 40.3461 60.6258 40.1745 60.3483 40.0988C59.9731 39.9965 58.8095 40.0627 58.4053 40.1186C58.0801 40.1636 57.7581 40.2549 57.4408 40.3374C57.1455 40.4141 56.8416 40.4833 56.5554 40.5893C55.6618 40.9271 54.8819 41.5105 54.3057 42.2724C53.6074 43.2137 53.4137 44.4245 53.4057 45.5688C53.4038 45.8384 53.3954 46.1136 53.4371 46.3807C53.5775 47.2817 53.813 48.1894 54.2817 48.9805C54.4686 49.296 54.7136 49.5721 54.9526 49.8484C55.2003 50.135 55.4433 50.4341 55.7191 50.6942C55.9359 50.8986 56.1798 51.081 56.4123 51.2674C57.1718 51.8764 57.9127 52.3837 58.7039 52.9427C59.3398 53.4011 59.9719 53.8648 60.6001 54.3338C60.3776 54.5857 60.2049 54.8926 60.0197 55.1723L59.0873 56.5738C57.8164 58.4969 56.5355 60.4134 55.2445 62.3231C54.806 62.9886 54.3415 63.6408 53.886 64.2948C53.6104 64.6904 53.3424 65.139 53.0128 65.4902C51.2192 65.4662 49.4257 65.4965 47.6328 65.4157C47.7657 65.0467 48.1667 64.5342 48.3834 64.1829C49.5801 62.2428 50.8817 60.3776 52.156 58.4884C52.8226 57.5001 53.4197 56.4661 54.102 55.489C53.4448 54.9123 52.7063 54.4114 52.0769 53.8047C51.7801 53.5185 51.4955 53.217 51.2069 52.9225C50.9222 52.6321 50.6224 52.3436 50.3679 52.026C48.9799 50.2934 48.236 48.0218 48.2005 45.8091C48.1551 44.0615 48.581 42.3338 49.4334 40.8075C49.5788 40.547 49.7194 40.2779 49.8939 40.0357C50.1946 39.6183 50.585 39.2147 50.9447 38.8459C51.2489 38.534 51.598 38.2927 51.9524 38.043C52.1983 37.8696 52.4425 37.6859 52.7042 37.5367C53.2095 37.2484 54.1302 36.8538 54.6919 36.6928C55.0954 36.5771 55.5176 36.4993 55.9279 36.4082C56.297 36.3262 56.6677 36.2343 57.0429 36.185C58.0835 36.048 59.149 36.0192 60.1972 36.004Z" fill="#0E0E0E"/>
<path d="M64.6385 51.6831C66.3435 51.4427 67.9181 52.6367 68.1467 54.3434C68.3753 56.0499 67.1704 57.6163 65.4623 57.8331C63.7708 58.0478 62.223 56.8572 61.9966 55.1671C61.7702 53.4771 62.9501 51.9211 64.6385 51.6831Z" fill="#0E0E0E"/>
<path d="M64.653 43.6179C66.3482 43.3896 67.9075 44.5783 68.1363 46.2734C68.3651 47.9685 67.1767 49.5281 65.4817 49.7573C63.7861 49.9866 62.2258 48.7976 61.997 47.102C61.7681 45.4064 62.9573 43.8464 64.653 43.6179Z" fill="#0E0E0E"/>
<path d="M64.5819 59.6435C66.174 59.4844 67.5944 60.6442 67.7569 62.2359C67.9194 63.8277 66.7627 65.2505 65.1713 65.4164C63.5751 65.5828 62.147 64.4218 61.984 62.8253C61.821 61.2287 62.985 59.8031 64.5819 59.6435Z" fill="#0E0E0E"/>
<path d="M72.2566 52.2686C73.6345 52.0838 74.8991 53.0571 75.073 54.4365C75.2469 55.8158 74.2635 57.0726 72.8829 57.2356C71.5176 57.3967 70.2779 56.4267 70.1059 55.0628C69.9339 53.6988 70.8941 52.4514 72.2566 52.2686Z" fill="#0E0E0E"/>
<path d="M72.3609 44.2141C73.7424 44.0853 74.9643 45.1065 75.0827 46.4889C75.2013 47.8713 74.171 49.0855 72.7877 49.1937C71.419 49.3007 70.2203 48.2836 70.103 46.9157C69.9858 45.5479 70.9939 44.3416 72.3609 44.2141Z" fill="#0E0E0E"/>
<path d="M71.1763 60.4621C72.3268 60.3561 73.3458 61.2016 73.4541 62.3518C73.5624 63.5021 72.719 64.5229 71.569 64.6334C70.4156 64.7443 69.3914 63.898 69.2828 62.7445C69.1742 61.591 70.0226 60.5684 71.1763 60.4621Z" fill="#0E0E0E"/>
<path d="M71.5486 36.8592C72.6867 36.9562 73.5342 37.9519 73.4483 39.0908C73.3624 40.2299 72.3751 41.0871 71.2354 41.0123C70.0797 40.9365 69.208 39.9324 69.2951 38.7776C69.3822 37.6228 70.3947 36.7609 71.5486 36.8592Z" fill="#0E0E0E"/>
<path d="M77.9982 48.1896C77.2501 47.8366 76.8723 46.9897 77.1095 46.1972C77.3467 45.4047 78.1276 44.9046 78.9466 45.0206C79.7657 45.1365 80.3769 45.8338 80.3847 46.661C80.3926 47.4882 79.7946 48.1969 78.9779 48.3283C78.9368 48.3463 78.9498 48.3378 78.9176 48.3607C78.8507 48.408 78.7705 48.4751 78.6857 48.4837C78.5767 48.4947 78.466 48.3815 78.3869 48.3176C78.2526 48.291 78.1221 48.248 77.9982 48.1896Z" fill="#0E0E0E"/>
<path d="M78.6764 53.0941C79.5873 53.0749 80.3445 53.7917 80.3752 54.7024C80.4058 55.6131 79.6985 56.3791 78.7882 56.4212C78.1893 56.4489 77.6216 56.1522 77.3024 55.6446C76.9832 55.1369 76.9616 54.4969 77.246 53.9689C77.5304 53.441 78.0768 53.1068 78.6764 53.0941Z" fill="#0E0E0E"/>
<path d="M76.6424 61.2658C77.3443 61.2536 77.9221 61.8149 77.9303 62.5169C77.9384 63.2189 77.3738 63.7934 76.6718 63.7975C75.9755 63.8016 75.4066 63.2425 75.3985 62.5463C75.3904 61.85 75.9462 61.2779 76.6424 61.2658Z" fill="#0E0E0E"/>
<path d="M76.4956 37.6526C77.1759 37.5585 77.8052 38.0296 77.9066 38.7089C78.0081 39.3881 77.5439 40.0225 76.8658 40.1312C76.4205 40.2027 75.9712 40.0294 75.6892 39.6775C75.4073 39.3255 75.3362 38.8492 75.503 38.4303C75.6698 38.0114 76.0489 37.7144 76.4956 37.6526Z" fill="#0E0E0E"/>
</g>
<path d="M27.8494 70.8182V81H26.6165V71.9119H21.4858V81H20.2528V70.8182H27.8494ZM33.2797 81.1591C32.5903 81.1591 31.9854 80.995 31.465 80.6669C30.948 80.3388 30.5436 79.8797 30.252 79.2898C29.9636 78.6998 29.8194 78.0104 29.8194 77.2216C29.8194 76.4261 29.9636 75.7318 30.252 75.1385C30.5436 74.5452 30.948 74.0845 31.465 73.7564C31.9854 73.4283 32.5903 73.2642 33.2797 73.2642C33.969 73.2642 34.5723 73.4283 35.0893 73.7564C35.6097 74.0845 36.014 74.5452 36.3024 75.1385C36.594 75.7318 36.7399 76.4261 36.7399 77.2216C36.7399 78.0104 36.594 78.6998 36.3024 79.2898C36.014 79.8797 35.6097 80.3388 35.0893 80.6669C34.5723 80.995 33.969 81.1591 33.2797 81.1591ZM33.2797 80.1051C33.8033 80.1051 34.2342 79.9709 34.5723 79.7024C34.9103 79.4339 35.1606 79.081 35.323 78.6435C35.4854 78.206 35.5666 77.732 35.5666 77.2216C35.5666 76.7112 35.4854 76.2356 35.323 75.7947C35.1606 75.3539 34.9103 74.9976 34.5723 74.7259C34.2342 74.4541 33.8033 74.3182 33.2797 74.3182C32.756 74.3182 32.3251 74.4541 31.987 74.7259C31.649 74.9976 31.3987 75.3539 31.2363 75.7947C31.0739 76.2356 30.9927 76.7112 30.9927 77.2216C30.9927 77.732 31.0739 78.206 31.2363 78.6435C31.3987 79.081 31.649 79.4339 31.987 79.7024C32.3251 79.9709 32.756 80.1051 33.2797 80.1051ZM39.7042 79.2699L43.3832 73.3636H44.7354V81H43.5621V75.0938L39.9031 81H38.5309V73.3636H39.7042V79.2699ZM49.9867 81.1591C49.2708 81.1591 48.6543 80.9901 48.1373 80.652C47.6202 80.3139 47.2225 79.8482 46.9441 79.255C46.6657 78.6617 46.5265 77.9839 46.5265 77.2216C46.5265 76.446 46.669 75.7616 46.954 75.1683C47.2424 74.5717 47.6434 74.1061 48.1571 73.7713C48.6742 73.4332 49.2774 73.2642 49.9668 73.2642C50.5037 73.2642 50.9876 73.3636 51.4185 73.5625C51.8494 73.7614 52.2024 74.0398 52.4775 74.3977C52.7525 74.7557 52.9232 75.1733 52.9895 75.6506H51.8162C51.7267 75.3026 51.5279 74.9943 51.2196 74.7259C50.9147 74.4541 50.5037 74.3182 49.9867 74.3182C49.5293 74.3182 49.1283 74.4375 48.7836 74.6761C48.4422 74.9115 48.1754 75.2446 47.9831 75.6754C47.7942 76.103 47.6998 76.6051 47.6998 77.1818C47.6998 77.7718 47.7926 78.2855 47.9782 78.723C48.1671 79.1605 48.4322 79.5002 48.7736 79.7422C49.1183 79.9841 49.5227 80.1051 49.9867 80.1051C50.2916 80.1051 50.5684 80.0521 50.8169 79.946C51.0655 79.84 51.276 79.6875 51.4483 79.4886C51.6207 79.2898 51.7433 79.0511 51.8162 78.7727H52.9895C52.9232 79.2235 52.7592 79.6295 52.4973 79.9908C52.2388 80.3487 51.8958 80.6338 51.4682 80.8459C51.044 81.0547 50.5501 81.1591 49.9867 81.1591ZM54.7047 81V73.3636H55.878V76.6847H56.6536L59.3979 73.3636H60.9093L57.8269 77.0426L60.949 81H59.4377L56.932 77.7784H55.878V81H54.7047ZM66.3208 81V70.8182H67.5538V75.3523H72.9828V70.8182H74.2157V81H72.9828V76.446H67.5538V81H66.3208ZM79.7267 81.1591C78.9909 81.1591 78.3562 80.9967 77.8226 80.6719C77.2923 80.3438 76.883 79.8864 76.5946 79.2997C76.3096 78.7098 76.1671 78.0237 76.1671 77.2415C76.1671 76.4593 76.3096 75.7699 76.5946 75.1733C76.883 74.5734 77.284 74.1061 77.7978 73.7713C78.3148 73.4332 78.918 73.2642 79.6074 73.2642C80.0051 73.2642 80.3979 73.3305 80.7857 73.4631C81.1735 73.5956 81.5265 73.8111 81.8446 74.1094C82.1628 74.4044 82.4164 74.7955 82.6053 75.2827C82.7942 75.7699 82.8887 76.3698 82.8887 77.0824V77.5795H77.0023V76.5653H81.6955C81.6955 76.1345 81.6093 75.75 81.437 75.4119C81.2679 75.0739 81.026 74.8071 80.7111 74.6115C80.3996 74.416 80.0317 74.3182 79.6074 74.3182C79.1401 74.3182 78.7357 74.4342 78.3944 74.6662C78.0563 74.8949 77.7961 75.1932 77.6138 75.5611C77.4315 75.929 77.3404 76.3234 77.3404 76.7443V77.4205C77.3404 77.9972 77.4398 78.486 77.6387 78.8871C77.8408 79.2848 78.1209 79.5881 78.4789 79.7969C78.8368 80.0024 79.2528 80.1051 79.7267 80.1051C80.035 80.1051 80.3134 80.062 80.562 79.9759C80.8139 79.8864 81.031 79.7538 81.2132 79.5781C81.3955 79.3991 81.5364 79.1771 81.6358 78.9119L82.7694 79.2301C82.65 79.6146 82.4495 79.9527 82.1678 80.2443C81.8861 80.5327 81.5381 80.758 81.1238 80.9205C80.7095 81.0795 80.2438 81.1591 79.7267 81.1591ZM85.8468 79.2699L89.5257 73.3636H90.878V81H89.7047V75.0938L86.0456 81H84.6735V73.3636H85.8468V79.2699ZM88.7502 70.8182H89.8439C89.8439 71.3551 89.6583 71.7943 89.2871 72.1357C88.9159 72.477 88.4121 72.6477 87.7757 72.6477C87.1493 72.6477 86.6505 72.477 86.2793 72.1357C85.9114 71.7943 85.7275 71.3551 85.7275 70.8182H86.8212C86.8212 71.0767 86.8925 71.3037 87.035 71.4993C87.1808 71.6948 87.4277 71.7926 87.7757 71.7926C88.1238 71.7926 88.3723 71.6948 88.5215 71.4993C88.6739 71.3037 88.7502 71.0767 88.7502 70.8182ZM93.027 83.8636V73.3636H94.1605V74.5767H94.2997C94.3859 74.4441 94.5052 74.2751 94.6577 74.0696C94.8134 73.8608 95.0355 73.6752 95.3239 73.5128C95.6155 73.3471 96.0099 73.2642 96.5071 73.2642C97.1501 73.2642 97.7169 73.425 98.2074 73.7464C98.6979 74.0679 99.0807 74.5237 99.3558 75.1136C99.6309 75.7036 99.7685 76.3996 99.7685 77.2017C99.7685 78.0104 99.6309 78.7114 99.3558 79.3047C99.0807 79.8946 98.6996 80.352 98.2124 80.6768C97.7251 80.9983 97.1634 81.1591 96.527 81.1591C96.0365 81.1591 95.6437 81.0779 95.3487 80.9155C95.0537 80.7498 94.8267 80.5625 94.6676 80.3537C94.5085 80.1416 94.3859 79.9659 94.2997 79.8267H94.2003V83.8636H93.027ZM94.1804 77.1818C94.1804 77.7585 94.2649 78.2673 94.4339 78.7081C94.603 79.1456 94.8499 79.4886 95.1747 79.7372C95.4995 79.9825 95.8973 80.1051 96.3679 80.1051C96.8584 80.1051 97.2678 79.9759 97.5959 79.7173C97.9273 79.4555 98.1759 79.1042 98.3416 78.6634C98.5107 78.2192 98.5952 77.7254 98.5952 77.1818C98.5952 76.6449 98.5123 76.161 98.3466 75.7301C98.1842 75.2959 97.9373 74.9529 97.6058 74.701C97.2777 74.4458 96.8651 74.3182 96.3679 74.3182C95.8906 74.3182 95.4896 74.4392 95.1648 74.6811C94.84 74.9197 94.5947 75.2545 94.429 75.6854C94.2633 76.1129 94.1804 76.6117 94.1804 77.1818ZM104.661 81.1591C103.971 81.1591 103.366 80.995 102.846 80.6669C102.329 80.3388 101.924 79.8797 101.633 79.2898C101.344 78.6998 101.2 78.0104 101.2 77.2216C101.2 76.4261 101.344 75.7318 101.633 75.1385C101.924 74.5452 102.329 74.0845 102.846 73.7564C103.366 73.4283 103.971 73.2642 104.661 73.2642C105.35 73.2642 105.953 73.4283 106.47 73.7564C106.991 74.0845 107.395 74.5452 107.683 75.1385C107.975 75.7318 108.121 76.4261 108.121 77.2216C108.121 78.0104 107.975 78.6998 107.683 79.2898C107.395 79.8797 106.991 80.3388 106.47 80.6669C105.953 80.995 105.35 81.1591 104.661 81.1591ZM104.661 80.1051C105.184 80.1051 105.615 79.9709 105.953 79.7024C106.291 79.4339 106.541 79.081 106.704 78.6435C106.866 78.206 106.947 77.732 106.947 77.2216C106.947 76.7112 106.866 76.2356 106.704 75.7947C106.541 75.3539 106.291 74.9976 105.953 74.7259C105.615 74.4541 105.184 74.3182 104.661 74.3182C104.137 74.3182 103.706 74.4541 103.368 74.7259C103.03 74.9976 102.78 75.3539 102.617 75.7947C102.455 76.2356 102.374 76.7112 102.374 77.2216C102.374 77.732 102.455 78.206 102.617 78.6435C102.78 79.081 103.03 79.4339 103.368 79.7024C103.706 79.9709 104.137 80.1051 104.661 80.1051Z" fill="#0E0E0E"/>
<circle cx="175" cy="323" r="55" fill="#EFEEEC"/>
<path d="M174.09 300.965C171.399 300.965 169.094 302.65 168.166 305.018C166.224 305.278 164.488 306.411 163.489 308.141C162.144 310.471 162.451 313.308 164.036 315.296C163.29 317.107 163.403 319.177 164.4 320.907C165.746 323.238 168.359 324.391 170.875 324.011C172.07 325.563 173.918 326.501 175.916 326.501C178.606 326.501 180.911 324.815 181.839 322.447C183.782 322.188 185.517 321.055 186.516 319.324C187.861 316.994 187.555 314.157 185.969 312.169C186.715 310.358 186.603 308.288 185.605 306.558C184.259 304.228 181.646 303.074 179.131 303.455C177.935 301.903 176.087 300.965 174.09 300.965ZM174.09 302.929C175.225 302.929 176.29 303.376 177.095 304.134C177.034 304.167 176.97 304.193 176.909 304.228L172.549 306.746C172.095 307.008 171.815 307.492 171.813 308.016L171.786 313.877L169.689 312.653V307.33C169.689 304.904 171.664 302.929 174.09 302.929ZM180.397 305.352C181.806 305.452 183.145 306.228 183.903 307.541C184.471 308.524 184.617 309.669 184.364 310.746C184.304 310.709 184.249 310.666 184.187 310.631L179.825 308.112C179.371 307.851 178.812 307.85 178.358 308.11L173.27 311.018L173.282 308.592L177.892 305.929C178.679 305.474 179.551 305.292 180.397 305.352ZM167.734 307.121C167.732 307.19 167.725 307.259 167.725 307.33V312.365C167.725 312.889 168.003 313.375 168.456 313.639L173.518 316.591L171.412 317.794L166.8 315.133C164.699 313.92 163.978 311.222 165.191 309.121C165.758 308.139 166.676 307.439 167.734 307.121ZM178.594 309.672L183.205 312.332C185.306 313.545 186.027 316.243 184.814 318.344C184.247 319.327 183.329 320.026 182.271 320.345C182.273 320.275 182.28 320.206 182.28 320.136V315.1C182.28 314.576 182.002 314.091 181.55 313.827L176.487 310.875L178.594 309.672ZM175.012 311.717L176.752 312.731L176.742 314.749L174.993 315.749L173.253 314.732L173.263 312.716L175.012 311.717ZM178.22 313.589L180.316 314.813V320.136C180.316 322.562 178.342 324.536 175.916 324.536C174.78 324.536 173.715 324.09 172.91 323.332C172.971 323.299 173.035 323.273 173.096 323.238L177.456 320.719C177.91 320.458 178.191 319.974 178.193 319.449L178.22 313.589ZM176.735 316.447L176.723 318.874L172.114 321.536C170.013 322.749 167.315 322.026 166.102 319.925C165.534 318.942 165.388 317.796 165.642 316.719C165.702 316.757 165.756 316.799 165.818 316.835L170.18 319.353C170.634 319.614 171.193 319.615 171.648 319.355L176.735 316.447Z" fill="#0E0E0E"/>
<path d="M154.426 336H153.193C153.12 335.645 152.993 335.334 152.81 335.065C152.631 334.797 152.413 334.571 152.154 334.389C151.899 334.204 151.616 334.064 151.304 333.972C150.992 333.879 150.668 333.832 150.33 333.832C149.713 333.832 149.155 333.988 148.654 334.3C148.157 334.611 147.761 335.07 147.466 335.677C147.174 336.283 147.028 337.027 147.028 337.909C147.028 338.791 147.174 339.535 147.466 340.141C147.761 340.748 148.157 341.207 148.654 341.518C149.155 341.83 149.713 341.986 150.33 341.986C150.668 341.986 150.992 341.939 151.304 341.847C151.616 341.754 151.899 341.616 152.154 341.434C152.413 341.248 152.631 341.021 152.81 340.753C152.993 340.481 153.12 340.17 153.193 339.818H154.426C154.333 340.339 154.164 340.804 153.919 341.215C153.674 341.626 153.369 341.976 153.004 342.264C152.64 342.549 152.23 342.766 151.776 342.915C151.326 343.065 150.843 343.139 150.33 343.139C149.461 343.139 148.689 342.927 148.013 342.503C147.337 342.079 146.805 341.475 146.417 340.693C146.029 339.911 145.835 338.983 145.835 337.909C145.835 336.835 146.029 335.907 146.417 335.125C146.805 334.343 147.337 333.74 148.013 333.315C148.689 332.891 149.461 332.679 150.33 332.679C150.843 332.679 151.326 332.754 151.776 332.903C152.23 333.052 152.64 333.271 153.004 333.559C153.369 333.844 153.674 334.192 153.919 334.603C154.164 335.011 154.333 335.476 154.426 336ZM157.433 338.406V343H156.259V332.818H157.433V336.557H157.532C157.711 336.162 157.98 335.849 158.338 335.617C158.699 335.382 159.179 335.264 159.779 335.264C160.3 335.264 160.755 335.369 161.146 335.577C161.538 335.783 161.841 336.099 162.056 336.527C162.275 336.951 162.384 337.491 162.384 338.148V343H161.211V338.227C161.211 337.621 161.054 337.152 160.739 336.82C160.427 336.486 159.995 336.318 159.441 336.318C159.057 336.318 158.712 336.399 158.407 336.562C158.106 336.724 157.867 336.961 157.691 337.273C157.519 337.584 157.433 337.962 157.433 338.406ZM166.778 343.179C166.294 343.179 165.855 343.088 165.461 342.906C165.066 342.72 164.753 342.453 164.521 342.105C164.289 341.754 164.173 341.33 164.173 340.832C164.173 340.395 164.259 340.04 164.431 339.768C164.604 339.493 164.834 339.278 165.123 339.122C165.411 338.966 165.729 338.85 166.077 338.774C166.428 338.695 166.781 338.632 167.136 338.585C167.6 338.526 167.976 338.481 168.265 338.451C168.556 338.418 168.768 338.363 168.901 338.287C169.037 338.211 169.105 338.078 169.105 337.889V337.849C169.105 337.359 168.971 336.978 168.702 336.706C168.437 336.434 168.034 336.298 167.494 336.298C166.934 336.298 166.495 336.421 166.176 336.666C165.858 336.911 165.635 337.173 165.505 337.452L164.392 337.054C164.591 336.59 164.856 336.229 165.187 335.97C165.522 335.708 165.886 335.526 166.281 335.423C166.679 335.317 167.07 335.264 167.454 335.264C167.699 335.264 167.981 335.294 168.299 335.354C168.621 335.41 168.931 335.528 169.229 335.707C169.531 335.886 169.781 336.156 169.98 336.517C170.179 336.878 170.278 337.362 170.278 337.969V343H169.105V341.966H169.045C168.966 342.132 168.833 342.309 168.647 342.498C168.462 342.687 168.215 342.848 167.907 342.98C167.598 343.113 167.222 343.179 166.778 343.179ZM166.957 342.125C167.421 342.125 167.812 342.034 168.13 341.852C168.452 341.669 168.694 341.434 168.856 341.146C169.022 340.857 169.105 340.554 169.105 340.236V339.162C169.055 339.222 168.946 339.276 168.777 339.326C168.611 339.372 168.419 339.414 168.2 339.45C167.984 339.483 167.774 339.513 167.569 339.54C167.366 339.563 167.202 339.583 167.076 339.599C166.771 339.639 166.486 339.704 166.221 339.793C165.959 339.879 165.747 340.01 165.585 340.186C165.426 340.358 165.346 340.594 165.346 340.892C165.346 341.3 165.497 341.608 165.799 341.817C166.104 342.022 166.49 342.125 166.957 342.125ZM175.741 335.364V336.358H171.783V335.364H175.741ZM172.937 333.534H174.11V340.812C174.11 341.144 174.158 341.393 174.254 341.558C174.354 341.721 174.479 341.83 174.632 341.886C174.788 341.939 174.952 341.966 175.124 341.966C175.253 341.966 175.359 341.959 175.442 341.946C175.525 341.929 175.591 341.916 175.641 341.906L175.88 342.96C175.8 342.99 175.689 343.02 175.547 343.05C175.404 343.083 175.224 343.099 175.005 343.099C174.673 343.099 174.349 343.028 174.03 342.886C173.715 342.743 173.454 342.526 173.245 342.234C173.039 341.943 172.937 341.575 172.937 341.131V333.534ZM184.625 336C184.515 335.665 184.371 335.365 184.192 335.1C184.017 334.832 183.806 334.603 183.561 334.414C183.319 334.225 183.044 334.081 182.736 333.982C182.427 333.882 182.089 333.832 181.721 333.832C181.118 333.832 180.57 333.988 180.076 334.3C179.582 334.611 179.189 335.07 178.898 335.677C178.606 336.283 178.46 337.027 178.46 337.909C178.46 338.791 178.608 339.535 178.903 340.141C179.198 340.748 179.597 341.207 180.101 341.518C180.604 341.83 181.171 341.986 181.801 341.986C182.384 341.986 182.898 341.862 183.342 341.613C183.79 341.361 184.138 341.006 184.386 340.549C184.638 340.088 184.764 339.546 184.764 338.923L185.142 339.003H182.079V337.909H185.957V339.003C185.957 339.841 185.778 340.571 185.42 341.19C185.066 341.81 184.575 342.291 183.949 342.632C183.326 342.97 182.61 343.139 181.801 343.139C180.899 343.139 180.107 342.927 179.425 342.503C178.745 342.079 178.215 341.475 177.834 340.693C177.456 339.911 177.267 338.983 177.267 337.909C177.267 337.104 177.375 336.379 177.59 335.737C177.809 335.09 178.117 334.54 178.515 334.086C178.912 333.632 179.383 333.284 179.927 333.042C180.47 332.8 181.068 332.679 181.721 332.679C182.258 332.679 182.759 332.76 183.223 332.923C183.69 333.082 184.106 333.309 184.471 333.604C184.839 333.895 185.145 334.245 185.39 334.653C185.636 335.057 185.805 335.506 185.898 336H184.625ZM188.069 343V332.818H191.509C192.308 332.818 192.961 332.962 193.468 333.251C193.978 333.536 194.356 333.922 194.602 334.409C194.847 334.896 194.969 335.44 194.969 336.04C194.969 336.64 194.847 337.185 194.602 337.675C194.36 338.166 193.985 338.557 193.478 338.849C192.971 339.137 192.321 339.281 191.529 339.281H189.063V338.188H191.489C192.036 338.188 192.475 338.093 192.807 337.904C193.138 337.715 193.379 337.46 193.528 337.138C193.68 336.814 193.756 336.447 193.756 336.04C193.756 335.632 193.68 335.268 193.528 334.946C193.379 334.625 193.137 334.373 192.802 334.19C192.467 334.005 192.023 333.912 191.469 333.912H189.302V343H188.069ZM196.399 333.912V332.818H204.035V333.912H200.833V343H199.6V333.912H196.399Z" fill="#0E0E0E"/>
<circle cx="212" cy="72" r="70" fill="#EFEEEC"/>
<path d="M222.737 79.3077H217.092V51.3669H214.571C209.956 51.3669 207.542 53.6746 207.542 57.1183C207.542 61.0237 209.21 62.8343 212.654 65.142L215.494 67.0592L207.329 79.3077H201.258L208.607 68.3728C204.382 65.355 202.003 62.4083 202.003 57.4379C202.003 51.2249 206.335 47 214.536 47H222.702L222.737 79.3077Z" fill="#0E0E0E"/>
<path d="M195.153 95H193.92V85.9119H191.753C191.203 85.9119 190.76 85.9964 190.425 86.1655C190.091 86.3312 189.847 86.5665 189.695 86.8714C189.542 87.1764 189.466 87.5327 189.466 87.9403C189.466 88.348 189.54 88.6993 189.69 88.9943C189.842 89.286 190.084 89.5114 190.415 89.6705C190.75 89.8295 191.189 89.9091 191.733 89.9091H194.477V91.0227H191.693C190.904 91.0227 190.256 90.8918 189.749 90.63C189.242 90.3648 188.866 90.0002 188.621 89.5362C188.375 89.0722 188.253 88.5402 188.253 87.9403C188.253 87.3404 188.375 86.8052 188.621 86.3345C188.866 85.8639 189.244 85.4943 189.754 85.2259C190.265 84.9541 190.918 84.8182 191.713 84.8182H195.153V95ZM190.361 90.4261H191.753L189.287 95H187.855L190.361 90.4261ZM202.577 90.6449V91.7386H198.361V90.6449H202.577ZM198.64 87.3636V95H197.466V87.3636H198.64ZM203.472 87.3636V95H202.299V87.3636H203.472ZM204.8 97.1875V93.9062H205.436C205.592 93.7438 205.726 93.5682 205.839 93.3793C205.951 93.1903 206.049 92.9666 206.132 92.7081C206.218 92.4463 206.291 92.1281 206.351 91.7536C206.41 91.3757 206.463 90.92 206.51 90.3864L206.768 87.3636H211.621V93.9062H212.794V97.1875H211.621V95H205.973V97.1875H204.8ZM206.768 93.9062H210.447V88.4574H207.862L207.663 90.3864C207.58 91.1851 207.478 91.8828 207.355 92.4794C207.232 93.076 207.037 93.5516 206.768 93.9062ZM217.553 95.1591C216.817 95.1591 216.182 94.9967 215.649 94.6719C215.118 94.3438 214.709 93.8864 214.421 93.2997C214.136 92.7098 213.993 92.0237 213.993 91.2415C213.993 90.4593 214.136 89.7699 214.421 89.1733C214.709 88.5734 215.11 88.1061 215.624 87.7713C216.141 87.4332 216.744 87.2642 217.434 87.2642C217.831 87.2642 218.224 87.3305 218.612 87.4631C219 87.5956 219.353 87.8111 219.671 88.1094C219.989 88.4044 220.243 88.7955 220.431 89.2827C220.62 89.7699 220.715 90.3698 220.715 91.0824V91.5795H214.828V90.5653H219.522C219.522 90.1345 219.435 89.75 219.263 89.4119C219.094 89.0739 218.852 88.8071 218.537 88.6115C218.226 88.416 217.858 88.3182 217.434 88.3182C216.966 88.3182 216.562 88.4342 216.221 88.6662C215.882 88.8949 215.622 89.1932 215.44 89.5611C215.258 89.929 215.167 90.3234 215.167 90.7443V91.4205C215.167 91.9972 215.266 92.486 215.465 92.8871C215.667 93.2848 215.947 93.5881 216.305 93.7969C216.663 94.0024 217.079 94.1051 217.553 94.1051C217.861 94.1051 218.14 94.062 218.388 93.9759C218.64 93.8864 218.857 93.7538 219.039 93.5781C219.222 93.3991 219.363 93.1771 219.462 92.9119L220.596 93.2301C220.476 93.6146 220.276 93.9527 219.994 94.2443C219.712 94.5327 219.364 94.758 218.95 94.9205C218.536 95.0795 218.07 95.1591 217.553 95.1591ZM222.5 95V87.3636H223.673V90.6847H224.449L227.193 87.3636H228.704L225.622 91.0426L228.744 95H227.233L224.727 91.7784H223.673V95H222.5ZM232.807 95.1591C232.091 95.1591 231.475 94.9901 230.958 94.652C230.441 94.3139 230.043 93.8482 229.764 93.255C229.486 92.6617 229.347 91.9839 229.347 91.2216C229.347 90.446 229.489 89.7616 229.774 89.1683C230.063 88.5717 230.464 88.1061 230.977 87.7713C231.494 87.4332 232.098 87.2642 232.787 87.2642C233.324 87.2642 233.808 87.3636 234.239 87.5625C234.67 87.7614 235.023 88.0398 235.298 88.3977C235.573 88.7557 235.744 89.1733 235.81 89.6506H234.637C234.547 89.3026 234.348 88.9943 234.04 88.7259C233.735 88.4541 233.324 88.3182 232.807 88.3182C232.35 88.3182 231.949 88.4375 231.604 88.6761C231.262 88.9115 230.996 89.2446 230.803 89.6754C230.615 90.103 230.52 90.6051 230.52 91.1818C230.52 91.7718 230.613 92.2855 230.798 92.723C230.987 93.1605 231.253 93.5002 231.594 93.7422C231.939 93.9841 232.343 94.1051 232.807 94.1051C233.112 94.1051 233.389 94.0521 233.637 93.946C233.886 93.84 234.096 93.6875 234.269 93.4886C234.441 93.2898 234.564 93.0511 234.637 92.7727H235.81C235.744 93.2235 235.579 93.6295 235.318 93.9908C235.059 94.3487 234.716 94.6338 234.289 94.8459C233.864 95.0547 233.37 95.1591 232.807 95.1591Z" fill="#0E0E0E"/>
<circle cx="70" cy="220" r="70" fill="#EFEEEC"/>
<path d="M70.1553 208.217V214.473H78.849C78.4673 216.485 77.3217 218.188 75.6035 219.334L80.8461 223.401C83.9007 220.582 85.6629 216.441 85.6629 211.521C85.6629 210.376 85.5602 209.274 85.3692 208.217L70.1553 208.217Z" fill="#0E0E0E"/>
<path d="M61.1049 214.229L59.9225 215.134L55.7371 218.394C58.3952 223.666 63.843 227.308 70.1576 227.308C74.5191 227.308 78.1757 225.869 80.8485 223.402L75.6058 219.334C74.1667 220.303 72.331 220.89 70.1576 220.89C65.9577 220.89 62.3892 218.056 61.1115 214.238L61.1049 214.229Z" fill="#0E0E0E"/>
<path d="M55.7327 203.914C54.6314 206.087 54 208.54 54 211.154C54 213.768 54.6314 216.22 55.7327 218.394C55.7327 218.408 61.1077 214.223 61.1077 214.223C60.7846 213.254 60.5936 212.226 60.5936 211.154C60.5936 210.081 60.7846 209.054 61.1077 208.084L55.7327 203.914Z" fill="#0E0E0E"/>
<path d="M70.158 201.432C72.537 201.432 74.6517 202.255 76.3405 203.841L80.9663 199.215C78.1614 196.601 74.5196 195 70.158 195C63.8433 195 58.3952 198.627 55.7371 203.914L61.1119 208.085C62.3894 204.266 65.958 201.432 70.158 201.432Z" fill="#0E0E0E"/>
<path d="M54.1932 236C54.0838 235.665 53.9396 235.365 53.7607 235.1C53.585 234.832 53.3745 234.603 53.1293 234.414C52.8873 234.225 52.6122 234.081 52.304 233.982C51.9957 233.882 51.6577 233.832 51.2898 233.832C50.6866 233.832 50.138 233.988 49.6442 234.3C49.1503 234.611 48.7576 235.07 48.4659 235.677C48.1742 236.283 48.0284 237.027 48.0284 237.909C48.0284 238.791 48.1759 239.535 48.4709 240.141C48.7659 240.748 49.1652 241.207 49.669 241.518C50.1728 241.83 50.7396 241.986 51.3693 241.986C51.9527 241.986 52.4664 241.862 52.9105 241.613C53.358 241.361 53.706 241.006 53.9545 240.549C54.2064 240.088 54.3324 239.546 54.3324 238.923L54.7102 239.003H51.6477V237.909H55.5256V239.003C55.5256 239.841 55.3466 240.571 54.9886 241.19C54.634 241.81 54.1435 242.291 53.517 242.632C52.8939 242.97 52.178 243.139 51.3693 243.139C50.4678 243.139 49.6757 242.927 48.9929 242.503C48.3134 242.079 47.7831 241.475 47.402 240.693C47.0241 239.911 46.8352 238.983 46.8352 237.909C46.8352 237.104 46.9429 236.379 47.1584 235.737C47.3771 235.09 47.6854 234.54 48.0831 234.086C48.4808 233.632 48.9515 233.284 49.495 233.042C50.0386 232.8 50.6368 232.679 51.2898 232.679C51.8267 232.679 52.3272 232.76 52.7912 232.923C53.2585 233.082 53.6745 233.309 54.0391 233.604C54.407 233.895 54.7135 234.245 54.9588 234.653C55.2041 235.057 55.3731 235.506 55.4659 236H54.1932ZM60.5804 243.159C59.891 243.159 59.2862 242.995 58.7658 242.667C58.2488 242.339 57.8444 241.88 57.5527 241.29C57.2644 240.7 57.1202 240.01 57.1202 239.222C57.1202 238.426 57.2644 237.732 57.5527 237.138C57.8444 236.545 58.2488 236.085 58.7658 235.756C59.2862 235.428 59.891 235.264 60.5804 235.264C61.2698 235.264 61.873 235.428 62.3901 235.756C62.9105 236.085 63.3148 236.545 63.6032 237.138C63.8948 237.732 64.0407 238.426 64.0407 239.222C64.0407 240.01 63.8948 240.7 63.6032 241.29C63.3148 241.88 62.9105 242.339 62.3901 242.667C61.873 242.995 61.2698 243.159 60.5804 243.159ZM60.5804 242.105C61.1041 242.105 61.535 241.971 61.873 241.702C62.2111 241.434 62.4614 241.081 62.6238 240.643C62.7862 240.206 62.8674 239.732 62.8674 239.222C62.8674 238.711 62.7862 238.236 62.6238 237.795C62.4614 237.354 62.2111 236.998 61.873 236.726C61.535 236.454 61.1041 236.318 60.5804 236.318C60.0568 236.318 59.6259 236.454 59.2878 236.726C58.9498 236.998 58.6995 237.354 58.5371 237.795C58.3747 238.236 58.2935 238.711 58.2935 239.222C58.2935 239.732 58.3747 240.206 58.5371 240.643C58.6995 241.081 58.9498 241.434 59.2878 241.702C59.6259 241.971 60.0568 242.105 60.5804 242.105ZM68.9339 243.159C68.2446 243.159 67.6397 242.995 67.1193 242.667C66.6023 242.339 66.1979 241.88 65.9062 241.29C65.6179 240.7 65.4737 240.01 65.4737 239.222C65.4737 238.426 65.6179 237.732 65.9062 237.138C66.1979 236.545 66.6023 236.085 67.1193 235.756C67.6397 235.428 68.2446 235.264 68.9339 235.264C69.6233 235.264 70.2266 235.428 70.7436 235.756C71.264 236.085 71.6683 236.545 71.9567 237.138C72.2483 237.732 72.3942 238.426 72.3942 239.222C72.3942 240.01 72.2483 240.7 71.9567 241.29C71.6683 241.88 71.264 242.339 70.7436 242.667C70.2266 242.995 69.6233 243.159 68.9339 243.159ZM68.9339 242.105C69.4576 242.105 69.8885 241.971 70.2266 241.702C70.5646 241.434 70.8149 241.081 70.9773 240.643C71.1397 240.206 71.2209 239.732 71.2209 239.222C71.2209 238.711 71.1397 238.236 70.9773 237.795C70.8149 237.354 70.5646 236.998 70.2266 236.726C69.8885 236.454 69.4576 236.318 68.9339 236.318C68.4103 236.318 67.9794 236.454 67.6413 236.726C67.3033 236.998 67.053 237.354 66.8906 237.795C66.7282 238.236 66.647 238.711 66.647 239.222C66.647 239.732 66.7282 240.206 66.8906 240.643C67.053 241.081 67.3033 241.434 67.6413 241.702C67.9794 241.971 68.4103 242.105 68.9339 242.105ZM77.2676 246.023C76.7008 246.023 76.2136 245.95 75.8059 245.804C75.3983 245.661 75.0585 245.473 74.7868 245.237C74.5183 245.005 74.3045 244.757 74.1454 244.491L75.0801 243.835C75.1861 243.974 75.3204 244.134 75.4828 244.312C75.6452 244.495 75.8672 244.652 76.149 244.785C76.434 244.921 76.8069 244.989 77.2676 244.989C77.8841 244.989 78.3928 244.839 78.7939 244.541C79.1949 244.243 79.3954 243.776 79.3954 243.139V241.588H79.296C79.2098 241.727 79.0872 241.9 78.9281 242.105C78.7723 242.307 78.5469 242.488 78.252 242.647C77.9603 242.803 77.5659 242.881 77.0687 242.881C76.4522 242.881 75.8987 242.735 75.4082 242.443C74.921 242.152 74.5349 241.727 74.2498 241.17C73.9681 240.614 73.8272 239.937 73.8272 239.142C73.8272 238.36 73.9648 237.679 74.2399 237.099C74.515 236.515 74.8978 236.065 75.3883 235.746C75.8788 235.425 76.4456 235.264 77.0886 235.264C77.5858 235.264 77.9802 235.347 78.2718 235.513C78.5668 235.675 78.7922 235.861 78.948 236.07C79.1071 236.275 79.2297 236.444 79.3159 236.577H79.4352V235.364H80.5687V243.219C80.5687 243.875 80.4196 244.409 80.1213 244.82C79.8263 245.234 79.4286 245.537 78.9281 245.729C78.4309 245.925 77.8774 246.023 77.2676 246.023ZM77.2278 241.827C77.6984 241.827 78.0962 241.719 78.421 241.504C78.7458 241.288 78.9927 240.978 79.1618 240.574C79.3308 240.17 79.4153 239.686 79.4153 239.122C79.4153 238.572 79.3324 238.086 79.1667 237.665C79.001 237.245 78.7557 236.915 78.4309 236.676C78.1061 236.437 77.7051 236.318 77.2278 236.318C76.7306 236.318 76.3163 236.444 75.9849 236.696C75.6568 236.948 75.4099 237.286 75.2441 237.71C75.0817 238.134 75.0005 238.605 75.0005 239.122C75.0005 239.652 75.0834 240.121 75.2491 240.529C75.4181 240.933 75.6667 241.252 75.9949 241.484C76.3263 241.712 76.7373 241.827 77.2278 241.827ZM83.8897 232.818V243H82.7164V232.818H83.8897ZM89.2404 243.159C88.5046 243.159 87.8699 242.997 87.3363 242.672C86.806 242.344 86.3967 241.886 86.1083 241.3C85.8233 240.71 85.6808 240.024 85.6808 239.241C85.6808 238.459 85.8233 237.77 86.1083 237.173C86.3967 236.573 86.7977 236.106 87.3114 235.771C87.8285 235.433 88.4317 235.264 89.1211 235.264C89.5188 235.264 89.9116 235.33 90.2994 235.463C90.6871 235.596 91.0401 235.811 91.3583 236.109C91.6765 236.404 91.93 236.795 92.119 237.283C92.3079 237.77 92.4023 238.37 92.4023 239.082V239.58H86.516V238.565H91.2092C91.2092 238.134 91.123 237.75 90.9506 237.412C90.7816 237.074 90.5397 236.807 90.2248 236.612C89.9132 236.416 89.5453 236.318 89.1211 236.318C88.6538 236.318 88.2494 236.434 87.908 236.666C87.57 236.895 87.3098 237.193 87.1275 237.561C86.9452 237.929 86.854 238.323 86.854 238.744V239.42C86.854 239.997 86.9535 240.486 87.1523 240.887C87.3545 241.285 87.6346 241.588 87.9925 241.797C88.3505 242.002 88.7665 242.105 89.2404 242.105C89.5487 242.105 89.8271 242.062 90.0756 241.976C90.3275 241.886 90.5446 241.754 90.7269 241.578C90.9092 241.399 91.0501 241.177 91.1495 240.912L92.283 241.23C92.1637 241.615 91.9632 241.953 91.6815 242.244C91.3997 242.533 91.0517 242.758 90.6374 242.92C90.2231 243.08 89.7575 243.159 89.2404 243.159Z" fill="#0E0E0E"/>
<circle cx="235" cy="205" r="55" fill="#EFEEEC"/>
<path d="M239.829 180C234.301 180 229.605 184.252 229.013 189.724C223.541 190.316 219.289 195.012 219.289 200.539C219.289 206.548 224.17 211.429 230.178 211.429C235.706 211.429 240.42 207.176 240.993 201.704C246.466 201.113 250.718 196.417 250.718 190.889C250.718 184.881 245.837 180 239.829 180ZM248.166 192.109C247.63 195.751 244.709 198.672 241.067 199.208V192.109H248.166ZM221.84 199.319C222.376 195.659 225.297 192.738 228.939 192.202V199.301H221.84V199.319ZM238.516 201.778C237.906 205.901 234.375 208.97 230.178 208.97C225.982 208.97 222.45 205.901 221.84 201.778H238.516ZM238.608 192.109V199.301H231.398V192.109H238.608ZM248.166 189.65H231.491C232.101 185.528 235.632 182.459 239.829 182.459C244.025 182.459 247.556 185.528 248.166 189.65Z" fill="#0E0E0E"/>
<path d="M220.193 220C220.084 219.665 219.94 219.365 219.761 219.1C219.585 218.832 219.375 218.603 219.129 218.414C218.887 218.225 218.612 218.081 218.304 217.982C217.996 217.882 217.658 217.832 217.29 217.832C216.687 217.832 216.138 217.988 215.644 218.3C215.15 218.611 214.758 219.07 214.466 219.677C214.174 220.283 214.028 221.027 214.028 221.909C214.028 222.791 214.176 223.535 214.471 224.141C214.766 224.748 215.165 225.207 215.669 225.518C216.173 225.83 216.74 225.986 217.369 225.986C217.953 225.986 218.466 225.862 218.911 225.613C219.358 225.361 219.706 225.006 219.955 224.549C220.206 224.088 220.332 223.546 220.332 222.923L220.71 223.003H217.648V221.909H221.526V223.003C221.526 223.841 221.347 224.571 220.989 225.19C220.634 225.81 220.143 226.291 219.517 226.632C218.894 226.97 218.178 227.139 217.369 227.139C216.468 227.139 215.676 226.927 214.993 226.503C214.313 226.079 213.783 225.475 213.402 224.693C213.024 223.911 212.835 222.983 212.835 221.909C212.835 221.104 212.943 220.379 213.158 219.737C213.377 219.09 213.685 218.54 214.083 218.086C214.481 217.632 214.951 217.284 215.495 217.042C216.039 216.8 216.637 216.679 217.29 216.679C217.827 216.679 218.327 216.76 218.791 216.923C219.259 217.082 219.674 217.309 220.039 217.604C220.407 217.895 220.714 218.245 220.959 218.653C221.204 219.057 221.373 219.506 221.466 220H220.193ZM226.68 227.159C225.944 227.159 225.309 226.997 224.776 226.672C224.245 226.344 223.836 225.886 223.548 225.3C223.263 224.71 223.12 224.024 223.12 223.241C223.12 222.459 223.263 221.77 223.548 221.173C223.836 220.573 224.237 220.106 224.751 219.771C225.268 219.433 225.871 219.264 226.561 219.264C226.958 219.264 227.351 219.33 227.739 219.463C228.127 219.596 228.48 219.811 228.798 220.109C229.116 220.404 229.369 220.795 229.558 221.283C229.747 221.77 229.842 222.37 229.842 223.082V223.58H223.955V222.565H228.649C228.649 222.134 228.562 221.75 228.39 221.412C228.221 221.074 227.979 220.807 227.664 220.612C227.353 220.416 226.985 220.318 226.561 220.318C226.093 220.318 225.689 220.434 225.347 220.666C225.009 220.895 224.749 221.193 224.567 221.561C224.385 221.929 224.294 222.323 224.294 222.744V223.42C224.294 223.997 224.393 224.486 224.592 224.887C224.794 225.285 225.074 225.588 225.432 225.797C225.79 226.002 226.206 226.105 226.68 226.105C226.988 226.105 227.267 226.062 227.515 225.976C227.767 225.886 227.984 225.754 228.166 225.578C228.349 225.399 228.49 225.177 228.589 224.912L229.722 225.23C229.603 225.615 229.403 225.953 229.121 226.244C228.839 226.533 228.491 226.758 228.077 226.92C227.663 227.08 227.197 227.159 226.68 227.159ZM231.627 227V219.364H232.76V220.557H232.86C233.019 220.149 233.276 219.833 233.63 219.607C233.985 219.379 234.411 219.264 234.908 219.264C235.412 219.264 235.831 219.379 236.166 219.607C236.504 219.833 236.767 220.149 236.956 220.557H237.036C237.231 220.162 237.525 219.849 237.916 219.617C238.307 219.382 238.776 219.264 239.323 219.264C240.005 219.264 240.564 219.478 240.998 219.906C241.432 220.33 241.649 220.991 241.649 221.889V227H240.476V221.889C240.476 221.326 240.322 220.923 240.014 220.681C239.705 220.439 239.343 220.318 238.925 220.318C238.388 220.318 237.972 220.481 237.677 220.805C237.382 221.127 237.235 221.535 237.235 222.028V227H236.041V221.77C236.041 221.336 235.901 220.986 235.619 220.721C235.337 220.452 234.974 220.318 234.53 220.318C234.225 220.318 233.94 220.399 233.675 220.562C233.413 220.724 233.201 220.95 233.039 221.238C232.879 221.523 232.8 221.853 232.8 222.227V227H231.627ZM243.795 227V219.364H244.968V227H243.795ZM244.391 218.091C244.162 218.091 243.965 218.013 243.8 217.857C243.637 217.701 243.556 217.514 243.556 217.295C243.556 217.077 243.637 216.889 243.8 216.734C243.965 216.578 244.162 216.5 244.391 216.5C244.62 216.5 244.815 216.578 244.978 216.734C245.144 216.889 245.226 217.077 245.226 217.295C245.226 217.514 245.144 217.701 244.978 217.857C244.815 218.013 244.62 218.091 244.391 218.091ZM248.29 222.406V227H247.117V219.364H248.25V220.557H248.35C248.529 220.169 248.801 219.857 249.165 219.622C249.53 219.384 250 219.264 250.577 219.264C251.094 219.264 251.547 219.37 251.934 219.582C252.322 219.791 252.624 220.109 252.839 220.537C253.055 220.961 253.162 221.498 253.162 222.148V227H251.989V222.227C251.989 221.627 251.833 221.16 251.522 220.825C251.21 220.487 250.783 220.318 250.239 220.318C249.864 220.318 249.53 220.399 249.235 220.562C248.943 220.724 248.713 220.961 248.544 221.273C248.375 221.584 248.29 221.962 248.29 222.406ZM255.306 227V219.364H256.48V227H255.306ZM255.903 218.091C255.674 218.091 255.477 218.013 255.311 217.857C255.149 217.701 255.068 217.514 255.068 217.295C255.068 217.077 255.149 216.889 255.311 216.734C255.477 216.578 255.674 216.5 255.903 216.5C256.132 216.5 256.327 216.578 256.49 216.734C256.655 216.889 256.738 217.077 256.738 217.295C256.738 217.514 256.655 217.701 256.49 217.857C256.327 218.013 256.132 218.091 255.903 218.091Z" fill="#0E0E0E"/>
<defs>
<clipPath id="clip0_1892_2547">
<rect width="36" height="30" fill="white" transform="translate(46 36)"/>
</clipPath>
</defs>
</svg>
