<svg width="620" height="300" viewBox="0 0 620 300" fill="none" xmlns="http://www.w3.org/2000/svg">
<circle cx="65" cy="120" r="65" fill="#EFEEEC"/>
<g clip-path="url(#clip0_1890_2457)">
<path d="M60.6457 79.8883C61.8436 79.8764 63.0416 79.8758 64.2395 79.8864C65.0024 79.8914 65.8537 79.8379 66.6027 79.9836C67.1683 80.0937 67.7245 80.3195 68.1884 80.6623C68.9348 81.2138 69.4759 82.062 69.6091 82.9896C69.7379 83.8871 69.3937 84.9008 68.8496 85.6095C68.4082 86.1844 67.8078 86.5925 67.1191 86.8112C66.9888 86.8525 66.829 86.91 66.6916 86.9124C66.3901 86.9178 66.0365 86.7384 65.7446 86.6554C65.0054 86.4452 64.2154 86.2809 63.51 85.9762C62.9309 85.7261 62.3603 85.4449 61.7931 85.1688C61.4871 85.0199 61.1522 84.817 60.8242 84.7276C60.3809 84.6066 59.0057 84.685 58.528 84.751C58.1437 84.8042 57.7631 84.912 57.3881 85.0095C57.0391 85.1002 56.68 85.1819 56.3417 85.3073C55.2857 85.7065 54.364 86.396 53.683 87.2964C52.8577 88.4089 52.6289 89.8397 52.6194 91.1921C52.6172 91.5107 52.6073 91.836 52.6565 92.1516C52.8224 93.2165 53.1007 94.2892 53.6546 95.2241C53.8755 95.597 54.1651 95.9232 54.4475 96.2499C54.7403 96.5885 55.0275 96.942 55.3534 97.2494C55.6096 97.491 55.8978 97.7066 56.1726 97.9269C57.0703 98.6466 57.9459 99.2461 58.8808 99.9067C59.6324 100.448 60.3795 100.996 61.1218 101.551C60.8589 101.848 60.6548 102.211 60.4359 102.542L59.334 104.198C57.832 106.471 56.3182 108.736 54.7926 110.993C54.2743 111.779 53.7254 112.55 53.187 113.323C52.8613 113.79 52.5446 114.321 52.1551 114.736C50.0353 114.707 47.9157 114.743 45.7969 114.648C45.9539 114.211 46.4278 113.606 46.6839 113.191C48.0982 110.898 49.6365 108.693 51.1425 106.461C51.9303 105.293 52.636 104.071 53.4422 102.916C52.6656 102.234 51.7928 101.642 51.049 100.925C50.6982 100.587 50.3619 100.231 50.0208 99.8829C49.6844 99.5397 49.33 99.1987 49.0292 98.8233C47.3889 96.7757 46.5098 94.0911 46.4678 91.4761C46.4141 89.4107 46.9175 87.3689 47.9249 85.5651C48.0966 85.2573 48.2629 84.9393 48.4691 84.653C48.8244 84.1597 49.2858 83.6828 49.711 83.2468C50.0704 82.8782 50.483 82.5931 50.9018 82.298C51.1925 82.0931 51.4811 81.8759 51.7903 81.6996C52.3875 81.3589 53.4757 80.8926 54.1394 80.7023C54.6162 80.5656 55.1152 80.4736 55.6001 80.3659C56.0364 80.269 56.4745 80.1604 56.9179 80.1021C58.1477 79.9402 59.4069 79.9063 60.6457 79.8883Z" fill="#0E0E0E"/>
<path d="M65.8896 98.4153C67.9045 98.1312 69.7654 99.5423 70.0356 101.559C70.3057 103.576 68.8818 105.427 66.8631 105.683C64.864 105.937 63.0348 104.53 62.7673 102.533C62.4997 100.535 63.8941 98.6966 65.8896 98.4153Z" fill="#0E0E0E"/>
<path d="M65.9145 88.8848C67.9178 88.6149 69.7607 90.0198 70.0312 92.023C70.3015 94.0263 68.897 95.8696 66.8938 96.1404C64.89 96.4113 63.046 95.0062 62.7755 93.0023C62.505 90.9984 63.9105 89.1547 65.9145 88.8848Z" fill="#0E0E0E"/>
<path d="M65.8227 107.826C67.7042 107.638 69.3828 109.008 69.5749 110.89C69.7669 112.771 68.3999 114.452 66.5192 114.648C64.6327 114.845 62.945 113.473 62.7524 111.586C62.5598 109.699 63.9354 108.014 65.8227 107.826Z" fill="#0E0E0E"/>
<path d="M74.9013 99.1126C76.5297 98.8941 78.0242 100.044 78.2298 101.675C78.4353 103.305 77.2731 104.79 75.6414 104.983C74.0279 105.173 72.5627 104.027 72.3595 102.415C72.1563 100.803 73.2911 99.3285 74.9013 99.1126Z" fill="#0E0E0E"/>
<path d="M75.0231 89.5911C76.6557 89.4389 78.0998 90.6457 78.2398 92.2795C78.3799 93.9132 77.1623 95.3482 75.5275 95.476C73.91 95.6026 72.4933 94.4005 72.3547 92.7839C72.2162 91.1674 73.4076 89.7418 75.0231 89.5911Z" fill="#0E0E0E"/>
<path d="M73.6238 108.792C74.9835 108.667 76.1878 109.666 76.3158 111.025C76.4438 112.385 75.447 113.591 74.0879 113.722C72.7249 113.853 71.5144 112.852 71.3861 111.489C71.2577 110.126 72.2603 108.917 73.6238 108.792Z" fill="#0E0E0E"/>
<path d="M74.061 80.8997C75.406 81.0143 76.4077 82.191 76.3061 83.5371C76.2046 84.8832 75.0378 85.8962 73.6908 85.8079C72.325 85.7182 71.2948 84.5316 71.3977 83.1668C71.5007 81.8021 72.6973 80.7834 74.061 80.8997Z" fill="#0E0E0E"/>
<path d="M81.6804 94.2883C80.7963 93.8711 80.3498 92.8703 80.6302 91.9337C80.9104 90.9971 81.8333 90.406 82.8012 90.5431C83.7692 90.6801 84.4916 91.5042 84.5009 92.4818C84.5101 93.4594 83.8034 94.2969 82.8382 94.4522C82.7896 94.4735 82.805 94.4635 82.767 94.4905C82.6879 94.5464 82.5931 94.6258 82.4929 94.6359C82.364 94.649 82.2333 94.5152 82.1398 94.4397C81.9811 94.4082 81.8268 94.3574 81.6804 94.2883Z" fill="#0E0E0E"/>
<path d="M82.4883 100.086C83.5649 100.064 84.4597 100.911 84.4959 101.987C84.5321 103.063 83.6963 103.969 82.6205 104.018C81.9126 104.051 81.2417 103.7 80.8644 103.101C80.4872 102.501 80.4617 101.744 80.7978 101.12C81.134 100.496 81.7797 100.101 82.4883 100.086Z" fill="#0E0E0E"/>
<path d="M80.0795 109.742C80.909 109.728 81.5919 110.391 81.6015 111.221C81.6112 112.051 80.9439 112.73 80.1142 112.734C79.2914 112.739 78.619 112.079 78.6095 111.256C78.5999 110.433 79.2567 109.757 80.0795 109.742Z" fill="#0E0E0E"/>
<path d="M79.911 81.8383C80.715 81.7272 81.4587 82.2839 81.5786 83.0867C81.6985 83.8894 81.1499 84.6391 80.3484 84.7677C79.8222 84.8521 79.2912 84.6473 78.958 84.2314C78.6248 83.8155 78.5407 83.2526 78.7379 82.7575C78.9351 82.2624 79.3831 81.9114 79.911 81.8383Z" fill="#0E0E0E"/>
</g>
<path d="M49.0346 122.455V137H47.2733V124.017H39.9437V137H38.1824V122.455H49.0346ZM56.1921 137.227C55.2072 137.227 54.3431 136.993 53.5998 136.524C52.8611 136.055 52.2835 135.4 51.8668 134.557C51.4549 133.714 51.2489 132.729 51.2489 131.602C51.2489 130.466 51.4549 129.474 51.8668 128.626C52.2835 127.779 52.8611 127.121 53.5998 126.652C54.3431 126.183 55.2072 125.949 56.1921 125.949C57.1769 125.949 58.0387 126.183 58.7773 126.652C59.5207 127.121 60.0983 127.779 60.5103 128.626C60.9269 129.474 61.1353 130.466 61.1353 131.602C61.1353 132.729 60.9269 133.714 60.5103 134.557C60.0983 135.4 59.5207 136.055 58.7773 136.524C58.0387 136.993 57.1769 137.227 56.1921 137.227ZM56.1921 135.722C56.9402 135.722 57.5557 135.53 58.0387 135.146C58.5216 134.763 58.8791 134.259 59.1111 133.634C59.3431 133.009 59.4591 132.331 59.4591 131.602C59.4591 130.873 59.3431 130.194 59.1111 129.564C58.8791 128.934 58.5216 128.425 58.0387 128.037C57.5557 127.649 56.9402 127.455 56.1921 127.455C55.444 127.455 54.8284 127.649 54.3455 128.037C53.8625 128.425 53.5051 128.934 53.273 129.564C53.041 130.194 52.925 130.873 52.925 131.602C52.925 132.331 53.041 133.009 53.273 133.634C53.5051 134.259 53.8625 134.763 54.3455 135.146C54.8284 135.53 55.444 135.722 56.1921 135.722ZM64.77 134.528L70.0257 126.091H71.9575V137H70.2814V128.562L65.0541 137H63.0939V126.091H64.77V134.528ZM78.8593 137.227C77.8365 137.227 76.9559 136.986 76.2172 136.503C75.4786 136.02 74.9104 135.355 74.5127 134.507C74.115 133.66 73.9161 132.691 73.9161 131.602C73.9161 130.494 74.1197 129.517 74.5269 128.669C74.9388 127.817 75.5117 127.152 76.2456 126.673C76.9843 126.19 77.846 125.949 78.8309 125.949C79.5979 125.949 80.2892 126.091 80.9047 126.375C81.5203 126.659 82.0245 127.057 82.4175 127.568C82.8105 128.08 83.0543 128.676 83.149 129.358H81.4729C81.3451 128.861 81.061 128.42 80.6206 128.037C80.185 127.649 79.5979 127.455 78.8593 127.455C78.2059 127.455 77.6329 127.625 77.1405 127.966C76.6528 128.302 76.2717 128.778 75.9971 129.393C75.7272 130.004 75.5922 130.722 75.5922 131.545C75.5922 132.388 75.7248 133.122 75.99 133.747C76.2598 134.372 76.6386 134.857 77.1263 135.203C77.6187 135.549 78.1964 135.722 78.8593 135.722C79.2949 135.722 79.6902 135.646 80.0453 135.494C80.4005 135.343 80.7011 135.125 80.9473 134.841C81.1935 134.557 81.3687 134.216 81.4729 133.818H83.149C83.0543 134.462 82.82 135.042 82.4459 135.558C82.0766 136.07 81.5865 136.477 80.9757 136.78C80.3697 137.078 79.6642 137.227 78.8593 137.227ZM84.9993 137V126.091H86.6755V130.835H87.7834L91.7039 126.091H93.863L89.4596 131.347L93.9198 137H91.7607L88.1811 132.398H86.6755V137H84.9993ZM36.7114 157V142.455H38.4727V148.932H46.2284V142.455H47.9898V157H46.2284V150.494H38.4727V157H36.7114ZM55.2626 157.227C54.2115 157.227 53.3048 156.995 52.5425 156.531C51.7849 156.062 51.2001 155.409 50.7882 154.571C50.381 153.728 50.1774 152.748 50.1774 151.631C50.1774 150.513 50.381 149.528 50.7882 148.676C51.2001 147.819 51.7731 147.152 52.507 146.673C53.2456 146.19 54.1073 145.949 55.0922 145.949C55.6604 145.949 56.2214 146.044 56.7754 146.233C57.3294 146.422 57.8337 146.73 58.2882 147.156C58.7428 147.578 59.105 148.136 59.3749 148.832C59.6447 149.528 59.7797 150.385 59.7797 151.403V152.114H51.3706V150.665H58.0751C58.0751 150.049 57.952 149.5 57.7058 149.017C57.4643 148.534 57.1187 148.153 56.6689 147.874C56.2238 147.594 55.6982 147.455 55.0922 147.455C54.4246 147.455 53.8469 147.62 53.3592 147.952C52.8763 148.278 52.5046 148.705 52.2442 149.23C51.9838 149.756 51.8536 150.319 51.8536 150.92V151.886C51.8536 152.71 51.9956 153.409 52.2797 153.982C52.5685 154.55 52.9686 154.983 53.48 155.281C53.9913 155.575 54.5856 155.722 55.2626 155.722C55.703 155.722 56.1007 155.66 56.4558 155.537C56.8157 155.409 57.1258 155.22 57.3862 154.969C57.6466 154.713 57.8479 154.396 57.9899 154.017L59.6092 154.472C59.4388 155.021 59.1523 155.504 58.7499 155.92C58.3474 156.332 57.8502 156.654 57.2584 156.886C56.6665 157.114 56.0013 157.227 55.2626 157.227ZM63.4055 154.528L68.6612 146.091H70.593V157H68.9169V148.562L63.6896 157H61.7294V146.091H63.4055V154.528ZM67.5533 142.455H69.1158C69.1158 143.222 68.8506 143.849 68.3203 144.337C67.79 144.824 67.0703 145.068 66.1612 145.068C65.2663 145.068 64.5537 144.824 64.0234 144.337C63.4979 143.849 63.2351 143.222 63.2351 142.455H64.7976C64.7976 142.824 64.8994 143.148 65.103 143.428C65.3113 143.707 65.6641 143.847 66.1612 143.847C66.6584 143.847 67.0135 143.707 67.2266 143.428C67.4444 143.148 67.5533 142.824 67.5533 142.455ZM73.063 161.091V146.091H74.6823V147.824H74.8812C75.0043 147.634 75.1747 147.393 75.3925 147.099C75.6151 146.801 75.9323 146.536 76.3442 146.304C76.7609 146.067 77.3244 145.949 78.0346 145.949C78.9532 145.949 79.7628 146.179 80.4636 146.638C81.1643 147.097 81.7112 147.748 82.1042 148.591C82.4972 149.434 82.6937 150.428 82.6937 151.574C82.6937 152.729 82.4972 153.731 82.1042 154.578C81.7112 155.421 81.1667 156.074 80.4707 156.538C79.7746 156.998 78.9721 157.227 78.063 157.227C77.3622 157.227 76.8012 157.111 76.3798 156.879C75.9584 156.643 75.634 156.375 75.4067 156.077C75.1795 155.774 75.0043 155.523 74.8812 155.324H74.7391V161.091H73.063ZM74.7107 151.545C74.7107 152.369 74.8315 153.096 75.0729 153.726C75.3144 154.351 75.6672 154.841 76.1312 155.196C76.5952 155.546 77.1634 155.722 77.8357 155.722C78.5365 155.722 79.1212 155.537 79.59 155.168C80.0635 154.794 80.4186 154.292 80.6553 153.662C80.8968 153.027 81.0175 152.322 81.0175 151.545C81.0175 150.778 80.8992 150.087 80.6624 149.472C80.4304 148.851 80.0777 148.361 79.6042 148.001C79.1354 147.637 78.546 147.455 77.8357 147.455C77.1539 147.455 76.581 147.627 76.117 147.973C75.653 148.314 75.3026 148.792 75.0658 149.408C74.8291 150.018 74.7107 150.731 74.7107 151.545ZM89.0823 157.227C88.0975 157.227 87.2334 156.993 86.49 156.524C85.7513 156.055 85.1737 155.4 84.757 154.557C84.3451 153.714 84.1391 152.729 84.1391 151.602C84.1391 150.466 84.3451 149.474 84.757 148.626C85.1737 147.779 85.7513 147.121 86.49 146.652C87.2334 146.183 88.0975 145.949 89.0823 145.949C90.0672 145.949 90.9289 146.183 91.6675 146.652C92.4109 147.121 92.9886 147.779 93.4005 148.626C93.8172 149.474 94.0255 150.466 94.0255 151.602C94.0255 152.729 93.8172 153.714 93.4005 154.557C92.9886 155.4 92.4109 156.055 91.6675 156.524C90.9289 156.993 90.0672 157.227 89.0823 157.227ZM89.0823 155.722C89.8304 155.722 90.446 155.53 90.9289 155.146C91.4119 154.763 91.7693 154.259 92.0013 153.634C92.2334 153.009 92.3494 152.331 92.3494 151.602C92.3494 150.873 92.2334 150.194 92.0013 149.564C91.7693 148.934 91.4119 148.425 90.9289 148.037C90.446 147.649 89.8304 147.455 89.0823 147.455C88.3342 147.455 87.7187 147.649 87.2357 148.037C86.7528 148.425 86.3953 148.934 86.1633 149.564C85.9313 150.194 85.8153 150.873 85.8153 151.602C85.8153 152.331 85.9313 153.009 86.1633 153.634C86.3953 154.259 86.7528 154.763 87.2357 155.146C87.7187 155.53 88.3342 155.722 89.0823 155.722Z" fill="#0E0E0E"/>
<circle cx="173" cy="235" r="65" fill="#EFEEEC"/>
<path d="M171.984 207.785C168.804 207.785 166.08 209.777 164.983 212.575C162.688 212.882 160.636 214.221 159.456 216.266C157.866 219.02 158.229 222.373 160.102 224.722C159.221 226.863 159.354 229.309 160.533 231.353C162.123 234.108 165.212 235.471 168.184 235.021C169.597 236.855 171.781 237.964 174.142 237.964C177.322 237.964 180.045 235.972 181.142 233.174C183.438 232.867 185.489 231.528 186.669 229.483C188.259 226.729 187.897 223.376 186.023 221.027C186.905 218.886 186.772 216.44 185.593 214.396C184.002 211.641 180.914 210.278 177.941 210.728C176.528 208.893 174.344 207.785 171.984 207.785ZM171.984 210.107C173.326 210.107 174.584 210.634 175.536 211.53C175.463 211.569 175.388 211.6 175.316 211.641L170.163 214.618C169.627 214.927 169.295 215.499 169.293 216.119L169.261 223.044L166.783 221.598V215.307C166.783 212.44 169.117 210.107 171.984 210.107ZM179.438 212.97C181.104 213.088 182.686 214.005 183.582 215.557C184.253 216.718 184.426 218.072 184.126 219.345C184.055 219.301 183.99 219.251 183.917 219.209L178.762 216.232C178.226 215.923 177.565 215.922 177.028 216.23L171.016 219.667L171.029 216.799L176.477 213.652C177.408 213.115 178.438 212.899 179.438 212.97ZM164.473 215.06C164.47 215.143 164.462 215.224 164.462 215.307V221.258C164.462 221.878 164.79 222.451 165.325 222.763L171.308 226.252L168.819 227.674L163.369 224.529C160.886 223.096 160.033 219.907 161.467 217.425C162.137 216.263 163.222 215.437 164.473 215.06ZM177.307 218.075L182.757 221.22C185.239 222.653 186.092 225.842 184.659 228.324C183.988 229.485 182.903 230.312 181.653 230.689C181.655 230.606 181.664 230.525 181.664 230.442V224.491C181.664 223.871 181.335 223.298 180.8 222.986L174.817 219.497L177.307 218.075ZM173.074 220.492L175.13 221.691L175.119 224.076L173.051 225.257L170.995 224.056L171.007 221.673L173.074 220.492ZM176.865 222.704L179.342 224.151V230.442C179.342 233.309 177.009 235.642 174.142 235.642C172.8 235.642 171.541 235.115 170.589 234.219C170.662 234.18 170.737 234.149 170.809 234.108L175.962 231.131C176.499 230.822 176.831 230.25 176.833 229.63L176.865 222.704ZM175.11 226.082L175.096 228.95L169.649 232.097C167.166 233.53 163.977 232.675 162.544 230.192C161.873 229.031 161.7 227.677 162 226.404C162.071 226.448 162.135 226.498 162.208 226.54L167.363 229.517C167.9 229.826 168.56 229.827 169.098 229.519L175.11 226.082Z" fill="#0E0E0E"/>
<path d="M145.466 252H143.705C143.6 251.493 143.418 251.048 143.158 250.665C142.902 250.281 142.589 249.959 142.22 249.699C141.856 249.434 141.451 249.235 141.006 249.102C140.561 248.97 140.097 248.903 139.614 248.903C138.733 248.903 137.935 249.126 137.22 249.571C136.51 250.016 135.944 250.672 135.523 251.538C135.106 252.405 134.898 253.468 134.898 254.727C134.898 255.987 135.106 257.05 135.523 257.916C135.944 258.783 136.51 259.438 137.22 259.884C137.935 260.329 138.733 260.551 139.614 260.551C140.097 260.551 140.561 260.485 141.006 260.352C141.451 260.22 141.856 260.023 142.22 259.763C142.589 259.498 142.902 259.173 143.158 258.79C143.418 258.402 143.6 257.956 143.705 257.455H145.466C145.333 258.198 145.092 258.863 144.741 259.45C144.391 260.037 143.955 260.537 143.435 260.949C142.914 261.356 142.329 261.666 141.68 261.879C141.036 262.092 140.348 262.199 139.614 262.199C138.373 262.199 137.27 261.896 136.304 261.29C135.338 260.684 134.578 259.822 134.024 258.705C133.47 257.587 133.193 256.261 133.193 254.727C133.193 253.193 133.47 251.867 134.024 250.75C134.578 249.633 135.338 248.771 136.304 248.165C137.27 247.559 138.373 247.256 139.614 247.256C140.348 247.256 141.036 247.362 141.68 247.575C142.329 247.788 142.914 248.101 143.435 248.513C143.955 248.92 144.391 249.417 144.741 250.004C145.092 250.587 145.333 251.252 145.466 252ZM149.161 255.438V262H147.485V247.455H149.161V252.795H149.303C149.559 252.232 149.942 251.785 150.454 251.453C150.97 251.117 151.656 250.949 152.513 250.949C153.257 250.949 153.908 251.098 154.466 251.396C155.025 251.69 155.458 252.142 155.766 252.753C156.079 253.359 156.235 254.131 156.235 255.068V262H154.559V255.182C154.559 254.315 154.334 253.645 153.884 253.172C153.439 252.694 152.821 252.455 152.03 252.455C151.481 252.455 150.989 252.571 150.553 252.803C150.122 253.035 149.781 253.373 149.53 253.818C149.284 254.263 149.161 254.803 149.161 255.438ZM161.912 262.256C161.22 262.256 160.593 262.125 160.029 261.865C159.466 261.6 159.019 261.219 158.687 260.722C158.356 260.22 158.19 259.614 158.19 258.903C158.19 258.278 158.313 257.772 158.559 257.384C158.805 256.991 159.135 256.683 159.546 256.46C159.958 256.238 160.413 256.072 160.91 255.963C161.412 255.849 161.916 255.759 162.423 255.693C163.086 255.608 163.623 255.544 164.035 255.501C164.452 255.454 164.755 255.376 164.944 255.267C165.138 255.158 165.235 254.969 165.235 254.699V254.642C165.235 253.941 165.044 253.397 164.66 253.009C164.281 252.62 163.706 252.426 162.934 252.426C162.134 252.426 161.507 252.601 161.052 252.952C160.598 253.302 160.278 253.676 160.093 254.074L158.502 253.506C158.787 252.843 159.165 252.327 159.639 251.957C160.117 251.583 160.638 251.323 161.201 251.176C161.769 251.025 162.328 250.949 162.877 250.949C163.228 250.949 163.63 250.991 164.085 251.077C164.544 251.157 164.987 251.325 165.413 251.581C165.844 251.837 166.201 252.223 166.485 252.739C166.769 253.255 166.912 253.946 166.912 254.812V262H165.235V260.523H165.15C165.037 260.759 164.847 261.013 164.582 261.283C164.317 261.553 163.964 261.782 163.524 261.972C163.083 262.161 162.546 262.256 161.912 262.256ZM162.167 260.75C162.83 260.75 163.389 260.62 163.843 260.359C164.303 260.099 164.648 259.763 164.88 259.351C165.117 258.939 165.235 258.506 165.235 258.051V256.517C165.164 256.602 165.008 256.68 164.767 256.751C164.53 256.818 164.255 256.877 163.943 256.929C163.635 256.976 163.334 257.019 163.041 257.057C162.752 257.09 162.518 257.118 162.338 257.142C161.902 257.199 161.495 257.291 161.116 257.419C160.742 257.542 160.439 257.729 160.207 257.98C159.98 258.226 159.866 258.562 159.866 258.989C159.866 259.571 160.081 260.011 160.512 260.31C160.948 260.603 161.5 260.75 162.167 260.75ZM174.115 251.091V252.511H168.462V251.091H174.115ZM170.109 248.477H171.786V258.875C171.786 259.348 171.854 259.704 171.992 259.94C172.134 260.172 172.314 260.329 172.531 260.409C172.754 260.485 172.988 260.523 173.234 260.523C173.419 260.523 173.571 260.513 173.689 260.494C173.807 260.471 173.902 260.452 173.973 260.438L174.314 261.943C174.2 261.986 174.042 262.028 173.838 262.071C173.635 262.118 173.376 262.142 173.064 262.142C172.591 262.142 172.126 262.04 171.672 261.837C171.222 261.633 170.848 261.323 170.55 260.906C170.256 260.49 170.109 259.964 170.109 259.33V248.477ZM186.207 252C186.051 251.522 185.845 251.093 185.589 250.714C185.338 250.331 185.037 250.004 184.687 249.734C184.341 249.464 183.948 249.259 183.508 249.116C183.068 248.974 182.585 248.903 182.059 248.903C181.197 248.903 180.414 249.126 179.708 249.571C179.003 250.016 178.442 250.672 178.025 251.538C177.608 252.405 177.4 253.468 177.4 254.727C177.4 255.987 177.611 257.05 178.032 257.916C178.454 258.783 179.024 259.438 179.744 259.884C180.464 260.329 181.273 260.551 182.173 260.551C183.006 260.551 183.74 260.374 184.375 260.018C185.014 259.659 185.511 259.152 185.866 258.499C186.226 257.84 186.406 257.066 186.406 256.176L186.946 256.29H182.571V254.727H188.11V256.29C188.11 257.488 187.855 258.529 187.343 259.415C186.837 260.3 186.136 260.987 185.241 261.474C184.351 261.957 183.328 262.199 182.173 262.199C180.885 262.199 179.753 261.896 178.778 261.29C177.807 260.684 177.05 259.822 176.505 258.705C175.965 257.587 175.696 256.261 175.696 254.727C175.696 253.577 175.849 252.542 176.157 251.624C176.47 250.7 176.91 249.914 177.478 249.266C178.046 248.617 178.719 248.12 179.495 247.774C180.272 247.429 181.126 247.256 182.059 247.256C182.826 247.256 183.541 247.372 184.204 247.604C184.872 247.831 185.466 248.155 185.987 248.577C186.512 248.993 186.95 249.493 187.301 250.075C187.651 250.653 187.892 251.295 188.025 252H186.207ZM190.527 262V247.455H195.442C196.583 247.455 197.516 247.661 198.24 248.072C198.969 248.48 199.509 249.031 199.859 249.727C200.21 250.423 200.385 251.2 200.385 252.057C200.385 252.914 200.21 253.693 199.859 254.393C199.514 255.094 198.979 255.653 198.254 256.07C197.53 256.482 196.602 256.688 195.47 256.688H191.947V255.125H195.413C196.195 255.125 196.822 254.99 197.295 254.72C197.769 254.45 198.112 254.086 198.325 253.626C198.543 253.162 198.652 252.639 198.652 252.057C198.652 251.474 198.543 250.954 198.325 250.494C198.112 250.035 197.767 249.675 197.288 249.415C196.81 249.15 196.176 249.017 195.385 249.017H192.288V262H190.527ZM201.827 249.017V247.455H212.736V249.017H208.162V262H206.401V249.017H201.827Z" fill="#0E0E0E"/>
<circle cx="269" cy="85" r="85" fill="#EFEEEC"/>
<path d="M282.082 92.2308H275.227V58.3026H272.167C266.562 58.3026 263.631 61.1048 263.631 65.2866C263.631 70.0287 265.657 72.2274 269.839 75.0296L273.287 77.3576L263.372 92.2308H256L264.924 78.9527C259.794 75.2883 256.905 71.7101 256.905 65.6746C256.905 58.1302 262.165 53 272.123 53H282.039L282.082 92.2308Z" fill="#0E0E0E"/>
<path d="M246.648 115H244.886V102.017H241.79C241.004 102.017 240.372 102.138 239.893 102.379C239.415 102.616 239.067 102.952 238.849 103.388C238.632 103.823 238.523 104.332 238.523 104.915C238.523 105.497 238.629 105.999 238.842 106.42C239.06 106.837 239.406 107.159 239.879 107.386C240.357 107.614 240.985 107.727 241.761 107.727H245.682V109.318H241.705C240.578 109.318 239.652 109.131 238.928 108.757C238.203 108.378 237.666 107.857 237.315 107.195C236.965 106.532 236.79 105.772 236.79 104.915C236.79 104.058 236.965 103.293 237.315 102.621C237.666 101.948 238.205 101.42 238.935 101.037C239.664 100.649 240.597 100.455 241.733 100.455H246.648V115ZM239.801 108.466H241.79L238.267 115H236.222L239.801 108.466ZM256.653 108.778V110.341H250.63V108.778H256.653ZM251.028 104.091V115H249.352V104.091H251.028ZM257.932 104.091V115H256.255V104.091H257.932ZM259.228 118.125V113.438H260.137C260.36 113.205 260.551 112.955 260.712 112.685C260.873 112.415 261.013 112.095 261.131 111.726C261.254 111.352 261.359 110.897 261.444 110.362C261.529 109.822 261.605 109.171 261.671 108.409L262.04 104.091H268.972V113.438H270.648V118.125H268.972V115H260.904V118.125H259.228ZM262.04 113.438H267.296V105.653H263.603L263.319 108.409C263.2 109.55 263.054 110.547 262.878 111.399C262.703 112.251 262.424 112.931 262.04 113.438ZM276.847 115.227C275.796 115.227 274.889 114.995 274.127 114.531C273.369 114.062 272.785 113.409 272.373 112.571C271.965 111.728 271.762 110.748 271.762 109.631C271.762 108.513 271.965 107.528 272.373 106.676C272.785 105.819 273.357 105.152 274.091 104.673C274.83 104.19 275.692 103.949 276.677 103.949C277.245 103.949 277.806 104.044 278.36 104.233C278.914 104.422 279.418 104.73 279.873 105.156C280.327 105.578 280.689 106.136 280.959 106.832C281.229 107.528 281.364 108.385 281.364 109.403V110.114H272.955V108.665H279.66C279.66 108.049 279.536 107.5 279.29 107.017C279.049 106.534 278.703 106.153 278.253 105.874C277.808 105.594 277.283 105.455 276.677 105.455C276.009 105.455 275.431 105.62 274.944 105.952C274.461 106.278 274.089 106.705 273.829 107.23C273.568 107.756 273.438 108.319 273.438 108.92V109.886C273.438 110.71 273.58 111.409 273.864 111.982C274.153 112.55 274.553 112.983 275.064 113.281C275.576 113.575 276.17 113.722 276.847 113.722C277.287 113.722 277.685 113.66 278.04 113.537C278.4 113.409 278.71 113.22 278.971 112.969C279.231 112.713 279.432 112.396 279.574 112.017L281.194 112.472C281.023 113.021 280.737 113.504 280.334 113.92C279.932 114.332 279.435 114.654 278.843 114.886C278.251 115.114 277.586 115.227 276.847 115.227ZM283.314 115V104.091H284.99V108.835H286.098L290.018 104.091H292.177L287.774 109.347L292.234 115H290.075L286.496 110.398H284.99V115H283.314ZM297.439 115.227C296.416 115.227 295.535 114.986 294.797 114.503C294.058 114.02 293.49 113.355 293.092 112.507C292.694 111.66 292.495 110.691 292.495 109.602C292.495 108.494 292.699 107.517 293.106 106.669C293.518 105.817 294.091 105.152 294.825 104.673C295.564 104.19 296.425 103.949 297.41 103.949C298.177 103.949 298.868 104.091 299.484 104.375C300.1 104.659 300.604 105.057 300.997 105.568C301.39 106.08 301.634 106.676 301.728 107.358H300.052C299.924 106.861 299.64 106.42 299.2 106.037C298.764 105.649 298.177 105.455 297.439 105.455C296.785 105.455 296.212 105.625 295.72 105.966C295.232 106.302 294.851 106.778 294.576 107.393C294.306 108.004 294.172 108.722 294.172 109.545C294.172 110.388 294.304 111.122 294.569 111.747C294.839 112.372 295.218 112.857 295.706 113.203C296.198 113.549 296.776 113.722 297.439 113.722C297.874 113.722 298.27 113.646 298.625 113.494C298.98 113.343 299.28 113.125 299.527 112.841C299.773 112.557 299.948 112.216 300.052 111.818H301.728C301.634 112.462 301.399 113.042 301.025 113.558C300.656 114.07 300.166 114.477 299.555 114.78C298.949 115.078 298.243 115.227 297.439 115.227Z" fill="#0E0E0E"/>
<circle cx="421" cy="212" r="85" fill="#EFEEEC"/>
<path d="M421.787 196.471V204.067H432.344C431.88 206.51 430.489 208.579 428.403 209.97L434.769 214.909C438.478 211.486 440.618 206.457 440.618 200.483C440.618 199.092 440.493 197.755 440.261 196.471L421.787 196.471Z" fill="#0E0E0E"/>
<path d="M410.794 203.771L409.359 204.87L404.276 208.829C407.504 215.23 414.119 219.653 421.787 219.653C427.083 219.653 431.523 217.905 434.769 214.909L428.403 209.97C426.655 211.147 424.426 211.86 421.787 211.86C416.687 211.86 412.354 208.419 410.802 203.782L410.794 203.771Z" fill="#0E0E0E"/>
<path d="M404.276 191.246C402.939 193.885 402.172 196.863 402.172 200.037C402.172 203.211 402.939 206.19 404.276 208.829C404.276 208.846 410.803 203.764 410.803 203.764C410.41 202.587 410.178 201.339 410.178 200.037C410.178 198.735 410.41 197.487 410.803 196.31L404.276 191.246Z" fill="#0E0E0E"/>
<path d="M421.787 188.232C424.676 188.232 427.244 189.231 429.295 191.157L434.912 185.54C431.506 182.366 427.084 180.422 421.787 180.422C414.12 180.422 407.504 184.826 404.276 191.246L410.803 196.31C412.354 191.674 416.688 188.232 421.787 188.232Z" fill="#0E0E0E"/>
<path d="M400.705 232C400.548 231.522 400.342 231.093 400.087 230.714C399.836 230.331 399.535 230.004 399.185 229.734C398.839 229.464 398.446 229.259 398.006 229.116C397.565 228.974 397.082 228.903 396.557 228.903C395.695 228.903 394.911 229.126 394.206 229.571C393.5 230.016 392.939 230.672 392.523 231.538C392.106 232.405 391.898 233.468 391.898 234.727C391.898 235.987 392.108 237.05 392.53 237.916C392.951 238.783 393.522 239.438 394.241 239.884C394.961 240.329 395.771 240.551 396.67 240.551C397.504 240.551 398.238 240.374 398.872 240.018C399.511 239.659 400.009 239.152 400.364 238.499C400.723 237.84 400.903 237.066 400.903 236.176L401.443 236.29H397.068V234.727H402.608V236.29C402.608 237.488 402.352 238.529 401.841 239.415C401.334 240.3 400.634 240.987 399.739 241.474C398.848 241.957 397.826 242.199 396.67 242.199C395.383 242.199 394.251 241.896 393.276 241.29C392.305 240.684 391.547 239.822 391.003 238.705C390.463 237.587 390.193 236.261 390.193 234.727C390.193 233.577 390.347 232.542 390.655 231.624C390.967 230.7 391.408 229.914 391.976 229.266C392.544 228.617 393.216 228.12 393.993 227.774C394.769 227.429 395.624 227.256 396.557 227.256C397.324 227.256 398.039 227.372 398.702 227.604C399.369 227.831 399.964 228.155 400.484 228.577C401.01 228.993 401.448 229.493 401.798 230.075C402.149 230.653 402.39 231.295 402.523 232H400.705ZM409.229 242.227C408.244 242.227 407.38 241.993 406.637 241.524C405.898 241.055 405.321 240.4 404.904 239.557C404.492 238.714 404.286 237.729 404.286 236.602C404.286 235.466 404.492 234.474 404.904 233.626C405.321 232.779 405.898 232.121 406.637 231.652C407.38 231.183 408.244 230.949 409.229 230.949C410.214 230.949 411.076 231.183 411.814 231.652C412.558 232.121 413.135 232.779 413.547 233.626C413.964 234.474 414.172 235.466 414.172 236.602C414.172 237.729 413.964 238.714 413.547 239.557C413.135 240.4 412.558 241.055 411.814 241.524C411.076 241.993 410.214 242.227 409.229 242.227ZM409.229 240.722C409.977 240.722 410.593 240.53 411.076 240.146C411.559 239.763 411.916 239.259 412.148 238.634C412.38 238.009 412.496 237.331 412.496 236.602C412.496 235.873 412.38 235.194 412.148 234.564C411.916 233.934 411.559 233.425 411.076 233.037C410.593 232.649 409.977 232.455 409.229 232.455C408.481 232.455 407.866 232.649 407.383 233.037C406.9 233.425 406.542 233.934 406.31 234.564C406.078 235.194 405.962 235.873 405.962 236.602C405.962 237.331 406.078 238.009 406.31 238.634C406.542 239.259 406.9 239.763 407.383 240.146C407.866 240.53 408.481 240.722 409.229 240.722ZM420.563 242.227C419.578 242.227 418.714 241.993 417.97 241.524C417.232 241.055 416.654 240.4 416.237 239.557C415.826 238.714 415.62 237.729 415.62 236.602C415.62 235.466 415.826 234.474 416.237 233.626C416.654 232.779 417.232 232.121 417.97 231.652C418.714 231.183 419.578 230.949 420.563 230.949C421.548 230.949 422.409 231.183 423.148 231.652C423.891 232.121 424.469 232.779 424.881 233.626C425.298 234.474 425.506 235.466 425.506 236.602C425.506 237.729 425.298 238.714 424.881 239.557C424.469 240.4 423.891 241.055 423.148 241.524C422.409 241.993 421.548 242.227 420.563 242.227ZM420.563 240.722C421.311 240.722 421.926 240.53 422.409 240.146C422.892 239.763 423.25 239.259 423.482 238.634C423.714 238.009 423.83 237.331 423.83 236.602C423.83 235.873 423.714 235.194 423.482 234.564C423.25 233.934 422.892 233.425 422.409 233.037C421.926 232.649 421.311 232.455 420.563 232.455C419.815 232.455 419.199 232.649 418.716 233.037C418.233 233.425 417.876 233.934 417.644 234.564C417.412 235.194 417.296 235.873 417.296 236.602C417.296 237.331 417.412 238.009 417.644 238.634C417.876 239.259 418.233 239.763 418.716 240.146C419.199 240.53 419.815 240.722 420.563 240.722ZM431.868 246.318C431.058 246.318 430.362 246.214 429.78 246.006C429.198 245.802 428.712 245.532 428.324 245.196C427.94 244.865 427.635 244.509 427.408 244.131L428.743 243.193C428.894 243.392 429.086 243.619 429.318 243.875C429.55 244.135 429.867 244.36 430.27 244.55C430.677 244.744 431.21 244.841 431.868 244.841C432.749 244.841 433.475 244.628 434.048 244.202C434.621 243.776 434.908 243.108 434.908 242.199V239.983H434.766C434.643 240.182 434.467 240.428 434.24 240.722C434.018 241.01 433.696 241.268 433.274 241.496C432.858 241.718 432.294 241.83 431.584 241.83C430.703 241.83 429.912 241.621 429.212 241.205C428.516 240.788 427.964 240.182 427.557 239.386C427.154 238.591 426.953 237.625 426.953 236.489C426.953 235.371 427.15 234.398 427.543 233.57C427.936 232.736 428.483 232.092 429.183 231.638C429.884 231.179 430.694 230.949 431.612 230.949C432.323 230.949 432.886 231.067 433.303 231.304C433.724 231.536 434.046 231.801 434.269 232.099C434.496 232.393 434.671 232.634 434.794 232.824H434.965V231.091H436.584V242.312C436.584 243.25 436.371 244.012 435.945 244.599C435.523 245.191 434.955 245.625 434.24 245.899C433.53 246.179 432.739 246.318 431.868 246.318ZM431.811 240.324C432.484 240.324 433.052 240.17 433.516 239.862C433.98 239.554 434.332 239.112 434.574 238.534C434.815 237.956 434.936 237.265 434.936 236.46C434.936 235.674 434.818 234.981 434.581 234.379C434.344 233.778 433.994 233.307 433.53 232.966C433.066 232.625 432.493 232.455 431.811 232.455C431.101 232.455 430.509 232.634 430.036 232.994C429.567 233.354 429.214 233.837 428.977 234.443C428.745 235.049 428.629 235.722 428.629 236.46C428.629 237.218 428.748 237.888 428.984 238.47C429.226 239.048 429.581 239.502 430.05 239.834C430.523 240.161 431.11 240.324 431.811 240.324ZM440.728 227.455V242H439.052V227.455H440.728ZM447.772 242.227C446.721 242.227 445.814 241.995 445.052 241.531C444.294 241.062 443.71 240.409 443.298 239.571C442.89 238.728 442.687 237.748 442.687 236.631C442.687 235.513 442.89 234.528 443.298 233.676C443.71 232.819 444.282 232.152 445.016 231.673C445.755 231.19 446.617 230.949 447.602 230.949C448.17 230.949 448.731 231.044 449.285 231.233C449.839 231.422 450.343 231.73 450.798 232.156C451.252 232.578 451.614 233.136 451.884 233.832C452.154 234.528 452.289 235.385 452.289 236.403V237.114H443.88V235.665H450.585C450.585 235.049 450.461 234.5 450.215 234.017C449.974 233.534 449.628 233.153 449.178 232.874C448.733 232.594 448.208 232.455 447.602 232.455C446.934 232.455 446.356 232.62 445.869 232.952C445.386 233.278 445.014 233.705 444.754 234.23C444.493 234.756 444.363 235.319 444.363 235.92V236.886C444.363 237.71 444.505 238.409 444.789 238.982C445.078 239.55 445.478 239.983 445.989 240.281C446.501 240.575 447.095 240.722 447.772 240.722C448.212 240.722 448.61 240.66 448.965 240.537C449.325 240.409 449.635 240.22 449.896 239.969C450.156 239.713 450.357 239.396 450.499 239.017L452.119 239.472C451.948 240.021 451.662 240.504 451.259 240.92C450.857 241.332 450.36 241.654 449.768 241.886C449.176 242.114 448.511 242.227 447.772 242.227Z" fill="#0E0E0E"/>
<circle cx="555" cy="72" r="65" fill="#EFEEEC"/>
<path d="M561.61 41.2383C555.077 41.2383 549.528 46.2635 548.828 52.7307C542.361 53.4299 537.336 58.9795 537.336 65.5122C537.336 72.6131 543.104 78.3811 550.205 78.3811C556.738 78.3811 562.309 73.3559 562.986 66.8887C569.454 66.1895 574.479 60.64 574.479 54.1072C574.479 47.0063 568.711 41.2383 561.61 41.2383ZM571.464 55.5492C570.83 59.8534 567.378 63.3055 563.074 63.9391V55.5492H571.464ZM540.351 64.0702C540.985 59.7442 544.437 56.2921 548.741 55.6585V64.0484H540.351V64.0702ZM560.059 66.9761C559.338 71.8484 555.165 75.4753 550.205 75.4753C545.245 75.4753 541.072 71.8484 540.351 66.9761H560.059ZM560.168 55.5492V64.0484H551.647V55.5492H560.168ZM571.464 52.6433H551.756C552.477 47.7711 556.65 44.1442 561.61 44.1442C566.57 44.1442 570.743 47.7711 571.464 52.6433Z" fill="#0E0E0E"/>
<path d="M535.705 91C535.548 90.5218 535.342 90.0933 535.087 89.7145C534.836 89.331 534.535 89.0043 534.185 88.7344C533.839 88.4645 533.446 88.2585 533.006 88.1165C532.565 87.9744 532.082 87.9034 531.557 87.9034C530.695 87.9034 529.911 88.1259 529.206 88.571C528.5 89.0161 527.939 89.6719 527.523 90.5384C527.106 91.4048 526.898 92.4678 526.898 93.7273C526.898 94.9867 527.108 96.0497 527.53 96.9162C527.951 97.7827 528.522 98.4384 529.241 98.8835C529.961 99.3286 530.771 99.5511 531.67 99.5511C532.504 99.5511 533.238 99.3736 533.872 99.0185C534.511 98.6586 535.009 98.152 535.364 97.4986C535.723 96.8404 535.903 96.0663 535.903 95.1761L536.443 95.2898H532.068V93.7273H537.608V95.2898C537.608 96.4877 537.352 97.5294 536.841 98.4148C536.334 99.3002 535.634 99.9867 534.739 100.474C533.848 100.957 532.826 101.199 531.67 101.199C530.383 101.199 529.251 100.896 528.276 100.29C527.305 99.6837 526.547 98.822 526.003 97.7045C525.463 96.5871 525.193 95.2614 525.193 93.7273C525.193 92.5767 525.347 91.5421 525.655 90.6236C525.967 89.7003 526.408 88.9143 526.976 88.2656C527.544 87.617 528.216 87.1198 528.993 86.7741C529.769 86.4285 530.624 86.2557 531.557 86.2557C532.324 86.2557 533.039 86.3717 533.702 86.6037C534.369 86.831 534.964 87.1553 535.484 87.5767C536.01 87.9934 536.448 88.4929 536.798 89.0753C537.149 89.6529 537.39 90.2945 537.523 91H535.705ZM544.371 101.227C543.32 101.227 542.413 100.995 541.651 100.531C540.893 100.062 540.309 99.4091 539.897 98.571C539.49 97.7282 539.286 96.7481 539.286 95.6307C539.286 94.5133 539.49 93.5284 539.897 92.6761C540.309 91.8191 540.882 91.1515 541.616 90.6733C542.354 90.1903 543.216 89.9489 544.201 89.9489C544.769 89.9489 545.33 90.0436 545.884 90.233C546.438 90.4223 546.942 90.7301 547.397 91.1562C547.851 91.5777 548.214 92.1364 548.483 92.8324C548.753 93.5284 548.888 94.3854 548.888 95.4034V96.1136H540.479V94.6648H547.184C547.184 94.0492 547.061 93.5 546.814 93.017C546.573 92.5341 546.227 92.1529 545.777 91.8736C545.332 91.5942 544.807 91.4545 544.201 91.4545C543.533 91.4545 542.956 91.6203 542.468 91.9517C541.985 92.2784 541.613 92.7045 541.353 93.2301C541.092 93.7557 540.962 94.3191 540.962 94.9205V95.8864C540.962 96.7102 541.104 97.4086 541.388 97.9815C541.677 98.5497 542.077 98.983 542.589 99.2812C543.1 99.5748 543.694 99.7216 544.371 99.7216C544.812 99.7216 545.209 99.66 545.564 99.5369C545.924 99.4091 546.234 99.2197 546.495 98.9688C546.755 98.7131 546.956 98.3958 547.099 98.017L548.718 98.4716C548.547 99.0208 548.261 99.5038 547.858 99.9205C547.456 100.332 546.959 100.654 546.367 100.886C545.775 101.114 545.11 101.227 544.371 101.227ZM550.838 101V90.0909H552.457V91.7955H552.599C552.827 91.2131 553.194 90.7609 553.7 90.4389C554.207 90.1122 554.815 89.9489 555.525 89.9489C556.245 89.9489 556.844 90.1122 557.322 90.4389C557.805 90.7609 558.182 91.2131 558.452 91.7955H558.565C558.845 91.232 559.264 90.7846 559.822 90.4531C560.381 90.117 561.051 89.9489 561.832 89.9489C562.808 89.9489 563.606 90.2543 564.226 90.8651C564.846 91.4711 565.156 92.4157 565.156 93.6989V101H563.48V93.6989C563.48 92.8939 563.26 92.3187 562.82 91.973C562.379 91.6274 561.861 91.4545 561.264 91.4545C560.497 91.4545 559.903 91.6866 559.481 92.1506C559.06 92.6098 558.849 93.1922 558.849 93.8977V101H557.145V93.5284C557.145 92.9081 556.944 92.4086 556.541 92.0298C556.139 91.6463 555.62 91.4545 554.986 91.4545C554.55 91.4545 554.143 91.5705 553.764 91.8026C553.39 92.0346 553.087 92.3565 552.855 92.7685C552.628 93.1757 552.514 93.6468 552.514 94.1818V101H550.838ZM567.621 101V90.0909H569.297V101H567.621ZM568.473 88.2727C568.146 88.2727 567.865 88.1615 567.628 87.9389C567.396 87.7164 567.28 87.4489 567.28 87.1364C567.28 86.8239 567.396 86.5563 567.628 86.3338C567.865 86.1113 568.146 86 568.473 86C568.8 86 569.079 86.1113 569.311 86.3338C569.548 86.5563 569.666 86.8239 569.666 87.1364C569.666 87.4489 569.548 87.7164 569.311 87.9389C569.079 88.1615 568.8 88.2727 568.473 88.2727ZM573.443 94.4375V101H571.767V90.0909H573.386V91.7955H573.528C573.784 91.2415 574.172 90.7964 574.693 90.4602C575.214 90.1193 575.886 89.9489 576.71 89.9489C577.449 89.9489 578.095 90.1004 578.649 90.4034C579.203 90.7017 579.634 91.1562 579.942 91.767C580.249 92.3731 580.403 93.1402 580.403 94.0682V101H578.727V94.1818C578.727 93.3248 578.505 92.6572 578.06 92.179C577.614 91.696 577.004 91.4545 576.227 91.4545C575.692 91.4545 575.214 91.5705 574.792 91.8026C574.376 92.0346 574.047 92.3731 573.805 92.8182C573.564 93.2633 573.443 93.803 573.443 94.4375ZM582.866 101V90.0909H584.542V101H582.866ZM583.718 88.2727C583.392 88.2727 583.11 88.1615 582.873 87.9389C582.641 87.7164 582.525 87.4489 582.525 87.1364C582.525 86.8239 582.641 86.5563 582.873 86.3338C583.11 86.1113 583.392 86 583.718 86C584.045 86 584.324 86.1113 584.556 86.3338C584.793 86.5563 584.912 86.8239 584.912 87.1364C584.912 87.4489 584.793 87.7164 584.556 87.9389C584.324 88.1615 584.045 88.2727 583.718 88.2727Z" fill="#0E0E0E"/>
<defs>
<clipPath id="clip0_1890_2457">
<rect width="39" height="35" fill="white" transform="translate(45.5 80)"/>
</clipPath>
</defs>
</svg>
