<svg width="621" height="373" viewBox="0 0 621 373" fill="none" xmlns="http://www.w3.org/2000/svg">
<path opacity="0.9" d="M22.9145 323.94L1 325.97V349.653L577.187 349.314L576.98 29.5371L565.609 36.3039L552.378 81.6489L540.387 79.2801L514.131 140.53L488.701 128.009L475.057 214.976L462.859 212.608L450.041 219.037L436.603 196.365L423.785 199.41L398.769 171.662L385.538 170.308L373.34 199.41L359.695 212.946L334.266 184.183L321.448 201.441L308.63 198.057L282.581 231.558L259.839 237.987L244.334 255.922H230.689L209.601 285.024L192.442 298.56L167.013 262.352H153.575L140.757 295.176L102.096 325.97L74.5997 327.662L51.4447 337.137L22.9145 323.94Z" fill="#1A1A1A"/>
<line x1="46.5547" y1="334.717" x2="46.5547" y2="350.332" stroke="#737373" stroke-dasharray="2.07 2.07"/>
<path d="M154 220L46 220L46 333" stroke="#737373" stroke-dasharray="2.07 2.07"/>
<line x1="298.266" y1="213.187" x2="298.266" y2="350.332" stroke="#737373" stroke-dasharray="2.07 2.07"/>
<line x1="141.617" y1="295.336" x2="141.617" y2="350.329" stroke="#737373" stroke-dasharray="2.07 2.07"/>
<line x1="450.797" y1="217.939" x2="450.797" y2="350.331" stroke="#737373" stroke-dasharray="2.07 2.07"/>
<line x1="577.102" y1="350.334" x2="577.102" y2="29.1964" stroke="#737373" stroke-dasharray="2.07 2.07"/>
<line x1="1" y1="349.832" x2="621" y2="349.832" stroke="#A7A7A5"/>
<line x1="0.793333" y1="350.332" x2="0.793333" y2="0.0032959" stroke="#A7A7A5" stroke-width="0.413333"/>
<line x1="1" y1="4.79333" x2="6" y2="4.79333" stroke="#737373" stroke-width="0.413333"/>
<line x1="1" y1="8.79333" x2="6" y2="8.79333" stroke="#737373" stroke-width="0.413333"/>
<line x1="1" y1="12.7933" x2="6" y2="12.7933" stroke="#737373" stroke-width="0.413333"/>
<line x1="1" y1="16.7933" x2="6" y2="16.7933" stroke="#737373" stroke-width="0.413333"/>
<line x1="1" y1="20.7933" x2="6" y2="20.7933" stroke="#737373" stroke-width="0.413333"/>
<line x1="1" y1="24.7933" x2="6" y2="24.7933" stroke="#737373" stroke-width="0.413333"/>
<line x1="1" y1="277.793" x2="6" y2="277.793" stroke="#737373" stroke-width="0.413333"/>
<line x1="1" y1="281.067" x2="6" y2="281.067" stroke="#737373" stroke-width="0.413333"/>
<line x1="1" y1="284.338" x2="6" y2="284.338" stroke="#737373" stroke-width="0.413333"/>
<line x1="1" y1="287.612" x2="6" y2="287.612" stroke="#737373" stroke-width="0.413333"/>
<line x1="1" y1="290.885" x2="6" y2="290.885" stroke="#737373" stroke-width="0.413333"/>
<line x1="1" y1="294.157" x2="6" y2="294.157" stroke="#737373" stroke-width="0.413333"/>
<line x1="1" y1="297.43" x2="6" y2="297.43" stroke="#737373" stroke-width="0.413333"/>
<line x1="1" y1="300.702" x2="6" y2="300.702" stroke="#737373" stroke-width="0.413333"/>
<line x1="1" y1="303.975" x2="6" y2="303.975" stroke="#737373" stroke-width="0.413333"/>
<line x1="1" y1="307.248" x2="6" y2="307.248" stroke="#737373" stroke-width="0.413333"/>
<line x1="1" y1="310.52" x2="6" y2="310.52" stroke="#737373" stroke-width="0.413333"/>
<line x1="1" y1="313.793" x2="6" y2="313.793" stroke="#737373" stroke-width="0.413333"/>
<line x1="1" y1="317.067" x2="6" y2="317.067" stroke="#737373" stroke-width="0.413333"/>
<line x1="1" y1="320.338" x2="6" y2="320.338" stroke="#737373" stroke-width="0.413333"/>
<line x1="1" y1="323.612" x2="6" y2="323.612" stroke="#737373" stroke-width="0.413333"/>
<line x1="1" y1="326.885" x2="6" y2="326.885" stroke="#737373" stroke-width="0.413333"/>
<line x1="1" y1="330.157" x2="6" y2="330.157" stroke="#737373" stroke-width="0.413333"/>
<line x1="1" y1="333.43" x2="6" y2="333.43" stroke="#737373" stroke-width="0.413333"/>
<line x1="1" y1="336.702" x2="6" y2="336.702" stroke="#737373" stroke-width="0.413333"/>
<line x1="1" y1="339.975" x2="6" y2="339.975" stroke="#737373" stroke-width="0.413333"/>
<line x1="1" y1="343.248" x2="6" y2="343.248" stroke="#737373" stroke-width="0.413333"/>
<line x1="1" y1="346.52" x2="6" y2="346.52" stroke="#737373" stroke-width="0.413333"/>
<line x1="1" y1="349.793" x2="6" y2="349.793" stroke="#737373" stroke-width="0.413333"/>
<line x1="1" y1="196.793" x2="6" y2="196.793" stroke="#737373" stroke-width="0.413333"/>
<line x1="1" y1="200.157" x2="6" y2="200.157" stroke="#737373" stroke-width="0.413333"/>
<line x1="1" y1="203.52" x2="6" y2="203.52" stroke="#737373" stroke-width="0.413333"/>
<line x1="1" y1="206.885" x2="6" y2="206.885" stroke="#737373" stroke-width="0.413333"/>
<line x1="1" y1="210.248" x2="6" y2="210.248" stroke="#737373" stroke-width="0.413333"/>
<line x1="1" y1="213.612" x2="6" y2="213.612" stroke="#737373" stroke-width="0.413333"/>
<line x1="1" y1="216.975" x2="6" y2="216.975" stroke="#737373" stroke-width="0.413333"/>
<line x1="1" y1="220.338" x2="6" y2="220.338" stroke="#737373" stroke-width="0.413333"/>
<line x1="1" y1="223.702" x2="6" y2="223.702" stroke="#737373" stroke-width="0.413333"/>
<line x1="1" y1="227.067" x2="6" y2="227.067" stroke="#737373" stroke-width="0.413333"/>
<line x1="1" y1="230.43" x2="6" y2="230.43" stroke="#737373" stroke-width="0.413333"/>
<line x1="1" y1="233.793" x2="6" y2="233.793" stroke="#737373" stroke-width="0.413333"/>
<line x1="1" y1="237.157" x2="6" y2="237.157" stroke="#737373" stroke-width="0.413333"/>
<line x1="1" y1="240.52" x2="6" y2="240.52" stroke="#737373" stroke-width="0.413333"/>
<line x1="1" y1="243.885" x2="6" y2="243.885" stroke="#737373" stroke-width="0.413333"/>
<line x1="1" y1="247.248" x2="6" y2="247.248" stroke="#737373" stroke-width="0.413333"/>
<line x1="1" y1="250.612" x2="6" y2="250.612" stroke="#737373" stroke-width="0.413333"/>
<line x1="1" y1="253.975" x2="6" y2="253.975" stroke="#737373" stroke-width="0.413333"/>
<line x1="1" y1="257.338" x2="6" y2="257.338" stroke="#737373" stroke-width="0.413333"/>
<line x1="1" y1="260.702" x2="6" y2="260.702" stroke="#737373" stroke-width="0.413333"/>
<line x1="1" y1="264.067" x2="6" y2="264.067" stroke="#737373" stroke-width="0.413333"/>
<line x1="1" y1="267.43" x2="6" y2="267.43" stroke="#737373" stroke-width="0.413333"/>
<line x1="1" y1="270.793" x2="6" y2="270.793" stroke="#737373" stroke-width="0.413333"/>
<line x1="1" y1="113.793" x2="6" y2="113.793" stroke="#737373" stroke-width="0.413333"/>
<line x1="1" y1="117.157" x2="6" y2="117.157" stroke="#737373" stroke-width="0.413333"/>
<line x1="1" y1="120.52" x2="6" y2="120.52" stroke="#737373" stroke-width="0.413333"/>
<line x1="1" y1="123.885" x2="6" y2="123.885" stroke="#737373" stroke-width="0.413333"/>
<line x1="1" y1="127.248" x2="6" y2="127.248" stroke="#737373" stroke-width="0.413333"/>
<line x1="1" y1="130.612" x2="6" y2="130.612" stroke="#737373" stroke-width="0.413333"/>
<line x1="1" y1="133.975" x2="6" y2="133.975" stroke="#737373" stroke-width="0.413333"/>
<line x1="1" y1="137.338" x2="6" y2="137.338" stroke="#737373" stroke-width="0.413333"/>
<line x1="1" y1="140.702" x2="6" y2="140.702" stroke="#737373" stroke-width="0.413333"/>
<line x1="1" y1="144.067" x2="6" y2="144.067" stroke="#737373" stroke-width="0.413333"/>
<line x1="1" y1="147.43" x2="6" y2="147.43" stroke="#737373" stroke-width="0.413333"/>
<line x1="1" y1="150.793" x2="6" y2="150.793" stroke="#737373" stroke-width="0.413333"/>
<line x1="1" y1="154.157" x2="6" y2="154.157" stroke="#737373" stroke-width="0.413333"/>
<line x1="1" y1="157.52" x2="6" y2="157.52" stroke="#737373" stroke-width="0.413333"/>
<line x1="1" y1="160.885" x2="6" y2="160.885" stroke="#737373" stroke-width="0.413333"/>
<line x1="1" y1="164.248" x2="6" y2="164.248" stroke="#737373" stroke-width="0.413333"/>
<line x1="1" y1="167.612" x2="6" y2="167.612" stroke="#737373" stroke-width="0.413333"/>
<line x1="1" y1="170.975" x2="6" y2="170.975" stroke="#737373" stroke-width="0.413333"/>
<line x1="1" y1="174.338" x2="6" y2="174.338" stroke="#737373" stroke-width="0.413333"/>
<line x1="1" y1="177.702" x2="6" y2="177.702" stroke="#737373" stroke-width="0.413333"/>
<line x1="1" y1="181.067" x2="6" y2="181.067" stroke="#737373" stroke-width="0.413333"/>
<line x1="1" y1="184.43" x2="6" y2="184.43" stroke="#737373" stroke-width="0.413333"/>
<line x1="1" y1="187.793" x2="6" y2="187.793" stroke="#737373" stroke-width="0.413333"/>
<line x1="1" y1="32.7933" x2="6" y2="32.7933" stroke="#737373" stroke-width="0.413333"/>
<line x1="1" y1="36.1566" x2="6" y2="36.1566" stroke="#737373" stroke-width="0.413333"/>
<line x1="1" y1="39.5199" x2="6" y2="39.5199" stroke="#737373" stroke-width="0.413333"/>
<line x1="1" y1="42.8851" x2="6" y2="42.8851" stroke="#737373" stroke-width="0.413333"/>
<line x1="1" y1="46.2484" x2="6" y2="46.2484" stroke="#737373" stroke-width="0.413333"/>
<line x1="1" y1="49.6117" x2="6" y2="49.6117" stroke="#737373" stroke-width="0.413333"/>
<line x1="1" y1="52.975" x2="6" y2="52.975" stroke="#737373" stroke-width="0.413333"/>
<line x1="1" y1="56.3383" x2="6" y2="56.3383" stroke="#737373" stroke-width="0.413333"/>
<line x1="1" y1="59.7015" x2="6" y2="59.7015" stroke="#737373" stroke-width="0.413333"/>
<line x1="1" y1="63.0668" x2="6" y2="63.0668" stroke="#737373" stroke-width="0.413333"/>
<line x1="1" y1="66.4301" x2="6" y2="66.4301" stroke="#737373" stroke-width="0.413333"/>
<line x1="1" y1="69.7933" x2="6" y2="69.7933" stroke="#737373" stroke-width="0.413333"/>
<line x1="1" y1="73.1566" x2="6" y2="73.1566" stroke="#737373" stroke-width="0.413333"/>
<line x1="1" y1="76.5199" x2="6" y2="76.5199" stroke="#737373" stroke-width="0.413333"/>
<line x1="1" y1="79.8851" x2="6" y2="79.8851" stroke="#737373" stroke-width="0.413333"/>
<line x1="1" y1="83.2484" x2="6" y2="83.2484" stroke="#737373" stroke-width="0.413333"/>
<line x1="1" y1="86.6117" x2="6" y2="86.6117" stroke="#737373" stroke-width="0.413333"/>
<line x1="1" y1="89.975" x2="6" y2="89.975" stroke="#737373" stroke-width="0.413333"/>
<line x1="1" y1="93.3383" x2="6" y2="93.3383" stroke="#737373" stroke-width="0.413333"/>
<line x1="1" y1="96.7015" x2="6" y2="96.7015" stroke="#737373" stroke-width="0.413333"/>
<line x1="1" y1="100.067" x2="6" y2="100.067" stroke="#737373" stroke-width="0.413333"/>
<line x1="1" y1="103.43" x2="6" y2="103.43" stroke="#737373" stroke-width="0.413333"/>
<line x1="1" y1="106.793" x2="6" y2="106.793" stroke="#737373" stroke-width="0.413333"/>
<path d="M23.4297 370.139C22.6806 370.139 22.0426 369.935 21.5156 369.528C20.9886 369.117 20.5859 368.522 20.3075 367.743C20.0291 366.961 19.8899 366.016 19.8899 364.909C19.8899 363.809 20.0291 362.869 20.3075 362.09C20.5893 361.308 20.9936 360.711 21.5206 360.3C22.0509 359.886 22.6873 359.679 23.4297 359.679C24.1721 359.679 24.8068 359.886 25.3338 360.3C25.8641 360.711 26.2685 361.308 26.5469 362.09C26.8286 362.869 26.9695 363.809 26.9695 364.909C26.9695 366.016 26.8303 366.961 26.5518 367.743C26.2734 368.522 25.8707 369.117 25.3438 369.528C24.8168 369.935 24.1787 370.139 23.4297 370.139ZM23.4297 369.045C24.1721 369.045 24.7488 368.687 25.1598 367.972C25.5708 367.256 25.7763 366.235 25.7763 364.909C25.7763 364.027 25.6818 363.277 25.4929 362.657C25.3073 362.037 25.0388 361.565 24.6875 361.24C24.3395 360.915 23.9202 360.753 23.4297 360.753C22.6939 360.753 22.1188 361.116 21.7045 361.842C21.2902 362.564 21.0831 363.587 21.0831 364.909C21.0831 365.791 21.1759 366.54 21.3615 367.156C21.5471 367.773 21.8139 368.242 22.1619 368.563C22.5133 368.885 22.9358 369.045 23.4297 369.045ZM28.8587 370V369.105L32.2195 365.426C32.6139 364.995 32.9387 364.621 33.1939 364.303C33.4491 363.981 33.638 363.679 33.7607 363.398C33.8866 363.113 33.9496 362.814 33.9496 362.503C33.9496 362.145 33.8634 361.835 33.6911 361.573C33.522 361.311 33.29 361.109 32.995 360.967C32.7 360.824 32.3686 360.753 32.0007 360.753C31.6096 360.753 31.2682 360.834 30.9766 360.996C30.6882 361.156 30.4645 361.379 30.3054 361.668C30.1496 361.956 30.0717 362.294 30.0717 362.682H28.8984C28.8984 362.085 29.036 361.562 29.3111 361.111C29.5862 360.66 29.9607 360.309 30.4347 360.057C30.9119 359.805 31.4472 359.679 32.0405 359.679C32.6371 359.679 33.1657 359.805 33.6264 360.057C34.0871 360.309 34.4484 360.648 34.7102 361.076C34.9721 361.504 35.103 361.979 35.103 362.503C35.103 362.877 35.035 363.244 34.8991 363.602C34.7666 363.956 34.5346 364.352 34.2031 364.79C33.875 365.224 33.4193 365.754 32.8359 366.381L30.549 368.827V368.906H35.282V370H28.8587ZM40.9545 359.341L37.6733 371.531H36.5994L39.8807 359.341H40.9545ZM42.3255 370V369.105L45.6863 365.426C46.0807 364.995 46.4055 364.621 46.6607 364.303C46.9159 363.981 47.1048 363.679 47.2275 363.398C47.3534 363.113 47.4164 362.814 47.4164 362.503C47.4164 362.145 47.3302 361.835 47.1578 361.573C46.9888 361.311 46.7568 361.109 46.4618 360.967C46.1668 360.824 45.8354 360.753 45.4675 360.753C45.0764 360.753 44.735 360.834 44.4434 360.996C44.155 361.156 43.9313 361.379 43.7722 361.668C43.6164 361.956 43.5385 362.294 43.5385 362.682H42.3652C42.3652 362.085 42.5028 361.562 42.7779 361.111C43.053 360.66 43.4275 360.309 43.9015 360.057C44.3787 359.805 44.914 359.679 45.5073 359.679C46.1039 359.679 46.6325 359.805 47.0932 360.057C47.5539 360.309 47.9152 360.648 48.177 361.076C48.4389 361.504 48.5698 361.979 48.5698 362.503C48.5698 362.877 48.5018 363.244 48.3659 363.602C48.2334 363.956 48.0014 364.352 47.6699 364.79C47.3418 365.224 46.8861 365.754 46.3027 366.381L44.0158 368.827V368.906H48.7488V370H42.3255ZM54.123 370.139C53.374 370.139 52.736 369.935 52.209 369.528C51.682 369.117 51.2793 368.522 51.0009 367.743C50.7225 366.961 50.5833 366.016 50.5833 364.909C50.5833 363.809 50.7225 362.869 51.0009 362.09C51.2826 361.308 51.687 360.711 52.214 360.3C52.7443 359.886 53.3806 359.679 54.123 359.679C54.8655 359.679 55.5002 359.886 56.0272 360.3C56.5575 360.711 56.9618 361.308 57.2402 362.09C57.522 362.869 57.6628 363.809 57.6628 364.909C57.6628 366.016 57.5236 366.961 57.2452 367.743C56.9668 368.522 56.5641 369.117 56.0371 369.528C55.5101 369.935 54.8721 370.139 54.123 370.139ZM54.123 369.045C54.8655 369.045 55.4422 368.687 55.8532 367.972C56.2641 367.256 56.4696 366.235 56.4696 364.909C56.4696 364.027 56.3752 363.277 56.1863 362.657C56.0007 362.037 55.7322 361.565 55.3809 361.24C55.0328 360.915 54.6136 360.753 54.123 360.753C53.3873 360.753 52.8122 361.116 52.3979 361.842C51.9836 362.564 51.7765 363.587 51.7765 364.909C51.7765 365.791 51.8693 366.54 52.0549 367.156C52.2405 367.773 52.5073 368.242 52.8553 368.563C53.2066 368.885 53.6292 369.045 54.123 369.045ZM63.1316 359.818V370H61.8986V361.111H61.839L59.3532 362.761V361.509L61.8986 359.818H63.1316ZM69.3013 359.679C69.7189 359.682 70.1365 359.762 70.5542 359.918C70.9718 360.073 71.3529 360.332 71.6976 360.693C72.0423 361.051 72.3191 361.54 72.5279 362.16C72.7367 362.78 72.8411 363.557 72.8411 364.491C72.8411 365.396 72.7549 366.2 72.5826 366.903C72.4135 367.602 72.1683 368.192 71.8468 368.673C71.5286 369.153 71.1408 369.518 70.6834 369.766C70.2293 370.015 69.7156 370.139 69.1422 370.139C68.5721 370.139 68.0634 370.027 67.6159 369.801C67.1718 369.572 66.8072 369.256 66.5222 368.852C66.2405 368.444 66.0598 367.972 65.9803 367.435H67.1934C67.3027 367.902 67.5198 368.288 67.8446 368.593C68.1728 368.895 68.6053 369.045 69.1422 369.045C69.9277 369.045 70.5475 368.702 71.0016 368.016C71.459 367.33 71.6877 366.361 71.6877 365.108H71.6081C71.4225 365.386 71.2021 365.627 70.9469 365.829C70.6917 366.031 70.4083 366.187 70.0968 366.296C69.7852 366.406 69.4538 366.46 69.1025 366.46C68.5191 366.46 67.9838 366.316 67.4966 366.028C67.0127 365.736 66.6249 365.337 66.3333 364.83C66.0449 364.319 65.9007 363.736 65.9007 363.08C65.9007 362.456 66.04 361.886 66.3184 361.369C66.6001 360.849 66.9945 360.435 67.5016 360.126C68.012 359.818 68.6119 359.669 69.3013 359.679ZM69.3013 360.773C68.8837 360.773 68.5075 360.877 68.1728 361.086C67.8413 361.291 67.5778 361.57 67.3823 361.921C67.19 362.269 67.0939 362.655 67.0939 363.08C67.0939 363.504 67.1867 363.89 67.3723 364.238C67.5613 364.583 67.8181 364.858 68.1429 365.063C68.4711 365.265 68.8439 365.366 69.2615 365.366C69.5764 365.366 69.8697 365.305 70.1415 365.183C70.4133 365.057 70.6503 364.886 70.8525 364.67C71.0579 364.452 71.2187 364.205 71.3347 363.93C71.4507 363.651 71.5087 363.361 71.5087 363.06C71.5087 362.662 71.4126 362.289 71.2203 361.941C71.0314 361.593 70.7696 361.311 70.4348 361.096C70.1034 360.88 69.7256 360.773 69.3013 360.773Z" fill="#EFEEEC"/>
<path d="M60.233 214V203.818H61.4659V208.352H66.8949V203.818H68.1278V214H66.8949V209.446H61.4659V214H60.233ZM72.6843 214.179C72.2004 214.179 71.7612 214.088 71.3668 213.906C70.9724 213.72 70.6592 213.453 70.4272 213.105C70.1952 212.754 70.0792 212.33 70.0792 211.832C70.0792 211.395 70.1654 211.04 70.3377 210.768C70.5101 210.493 70.7404 210.278 71.0288 210.122C71.3171 209.966 71.6353 209.85 71.9833 209.774C72.3346 209.695 72.6876 209.632 73.0423 209.585C73.5063 209.526 73.8825 209.481 74.1708 209.451C74.4625 209.418 74.6746 209.363 74.8072 209.287C74.9431 209.211 75.011 209.078 75.011 208.889V208.849C75.011 208.359 74.8768 207.978 74.6083 207.706C74.3432 207.434 73.9405 207.298 73.4002 207.298C72.8401 207.298 72.4009 207.421 72.0827 207.666C71.7646 207.911 71.5408 208.173 71.4116 208.452L70.2979 208.054C70.4968 207.59 70.762 207.229 71.0934 206.97C71.4281 206.708 71.7927 206.526 72.1871 206.423C72.5849 206.317 72.976 206.264 73.3604 206.264C73.6057 206.264 73.8874 206.294 74.2056 206.354C74.5271 206.41 74.837 206.528 75.1353 206.707C75.4369 206.886 75.6871 207.156 75.886 207.517C76.0849 207.878 76.1843 208.362 76.1843 208.969V214H75.011V212.966H74.9513C74.8718 213.132 74.7392 213.309 74.5536 213.498C74.368 213.687 74.1211 213.848 73.8129 213.98C73.5046 214.113 73.1284 214.179 72.6843 214.179ZM72.8633 213.125C73.3273 213.125 73.7184 213.034 74.0366 212.852C74.3581 212.669 74.6 212.434 74.7624 212.146C74.9281 211.857 75.011 211.554 75.011 211.236V210.162C74.9613 210.222 74.8519 210.276 74.6829 210.326C74.5172 210.372 74.3249 210.414 74.1062 210.45C73.8907 210.483 73.6803 210.513 73.4748 210.54C73.2726 210.563 73.1085 210.583 72.9826 210.599C72.6777 210.639 72.3926 210.704 72.1275 210.793C71.8656 210.879 71.6535 211.01 71.4911 211.186C71.332 211.358 71.2525 211.594 71.2525 211.892C71.2525 212.3 71.4033 212.608 71.7049 212.817C72.0098 213.022 72.396 213.125 72.8633 213.125ZM84.2122 206.364V214H83.0389V206.364H84.2122ZM83.7548 210.003V211.097C83.4896 211.196 83.2261 211.284 82.9643 211.36C82.7025 211.433 82.4274 211.491 82.139 211.534C81.8507 211.574 81.5342 211.594 81.1895 211.594C80.3244 211.594 79.63 211.36 79.1064 210.893C78.586 210.425 78.3258 209.724 78.3258 208.79V206.344H79.4991V208.79C79.4991 209.181 79.5737 209.502 79.7228 209.754C79.872 210.006 80.0742 210.193 80.3294 210.316C80.5846 210.439 80.8713 210.5 81.1895 210.5C81.6866 210.5 82.1357 210.455 82.5368 210.366C82.9411 210.273 83.3471 210.152 83.7548 210.003ZM88.612 214.179C88.1281 214.179 87.689 214.088 87.2946 213.906C86.9002 213.72 86.5869 213.453 86.3549 213.105C86.1229 212.754 86.0069 212.33 86.0069 211.832C86.0069 211.395 86.0931 211.04 86.2654 210.768C86.4378 210.493 86.6681 210.278 86.9565 210.122C87.2449 209.966 87.563 209.85 87.911 209.774C88.2624 209.695 88.6154 209.632 88.97 209.585C89.434 209.526 89.8102 209.481 90.0985 209.451C90.3902 209.418 90.6023 209.363 90.7349 209.287C90.8708 209.211 90.9387 209.078 90.9387 208.889V208.849C90.9387 208.359 90.8045 207.978 90.536 207.706C90.2709 207.434 89.8682 207.298 89.3279 207.298C88.7678 207.298 88.3287 207.421 88.0105 207.666C87.6923 207.911 87.4686 208.173 87.3393 208.452L86.2257 208.054C86.4245 207.59 86.6897 207.229 87.0211 206.97C87.3559 206.708 87.7205 206.526 88.1149 206.423C88.5126 206.317 88.9037 206.264 89.2882 206.264C89.5334 206.264 89.8152 206.294 90.1333 206.354C90.4548 206.41 90.7647 206.528 91.063 206.707C91.3646 206.886 91.6149 207.156 91.8137 207.517C92.0126 207.878 92.112 208.362 92.112 208.969V214H90.9387V212.966H90.8791C90.7995 213.132 90.667 213.309 90.4814 213.498C90.2958 213.687 90.0488 213.848 89.7406 213.98C89.4324 214.113 89.0562 214.179 88.612 214.179ZM88.791 213.125C89.255 213.125 89.6461 213.034 89.9643 212.852C90.2858 212.669 90.5278 212.434 90.6902 212.146C90.8559 211.857 90.9387 211.554 90.9387 211.236V210.162C90.889 210.222 90.7797 210.276 90.6106 210.326C90.4449 210.372 90.2527 210.414 90.0339 210.45C89.8185 210.483 89.608 210.513 89.4025 210.54C89.2003 210.563 89.0363 210.583 88.9103 210.599C88.6054 210.639 88.3204 210.704 88.0552 210.793C87.7934 210.879 87.5813 211.01 87.4189 211.186C87.2598 211.358 87.1802 211.594 87.1802 211.892C87.1802 212.3 87.331 212.608 87.6326 212.817C87.9376 213.022 88.3237 213.125 88.791 213.125ZM93.5774 214V212.906H93.8558C94.0845 212.906 94.2751 212.862 94.4276 212.772C94.58 212.679 94.7027 212.518 94.7955 212.29C94.8916 212.058 94.9645 211.736 95.0142 211.325C95.0672 210.911 95.1054 210.384 95.1286 209.744L95.2678 206.364H100.359V214H99.1854V207.457H96.3814L96.2621 210.182C96.2356 210.808 96.1792 211.36 96.093 211.837C96.0102 212.311 95.8826 212.709 95.7102 213.031C95.5412 213.352 95.3158 213.594 95.0341 213.756C94.7524 213.919 94.3994 214 93.9751 214H93.5774ZM105.614 214.159C104.924 214.159 104.319 213.995 103.799 213.667C103.282 213.339 102.878 212.88 102.586 212.29C102.298 211.7 102.153 211.01 102.153 210.222C102.153 209.426 102.298 208.732 102.586 208.138C102.878 207.545 103.282 207.085 103.799 206.756C104.319 206.428 104.924 206.264 105.614 206.264C106.303 206.264 106.906 206.428 107.423 206.756C107.944 207.085 108.348 207.545 108.636 208.138C108.928 208.732 109.074 209.426 109.074 210.222C109.074 211.01 108.928 211.7 108.636 212.29C108.348 212.88 107.944 213.339 107.423 213.667C106.906 213.995 106.303 214.159 105.614 214.159ZM105.614 213.105C106.137 213.105 106.568 212.971 106.906 212.702C107.244 212.434 107.495 212.081 107.657 211.643C107.819 211.206 107.901 210.732 107.901 210.222C107.901 209.711 107.819 209.236 107.657 208.795C107.495 208.354 107.244 207.998 106.906 207.726C106.568 207.454 106.137 207.318 105.614 207.318C105.09 207.318 104.659 207.454 104.321 207.726C103.983 207.998 103.733 208.354 103.57 208.795C103.408 209.236 103.327 209.711 103.327 210.222C103.327 210.732 103.408 211.206 103.57 211.643C103.733 212.081 103.983 212.434 104.321 212.702C104.659 212.971 105.09 213.105 105.614 213.105ZM114.802 216.864V206.364H115.936V207.577H116.075C116.161 207.444 116.281 207.275 116.433 207.07C116.589 206.861 116.811 206.675 117.099 206.513C117.391 206.347 117.785 206.264 118.282 206.264C118.925 206.264 119.492 206.425 119.983 206.746C120.473 207.068 120.856 207.524 121.131 208.114C121.406 208.704 121.544 209.4 121.544 210.202C121.544 211.01 121.406 211.711 121.131 212.305C120.856 212.895 120.475 213.352 119.988 213.677C119.501 213.998 118.939 214.159 118.302 214.159C117.812 214.159 117.419 214.078 117.124 213.915C116.829 213.75 116.602 213.562 116.443 213.354C116.284 213.142 116.161 212.966 116.075 212.827H115.976V216.864H114.802ZM115.956 210.182C115.956 210.759 116.04 211.267 116.209 211.708C116.378 212.146 116.625 212.489 116.95 212.737C117.275 212.982 117.673 213.105 118.143 213.105C118.634 213.105 119.043 212.976 119.371 212.717C119.703 212.455 119.951 212.104 120.117 211.663C120.286 211.219 120.371 210.725 120.371 210.182C120.371 209.645 120.288 209.161 120.122 208.73C119.96 208.296 119.713 207.953 119.381 207.701C119.053 207.446 118.64 207.318 118.143 207.318C117.666 207.318 117.265 207.439 116.94 207.681C116.615 207.92 116.37 208.254 116.204 208.685C116.039 209.113 115.956 209.612 115.956 210.182ZM125.581 214.179C125.097 214.179 124.658 214.088 124.263 213.906C123.869 213.72 123.556 213.453 123.324 213.105C123.092 212.754 122.976 212.33 122.976 211.832C122.976 211.395 123.062 211.04 123.234 210.768C123.407 210.493 123.637 210.278 123.925 210.122C124.214 209.966 124.532 209.85 124.88 209.774C125.231 209.695 125.584 209.632 125.939 209.585C126.403 209.526 126.779 209.481 127.067 209.451C127.359 209.418 127.571 209.363 127.704 209.287C127.84 209.211 127.907 209.078 127.907 208.889V208.849C127.907 208.359 127.773 207.978 127.505 207.706C127.24 207.434 126.837 207.298 126.297 207.298C125.737 207.298 125.297 207.421 124.979 207.666C124.661 207.911 124.437 208.173 124.308 208.452L123.194 208.054C123.393 207.59 123.658 207.229 123.99 206.97C124.325 206.708 124.689 206.526 125.084 206.423C125.481 206.317 125.872 206.264 126.257 206.264C126.502 206.264 126.784 206.294 127.102 206.354C127.424 206.41 127.733 206.528 128.032 206.707C128.333 206.886 128.584 207.156 128.782 207.517C128.981 207.878 129.081 208.362 129.081 208.969V214H127.907V212.966H127.848C127.768 213.132 127.636 213.309 127.45 213.498C127.265 213.687 127.018 213.848 126.709 213.98C126.401 214.113 126.025 214.179 125.581 214.179ZM125.76 213.125C126.224 213.125 126.615 213.034 126.933 212.852C127.255 212.669 127.497 212.434 127.659 212.146C127.825 211.857 127.907 211.554 127.907 211.236V210.162C127.858 210.222 127.748 210.276 127.579 210.326C127.414 210.372 127.221 210.414 127.003 210.45C126.787 210.483 126.577 210.513 126.371 210.54C126.169 210.563 126.005 210.583 125.879 210.599C125.574 210.639 125.289 210.704 125.024 210.793C124.762 210.879 124.55 211.01 124.388 211.186C124.229 211.358 124.149 211.594 124.149 211.892C124.149 212.3 124.3 212.608 124.601 212.817C124.906 213.022 125.292 213.125 125.76 213.125ZM136.89 203.5L137.487 204.216C137.254 204.441 136.986 204.599 136.681 204.688C136.376 204.778 136.031 204.832 135.647 204.852C135.263 204.872 134.835 204.892 134.364 204.912C133.834 204.932 133.395 205.061 133.047 205.3C132.699 205.538 132.43 205.883 132.241 206.334C132.053 206.785 131.932 207.338 131.879 207.994H131.978C132.237 207.517 132.594 207.166 133.052 206.94C133.509 206.715 134 206.602 134.523 206.602C135.12 206.602 135.657 206.741 136.134 207.02C136.612 207.298 136.989 207.711 137.268 208.258C137.546 208.805 137.685 209.479 137.685 210.281C137.685 211.08 137.543 211.769 137.258 212.349C136.976 212.929 136.58 213.377 136.07 213.692C135.563 214.003 134.968 214.159 134.285 214.159C133.602 214.159 133.004 213.998 132.49 213.677C131.976 213.352 131.577 212.871 131.292 212.235C131.007 211.595 130.864 210.805 130.864 209.864V209.048C130.864 207.348 131.153 206.059 131.729 205.18C132.309 204.302 133.181 203.848 134.344 203.818C134.755 203.805 135.122 203.802 135.443 203.808C135.765 203.815 136.045 203.8 136.283 203.763C136.522 203.727 136.724 203.639 136.89 203.5ZM134.285 213.105C134.746 213.105 135.142 212.989 135.473 212.757C135.808 212.525 136.065 212.199 136.244 211.778C136.423 211.353 136.512 210.855 136.512 210.281C136.512 209.724 136.421 209.25 136.239 208.859C136.06 208.468 135.803 208.17 135.468 207.964C135.133 207.759 134.732 207.656 134.265 207.656C133.924 207.656 133.617 207.714 133.345 207.83C133.073 207.946 132.841 208.117 132.649 208.342C132.457 208.568 132.308 208.843 132.202 209.168C132.099 209.492 132.044 209.864 132.038 210.281C132.038 211.136 132.238 211.821 132.639 212.335C133.04 212.848 133.589 213.105 134.285 213.105ZM142.582 214.159C141.893 214.159 141.288 213.995 140.768 213.667C140.251 213.339 139.846 212.88 139.555 212.29C139.266 211.7 139.122 211.01 139.122 210.222C139.122 209.426 139.266 208.732 139.555 208.138C139.846 207.545 140.251 207.085 140.768 206.756C141.288 206.428 141.893 206.264 142.582 206.264C143.272 206.264 143.875 206.428 144.392 206.756C144.912 207.085 145.317 207.545 145.605 208.138C145.897 208.732 146.043 209.426 146.043 210.222C146.043 211.01 145.897 211.7 145.605 212.29C145.317 212.88 144.912 213.339 144.392 213.667C143.875 213.995 143.272 214.159 142.582 214.159ZM142.582 213.105C143.106 213.105 143.537 212.971 143.875 212.702C144.213 212.434 144.463 212.081 144.626 211.643C144.788 211.206 144.869 210.732 144.869 210.222C144.869 209.711 144.788 209.236 144.626 208.795C144.463 208.354 144.213 207.998 143.875 207.726C143.537 207.454 143.106 207.318 142.582 207.318C142.059 207.318 141.628 207.454 141.29 207.726C140.952 207.998 140.701 208.354 140.539 208.795C140.377 209.236 140.295 209.711 140.295 210.222C140.295 210.732 140.377 211.206 140.539 211.643C140.701 212.081 140.952 212.434 141.29 212.702C141.628 212.971 142.059 213.105 142.582 213.105ZM146.836 207.457V206.364H153.04V207.457H150.534V214H149.361V207.457H146.836Z" fill="#EFEEEC"/>
<path d="M121.52 359.818V370H120.287V361.111H120.228L117.742 362.761V361.509L120.287 359.818H121.52ZM124.449 370V369.105L127.809 365.426C128.204 364.995 128.529 364.621 128.784 364.303C129.039 363.981 129.228 363.679 129.35 363.398C129.476 363.113 129.539 362.814 129.539 362.503C129.539 362.145 129.453 361.835 129.281 361.573C129.112 361.311 128.88 361.109 128.585 360.967C128.29 360.824 127.958 360.753 127.591 360.753C127.199 360.753 126.858 360.834 126.566 360.996C126.278 361.156 126.054 361.379 125.895 361.668C125.739 361.956 125.662 362.294 125.662 362.682H124.488C124.488 362.085 124.626 361.562 124.901 361.111C125.176 360.66 125.551 360.309 126.025 360.057C126.502 359.805 127.037 359.679 127.63 359.679C128.227 359.679 128.756 359.805 129.216 360.057C129.677 360.309 130.038 360.648 130.3 361.076C130.562 361.504 130.693 361.979 130.693 362.503C130.693 362.877 130.625 363.244 130.489 363.602C130.356 363.956 130.124 364.352 129.793 364.79C129.465 365.224 129.009 365.754 128.426 366.381L126.139 368.827V368.906H130.872V370H124.449ZM136.544 359.341L133.263 371.531H132.189L135.471 359.341H136.544ZM137.915 370V369.105L141.276 365.426C141.671 364.995 141.995 364.621 142.251 364.303C142.506 363.981 142.695 363.679 142.817 363.398C142.943 363.113 143.006 362.814 143.006 362.503C143.006 362.145 142.92 361.835 142.748 361.573C142.579 361.311 142.347 361.109 142.052 360.967C141.757 360.824 141.425 360.753 141.057 360.753C140.666 360.753 140.325 360.834 140.033 360.996C139.745 361.156 139.521 361.379 139.362 361.668C139.206 361.956 139.128 362.294 139.128 362.682H137.955C137.955 362.085 138.093 361.562 138.368 361.111C138.643 360.66 139.017 360.309 139.491 360.057C139.969 359.805 140.504 359.679 141.097 359.679C141.694 359.679 142.222 359.805 142.683 360.057C143.144 360.309 143.505 360.648 143.767 361.076C144.029 361.504 144.16 361.979 144.16 362.503C144.16 362.877 144.092 363.244 143.956 363.602C143.823 363.956 143.591 364.352 143.26 364.79C142.932 365.224 142.476 365.754 141.893 366.381L139.606 368.827V368.906H144.339V370H137.915ZM149.713 370.139C148.964 370.139 148.326 369.935 147.799 369.528C147.272 369.117 146.869 368.522 146.591 367.743C146.312 366.961 146.173 366.016 146.173 364.909C146.173 363.809 146.312 362.869 146.591 362.09C146.872 361.308 147.277 360.711 147.804 360.3C148.334 359.886 148.97 359.679 149.713 359.679C150.455 359.679 151.09 359.886 151.617 360.3C152.147 360.711 152.552 361.308 152.83 362.09C153.112 362.869 153.253 363.809 153.253 364.909C153.253 366.016 153.113 366.961 152.835 367.743C152.557 368.522 152.154 369.117 151.627 369.528C151.1 369.935 150.462 370.139 149.713 370.139ZM149.713 369.045C150.455 369.045 151.032 368.687 151.443 367.972C151.854 367.256 152.059 366.235 152.059 364.909C152.059 364.027 151.965 363.277 151.776 362.657C151.59 362.037 151.322 361.565 150.971 361.24C150.623 360.915 150.203 360.753 149.713 360.753C148.977 360.753 148.402 361.116 147.988 361.842C147.573 362.564 147.366 363.587 147.366 364.909C147.366 365.791 147.459 366.54 147.645 367.156C147.83 367.773 148.097 368.242 148.445 368.563C148.796 368.885 149.219 369.045 149.713 369.045ZM158.721 359.818V370H157.488V361.111H157.429L154.943 362.761V361.509L157.488 359.818H158.721ZM164.891 359.679C165.309 359.682 165.726 359.762 166.144 359.918C166.562 360.073 166.943 360.332 167.287 360.693C167.632 361.051 167.909 361.54 168.118 362.16C168.327 362.78 168.431 363.557 168.431 364.491C168.431 365.396 168.345 366.2 168.172 366.903C168.003 367.602 167.758 368.192 167.437 368.673C167.118 369.153 166.731 369.518 166.273 369.766C165.819 370.015 165.305 370.139 164.732 370.139C164.162 370.139 163.653 370.027 163.206 369.801C162.762 369.572 162.397 369.256 162.112 368.852C161.83 368.444 161.65 367.972 161.57 367.435H162.783C162.893 367.902 163.11 368.288 163.434 368.593C163.763 368.895 164.195 369.045 164.732 369.045C165.518 369.045 166.137 368.702 166.591 368.016C167.049 367.33 167.278 366.361 167.278 365.108H167.198C167.012 365.386 166.792 365.627 166.537 365.829C166.282 366.031 165.998 366.187 165.687 366.296C165.375 366.406 165.044 366.46 164.692 366.46C164.109 366.46 163.574 366.316 163.086 366.028C162.603 365.736 162.215 365.337 161.923 364.83C161.635 364.319 161.491 363.736 161.491 363.08C161.491 362.456 161.63 361.886 161.908 361.369C162.19 360.849 162.584 360.435 163.091 360.126C163.602 359.818 164.202 359.669 164.891 359.679ZM164.891 360.773C164.474 360.773 164.097 360.877 163.763 361.086C163.431 361.291 163.168 361.57 162.972 361.921C162.78 362.269 162.684 362.655 162.684 363.08C162.684 363.504 162.777 363.89 162.962 364.238C163.151 364.583 163.408 364.858 163.733 365.063C164.061 365.265 164.434 365.366 164.851 365.366C165.166 365.366 165.46 365.305 165.731 365.183C166.003 365.057 166.24 364.886 166.442 364.67C166.648 364.452 166.809 364.205 166.925 363.93C167.041 363.651 167.099 363.361 167.099 363.06C167.099 362.662 167.002 362.289 166.81 361.941C166.621 361.593 166.359 361.311 166.025 361.096C165.693 360.88 165.315 360.773 164.891 360.773Z" fill="#EFEEEC"/>
<path d="M275.537 359.818V370H274.304V361.111H274.244L271.758 362.761V361.509L274.304 359.818H275.537ZM278.465 370V369.105L281.826 365.426C282.22 364.995 282.545 364.621 282.8 364.303C283.056 363.981 283.244 363.679 283.367 363.398C283.493 363.113 283.556 362.814 283.556 362.503C283.556 362.145 283.47 361.835 283.297 361.573C283.128 361.311 282.896 361.109 282.601 360.967C282.306 360.824 281.975 360.753 281.607 360.753C281.216 360.753 280.875 360.834 280.583 360.996C280.295 361.156 280.071 361.379 279.912 361.668C279.756 361.956 279.678 362.294 279.678 362.682H278.505C278.505 362.085 278.642 361.562 278.918 361.111C279.193 360.66 279.567 360.309 280.041 360.057C280.518 359.805 281.054 359.679 281.647 359.679C282.244 359.679 282.772 359.805 283.233 360.057C283.694 360.309 284.055 360.648 284.317 361.076C284.579 361.504 284.709 361.979 284.709 362.503C284.709 362.877 284.641 363.244 284.506 363.602C284.373 363.956 284.141 364.352 283.81 364.79C283.481 365.224 283.026 365.754 282.442 366.381L280.155 368.827V368.906H284.888V370H278.465ZM290.561 359.341L287.28 371.531H286.206L289.487 359.341H290.561ZM291.932 370V369.105L295.293 365.426C295.687 364.995 296.012 364.621 296.267 364.303C296.522 363.981 296.711 363.679 296.834 363.398C296.96 363.113 297.023 362.814 297.023 362.503C297.023 362.145 296.937 361.835 296.764 361.573C296.595 361.311 296.363 361.109 296.068 360.967C295.773 360.824 295.442 360.753 295.074 360.753C294.683 360.753 294.341 360.834 294.05 360.996C293.761 361.156 293.538 361.379 293.379 361.668C293.223 361.956 293.145 362.294 293.145 362.682H291.972C291.972 362.085 292.109 361.562 292.384 361.111C292.659 360.66 293.034 360.309 293.508 360.057C293.985 359.805 294.52 359.679 295.114 359.679C295.71 359.679 296.239 359.805 296.7 360.057C297.16 360.309 297.522 360.648 297.783 361.076C298.045 361.504 298.176 361.979 298.176 362.503C298.176 362.877 298.108 363.244 297.972 363.602C297.84 363.956 297.608 364.352 297.276 364.79C296.948 365.224 296.493 365.754 295.909 366.381L293.622 368.827V368.906H298.355V370H291.932ZM303.729 370.139C302.98 370.139 302.342 369.935 301.815 369.528C301.288 369.117 300.886 368.522 300.607 367.743C300.329 366.961 300.19 366.016 300.19 364.909C300.19 363.809 300.329 362.869 300.607 362.09C300.889 361.308 301.293 360.711 301.82 360.3C302.351 359.886 302.987 359.679 303.729 359.679C304.472 359.679 305.107 359.886 305.634 360.3C306.164 360.711 306.568 361.308 306.847 362.09C307.128 362.869 307.269 363.809 307.269 364.909C307.269 366.016 307.13 366.961 306.852 367.743C306.573 368.522 306.171 369.117 305.644 369.528C305.117 369.935 304.479 370.139 303.729 370.139ZM303.729 369.045C304.472 369.045 305.049 368.687 305.46 367.972C305.871 367.256 306.076 366.235 306.076 364.909C306.076 364.027 305.982 363.277 305.793 362.657C305.607 362.037 305.339 361.565 304.987 361.24C304.639 360.915 304.22 360.753 303.729 360.753C302.994 360.753 302.419 361.116 302.004 361.842C301.59 362.564 301.383 363.587 301.383 364.909C301.383 365.791 301.476 366.54 301.661 367.156C301.847 367.773 302.114 368.242 302.462 368.563C302.813 368.885 303.236 369.045 303.729 369.045ZM309.158 370V369.105L312.519 365.426C312.914 364.995 313.238 364.621 313.494 364.303C313.749 363.981 313.938 363.679 314.06 363.398C314.186 363.113 314.249 362.814 314.249 362.503C314.249 362.145 314.163 361.835 313.991 361.573C313.822 361.311 313.59 361.109 313.295 360.967C313 360.824 312.668 360.753 312.301 360.753C311.909 360.753 311.568 360.834 311.276 360.996C310.988 361.156 310.764 361.379 310.605 361.668C310.449 361.956 310.372 362.294 310.372 362.682H309.198C309.198 362.085 309.336 361.562 309.611 361.111C309.886 360.66 310.261 360.309 310.734 360.057C311.212 359.805 311.747 359.679 312.34 359.679C312.937 359.679 313.466 359.805 313.926 360.057C314.387 360.309 314.748 360.648 315.01 361.076C315.272 361.504 315.403 361.979 315.403 362.503C315.403 362.877 315.335 363.244 315.199 363.602C315.066 363.956 314.834 364.352 314.503 364.79C314.175 365.224 313.719 365.754 313.136 366.381L310.849 368.827V368.906H315.582V370H309.158ZM320.956 370.139C320.207 370.139 319.569 369.935 319.042 369.528C318.515 369.117 318.112 368.522 317.834 367.743C317.555 366.961 317.416 366.016 317.416 364.909C317.416 363.809 317.555 362.869 317.834 362.09C318.116 361.308 318.52 360.711 319.047 360.3C319.577 359.886 320.214 359.679 320.956 359.679C321.698 359.679 322.333 359.886 322.86 360.3C323.39 360.711 323.795 361.308 324.073 362.09C324.355 362.869 324.496 363.809 324.496 364.909C324.496 366.016 324.357 366.961 324.078 367.743C323.8 368.522 323.397 369.117 322.87 369.528C322.343 369.935 321.705 370.139 320.956 370.139ZM320.956 369.045C321.698 369.045 322.275 368.687 322.686 367.972C323.097 367.256 323.303 366.235 323.303 364.909C323.303 364.027 323.208 363.277 323.019 362.657C322.834 362.037 322.565 361.565 322.214 361.24C321.866 360.915 321.447 360.753 320.956 360.753C320.22 360.753 319.645 361.116 319.231 361.842C318.817 362.564 318.609 363.587 318.609 364.909C318.609 365.791 318.702 366.54 318.888 367.156C319.073 367.773 319.34 368.242 319.688 368.563C320.04 368.885 320.462 369.045 320.956 369.045Z" fill="#EFEEEC"/>
<line x1="1" y1="28.7933" x2="14" y2="28.7933" stroke="#EFEEEC" stroke-width="0.413333"/>
<path d="M18.032 23.5819V33.7637H16.799V24.8745H16.7393L14.2536 26.525V25.2722L16.799 23.5819H18.032ZM24.5398 23.5819V33.7637H23.3068V24.8745H23.2472L20.7614 26.525V25.2722L23.3068 23.5819H24.5398ZM34.7266 33.9029C33.9775 33.9029 33.3395 33.699 32.8125 33.2914C32.2855 32.8804 31.8828 32.2855 31.6044 31.5066C31.326 30.7244 31.1868 29.7798 31.1868 28.6728C31.1868 27.5724 31.326 26.6328 31.6044 25.8539C31.8861 25.0717 32.2905 24.4751 32.8175 24.0641C33.3478 23.6498 33.9841 23.4426 34.7266 23.4426C35.469 23.4426 36.1037 23.6498 36.6307 24.0641C37.161 24.4751 37.5653 25.0717 37.8438 25.8539C38.1255 26.6328 38.2663 27.5724 38.2663 28.6728C38.2663 29.7798 38.1271 30.7244 37.8487 31.5066C37.5703 32.2855 37.1676 32.8804 36.6406 33.2914C36.1136 33.699 35.4756 33.9029 34.7266 33.9029ZM34.7266 32.8091C35.469 32.8091 36.0457 32.4512 36.4567 31.7353C36.8677 31.0194 37.0732 29.9985 37.0732 28.6728C37.0732 27.7911 36.9787 27.0404 36.7898 26.4206C36.6042 25.8008 36.3357 25.3285 35.9844 25.0037C35.6364 24.6789 35.2171 24.5165 34.7266 24.5165C33.9908 24.5165 33.4157 24.8794 33.0014 25.6053C32.5871 26.3278 32.38 27.3503 32.38 28.6728C32.38 29.5544 32.4728 30.3034 32.6584 30.9199C32.844 31.5364 33.1108 32.0054 33.4588 32.3269C33.8101 32.6484 34.2327 32.8091 34.7266 32.8091ZM43.4766 33.9029C42.7275 33.9029 42.0895 33.699 41.5625 33.2914C41.0355 32.8804 40.6328 32.2855 40.3544 31.5066C40.076 30.7244 39.9368 29.7798 39.9368 28.6728C39.9368 27.5724 40.076 26.6328 40.3544 25.8539C40.6361 25.0717 41.0405 24.4751 41.5675 24.0641C42.0978 23.6498 42.7341 23.4426 43.4766 23.4426C44.219 23.4426 44.8537 23.6498 45.3807 24.0641C45.911 24.4751 46.3153 25.0717 46.5938 25.8539C46.8755 26.6328 47.0163 27.5724 47.0163 28.6728C47.0163 29.7798 46.8771 30.7244 46.5987 31.5066C46.3203 32.2855 45.9176 32.8804 45.3906 33.2914C44.8636 33.699 44.2256 33.9029 43.4766 33.9029ZM43.4766 32.8091C44.219 32.8091 44.7957 32.4512 45.2067 31.7353C45.6177 31.0194 45.8232 29.9985 45.8232 28.6728C45.8232 27.7911 45.7287 27.0404 45.5398 26.4206C45.3542 25.8008 45.0857 25.3285 44.7344 25.0037C44.3864 24.6789 43.9671 24.5165 43.4766 24.5165C42.7408 24.5165 42.1657 24.8794 41.7514 25.6053C41.3371 26.3278 41.13 27.3503 41.13 28.6728C41.13 29.5544 41.2228 30.3034 41.4084 30.9199C41.594 31.5364 41.8608 32.0054 42.2088 32.3269C42.5601 32.6484 42.9827 32.8091 43.4766 32.8091ZM52.2266 33.9029C51.4775 33.9029 50.8395 33.699 50.3125 33.2914C49.7855 32.8804 49.3828 32.2855 49.1044 31.5066C48.826 30.7244 48.6868 29.7798 48.6868 28.6728C48.6868 27.5724 48.826 26.6328 49.1044 25.8539C49.3861 25.0717 49.7905 24.4751 50.3175 24.0641C50.8478 23.6498 51.4841 23.4426 52.2266 23.4426C52.969 23.4426 53.6037 23.6498 54.1307 24.0641C54.661 24.4751 55.0653 25.0717 55.3438 25.8539C55.6255 26.6328 55.7663 27.5724 55.7663 28.6728C55.7663 29.7798 55.6271 30.7244 55.3487 31.5066C55.0703 32.2855 54.6676 32.8804 54.1406 33.2914C53.6136 33.699 52.9756 33.9029 52.2266 33.9029ZM52.2266 32.8091C52.969 32.8091 53.5457 32.4512 53.9567 31.7353C54.3677 31.0194 54.5732 29.9985 54.5732 28.6728C54.5732 27.7911 54.4787 27.0404 54.2898 26.4206C54.1042 25.8008 53.8357 25.3285 53.4844 25.0037C53.1364 24.6789 52.7171 24.5165 52.2266 24.5165C51.4908 24.5165 50.9157 24.8794 50.5014 25.6053C50.0871 26.3278 49.88 27.3503 49.88 28.6728C49.88 29.5544 49.9728 30.3034 50.1584 30.9199C50.344 31.5364 50.6108 32.0054 50.9588 32.3269C51.3101 32.6484 51.7327 32.8091 52.2266 32.8091Z" fill="#737373"/>
<line x1="1" y1="110.793" x2="14" y2="110.793" stroke="#EFEEEC" stroke-width="0.413333"/>
<path d="M20.661 115.604C19.9783 115.604 19.3751 115.483 18.8514 115.241C18.331 114.996 17.925 114.659 17.6333 114.232C17.3417 113.801 17.1975 113.31 17.2008 112.76C17.1975 112.329 17.282 111.932 17.4544 111.567C17.6267 111.199 17.862 110.893 18.1603 110.647C18.4619 110.399 18.7984 110.241 19.1696 110.175V110.115C18.6824 109.989 18.2946 109.716 18.0062 109.295C17.7179 108.871 17.5753 108.389 17.5787 107.848C17.5753 107.331 17.7063 106.869 17.9714 106.461C18.2366 106.054 18.6011 105.732 19.0652 105.497C19.5325 105.261 20.0645 105.144 20.661 105.144C21.251 105.144 21.778 105.261 22.242 105.497C22.706 105.732 23.0706 106.054 23.3358 106.461C23.6042 106.869 23.7401 107.331 23.7434 107.848C23.7401 108.389 23.5926 108.871 23.301 109.295C23.0126 109.716 22.6298 109.989 22.1525 110.115V110.175C22.5204 110.241 22.8519 110.399 23.1468 110.647C23.4418 110.893 23.6771 111.199 23.8528 111.567C24.0285 111.932 24.118 112.329 24.1213 112.76C24.118 113.31 23.9688 113.801 23.6738 114.232C23.3822 114.659 22.9761 114.996 22.4558 115.241C21.9387 115.483 21.3405 115.604 20.661 115.604ZM20.661 114.51C21.1217 114.51 21.5195 114.436 21.8542 114.287C22.189 114.137 22.4475 113.927 22.6298 113.655C22.8121 113.383 22.9049 113.065 22.9082 112.701C22.9049 112.316 22.8055 111.976 22.6099 111.681C22.4144 111.386 22.1476 111.154 21.8095 110.985C21.4747 110.816 21.0919 110.732 20.661 110.732C20.2269 110.732 19.8391 110.816 19.4977 110.985C19.1596 111.154 18.8928 111.386 18.6973 111.681C18.505 111.976 18.4106 112.316 18.4139 112.701C18.4106 113.065 18.4984 113.383 18.6774 113.655C18.8597 113.927 19.1199 114.137 19.4579 114.287C19.796 114.436 20.197 114.51 20.661 114.51ZM20.661 109.678C21.0256 109.678 21.3488 109.605 21.6305 109.459C21.9155 109.313 22.1393 109.109 22.3017 108.848C22.4641 108.586 22.5469 108.279 22.5502 107.928C22.5469 107.583 22.4657 107.283 22.3066 107.028C22.1475 106.77 21.9271 106.571 21.6454 106.431C21.3637 106.289 21.0356 106.218 20.661 106.218C20.2799 106.218 19.9468 106.289 19.6618 106.431C19.3767 106.571 19.1563 106.77 19.0005 107.028C18.8448 107.283 18.7685 107.583 18.7718 107.928C18.7685 108.279 18.8464 108.586 19.0055 108.848C19.1679 109.109 19.3916 109.313 19.6767 109.459C19.9617 109.605 20.2898 109.678 20.661 109.678ZM29.9641 115.465V114.57L33.3249 110.891C33.7193 110.46 34.0442 110.086 34.2994 109.767C34.5546 109.446 34.7435 109.144 34.8661 108.863C34.9921 108.578 35.055 108.279 35.055 107.968C35.055 107.61 34.9689 107.3 34.7965 107.038C34.6275 106.776 34.3955 106.574 34.1005 106.431C33.8055 106.289 33.4741 106.218 33.1062 106.218C32.7151 106.218 32.3737 106.299 32.082 106.461C31.7937 106.62 31.57 106.844 31.4109 107.132C31.2551 107.421 31.1772 107.759 31.1772 108.147H30.0039C30.0039 107.55 30.1415 107.026 30.4165 106.576C30.6916 106.125 31.0662 105.774 31.5401 105.522C32.0174 105.27 32.5527 105.144 33.146 105.144C33.7425 105.144 34.2712 105.27 34.7319 105.522C35.1926 105.774 35.5539 106.113 35.8157 106.541C36.0775 106.968 36.2085 107.444 36.2085 107.968C36.2085 108.342 36.1405 108.708 36.0046 109.066C35.872 109.421 35.64 109.817 35.3086 110.255C34.9805 110.689 34.5247 111.219 33.9414 111.846L31.6545 114.292V114.371H36.3874V115.465H29.9641ZM41.6225 115.604C41.0392 115.604 40.5138 115.488 40.0465 115.256C39.5792 115.024 39.2047 114.706 38.9229 114.301C38.6412 113.897 38.4871 113.436 38.4606 112.919H39.6538C39.7002 113.38 39.909 113.761 40.2802 114.063C40.6547 114.361 41.1022 114.51 41.6225 114.51C42.0401 114.51 42.4113 114.413 42.7362 114.217C43.0643 114.021 43.3211 113.753 43.5067 113.412C43.6957 113.067 43.7901 112.677 43.7901 112.243C43.7901 111.799 43.6924 111.403 43.4968 111.055C43.3046 110.704 43.0394 110.427 42.7013 110.225C42.3633 110.023 41.9772 109.92 41.543 109.917C41.2314 109.913 40.9116 109.961 40.5835 110.061C40.2553 110.157 39.9852 110.281 39.7731 110.434L38.6197 110.294L39.2362 105.283H44.5259V106.377H40.2702L39.9123 109.38H39.9719C40.1808 109.214 40.4426 109.076 40.7575 108.967C41.0723 108.858 41.4004 108.803 41.7418 108.803C42.3649 108.803 42.9201 108.952 43.4073 109.25C43.8978 109.545 44.2823 109.95 44.5607 110.463C44.8424 110.977 44.9833 111.564 44.9833 112.223C44.9833 112.873 44.8375 113.453 44.5458 113.963C44.2575 114.471 43.8597 114.872 43.3526 115.167C42.8455 115.458 42.2688 115.604 41.6225 115.604ZM50.2793 115.604C49.5302 115.604 48.8922 115.4 48.3652 114.993C47.8382 114.582 47.4355 113.987 47.1571 113.208C46.8787 112.426 46.7395 111.481 46.7395 110.374C46.7395 109.274 46.8787 108.334 47.1571 107.555C47.4389 106.773 47.8432 106.176 48.3702 105.765C48.9005 105.351 49.5369 105.144 50.2793 105.144C51.0217 105.144 51.6564 105.351 52.1834 105.765C52.7137 106.176 53.1181 106.773 53.3965 107.555C53.6782 108.334 53.8191 109.274 53.8191 110.374C53.8191 111.481 53.6799 112.426 53.4015 113.208C53.123 113.987 52.7203 114.582 52.1934 114.993C51.6664 115.4 51.0283 115.604 50.2793 115.604ZM50.2793 114.51C51.0217 114.51 51.5984 114.152 52.0094 113.436C52.4204 112.721 52.6259 111.7 52.6259 110.374C52.6259 109.492 52.5314 108.742 52.3425 108.122C52.1569 107.502 51.8884 107.03 51.5371 106.705C51.1891 106.38 50.7698 106.218 50.2793 106.218C49.5435 106.218 48.9685 106.581 48.5542 107.306C48.1399 108.029 47.9327 109.051 47.9327 110.374C47.9327 111.256 48.0255 112.005 48.2111 112.621C48.3967 113.238 48.6635 113.707 49.0115 114.028C49.3629 114.35 49.7855 114.51 50.2793 114.51Z" fill="#737373"/>
<line x1="1" y1="192.793" x2="14" y2="192.793" stroke="#EFEEEC" stroke-width="0.413333"/>
<path d="M20.4995 197.299C19.9161 197.299 19.3908 197.183 18.9235 196.951C18.4561 196.719 18.0816 196.401 17.7999 195.997C17.5182 195.592 17.3641 195.132 17.3375 194.615H18.5307C18.5771 195.075 18.7859 195.457 19.1571 195.758C19.5317 196.056 19.9791 196.206 20.4995 196.206C20.9171 196.206 21.2883 196.108 21.6131 195.912C21.9412 195.717 22.1981 195.448 22.3837 195.107C22.5726 194.762 22.6671 194.373 22.6671 193.939C22.6671 193.494 22.5693 193.098 22.3738 192.75C22.1815 192.399 21.9164 192.122 21.5783 191.92C21.2402 191.718 20.8541 191.615 20.4199 191.612C20.1084 191.609 19.7885 191.657 19.4604 191.756C19.1323 191.852 18.8622 191.976 18.65 192.129L17.4966 191.99L18.1131 186.978H23.4029V188.072H19.1472L18.7892 191.075H18.8489C19.0577 190.909 19.3195 190.772 19.6344 190.662C19.9493 190.553 20.2774 190.498 20.6188 190.498C21.2419 190.498 21.7971 190.647 22.2843 190.946C22.7748 191.241 23.1593 191.645 23.4377 192.159C23.7194 192.672 23.8603 193.259 23.8603 193.919C23.8603 194.568 23.7144 195.148 23.4228 195.659C23.1344 196.166 22.7367 196.567 22.2296 196.862C21.7225 197.154 21.1458 197.299 20.4995 197.299ZM32.9545 197.299C32.3712 197.299 31.8459 197.183 31.3786 196.951C30.9112 196.719 30.5367 196.401 30.255 195.997C29.9732 195.592 29.8191 195.132 29.7926 194.615H30.9858C31.0322 195.075 31.241 195.457 31.6122 195.758C31.9867 196.056 32.4342 196.206 32.9545 196.206C33.3722 196.206 33.7434 196.108 34.0682 195.912C34.3963 195.717 34.6532 195.448 34.8388 195.107C35.0277 194.762 35.1222 194.373 35.1222 193.939C35.1222 193.494 35.0244 193.098 34.8288 192.75C34.6366 192.399 34.3714 192.122 34.0334 191.92C33.6953 191.718 33.3092 191.615 32.875 191.612C32.5634 191.609 32.2436 191.657 31.9155 191.756C31.5874 191.852 31.3172 191.976 31.1051 192.129L29.9517 191.99L30.5682 186.978H35.858V188.072H31.6023L31.2443 191.075H31.304C31.5128 190.909 31.7746 190.772 32.0895 190.662C32.4044 190.553 32.7325 190.498 33.0739 190.498C33.697 190.498 34.2521 190.647 34.7393 190.946C35.2299 191.241 35.6143 191.645 35.8928 192.159C36.1745 192.672 36.3153 193.259 36.3153 193.919C36.3153 194.568 36.1695 195.148 35.8778 195.659C35.5895 196.166 35.1918 196.567 34.6847 196.862C34.1776 197.154 33.6009 197.299 32.9545 197.299ZM41.6113 197.299C40.8623 197.299 40.2243 197.096 39.6973 196.688C39.1703 196.277 38.7676 195.682 38.4892 194.903C38.2108 194.121 38.0716 193.176 38.0716 192.069C38.0716 190.969 38.2108 190.029 38.4892 189.25C38.7709 188.468 39.1752 187.872 39.7022 187.461C40.2325 187.046 40.8689 186.839 41.6113 186.839C42.3538 186.839 42.9885 187.046 43.5154 187.461C44.0458 187.872 44.4501 188.468 44.7285 189.25C45.0102 190.029 45.1511 190.969 45.1511 192.069C45.1511 193.176 45.0119 194.121 44.7335 194.903C44.4551 195.682 44.0524 196.277 43.5254 196.688C42.9984 197.096 42.3604 197.299 41.6113 197.299ZM41.6113 196.206C42.3538 196.206 42.9305 195.848 43.3414 195.132C43.7524 194.416 43.9579 193.395 43.9579 192.069C43.9579 191.188 43.8635 190.437 43.6745 189.817C43.4889 189.197 43.2205 188.725 42.8691 188.4C42.5211 188.075 42.1019 187.913 41.6113 187.913C40.8755 187.913 40.3005 188.276 39.8862 189.002C39.4719 189.724 39.2647 190.747 39.2647 192.069C39.2647 192.951 39.3575 193.7 39.5431 194.316C39.7288 194.933 39.9956 195.402 40.3436 195.723C40.6949 196.045 41.1175 196.206 41.6113 196.206ZM50.3613 197.299C49.6123 197.299 48.9743 197.096 48.4473 196.688C47.9203 196.277 47.5176 195.682 47.2392 194.903C46.9608 194.121 46.8216 193.176 46.8216 192.069C46.8216 190.969 46.9608 190.029 47.2392 189.25C47.5209 188.468 47.9252 187.872 48.4522 187.461C48.9825 187.046 49.6189 186.839 50.3613 186.839C51.1038 186.839 51.7385 187.046 52.2654 187.461C52.7958 187.872 53.2001 188.468 53.4785 189.25C53.7602 190.029 53.9011 190.969 53.9011 192.069C53.9011 193.176 53.7619 194.121 53.4835 194.903C53.2051 195.682 52.8024 196.277 52.2754 196.688C51.7484 197.096 51.1104 197.299 50.3613 197.299ZM50.3613 196.206C51.1038 196.206 51.6805 195.848 52.0914 195.132C52.5024 194.416 52.7079 193.395 52.7079 192.069C52.7079 191.188 52.6135 190.437 52.4245 189.817C52.2389 189.197 51.9705 188.725 51.6191 188.4C51.2711 188.075 50.8519 187.913 50.3613 187.913C49.6255 187.913 49.0505 188.276 48.6362 189.002C48.2219 189.724 48.0147 190.747 48.0147 192.069C48.0147 192.951 48.1075 193.7 48.2931 194.316C48.4788 194.933 48.7456 195.402 49.0936 195.723C49.4449 196.045 49.8675 196.206 50.3613 196.206Z" fill="#737373"/>
<line x1="1" y1="273.793" x2="14" y2="273.793" stroke="#EFEEEC" stroke-width="0.413333"/>
<path d="M17.2825 278.863V277.968L20.6433 274.289C21.0377 273.859 21.3625 273.484 21.6177 273.166C21.8729 272.844 22.0618 272.543 22.1845 272.261C22.3104 271.976 22.3734 271.678 22.3734 271.366C22.3734 271.008 22.2872 270.698 22.1149 270.436C21.9458 270.175 21.7138 269.972 21.4189 269.83C21.1239 269.687 20.7924 269.616 20.4245 269.616C20.0334 269.616 19.6921 269.697 19.4004 269.86C19.112 270.019 18.8883 270.243 18.7292 270.531C18.5734 270.819 18.4956 271.157 18.4956 271.545H17.3223C17.3223 270.949 17.4598 270.425 17.7349 269.974C18.01 269.523 18.3845 269.172 18.8585 268.92C19.3358 268.668 19.871 268.542 20.4643 268.542C21.0609 268.542 21.5895 268.668 22.0502 268.92C22.5109 269.172 22.8722 269.512 23.1341 269.939C23.3959 270.367 23.5268 270.842 23.5268 271.366C23.5268 271.741 23.4589 272.107 23.323 272.465C23.1904 272.819 22.9584 273.216 22.627 273.653C22.2988 274.087 21.8431 274.618 21.2598 275.244L18.9728 277.69V277.77H23.7058V278.863H17.2825ZM30.0147 278.863L34.5687 269.855V269.775H29.3187V268.681H35.8414V269.835L31.3074 278.863H30.0147ZM40.7397 279.002C40.1564 279.002 39.631 278.886 39.1637 278.654C38.6964 278.422 38.3219 278.104 38.0401 277.7C37.7584 277.296 37.6043 276.835 37.5778 276.318H38.771C38.8174 276.779 39.0262 277.16 39.3974 277.461C39.7719 277.76 40.2193 277.909 40.7397 277.909C41.1573 277.909 41.5285 277.811 41.8533 277.615C42.1815 277.42 42.4383 277.151 42.6239 276.81C42.8129 276.465 42.9073 276.076 42.9073 275.642C42.9073 275.198 42.8095 274.801 42.614 274.453C42.4218 274.102 42.1566 273.825 41.8185 273.623C41.4805 273.421 41.0943 273.318 40.6602 273.315C40.3486 273.312 40.0288 273.36 39.7006 273.459C39.3725 273.555 39.1024 273.68 38.8903 273.832L37.7369 273.693L38.3533 268.681H43.6431V269.775H39.3874L39.0295 272.778H39.0891C39.2979 272.612 39.5598 272.475 39.8746 272.365C40.1895 272.256 40.5176 272.201 40.859 272.201C41.4821 272.201 42.0373 272.35 42.5245 272.649C43.015 272.944 43.3995 273.348 43.6779 273.862C43.9596 274.376 44.1005 274.962 44.1005 275.622C44.1005 276.271 43.9547 276.851 43.663 277.362C43.3746 277.869 42.9769 278.27 42.4698 278.565C41.9627 278.857 41.386 279.002 40.7397 279.002ZM49.3965 279.002C48.6474 279.002 48.0094 278.799 47.4824 278.391C46.9554 277.98 46.5527 277.385 46.2743 276.606C45.9959 275.824 45.8567 274.879 45.8567 273.772C45.8567 272.672 45.9959 271.732 46.2743 270.953C46.556 270.171 46.9604 269.575 47.4874 269.164C48.0177 268.749 48.6541 268.542 49.3965 268.542C50.1389 268.542 50.7736 268.749 51.3006 269.164C51.8309 269.575 52.2353 270.171 52.5137 270.953C52.7954 271.732 52.9363 272.672 52.9363 273.772C52.9363 274.879 52.7971 275.824 52.5186 276.606C52.2402 277.385 51.8375 277.98 51.3105 278.391C50.7836 278.799 50.1455 279.002 49.3965 279.002ZM49.3965 277.909C50.1389 277.909 50.7156 277.551 51.1266 276.835C51.5376 276.119 51.7431 275.098 51.7431 273.772C51.7431 272.891 51.6486 272.14 51.4597 271.52C51.2741 270.9 51.0056 270.428 50.6543 270.103C50.3063 269.779 49.887 269.616 49.3965 269.616C48.6607 269.616 48.0856 269.979 47.6713 270.705C47.257 271.427 47.0499 272.45 47.0499 273.772C47.0499 274.654 47.1427 275.403 47.3283 276.02C47.5139 276.636 47.7807 277.105 48.1287 277.426C48.4801 277.748 48.9026 277.909 49.3965 277.909Z" fill="#737373"/>
<path d="M429.588 359.818V370H428.355V361.111H428.295L425.809 362.761V361.509L428.355 359.818H429.588ZM432.516 370V369.105L435.877 365.426C436.271 364.995 436.596 364.621 436.851 364.303C437.106 363.981 437.295 363.679 437.418 363.398C437.544 363.113 437.607 362.814 437.607 362.503C437.607 362.145 437.521 361.835 437.348 361.573C437.179 361.311 436.947 361.109 436.652 360.967C436.357 360.824 436.026 360.753 435.658 360.753C435.267 360.753 434.925 360.834 434.634 360.996C434.345 361.156 434.122 361.379 433.963 361.668C433.807 361.956 433.729 362.294 433.729 362.682H432.556C432.556 362.085 432.693 361.562 432.968 361.111C433.243 360.66 433.618 360.309 434.092 360.057C434.569 359.805 435.104 359.679 435.698 359.679C436.294 359.679 436.823 359.805 437.284 360.057C437.744 360.309 438.106 360.648 438.367 361.076C438.629 361.504 438.76 361.979 438.76 362.503C438.76 362.877 438.692 363.244 438.556 363.602C438.424 363.956 438.192 364.352 437.86 364.79C437.532 365.224 437.076 365.754 436.493 366.381L434.206 368.827V368.906H438.939V370H432.516ZM444.612 359.341L441.331 371.531H440.257L443.538 359.341H444.612ZM445.983 370V369.105L449.343 365.426C449.738 364.995 450.063 364.621 450.318 364.303C450.573 363.981 450.762 363.679 450.885 363.398C451.011 363.113 451.074 362.814 451.074 362.503C451.074 362.145 450.987 361.835 450.815 361.573C450.646 361.311 450.414 361.109 450.119 360.967C449.824 360.824 449.493 360.753 449.125 360.753C448.734 360.753 448.392 360.834 448.101 360.996C447.812 361.156 447.589 361.379 447.429 361.668C447.274 361.956 447.196 362.294 447.196 362.682H446.022C446.022 362.085 446.16 361.562 446.435 361.111C446.71 360.66 447.085 360.309 447.559 360.057C448.036 359.805 448.571 359.679 449.165 359.679C449.761 359.679 450.29 359.805 450.75 360.057C451.211 360.309 451.572 360.648 451.834 361.076C452.096 361.504 452.227 361.979 452.227 362.503C452.227 362.877 452.159 363.244 452.023 363.602C451.891 363.956 451.659 364.352 451.327 364.79C450.999 365.224 450.543 365.754 449.96 366.381L447.673 368.827V368.906H452.406V370H445.983ZM457.78 370.139C457.031 370.139 456.393 369.935 455.866 369.528C455.339 369.117 454.937 368.522 454.658 367.743C454.38 366.961 454.241 366.016 454.241 364.909C454.241 363.809 454.38 362.869 454.658 362.09C454.94 361.308 455.344 360.711 455.871 360.3C456.401 359.886 457.038 359.679 457.78 359.679C458.523 359.679 459.157 359.886 459.684 360.3C460.215 360.711 460.619 361.308 460.897 362.09C461.179 362.869 461.32 363.809 461.32 364.909C461.32 366.016 461.181 366.961 460.902 367.743C460.624 368.522 460.221 369.117 459.694 369.528C459.167 369.935 458.529 370.139 457.78 370.139ZM457.78 369.045C458.523 369.045 459.099 368.687 459.51 367.972C459.921 367.256 460.127 366.235 460.127 364.909C460.127 364.027 460.032 363.277 459.843 362.657C459.658 362.037 459.389 361.565 459.038 361.24C458.69 360.915 458.271 360.753 457.78 360.753C457.044 360.753 456.469 361.116 456.055 361.842C455.641 362.564 455.434 363.587 455.434 364.909C455.434 365.791 455.526 366.54 455.712 367.156C455.898 367.773 456.165 368.242 456.513 368.563C456.864 368.885 457.286 369.045 457.78 369.045ZM463.209 370V369.105L466.57 365.426C466.964 364.995 467.289 364.621 467.544 364.303C467.8 363.981 467.989 363.679 468.111 363.398C468.237 363.113 468.3 362.814 468.3 362.503C468.3 362.145 468.214 361.835 468.042 361.573C467.873 361.311 467.641 361.109 467.346 360.967C467.051 360.824 466.719 360.753 466.351 360.753C465.96 360.753 465.619 360.834 465.327 360.996C465.039 361.156 464.815 361.379 464.656 361.668C464.5 361.956 464.422 362.294 464.422 362.682H463.249C463.249 362.085 463.387 361.562 463.662 361.111C463.937 360.66 464.311 360.309 464.785 360.057C465.263 359.805 465.798 359.679 466.391 359.679C466.988 359.679 467.516 359.805 467.977 360.057C468.438 360.309 468.799 360.648 469.061 361.076C469.323 361.504 469.454 361.979 469.454 362.503C469.454 362.877 469.386 363.244 469.25 363.602C469.117 363.956 468.885 364.352 468.554 364.79C468.226 365.224 467.77 365.754 467.187 366.381L464.9 368.827V368.906H469.633V370H463.209ZM475.265 359.818V370H474.032V361.111H473.973L471.487 362.761V361.509L474.032 359.818H475.265Z" fill="#EFEEEC"/>
<path d="M556.072 359.818V370H554.839V361.111H554.779L552.294 362.761V361.509L554.839 359.818H556.072ZM562.58 359.818V370H561.347V361.111H561.287L558.801 362.761V361.509L561.347 359.818H562.58ZM569.127 359.341L565.846 371.531H564.772L568.054 359.341H569.127ZM570.498 370V369.105L573.859 365.426C574.254 364.995 574.578 364.621 574.834 364.303C575.089 363.981 575.278 363.679 575.4 363.398C575.526 363.113 575.589 362.814 575.589 362.503C575.589 362.145 575.503 361.835 575.331 361.573C575.162 361.311 574.93 361.109 574.635 360.967C574.34 360.824 574.008 360.753 573.64 360.753C573.249 360.753 572.908 360.834 572.616 360.996C572.328 361.156 572.104 361.379 571.945 361.668C571.789 361.956 571.711 362.294 571.711 362.682H570.538C570.538 362.085 570.676 361.562 570.951 361.111C571.226 360.66 571.6 360.309 572.074 360.057C572.552 359.805 573.087 359.679 573.68 359.679C574.277 359.679 574.805 359.805 575.266 360.057C575.727 360.309 576.088 360.648 576.35 361.076C576.612 361.504 576.743 361.979 576.743 362.503C576.743 362.877 576.675 363.244 576.539 363.602C576.406 363.956 576.174 364.352 575.843 364.79C575.515 365.224 575.059 365.754 574.476 366.381L572.189 368.827V368.906H576.922V370H570.498ZM582.296 370.139C581.547 370.139 580.909 369.935 580.382 369.528C579.855 369.117 579.452 368.522 579.174 367.743C578.895 366.961 578.756 366.016 578.756 364.909C578.756 363.809 578.895 362.869 579.174 362.09C579.455 361.308 579.86 360.711 580.387 360.3C580.917 359.886 581.553 359.679 582.296 359.679C583.038 359.679 583.673 359.886 584.2 360.3C584.73 360.711 585.135 361.308 585.413 362.09C585.695 362.869 585.836 363.809 585.836 364.909C585.836 366.016 585.696 366.961 585.418 367.743C585.14 368.522 584.737 369.117 584.21 369.528C583.683 369.935 583.045 370.139 582.296 370.139ZM582.296 369.045C583.038 369.045 583.615 368.687 584.026 367.972C584.437 367.256 584.642 366.235 584.642 364.909C584.642 364.027 584.548 363.277 584.359 362.657C584.174 362.037 583.905 361.565 583.554 361.24C583.206 360.915 582.786 360.753 582.296 360.753C581.56 360.753 580.985 361.116 580.571 361.842C580.156 362.564 579.949 363.587 579.949 364.909C579.949 365.791 580.042 366.54 580.228 367.156C580.413 367.773 580.68 368.242 581.028 368.563C581.379 368.885 581.802 369.045 582.296 369.045ZM587.725 370V369.105L591.086 365.426C591.48 364.995 591.805 364.621 592.06 364.303C592.315 363.981 592.504 363.679 592.627 363.398C592.753 363.113 592.816 362.814 592.816 362.503C592.816 362.145 592.73 361.835 592.557 361.573C592.388 361.311 592.156 361.109 591.861 360.967C591.566 360.824 591.235 360.753 590.867 360.753C590.476 360.753 590.134 360.834 589.843 360.996C589.554 361.156 589.331 361.379 589.172 361.668C589.016 361.956 588.938 362.294 588.938 362.682H587.765C587.765 362.085 587.902 361.562 588.177 361.111C588.452 360.66 588.827 360.309 589.301 360.057C589.778 359.805 590.313 359.679 590.907 359.679C591.503 359.679 592.032 359.805 592.493 360.057C592.953 360.309 593.315 360.648 593.576 361.076C593.838 361.504 593.969 361.979 593.969 362.503C593.969 362.877 593.901 363.244 593.765 363.602C593.633 363.956 593.401 364.352 593.069 364.79C592.741 365.224 592.285 365.754 591.702 366.381L589.415 368.827V368.906H594.148V370H587.725ZM596.201 370V369.105L599.562 365.426C599.957 364.995 600.281 364.621 600.537 364.303C600.792 363.981 600.981 363.679 601.103 363.398C601.229 363.113 601.292 362.814 601.292 362.503C601.292 362.145 601.206 361.835 601.034 361.573C600.865 361.311 600.633 361.109 600.338 360.967C600.043 360.824 599.711 360.753 599.343 360.753C598.952 360.753 598.611 360.834 598.319 360.996C598.031 361.156 597.807 361.379 597.648 361.668C597.492 361.956 597.415 362.294 597.415 362.682H596.241C596.241 362.085 596.379 361.562 596.654 361.111C596.929 360.66 597.303 360.309 597.777 360.057C598.255 359.805 598.79 359.679 599.383 359.679C599.98 359.679 600.508 359.805 600.969 360.057C601.43 360.309 601.791 360.648 602.053 361.076C602.315 361.504 602.446 361.979 602.446 362.503C602.446 362.877 602.378 363.244 602.242 363.602C602.109 363.956 601.877 364.352 601.546 364.79C601.218 365.224 600.762 365.754 600.179 366.381L597.892 368.827V368.906H602.625V370H596.201Z" fill="#EFEEEC"/>
<path d="M1 326.569L22.9067 324.532L51.4267 337.771L74.5733 328.266L102.06 326.569L140.707 295.678L153.52 262.749H166.953L192.373 299.072L209.527 285.494L230.607 256.3H244.247L259.747 238.308L282.48 231.858L308.52 198.251L321.333 201.646L334.147 184.333L359.567 213.187L373.207 199.609L385.4 170.415L398.627 171.773L423.633 199.609L436.447 196.554L449.88 219.298L462.693 212.848L474.887 215.224L488.527 127.981L513.947 140.542L540.193 79.0984L552.18 81.4746L565.407 35.9862L577.393 28.8574" stroke="#DAD9D6"/>
<circle cx="45.5" cy="334.5" r="4.5" fill="#EFEEEC"/>
<circle cx="140.5" cy="294.5" r="4.5" fill="#EFEEEC"/>
<circle cx="298.5" cy="212.5" r="4.5" fill="#EFEEEC"/>
<circle cx="297.5" cy="349.5" r="4.5" fill="#EFEEEC"/>
<circle cx="450.5" cy="350.5" r="4.5" fill="#EFEEEC"/>
<circle cx="450.5" cy="218.5" r="4.5" fill="#EFEEEC"/>
<circle cx="576.5" cy="28.5" r="4.5" fill="#EFEEEC"/>
<circle cx="577.5" cy="349.5" r="4.5" fill="#EFEEEC"/>
<circle cx="141.5" cy="349.5" r="4.5" fill="#EFEEEC"/>
</svg>
