<svg width="82" height="90" viewBox="0 0 82 90" fill="none" xmlns="http://www.w3.org/2000/svg">
<path d="M60.9448 60H50.4613V8.10989H45.78C37.2085 8.10989 32.725 12.3956 32.725 18.7912C32.725 26.044 35.8239 29.4066 42.2195 33.6923L47.4942 37.2527L32.3294 60H21.0547L34.703 39.6923C26.8569 34.0879 22.4393 28.6154 22.4393 19.3846C22.4393 7.84615 30.4833 0 45.714 0H60.8789L60.9448 60Z" fill="#0E0E0E"/>
<path d="M14.3906 86H12.2769V70.4205H8.56101C7.61783 70.4205 6.8593 70.5653 6.28544 70.8551C5.71158 71.1392 5.29396 71.5426 5.0326 72.0653C4.77124 72.5881 4.64055 73.1989 4.64055 73.8977C4.64055 74.5966 4.76839 75.1989 5.02408 75.7045C5.28544 76.2045 5.70021 76.5909 6.26839 76.8636C6.84226 77.1364 7.5951 77.2727 8.52692 77.2727H13.2315V79.1818H8.45874C7.10646 79.1818 5.99567 78.9574 5.12635 78.5085C4.25703 78.054 3.61214 77.429 3.19169 76.6335C2.77124 75.8381 2.56101 74.9261 2.56101 73.8977C2.56101 72.8693 2.77124 71.9517 3.19169 71.1449C3.61214 70.3381 4.25987 69.7045 5.13487 69.2443C6.00987 68.7784 7.12919 68.5455 8.49283 68.5455H14.3906V86ZM6.17464 78.1591H8.56101L4.33374 86H1.87919L6.17464 78.1591ZM26.3971 78.5341V80.4091H19.1698V78.5341H26.3971ZM19.6471 72.9091V86H17.6358V72.9091H19.6471ZM27.9312 72.9091V86H25.9198V72.9091H27.9312ZM29.4868 89.75V84.125H30.5777C30.8447 83.8466 31.0748 83.5455 31.268 83.2216C31.4612 82.8977 31.6288 82.5142 31.7709 82.071C31.9186 81.6222 32.0436 81.0767 32.1459 80.4347C32.2481 79.7869 32.339 79.0057 32.4186 78.0909L32.8618 72.9091H41.18V84.125H43.1913V89.75H41.18V86H31.4981V89.75H29.4868ZM32.8618 84.125H39.1686V74.7841H34.7368L34.3959 78.0909C34.2538 79.4602 34.0777 80.6562 33.8675 81.679C33.6572 82.7017 33.322 83.517 32.8618 84.125ZM50.6297 86.2727C49.3683 86.2727 48.2803 85.9943 47.3655 85.4375C46.4564 84.875 45.7547 84.0909 45.2604 83.0852C44.7717 82.0739 44.5274 80.8977 44.5274 79.5568C44.5274 78.2159 44.7717 77.0341 45.2604 76.0114C45.7547 74.983 46.4422 74.1818 47.3229 73.608C48.2092 73.0284 49.2433 72.7386 50.4252 72.7386C51.107 72.7386 51.7803 72.8523 52.445 73.0795C53.1098 73.3068 53.7149 73.6761 54.2604 74.1875C54.8058 74.6932 55.2405 75.3636 55.5644 76.1989C55.8882 77.0341 56.0502 78.0625 56.0502 79.2841V80.1364H45.9592V78.3977H54.0047C54.0047 77.6591 53.857 77 53.5615 76.4205C53.2717 75.8409 52.857 75.3835 52.3172 75.0483C51.7831 74.7131 51.1524 74.5455 50.4252 74.5455C49.624 74.5455 48.9308 74.7443 48.3456 75.142C47.7661 75.5341 47.32 76.0455 47.0075 76.6761C46.695 77.3068 46.5388 77.983 46.5388 78.7045V79.8636C46.5388 80.8523 46.7092 81.6903 47.0502 82.3778C47.3967 83.0597 47.8769 83.5795 48.4905 83.9375C49.1041 84.2898 49.8172 84.4659 50.6297 84.4659C51.1581 84.4659 51.6354 84.392 52.0615 84.2443C52.4933 84.0909 52.8655 83.8636 53.178 83.5625C53.4905 83.2557 53.732 82.875 53.9024 82.4205L55.8456 82.9659C55.6411 83.625 55.2973 84.2045 54.8144 84.7045C54.3314 85.1989 53.7348 85.5852 53.0246 85.8636C52.3144 86.1364 51.5161 86.2727 50.6297 86.2727ZM58.3898 86V72.9091H60.4012V78.6023H61.7307L66.4353 72.9091H69.0262L63.7421 79.2159L69.0944 86H66.5035L62.208 80.4773H60.4012V86H58.3898ZM75.3396 86.2727C74.1123 86.2727 73.0555 85.983 72.1691 85.4034C71.2827 84.8239 70.6009 84.0256 70.1236 83.0085C69.6464 81.9915 69.4077 80.8295 69.4077 79.5227C69.4077 78.1932 69.6521 77.0199 70.1407 76.0028C70.635 74.9801 71.3225 74.1818 72.2032 73.608C73.0896 73.0284 74.1236 72.7386 75.3055 72.7386C76.2259 72.7386 77.0555 72.9091 77.7941 73.25C78.5327 73.5909 79.1379 74.0682 79.6094 74.6818C80.081 75.2955 80.3736 76.0114 80.4873 76.8295H78.4759C78.3225 76.233 77.9816 75.7045 77.4532 75.2443C76.9305 74.7784 76.2259 74.5455 75.3396 74.5455C74.5555 74.5455 73.868 74.75 73.2771 75.1591C72.6918 75.5625 72.2344 76.1335 71.9049 76.8722C71.581 77.6051 71.4191 78.4659 71.4191 79.4545C71.4191 80.4659 71.5782 81.3466 71.8964 82.0966C72.2202 82.8466 72.6748 83.429 73.26 83.8438C73.8509 84.2585 74.5441 84.4659 75.3396 84.4659C75.8623 84.4659 76.3367 84.375 76.7629 84.1932C77.189 84.0114 77.5498 83.75 77.8452 83.4091C78.1407 83.0682 78.3509 82.6591 78.4759 82.1818H80.4873C80.3736 82.9545 80.0924 83.6506 79.6435 84.2699C79.2004 84.8835 78.6123 85.3722 77.8793 85.7358C77.1521 86.0938 76.3055 86.2727 75.3396 86.2727Z" fill="#0E0E0E"/>
</svg>
