<svg width="147" height="91" viewBox="0 0 147 91" fill="none" xmlns="http://www.w3.org/2000/svg">
<g clip-path="url(#clip0_3662_1529)">
<path d="M65.781 0.00830865C67.8451 -0.0120711 69.9094 -0.0130839 71.9734 0.00501739C73.2878 0.0137516 74.7547 -0.0785263 76.0453 0.172613C77.02 0.36236 77.9782 0.751348 78.7776 1.34198C80.0637 2.29223 80.9961 3.75375 81.2256 5.35223C81.4476 6.89856 80.8544 8.64527 79.917 9.86641C79.1563 10.857 78.1218 11.5602 76.9352 11.937C76.7106 12.0083 76.4353 12.1073 76.1986 12.1115C75.679 12.1207 75.0697 11.8116 74.5668 11.6687C73.2932 11.3064 71.9318 11.0232 70.7165 10.4983C69.7186 10.0673 68.7354 9.58287 67.758 9.10704C67.2308 8.85046 66.6537 8.50097 66.0886 8.34679C65.3247 8.13844 62.9552 8.27337 62.132 8.38717C61.4699 8.47882 60.814 8.66464 60.1678 8.83261C59.5666 8.98882 58.9477 9.1297 58.3649 9.34565C56.5453 10.0335 54.9571 11.2216 53.7837 12.7731C52.3616 14.69 51.9673 17.1554 51.951 19.4857C51.9472 20.0346 51.9301 20.5951 52.0149 21.1391C52.3008 22.9739 52.7804 24.8222 53.7348 26.4331C54.1154 27.0756 54.6144 27.6378 55.101 28.2006C55.6054 28.7841 56.1004 29.3932 56.662 29.9229C57.1034 30.3392 57.6 30.7106 58.0735 31.0902C59.6203 32.3303 61.129 33.3634 62.74 34.5016C64.0351 35.435 65.3223 36.3793 66.6014 37.3345C66.1484 37.8474 65.7966 38.4724 65.4195 39.042L63.5208 41.8959C60.9328 45.8121 58.3244 49.7148 55.6956 53.6036C54.8025 54.9587 53.8567 56.2869 52.929 57.6187C52.3678 58.4241 51.8221 59.3378 51.151 60.053C47.4985 60.0041 43.8462 60.0657 40.1953 59.9012C40.4658 59.1497 41.2825 58.1062 41.7238 57.3908C44.1608 53.4401 46.8113 49.6419 49.4062 45.7946C50.7637 43.7822 51.9796 41.6765 53.3689 39.6868C52.0306 38.5125 50.5268 37.4925 49.2452 36.2569C48.6406 35.6743 48.0611 35.0602 47.4734 34.4606C46.8938 33.8692 46.2832 33.2817 45.7649 32.6349C42.9385 29.1067 41.4237 24.481 41.3514 19.975C41.2589 16.4163 42.1262 12.8981 43.862 9.78996C44.158 9.25958 44.4444 8.7116 44.7997 8.21831C45.412 7.36831 46.2071 6.54654 46.9396 5.7954C47.559 5.16021 48.2699 4.66894 48.9915 4.16046C49.4924 3.80742 49.9896 3.43325 50.5224 3.12932C51.5515 2.54236 53.4265 1.73882 54.5701 1.41097C55.3918 1.1754 56.2515 1.01692 57.0871 0.831347C57.8387 0.664384 58.5937 0.477297 59.3577 0.376791C61.4767 0.0978037 63.6465 0.0393213 65.781 0.00830865Z" fill="#0E0E0E"/>
<path d="M74.8117 31.9338C78.2836 31.4443 81.49 33.8757 81.9556 37.351C82.421 40.8262 79.9675 44.0158 76.4891 44.4573C73.0446 44.8945 69.8927 42.47 69.4317 39.0285C68.9706 35.5869 71.3733 32.4185 74.8117 31.9338Z" fill="#0E0E0E"/>
<path d="M74.8568 15.5103C78.3087 15.0453 81.4841 17.466 81.9501 20.9178C82.4159 24.3696 79.9959 27.5457 76.5443 28.0124C73.0915 28.4792 69.9141 26.0581 69.4481 22.6052C68.982 19.1522 71.4038 15.9755 74.8568 15.5103Z" fill="#0E0E0E"/>
<path d="M74.6964 48.1469C77.9384 47.823 80.8308 50.1846 81.1617 53.426C81.4926 56.6674 79.1372 59.5647 75.8965 59.9026C72.646 60.2415 69.7379 57.8773 69.406 54.6261C69.0741 51.375 71.4445 48.4718 74.6964 48.1469Z" fill="#0E0E0E"/>
<path d="M90.3422 33.1318C93.1481 32.7554 95.7232 34.7375 96.0774 37.5464C96.4315 40.3551 94.429 42.9145 91.6175 43.2464C88.8372 43.5745 86.3127 41.5992 85.9624 38.8217C85.6123 36.0442 87.5676 33.504 90.3422 33.1318Z" fill="#0E0E0E"/>
<path d="M90.5542 16.7294C93.3674 16.4671 95.8556 18.5466 96.0969 21.3616C96.3383 24.1767 94.2402 26.6494 91.4233 26.8696C88.6362 27.0876 86.1951 25.0163 85.9564 22.2309C85.7176 19.4454 87.7706 16.989 90.5542 16.7294Z" fill="#0E0E0E"/>
<path d="M88.1483 49.8112C90.4911 49.5954 92.5663 51.3171 92.7868 53.6595C93.0073 56.0017 91.2899 58.0805 88.948 58.3055C86.5993 58.5314 84.5136 56.8079 84.2925 54.459C84.0714 52.1101 85.799 50.0277 88.1483 49.8112Z" fill="#0E0E0E"/>
<path d="M88.8981 1.75385C91.2157 1.95144 92.9416 3.97891 92.7667 6.29828C92.5917 8.61777 90.5812 10.3633 88.2602 10.2111C85.9069 10.0566 84.1317 8.01195 84.3091 5.6603C84.4866 3.30879 86.5483 1.5536 88.8981 1.75385Z" fill="#0E0E0E"/>
<path d="M102.023 24.8192C100.5 24.1004 99.7308 22.3758 100.214 20.762C100.697 19.1482 102.287 18.1298 103.955 18.366C105.623 18.602 106.867 20.0219 106.883 21.7065C106.899 23.3909 105.682 24.8341 104.018 25.1016C103.935 25.1384 103.961 25.1211 103.896 25.1676C103.76 25.2639 103.596 25.4006 103.423 25.4181C103.201 25.4406 102.976 25.2101 102.815 25.08C102.542 25.0258 102.276 24.9382 102.023 24.8192Z" fill="#0E0E0E"/>
<path d="M103.412 34.8055C105.267 34.7663 106.809 36.226 106.871 38.0805C106.934 39.935 105.493 41.495 103.64 41.5806C102.42 41.637 101.264 41.0328 100.614 39.9991C99.964 38.9653 99.9201 37.6619 100.499 36.5868C101.078 35.5118 102.191 34.8313 103.412 34.8055Z" fill="#0E0E0E"/>
<path d="M99.2675 51.4496C100.697 51.4247 101.874 52.5677 101.89 53.9972C101.907 55.4267 100.757 56.5967 99.3273 56.6051C97.9095 56.6133 96.751 55.4749 96.7346 54.0571C96.7181 52.6392 97.8497 51.4743 99.2675 51.4496Z" fill="#0E0E0E"/>
<path d="M98.9836 3.36809C100.369 3.17657 101.65 4.13581 101.857 5.5191C102.064 6.90227 101.118 8.19404 99.7374 8.41556C98.8307 8.561 97.9158 8.20822 97.3416 7.49151C96.7674 6.7748 96.6226 5.80493 96.9624 4.95189C97.3021 4.09873 98.074 3.49391 98.9836 3.36809Z" fill="#0E0E0E"/>
</g>
<path d="M15.1705 68.5455V86H13.0568V70.4205H4.26136V86H2.14773V68.5455H15.1705ZM23.7594 86.2727C22.5776 86.2727 21.5407 85.9915 20.6486 85.429C19.7622 84.8665 19.0691 84.0795 18.5691 83.0682C18.0747 82.0568 17.8276 80.875 17.8276 79.5227C17.8276 78.1591 18.0747 76.9687 18.5691 75.9517C19.0691 74.9347 19.7622 74.1449 20.6486 73.5824C21.5407 73.0199 22.5776 72.7386 23.7594 72.7386C24.9412 72.7386 25.9753 73.0199 26.8617 73.5824C27.7537 74.1449 28.4469 74.9347 28.9412 75.9517C29.4412 76.9687 29.6912 78.1591 29.6912 79.5227C29.6912 80.875 29.4412 82.0568 28.9412 83.0682C28.4469 84.0795 27.7537 84.8665 26.8617 85.429C25.9753 85.9915 24.9412 86.2727 23.7594 86.2727ZM23.7594 84.4659C24.6571 84.4659 25.3958 84.2358 25.9753 83.7756C26.5549 83.3153 26.9838 82.7102 27.2622 81.9602C27.5407 81.2102 27.6799 80.3977 27.6799 79.5227C27.6799 78.6477 27.5407 77.8324 27.2622 77.0767C26.9838 76.321 26.5549 75.7102 25.9753 75.2443C25.3958 74.7784 24.6571 74.5455 23.7594 74.5455C22.8617 74.5455 22.123 74.7784 21.5435 75.2443C20.9639 75.7102 20.535 76.321 20.2566 77.0767C19.9782 77.8324 19.8389 78.6477 19.8389 79.5227C19.8389 80.3977 19.9782 81.2102 20.2566 81.9602C20.535 82.7102 20.9639 83.3153 21.5435 83.7756C22.123 84.2358 22.8617 84.4659 23.7594 84.4659ZM34.0529 83.0341L40.3597 72.9091H42.6779V86H40.6665V75.875L34.3938 86H32.0415V72.9091H34.0529V83.0341ZM50.96 86.2727C49.7328 86.2727 48.6759 85.983 47.7896 85.4034C46.9032 84.8239 46.2214 84.0256 45.7441 83.0085C45.2668 81.9915 45.0282 80.8295 45.0282 79.5227C45.0282 78.1932 45.2725 77.0199 45.7612 76.0028C46.2555 74.9801 46.943 74.1818 47.8237 73.608C48.71 73.0284 49.7441 72.7386 50.9259 72.7386C51.8464 72.7386 52.6759 72.9091 53.4146 73.25C54.1532 73.5909 54.7583 74.0682 55.2299 74.6818C55.7015 75.2955 55.9941 76.0114 56.1078 76.8295H54.0964C53.943 76.233 53.6021 75.7045 53.0737 75.2443C52.5509 74.7784 51.8464 74.5455 50.96 74.5455C50.1759 74.5455 49.4884 74.75 48.8975 75.1591C48.3123 75.5625 47.8549 76.1335 47.5254 76.8722C47.2015 77.6051 47.0396 78.4659 47.0396 79.4545C47.0396 80.4659 47.1987 81.3466 47.5168 82.0966C47.8407 82.8466 48.2953 83.429 48.8805 83.8438C49.4714 84.2585 50.1646 84.4659 50.96 84.4659C51.4828 84.4659 51.9572 84.375 52.3833 84.1932C52.8095 84.0114 53.1703 83.75 53.4657 83.4091C53.7612 83.0682 53.9714 82.6591 54.0964 82.1818H56.1078C55.9941 82.9545 55.7129 83.6506 55.264 84.2699C54.8208 84.8835 54.2328 85.3722 53.4998 85.7358C52.7725 86.0938 51.9259 86.2727 50.96 86.2727ZM58.3281 86V72.9091H60.3395V78.6023H61.669L66.3736 72.9091H68.9645L63.6804 79.2159L69.0326 86H66.4417L62.1463 80.4773H60.3395V86H58.3281ZM76.8014 86V68.5455H78.9151V76.3182H88.2219V68.5455H90.3355V86H88.2219V78.1932H78.9151V86H76.8014ZM99.063 86.2727C97.8016 86.2727 96.7136 85.9943 95.7988 85.4375C94.8897 84.875 94.188 84.0909 93.6937 83.0852C93.205 82.0739 92.9607 80.8977 92.9607 79.5568C92.9607 78.2159 93.205 77.0341 93.6937 76.0114C94.188 74.983 94.8755 74.1818 95.7562 73.608C96.6425 73.0284 97.6766 72.7386 98.8584 72.7386C99.5403 72.7386 100.214 72.8523 100.878 73.0795C101.543 73.3068 102.148 73.6761 102.694 74.1875C103.239 74.6932 103.674 75.3636 103.998 76.1989C104.322 77.0341 104.483 78.0625 104.483 79.2841V80.1364H94.3925V78.3977H102.438C102.438 77.6591 102.29 77 101.995 76.4205C101.705 75.8409 101.29 75.3835 100.75 75.0483C100.216 74.7131 99.5857 74.5455 98.8584 74.5455C98.0573 74.5455 97.3641 74.7443 96.7789 75.142C96.1993 75.5341 95.7533 76.0455 95.4408 76.6761C95.1283 77.3068 94.9721 77.983 94.9721 78.7045V79.8636C94.9721 80.8523 95.1425 81.6903 95.4834 82.3778C95.83 83.0597 96.3101 83.5795 96.9238 83.9375C97.5374 84.2898 98.2505 84.4659 99.063 84.4659C99.5914 84.4659 100.069 84.392 100.495 84.2443C100.927 84.0909 101.299 83.8636 101.611 83.5625C101.924 83.2557 102.165 82.875 102.336 82.4205L104.279 82.9659C104.074 83.625 103.731 84.2045 103.248 84.7045C102.765 85.1989 102.168 85.5852 101.458 85.8636C100.748 86.1364 99.9493 86.2727 99.063 86.2727ZM108.834 83.0341L115.141 72.9091H117.459V86H115.448V75.875L109.175 86H106.823V72.9091H108.834V83.0341ZM113.812 68.5455H115.687C115.687 69.4659 115.369 70.2188 114.732 70.804C114.096 71.3892 113.232 71.6818 112.141 71.6818C111.067 71.6818 110.212 71.3892 109.576 70.804C108.945 70.2188 108.63 69.4659 108.63 68.5455H110.505C110.505 68.9886 110.627 69.3778 110.871 69.7131C111.121 70.0483 111.545 70.2159 112.141 70.2159C112.738 70.2159 113.164 70.0483 113.42 69.7131C113.681 69.3778 113.812 68.9886 113.812 68.5455ZM120.423 90.9091V72.9091H122.367V74.9886H122.605C122.753 74.7614 122.957 74.4716 123.219 74.1193C123.486 73.7614 123.867 73.4432 124.361 73.1648C124.861 72.8807 125.537 72.7386 126.389 72.7386C127.492 72.7386 128.463 73.0142 129.304 73.5653C130.145 74.1165 130.801 74.8977 131.273 75.9091C131.744 76.9205 131.98 78.1136 131.98 79.4886C131.98 80.875 131.744 82.0767 131.273 83.0938C130.801 84.1051 130.148 84.8892 129.313 85.446C128.477 85.9972 127.514 86.2727 126.423 86.2727C125.582 86.2727 124.909 86.1335 124.404 85.8551C123.898 85.571 123.509 85.25 123.236 84.892C122.963 84.5284 122.753 84.2273 122.605 83.9886H122.435V90.9091H120.423ZM122.401 79.4545C122.401 80.4432 122.546 81.3153 122.835 82.071C123.125 82.821 123.548 83.4091 124.105 83.8352C124.662 84.2557 125.344 84.4659 126.151 84.4659C126.992 84.4659 127.693 84.2443 128.256 83.8011C128.824 83.3523 129.25 82.75 129.534 81.9943C129.824 81.233 129.969 80.3864 129.969 79.4545C129.969 78.5341 129.827 77.7045 129.543 76.9659C129.264 76.2216 128.841 75.6335 128.273 75.2017C127.71 74.7642 127.003 74.5455 126.151 74.5455C125.332 74.5455 124.645 74.7528 124.088 75.1676C123.531 75.5767 123.111 76.1506 122.827 76.8892C122.543 77.6222 122.401 78.4773 122.401 79.4545ZM139.647 86.2727C138.465 86.2727 137.428 85.9915 136.536 85.429C135.649 84.8665 134.956 84.0795 134.456 83.0682C133.962 82.0568 133.715 80.875 133.715 79.5227C133.715 78.1591 133.962 76.9687 134.456 75.9517C134.956 74.9347 135.649 74.1449 136.536 73.5824C137.428 73.0199 138.465 72.7386 139.647 72.7386C140.828 72.7386 141.863 73.0199 142.749 73.5824C143.641 74.1449 144.334 74.9347 144.828 75.9517C145.328 76.9687 145.578 78.1591 145.578 79.5227C145.578 80.875 145.328 82.0568 144.828 83.0682C144.334 84.0795 143.641 84.8665 142.749 85.429C141.863 85.9915 140.828 86.2727 139.647 86.2727ZM139.647 84.4659C140.544 84.4659 141.283 84.2358 141.863 83.7756C142.442 83.3153 142.871 82.7102 143.149 81.9602C143.428 81.2102 143.567 80.3977 143.567 79.5227C143.567 78.6477 143.428 77.8324 143.149 77.0767C142.871 76.321 142.442 75.7102 141.863 75.2443C141.283 74.7784 140.544 74.5455 139.647 74.5455C138.749 74.5455 138.01 74.7784 137.431 75.2443C136.851 75.7102 136.422 76.321 136.144 77.0767C135.865 77.8324 135.726 78.6477 135.726 79.5227C135.726 80.3977 135.865 81.2102 136.144 81.9602C136.422 82.7102 136.851 83.3153 137.431 83.7756C138.01 84.2358 138.749 84.4659 139.647 84.4659Z" fill="#0E0E0E"/>
<defs>
<clipPath id="clip0_3662_1529">
<rect width="71" height="60" fill="white" transform="translate(38)"/>
</clipPath>
</defs>
</svg>
