<svg width="60" height="60" viewBox="0 0 60 60" fill="none" xmlns="http://www.w3.org/2000/svg">
<path d="M30 55.2105C30 57.8557 32.1578 60.039 34.7693 59.6185C39.0067 58.9361 43.0676 57.3492 46.6671 54.9441C51.6006 51.6476 55.4458 46.9623 57.7164 41.4805C59.987 35.9987 60.5811 29.9667 59.4236 24.1473C58.266 18.3279 55.4088 12.9824 51.2132 8.7868C47.0176 4.59122 41.6721 1.734 35.8527 0.576442C30.0333 -0.581115 24.0013 0.0129855 18.5195 2.28361C13.0377 4.55424 8.35235 8.39942 5.05591 13.3329C2.65079 16.9324 1.06385 20.9933 0.381504 25.2307C-0.039024 27.8422 2.14433 30 4.78949 30C7.43465 30 9.52334 27.827 10.1381 25.2542C10.6975 22.9131 11.6693 20.6769 13.0205 18.6547C15.2644 15.2965 18.4538 12.6791 22.1852 11.1334C25.9167 9.58782 30.0227 9.18342 33.9839 9.97137C37.9452 10.7593 41.5839 12.7042 44.4398 15.5602C47.2958 18.4161 49.2407 22.0548 50.0286 26.0161C50.8166 29.9773 50.4122 34.0833 48.8666 37.8148C47.3209 41.5462 44.7035 44.7356 41.3453 46.9795C39.3231 48.3307 37.0869 49.3025 34.7458 49.8619C32.173 50.4767 30 52.5653 30 55.2105Z" fill="#A7A7A5"/>
<circle cx="29.9999" cy="30.0001" r="6.46154" fill="#0E0E0E"/>
</svg>
