<svg width="78" height="92" viewBox="0 0 78 92" fill="none" xmlns="http://www.w3.org/2000/svg">
<path d="M40.1123 24.5452V36.1634H56.5873C55.8638 39.8998 53.6929 43.0635 50.4369 45.1908L60.3719 52.7454C66.1605 47.5092 69.5 39.8182 69.5 30.6819C69.5 28.5547 69.3052 26.509 68.9434 24.5456L40.1123 24.5452Z" fill="#0E0E0E"/>
<path d="M22.9557 35.7101L20.715 37.391L12.7835 43.4455C17.8206 53.2363 28.1445 60 40.111 60C48.3762 60 55.3056 57.3273 60.3707 52.7456L50.4356 45.191C47.7083 46.9909 44.2296 48.082 40.111 48.082C32.1519 48.082 25.3895 42.8184 22.9682 35.7274L22.9557 35.7101Z" fill="#0E0E0E"/>
<path d="M12.7836 16.5545C10.6965 20.5907 9.5 25.1453 9.5 29.9998C9.5 34.8542 10.6964 39.4093 12.7835 43.4455C12.7835 43.4725 22.9694 35.6996 22.9694 35.6996C22.3571 33.8996 21.9952 31.9906 21.9952 29.9995C21.9952 28.0083 22.3571 26.0993 22.9694 24.2994L12.7836 16.5545Z" fill="#0E0E0E"/>
<path d="M40.1117 11.9454C44.6201 11.9454 48.6275 13.4727 51.8278 16.4181L60.594 7.82736C55.2786 2.97291 48.3771 0 40.1117 0C28.1451 0 17.8207 6.73634 12.7836 16.5545L22.9694 24.2994C25.3904 17.2084 32.1525 11.9454 40.1117 11.9454Z" fill="#0E0E0E"/>
<path d="M14.4626 74C14.2751 73.4261 14.028 72.9119 13.7212 72.4574C13.42 71.9972 13.0592 71.6051 12.6388 71.2812C12.224 70.9574 11.7524 70.7102 11.224 70.5398C10.6956 70.3693 10.1161 70.2841 9.48537 70.2841C8.45128 70.2841 7.51094 70.5511 6.66435 71.0852C5.81776 71.6193 5.14446 72.4062 4.64446 73.446C4.14446 74.4858 3.89446 75.7614 3.89446 77.2727C3.89446 78.7841 4.1473 80.0597 4.65298 81.0994C5.15866 82.1392 5.84332 82.9261 6.70696 83.4602C7.5706 83.9943 8.54219 84.2614 9.62173 84.2614C10.6217 84.2614 11.5024 84.0483 12.2638 83.6222C13.0308 83.1903 13.6274 82.5824 14.0536 81.7983C14.4854 81.0085 14.7013 80.0795 14.7013 79.0114L15.349 79.1477H10.099V77.2727H16.7467V79.1477C16.7467 80.5852 16.4399 81.8352 15.8263 82.8977C15.2183 83.9602 14.3774 84.7841 13.3036 85.3693C12.2354 85.9489 11.0081 86.2386 9.62173 86.2386C8.07628 86.2386 6.71832 85.875 5.54787 85.1477C4.3831 84.4205 3.47401 83.3864 2.8206 82.0455C2.17287 80.7045 1.849 79.1136 1.849 77.2727C1.849 75.892 2.03366 74.6506 2.40298 73.5483C2.77798 72.4403 3.30639 71.4972 3.98821 70.7188C4.67003 69.9403 5.47685 69.3438 6.40866 68.929C7.34048 68.5142 8.36605 68.3068 9.48537 68.3068C10.4058 68.3068 11.2638 68.446 12.0592 68.7244C12.8604 68.9972 13.5734 69.3864 14.1984 69.892C14.8291 70.392 15.3547 70.9915 15.7751 71.6903C16.1956 72.3835 16.4854 73.1534 16.6445 74H14.4626ZM24.6922 86.2727C23.5104 86.2727 22.4735 85.9915 21.5814 85.429C20.6951 84.8665 20.0019 84.0795 19.5019 83.0682C19.0076 82.0568 18.7604 80.875 18.7604 79.5227C18.7604 78.1591 19.0076 76.9687 19.5019 75.9517C20.0019 74.9347 20.6951 74.1449 21.5814 73.5824C22.4735 73.0199 23.5104 72.7386 24.6922 72.7386C25.874 72.7386 26.9081 73.0199 27.7945 73.5824C28.6865 74.1449 29.3797 74.9347 29.874 75.9517C30.374 76.9687 30.624 78.1591 30.624 79.5227C30.624 80.875 30.374 82.0568 29.874 83.0682C29.3797 84.0795 28.6865 84.8665 27.7945 85.429C26.9081 85.9915 25.874 86.2727 24.6922 86.2727ZM24.6922 84.4659C25.5899 84.4659 26.3286 84.2358 26.9081 83.7756C27.4877 83.3153 27.9166 82.7102 28.1951 81.9602C28.4735 81.2102 28.6127 80.3977 28.6127 79.5227C28.6127 78.6477 28.4735 77.8324 28.1951 77.0767C27.9166 76.321 27.4877 75.7102 26.9081 75.2443C26.3286 74.7784 25.5899 74.5455 24.6922 74.5455C23.7945 74.5455 23.0559 74.7784 22.4763 75.2443C21.8968 75.7102 21.4678 76.321 21.1894 77.0767C20.911 77.8324 20.7718 78.6477 20.7718 79.5227C20.7718 80.3977 20.911 81.2102 21.1894 81.9602C21.4678 82.7102 21.8968 83.3153 22.4763 83.7756C23.0559 84.2358 23.7945 84.4659 24.6922 84.4659ZM38.2925 86.2727C37.1107 86.2727 36.0738 85.9915 35.1817 85.429C34.2954 84.8665 33.6022 84.0795 33.1022 83.0682C32.6079 82.0568 32.3607 80.875 32.3607 79.5227C32.3607 78.1591 32.6079 76.9687 33.1022 75.9517C33.6022 74.9347 34.2954 74.1449 35.1817 73.5824C36.0738 73.0199 37.1107 72.7386 38.2925 72.7386C39.4743 72.7386 40.5084 73.0199 41.3948 73.5824C42.2868 74.1449 42.98 74.9347 43.4743 75.9517C43.9743 76.9687 44.2243 78.1591 44.2243 79.5227C44.2243 80.875 43.9743 82.0568 43.4743 83.0682C42.98 84.0795 42.2868 84.8665 41.3948 85.429C40.5084 85.9915 39.4743 86.2727 38.2925 86.2727ZM38.2925 84.4659C39.1903 84.4659 39.9289 84.2358 40.5084 83.7756C41.088 83.3153 41.517 82.7102 41.7954 81.9602C42.0738 81.2102 42.213 80.3977 42.213 79.5227C42.213 78.6477 42.0738 77.8324 41.7954 77.0767C41.517 76.321 41.088 75.7102 40.5084 75.2443C39.9289 74.7784 39.1903 74.5455 38.2925 74.5455C37.3948 74.5455 36.6562 74.7784 36.0766 75.2443C35.4971 75.7102 35.0681 76.321 34.7897 77.0767C34.5113 77.8324 34.3721 78.6477 34.3721 79.5227C34.3721 80.3977 34.5113 81.2102 34.7897 81.9602C35.0681 82.7102 35.4971 83.3153 36.0766 83.7756C36.6562 84.2358 37.3948 84.4659 38.2925 84.4659ZM51.8587 91.1818C50.8872 91.1818 50.0519 91.0568 49.3531 90.8068C48.6542 90.5625 48.0718 90.2386 47.6059 89.8352C47.1457 89.4375 46.7792 89.0114 46.5065 88.5568L48.1087 87.4318C48.2906 87.6705 48.5207 87.9432 48.7991 88.25C49.0775 88.5625 49.4582 88.8324 49.9411 89.0597C50.4298 89.2926 51.069 89.4091 51.8587 89.4091C52.9156 89.4091 53.7877 89.1534 54.4752 88.642C55.1627 88.1307 55.5065 87.3295 55.5065 86.2386V83.5795H55.336C55.1883 83.8182 54.9781 84.1136 54.7053 84.4659C54.4383 84.8125 54.0519 85.1222 53.5462 85.3949C53.0462 85.6619 52.3701 85.7955 51.5178 85.7955C50.461 85.7955 49.5122 85.5455 48.6712 85.0455C47.836 84.5455 47.1741 83.8182 46.6855 82.8636C46.2025 81.9091 45.961 80.75 45.961 79.3864C45.961 78.0455 46.1968 76.8778 46.6684 75.8835C47.14 74.8835 47.7962 74.1108 48.6372 73.5653C49.4781 73.0142 50.4497 72.7386 51.5519 72.7386C52.4042 72.7386 53.0803 72.8807 53.5803 73.1648C54.086 73.4432 54.4724 73.7614 54.7394 74.1193C55.0122 74.4716 55.2224 74.7614 55.3701 74.9886H55.5747V72.9091H57.5178V86.375C57.5178 87.5 57.2622 88.4148 56.7508 89.1193C56.2451 89.8295 55.5633 90.3494 54.7053 90.679C53.8531 91.0142 52.9042 91.1818 51.8587 91.1818ZM51.7906 83.9886C52.5974 83.9886 53.2792 83.804 53.836 83.4347C54.3928 83.0653 54.8161 82.5341 55.1059 81.8409C55.3957 81.1477 55.5406 80.3182 55.5406 79.3523C55.5406 78.4091 55.3985 77.5767 55.1144 76.8551C54.8303 76.1335 54.4099 75.5682 53.8531 75.1591C53.2962 74.75 52.6087 74.5455 51.7906 74.5455C50.9383 74.5455 50.2281 74.7614 49.6599 75.1932C49.0974 75.625 48.6741 76.2045 48.39 76.9318C48.1116 77.6591 47.9724 78.4659 47.9724 79.3523C47.9724 80.2614 48.1144 81.0653 48.3985 81.7642C48.6883 82.4574 49.1144 83.0028 49.6769 83.4006C50.2451 83.7926 50.9497 83.9886 51.7906 83.9886ZM62.491 68.5455V86H60.4797V68.5455H62.491ZM70.9436 86.2727C69.6822 86.2727 68.5942 85.9943 67.6794 85.4375C66.7703 84.875 66.0686 84.0909 65.5743 83.0852C65.0857 82.0739 64.8413 80.8977 64.8413 79.5568C64.8413 78.2159 65.0857 77.0341 65.5743 76.0114C66.0686 74.983 66.7561 74.1818 67.6368 73.608C68.5232 73.0284 69.5572 72.7386 70.7391 72.7386C71.4209 72.7386 72.0942 72.8523 72.7589 73.0795C73.4237 73.3068 74.0288 73.6761 74.5743 74.1875C75.1197 74.6932 75.5544 75.3636 75.8783 76.1989C76.2021 77.0341 76.3641 78.0625 76.3641 79.2841V80.1364H66.2732V78.3977H74.3186C74.3186 77.6591 74.1709 77 73.8754 76.4205C73.5857 75.8409 73.1709 75.3835 72.6311 75.0483C72.097 74.7131 71.4663 74.5455 70.7391 74.5455C69.9379 74.5455 69.2447 74.7443 68.6595 75.142C68.08 75.5341 67.6339 76.0455 67.3214 76.6761C67.0089 77.3068 66.8527 77.983 66.8527 78.7045V79.8636C66.8527 80.8523 67.0232 81.6903 67.3641 82.3778C67.7107 83.0597 68.1908 83.5795 68.8044 83.9375C69.418 84.2898 70.1311 84.4659 70.9436 84.4659C71.472 84.4659 71.9493 84.392 72.3754 84.2443C72.8072 84.0909 73.1794 83.8636 73.4919 83.5625C73.8044 83.2557 74.0459 82.875 74.2163 82.4205L76.1595 82.9659C75.955 83.625 75.6112 84.2045 75.1283 84.7045C74.6453 85.1989 74.0487 85.5852 73.3385 85.8636C72.6283 86.1364 71.83 86.2727 70.9436 86.2727Z" fill="#0E0E0E"/>
</svg>
