<svg width="60" height="60" viewBox="0 0 60 60" fill="none" xmlns="http://www.w3.org/2000/svg">
<g clip-path="url(#clip0_16_136)">
<path d="M30 55.2105C30 57.8557 32.1578 60.039 34.7693 59.6185C39.0067 58.9361 43.0676 57.3492 46.6671 54.9441C51.6006 51.6476 55.4458 46.9623 57.7164 41.4805C59.987 35.9987 60.5811 29.9667 59.4236 24.1473C58.266 18.3279 55.4088 12.9824 51.2132 8.78681C47.0176 4.59123 41.6721 1.73401 35.8527 0.576455C30.0333 -0.581102 24.0013 0.0129991 18.5195 2.28362C13.0377 4.55425 8.35232 8.39943 5.05588 13.3329C2.65076 16.9324 1.06382 20.9933 0.38147 25.2307C-0.0390576 27.8422 2.1443 30 4.78946 30C7.43462 30 9.52331 27.827 10.1381 25.2542C10.6975 22.9131 11.6693 20.6769 13.0205 18.6547C15.2644 15.2965 18.4538 12.6791 22.1852 11.1334C25.9167 9.58783 30.0227 9.18343 33.9839 9.97138C37.9452 10.7593 41.5839 12.7042 44.4398 15.5602C47.2958 18.4161 49.2407 22.0548 50.0286 26.0161C50.8166 29.9773 50.4122 34.0833 48.8666 37.8148C47.3209 41.5462 44.7035 44.7356 41.3453 46.9795C39.3231 48.3307 37.0869 49.3025 34.7458 49.8619C32.173 50.4767 30 52.5653 30 55.2105Z" fill="#DAD9D6"/>
<path d="M29.9999 36.4617C33.5685 36.4617 36.4614 33.5687 36.4614 30.0001C36.4614 26.4315 33.5685 23.5386 29.9999 23.5386C26.4313 23.5386 23.5383 26.4315 23.5383 30.0001C23.5383 33.5687 26.4313 36.4617 29.9999 36.4617Z" fill="#EFEEEC"/>
</g>
<defs>
<clipPath id="clip0_16_136">
<rect width="60" height="60" fill="white"/>
</clipPath>
</defs>
</svg>
