<svg width="229" height="123" viewBox="0 0 229 123" fill="none" xmlns="http://www.w3.org/2000/svg">
<circle cx="178.149" cy="72.1526" r="45" transform="rotate(7 178.149 72.1526)" fill="#EFEEEC"/>
<path d="M181.166 46.6276C168.188 45.0341 168.307 50.7616 168.307 50.7616L167.606 56.594L179.99 58.1146L179.775 59.8652L162.472 57.7406C162.472 57.7406 154.283 55.7791 152.675 68.874C151.067 81.9689 158.373 82.3945 158.373 82.3945L162.698 82.9257L163.445 76.8491C163.445 76.8491 164.101 69.5721 171.467 70.4765L183.751 71.9847C183.751 71.9847 190.638 72.9436 191.471 66.1623L192.847 54.9497C192.847 54.9497 194.728 48.2929 181.166 46.6276ZM173.856 49.7099C175.088 49.8612 175.961 50.9794 175.81 52.2116C175.659 53.4437 174.541 54.3173 173.308 54.166C172.076 54.0148 171.203 52.8966 171.354 51.6644C171.505 50.4322 172.623 49.5586 173.856 49.7099Z" fill="#737373"/>
<path d="M175.286 97.5286C188.264 99.1221 188.144 93.3946 188.144 93.3946L188.846 87.5623L176.461 86.0416L176.676 84.291L193.98 86.4156C193.98 86.4156 202.169 88.3771 203.777 75.2822C205.384 62.1874 198.079 61.7617 198.079 61.7617L193.753 61.2306L193.007 67.3071C193.007 67.3071 192.35 74.5842 184.984 73.6798L172.701 72.1716C172.701 72.1716 165.813 71.2126 164.981 77.9939L163.604 89.2066C163.604 89.2066 161.723 95.8634 175.286 97.5286ZM182.596 94.4463C181.364 94.295 180.49 93.1769 180.641 91.9447C180.793 90.7125 181.911 89.8389 183.143 89.9902C184.375 90.1415 185.249 91.2597 185.098 92.4918C184.946 93.724 183.828 94.5976 182.596 94.4463Z" fill="#737373"/>
<circle cx="46.3382" cy="46.3409" r="40" transform="rotate(-10 46.3382 46.3409)" fill="#EFEEEC"/>
<path d="M39.3333 58.1956C39.3333 58.1956 37.479 59.7614 41.0873 59.5444C45.4579 59.2778 47.6352 58.8216 52.1991 57.0954C52.1991 57.0954 53.5777 57.6549 55.4302 58.0233C45.6457 64.4259 31.4295 61.9844 39.3333 58.1956Z" fill="#737373"/>
<path d="M36.9995 52.5045C36.9995 52.5045 34.9846 54.6285 38.5883 54.3705C43.2483 54.0356 46.8695 53.4369 52.9114 51.1299C52.9114 51.1299 53.9311 51.8543 55.3759 52.0941C43.2387 58.0925 28.3773 57.1589 36.9995 52.5045Z" fill="#737373"/>
<path d="M46.1335 40.5399C49.2709 43.0827 46.4541 46.3653 46.4541 46.3653C46.4541 46.3653 52.4734 41.7791 48.6774 38.0346C45.1331 34.5434 42.6051 32.9439 53.1912 24.0258C53.1912 24.0258 35.4968 31.9123 46.1335 40.5399Z" fill="#737373"/>
<path d="M63.7127 58.411C63.7127 58.411 65.4638 59.4012 62.4228 60.9424C56.6397 63.8704 37.4197 67.8357 31.6412 66.446C29.5641 65.947 32.9765 64.1444 34.0714 63.6993C35.2128 63.2327 35.8995 63.1611 35.8995 63.1611C33.4876 62.028 22.5556 68.5738 30.6949 68.4613C52.8921 68.1558 69.7555 59.9489 63.7127 58.411Z" fill="#737373"/>
<path d="M38.2098 45.9673C38.2098 45.9673 28.7947 50.034 35.291 49.7624C38.034 49.6487 43.3619 48.6256 48.2644 47.3312C52.2706 46.2711 56.2255 44.8217 56.2255 44.8217C56.2255 44.8217 54.8998 45.6887 53.9872 46.58C44.4712 50.9639 24.9788 53.1421 30.0551 49.4791C34.3484 46.3828 38.2098 45.9673 38.2098 45.9673Z" fill="#737373"/>
<path d="M57.5694 52.7131C66.7838 45.6533 61.2005 41.4147 58.0472 42.6744C57.2742 42.9829 56.942 43.1907 56.942 43.1907C56.942 43.1907 57.1576 42.6715 57.6909 42.3692C63.7657 38.9504 70.332 47.0644 57.4123 53.0147C57.4123 53.0147 57.5446 52.8468 57.5694 52.7131Z" fill="#737373"/>
<path d="M44.4728 14.1776C44.4728 14.1776 51.0816 18.8067 41.6592 29.3784C34.1038 37.8582 41.5768 40.6158 44.3711 44.7793C38.4322 41.06 33.9546 37.6535 35.8093 33.4212C38.5315 27.2087 48.3135 22.7045 44.4728 14.1776Z" fill="#737373"/>
<path d="M43.4521 69.9292C53.2989 68.8356 68.0801 65.2301 67.6218 60.5604C67.6218 60.5604 67.2491 62.427 60.1273 65.1129C52.0925 68.1423 41.8103 69.767 35.5542 69.8367C35.5542 69.8367 36.9804 70.6472 43.4521 69.9292Z" fill="#737373"/>
</svg>
