<svg width="194" height="172" viewBox="0 0 194 172" fill="none" xmlns="http://www.w3.org/2000/svg">
<circle cx="46.3382" cy="46.3409" r="40" transform="rotate(-10 46.3382 46.3409)" fill="#EFEEEC"/>
<path d="M39.3333 58.1956C39.3333 58.1956 37.479 59.7614 41.0873 59.5444C45.4579 59.2778 47.6352 58.8216 52.1991 57.0954C52.1991 57.0954 53.5777 57.6549 55.4302 58.0233C45.6457 64.4259 31.4295 61.9844 39.3333 58.1956Z" fill="#737373"/>
<path d="M36.9995 52.5045C36.9995 52.5045 34.9846 54.6285 38.5883 54.3705C43.2483 54.0356 46.8695 53.4369 52.9114 51.1299C52.9114 51.1299 53.9311 51.8543 55.3759 52.0941C43.2387 58.0925 28.3773 57.1589 36.9995 52.5045Z" fill="#737373"/>
<path d="M46.1335 40.5399C49.2709 43.0827 46.4541 46.3653 46.4541 46.3653C46.4541 46.3653 52.4734 41.7791 48.6774 38.0346C45.1331 34.5434 42.6051 32.9439 53.1912 24.0258C53.1912 24.0258 35.4968 31.9123 46.1335 40.5399Z" fill="#737373"/>
<path d="M63.7127 58.411C63.7127 58.411 65.4638 59.4012 62.4228 60.9424C56.6397 63.8704 37.4197 67.8357 31.6412 66.446C29.5641 65.947 32.9765 64.1444 34.0714 63.6993C35.2128 63.2327 35.8995 63.1611 35.8995 63.1611C33.4876 62.028 22.5556 68.5738 30.6949 68.4613C52.8921 68.1558 69.7555 59.9489 63.7127 58.411Z" fill="#737373"/>
<path d="M38.2098 45.9673C38.2098 45.9673 28.7947 50.034 35.291 49.7624C38.034 49.6487 43.3619 48.6256 48.2644 47.3312C52.2706 46.2711 56.2255 44.8217 56.2255 44.8217C56.2255 44.8217 54.8998 45.6887 53.9872 46.58C44.4712 50.9639 24.9788 53.1421 30.0551 49.4791C34.3484 46.3828 38.2098 45.9673 38.2098 45.9673Z" fill="#737373"/>
<path d="M57.5694 52.7131C66.7838 45.6533 61.2005 41.4147 58.0472 42.6744C57.2742 42.9829 56.942 43.1907 56.942 43.1907C56.942 43.1907 57.1576 42.6715 57.6909 42.3692C63.7657 38.9504 70.332 47.0644 57.4123 53.0147C57.4123 53.0147 57.5446 52.8468 57.5694 52.7131Z" fill="#737373"/>
<path d="M44.4728 14.1776C44.4728 14.1776 51.0816 18.8067 41.6592 29.3784C34.1038 37.8582 41.5768 40.6158 44.3711 44.7793C38.4322 41.06 33.9546 37.6535 35.8093 33.4212C38.5315 27.2087 48.3135 22.7045 44.4728 14.1776Z" fill="#737373"/>
<path d="M43.4521 69.9292C53.2989 68.8356 68.0801 65.2301 67.6218 60.5604C67.6218 60.5604 67.2491 62.427 60.1273 65.1129C52.0925 68.1423 41.8103 69.767 35.5542 69.8367C35.5542 69.8367 36.9804 70.6472 43.4521 69.9292Z" fill="#737373"/>
<circle cx="143.149" cy="121.153" r="45" transform="rotate(7 143.149 121.153)" fill="#EFEEEC"/>
<path d="M146.166 95.6276C133.188 94.0341 133.307 99.7616 133.307 99.7616L132.606 105.594L144.99 107.115L144.775 108.865L127.472 106.741C127.472 106.741 119.283 104.779 117.675 117.874C116.067 130.969 123.373 131.394 123.373 131.394L127.698 131.926L128.445 125.849C128.445 125.849 129.101 118.572 136.467 119.476L148.751 120.985C148.751 120.985 155.638 121.944 156.471 115.162L157.847 103.95C157.847 103.95 159.728 97.2929 146.166 95.6276ZM138.856 98.7099C140.088 98.8612 140.961 99.9794 140.81 101.212C140.659 102.444 139.541 103.317 138.308 103.166C137.076 103.015 136.203 101.897 136.354 100.664C136.505 99.4322 137.623 98.5586 138.856 98.7099Z" fill="#737373"/>
<path d="M140.286 146.529C153.264 148.122 153.144 142.395 153.144 142.395L153.846 136.562L141.461 135.042L141.676 133.291L158.98 135.416C158.98 135.416 167.169 137.377 168.777 124.282C170.384 111.187 163.079 110.762 163.079 110.762L158.753 110.231L158.007 116.307C158.007 116.307 157.35 123.584 149.984 122.68L137.701 121.172C137.701 121.172 130.813 120.213 129.981 126.994L128.604 138.207C128.604 138.207 126.723 144.863 140.286 146.529ZM147.596 143.446C146.364 143.295 145.49 142.177 145.641 140.945C145.793 139.713 146.911 138.839 148.143 138.99C149.375 139.141 150.249 140.26 150.098 141.492C149.946 142.724 148.828 143.598 147.596 143.446Z" fill="#737373"/>
</svg>
