<svg width="470" height="133" viewBox="0 0 470 133" fill="none" xmlns="http://www.w3.org/2000/svg">
<circle cx="49.4573" cy="49.4599" r="45" transform="rotate(-6 49.4573 49.4599)" fill="#EFEEEC"/>
<g clip-path="url(#clip0_1895_2617)">
<path d="M25.6198 63.5618L29.6132 63.1421C29.6996 63.1339 29.78 63.0947 29.8396 63.0316C29.8992 62.9686 29.9339 62.8861 29.9373 62.7994L30.341 58.0765L33.4441 57.7504C34.7466 57.6464 36.0246 57.3385 37.2315 56.838C38.2057 56.3981 39.0687 55.7449 39.7566 54.9267C40.3791 54.2364 40.8786 53.4446 41.2336 52.5855C41.5855 51.7446 41.8043 50.854 41.8819 49.9457C42.0541 48.984 41.9971 47.9952 41.7155 47.0597C41.434 46.1241 40.9359 45.2681 40.2616 44.5611C39.5006 43.9347 38.6116 43.4825 37.6572 43.2363C36.7028 42.9901 35.706 42.9558 34.7369 43.1359L27.1062 43.9379C27.0151 43.9516 26.9313 43.9957 26.8683 44.063C26.8054 44.1303 26.767 44.2168 26.7594 44.3087L25.1901 63.1441C25.1625 63.255 25.1748 63.372 25.2249 63.4747C25.2787 63.5202 25.3428 63.5518 25.4116 63.567C25.4804 63.5822 25.5518 63.5804 25.6198 63.5618ZM31.2222 47.1314L33.7658 46.864C34.2429 46.7482 34.7382 46.7282 35.2231 46.8052C35.708 46.8823 36.1727 47.0549 36.5904 47.3129C37.0709 47.7253 37.2381 48.5821 37.1375 49.8271C37.1248 50.9328 36.7167 51.9974 35.9871 52.8283C35.0468 53.5721 33.8909 53.9913 32.6924 54.0233L30.6575 54.2372L31.2222 47.1314ZM55.8954 42.095C54.412 41.2274 52.6583 40.944 50.9771 41.3004L47.9503 41.6185L48.3191 37.0536C48.3385 36.9994 48.3454 36.9415 48.3394 36.8843C48.3334 36.827 48.3146 36.7719 48.2844 36.7229C48.1906 36.6993 48.0914 36.7097 48.0046 36.7523L44.0111 37.172C43.9248 37.1802 43.8443 37.2195 43.7847 37.2825C43.7252 37.3455 43.6905 37.428 43.6871 37.5147L42.1205 56.3755C42.101 56.4253 42.0937 56.479 42.0993 56.5321C42.1048 56.5852 42.1231 56.6362 42.1526 56.6808C42.1876 56.7246 42.233 56.7588 42.2847 56.7804C42.3364 56.8019 42.3928 56.81 42.4485 56.804L46.3656 56.3923C46.4558 56.383 46.5392 56.3399 46.5988 56.2716C46.6585 56.2032 46.6899 56.1148 46.6869 56.0242L47.5574 45.4659L50.3808 45.1692C51.5254 45.0489 51.9591 45.2604 52.1024 45.3997C52.2322 45.6388 52.3136 45.9011 52.3421 46.1717C52.3705 46.4423 52.3454 46.7158 52.2681 46.9767L51.5827 55.381C51.5631 55.4307 51.5558 55.4844 51.5614 55.5376C51.567 55.5907 51.5853 55.6417 51.6148 55.6863C51.6511 55.7284 51.6968 55.7614 51.7481 55.7828C51.7995 55.8042 51.8551 55.8133 51.9106 55.8095L55.8786 55.3924C55.9697 55.3787 56.0535 55.3346 56.1165 55.2673C56.1794 55.2 56.2178 55.1135 56.2254 55.0216L56.9443 46.2023C57.1345 45.4851 57.138 44.7311 56.9544 44.0122C56.7708 43.2932 56.4062 42.6332 55.8954 42.095ZM67.2561 39.5894L59.2947 40.4262C59.2475 40.4276 59.2011 40.4384 59.1582 40.4578C59.1152 40.4773 59.0765 40.505 59.0442 40.5395C59.012 40.5739 58.9869 40.6144 58.9704 40.6586C58.9538 40.7028 58.9462 40.7498 58.9479 40.7969L57.1885 59.7809C57.1709 59.8354 57.1648 59.893 57.1708 59.9499C57.1768 60.0069 57.1947 60.062 57.2233 60.1116C57.2617 60.1487 57.308 60.1768 57.3588 60.1937C57.4095 60.2106 57.4634 60.216 57.5164 60.2094L61.6625 59.7736C61.7538 59.7715 61.8408 59.7345 61.9058 59.6703C61.9708 59.6061 62.0087 59.5195 62.012 59.4283L62.4665 54.7L65.6969 54.3605C67.0406 54.249 68.3601 53.937 69.6114 53.4347C70.6896 53.009 71.6572 52.3446 72.4418 51.4913C73.0871 50.8005 73.6121 50.0064 73.995 49.1421C74.3552 48.3015 74.5825 47.4101 74.6688 46.4996C74.8479 45.5363 74.7918 44.544 74.5053 43.6071C74.2187 42.6701 73.7103 41.8161 73.0231 41.1178C72.2273 40.4649 71.3006 39.9906 70.3057 39.7269C69.3107 39.4632 68.2708 39.4163 67.2561 39.5894ZM69.5737 46.4694C69.5373 47.5868 69.1022 48.6542 68.347 49.4786C67.3705 50.2291 66.1815 50.6511 64.9505 50.6843L62.9156 50.8981L63.5513 43.7334L66.0949 43.4661C67.0985 43.2346 68.1526 43.3901 69.0467 43.9017C69.5018 44.3167 69.5926 45.1815 69.5737 46.4694Z" fill="#737373"/>
</g>
<circle cx="174.005" cy="93.0088" r="35" transform="rotate(-7 174.005 93.0088)" fill="#EFEEEC"/>
<g clip-path="url(#clip1_1895_2617)">
<path d="M170.652 73.5438C171.249 73.1048 172.04 73.0078 172.725 73.2892C176.115 74.6798 186.316 78.8658 189.707 80.2563C190.393 80.5366 190.87 81.1536 190.958 81.8739C191.395 85.4338 192.711 96.1485 193.148 99.7084C193.236 100.429 192.923 101.143 192.325 101.582C189.373 103.751 180.487 110.281 177.533 112.45C176.935 112.889 176.145 112.986 175.46 112.705C172.07 111.314 161.869 107.128 158.478 105.738C157.793 105.456 157.316 104.84 157.228 104.12C156.791 100.56 155.475 89.8453 155.038 86.2853C154.949 85.565 155.263 84.851 155.86 84.4121C158.812 82.2429 167.7 75.713 170.652 73.5438Z" fill="#737373"/>
<path d="M157.628 105.002C157.335 104.696 157.26 104.381 157.207 103.951C156.772 100.412 155.464 89.7588 155.03 86.2187C154.942 85.5022 155.255 84.7921 155.851 84.3562C158.793 82.1987 167.651 75.7042 170.593 73.5457C171.189 73.1088 172.057 73.01 172.741 73.2896C176.118 74.6712 186.246 78.7886 189.623 80.1701C189.896 80.2824 190.112 80.4315 190.314 80.638L157.628 105.002Z" fill="#737373"/>
<path d="M172.476 79.7618C165.169 80.659 159.97 87.3136 160.867 94.6206C161.764 101.928 168.419 107.127 175.726 106.23C183.033 105.332 188.232 98.6777 187.335 91.3708C186.438 84.0638 179.783 78.8646 172.476 79.7618ZM174.913 99.6126C171.265 100.061 167.932 97.4569 167.484 93.8081C167.036 90.1594 169.64 86.8268 173.289 86.3787C176.937 85.9307 180.27 88.5345 180.718 92.1832C181.166 95.832 178.562 99.1646 174.913 99.6126Z" fill="#EFEEEC"/>
<path d="M190.319 80.6471C190.863 81.0438 190.938 81.7331 191.004 82.2748C191.445 85.8621 192.667 96.0691 193.147 99.6517C193.196 100.026 193.121 100.435 192.972 100.755L173.714 93.0441L190.319 80.6471Z" fill="#737373"/>
<path d="M183.086 88.0547L184.031 87.9386L184.96 95.5008L184.014 95.6169L183.086 88.0547ZM185.922 87.7065L186.867 87.5904L187.796 95.1526L186.85 95.2687L185.922 87.7065Z" fill="#EFEEEC"/>
<path d="M181.77 93.0155L189.332 92.087L189.448 93.0323L181.886 93.9608L181.77 93.0155ZM181.422 90.1797L188.984 89.2512L189.1 90.1964L181.538 91.125L181.422 90.1797Z" fill="#EFEEEC"/>
</g>
<circle cx="299.149" cy="76.1526" r="45" transform="rotate(7 299.149 76.1526)" fill="#EFEEEC"/>
<path d="M302.166 50.6276C289.188 49.0341 289.307 54.7616 289.307 54.7616L288.606 60.594L300.99 62.1146L300.775 63.8652L283.472 61.7406C283.472 61.7406 275.283 59.7791 273.675 72.874C272.067 85.9689 279.373 86.3945 279.373 86.3945L283.698 86.9257L284.445 80.8491C284.445 80.8491 285.101 73.5721 292.467 74.4765L304.751 75.9847C304.751 75.9847 311.638 76.9436 312.471 70.1623L313.847 58.9497C313.847 58.9497 315.728 52.2929 302.166 50.6276ZM294.856 53.7099C296.088 53.8612 296.961 54.9794 296.81 56.2116C296.659 57.4437 295.541 58.3173 294.308 58.166C293.076 58.0148 292.203 56.8966 292.354 55.6644C292.505 54.4322 293.623 53.5586 294.856 53.7099Z" fill="#737373"/>
<path d="M296.286 101.529C309.264 103.122 309.144 97.3946 309.144 97.3946L309.846 91.5623L297.461 90.0416L297.676 88.291L314.98 90.4156C314.98 90.4156 323.169 92.3771 324.777 79.2822C326.384 66.1874 319.079 65.7617 319.079 65.7617L314.753 65.2306L314.007 71.3071C314.007 71.3071 313.35 78.5842 305.984 77.6798L293.701 76.1716C293.701 76.1716 286.813 75.2126 285.981 81.9939L284.604 93.2066C284.604 93.2066 282.723 99.8634 296.286 101.529ZM303.596 98.4463C302.364 98.295 301.49 97.1769 301.641 95.9447C301.793 94.7125 302.911 93.8389 304.143 93.9902C305.375 94.1415 306.249 95.2597 306.098 96.4918C305.946 97.724 304.828 98.5976 303.596 98.4463Z" fill="#737373"/>
<circle cx="436.433" cy="75.4364" r="30" transform="rotate(7 436.433 75.4364)" fill="#EFEEEC"/>
<g clip-path="url(#clip2_1895_2617)">
<path d="M421.837 73.6441C421.128 79.422 423.873 84.8274 428.451 87.7914L423.83 67.8587C422.798 69.5747 422.097 71.5279 421.837 73.6441ZM446.379 75.9098C446.6 74.1058 446.106 72.7769 445.669 71.7362C445.077 70.443 444.509 69.3396 444.656 68.1372C444.821 66.7954 445.992 65.6713 447.425 65.8473C447.49 65.8552 447.551 65.8708 447.613 65.8822C445.308 63.1841 442.027 61.3066 438.227 60.84C433.127 60.2138 428.319 62.2794 425.223 65.9219C425.564 65.9742 425.886 66.0211 426.16 66.0547C427.687 66.2422 430.073 66.3471 430.073 66.3471C430.865 66.3973 430.816 67.5645 430.019 67.561C430.019 67.561 429.217 67.557 428.331 67.495L431.705 83.9588L436.076 74.7705L434.567 68.2601C433.786 68.1175 433.053 67.933 433.053 67.933C432.272 67.7903 432.512 66.599 433.293 66.742C433.293 66.742 435.681 67.2232 437.115 67.3993C438.642 67.5868 441.028 67.6917 441.028 67.6917C441.821 67.742 441.772 68.9091 440.974 68.9056C440.974 68.9056 440.17 68.9013 439.286 68.8396L442.635 85.1787L444.688 80.4921C445.567 78.5506 446.225 77.1594 446.379 75.9098ZM436.534 76.7447L430.591 88.9333C431.852 89.4783 433.209 89.8584 434.642 90.0343C436.342 90.243 438.008 90.1493 439.591 89.802C439.559 89.7347 439.532 89.664 439.512 89.5882L436.534 76.7447ZM450.102 70.0058C450.108 70.4785 450.082 70.982 450.017 71.5189C449.835 73.0001 449.354 74.6313 448.265 76.611L442.223 88.9549C446.873 86.9571 450.37 82.614 451.031 77.2289C451.343 74.6911 450.987 72.2251 450.102 70.0058ZM438.524 58.4213C429.141 57.2693 420.571 63.965 419.419 73.3472C418.266 82.7305 424.963 91.3004 434.345 92.4524C443.727 93.6044 452.299 86.9091 453.451 77.5258C454.603 68.1436 447.905 59.5733 438.524 58.4213ZM434.441 91.6725C425.489 90.5733 419.1 82.3955 420.199 73.443C421.298 64.491 429.475 58.1023 438.428 59.2015C447.379 60.3006 453.768 68.4778 452.669 77.4298C451.57 86.3823 443.392 92.7716 434.441 91.6725Z" fill="#737373"/>
</g>
<defs>
<clipPath id="clip0_1895_2617">
<rect width="51.4286" height="24.6083" fill="white" transform="translate(22.5547 39.3594) rotate(-6)"/>
</clipPath>
<clipPath id="clip1_1895_2617">
<rect width="36.1911" height="40" fill="white" transform="translate(153.695 75.3516) rotate(-7)"/>
</clipPath>
<clipPath id="clip2_1895_2617">
<rect width="34.4202" height="34.2857" fill="white" transform="translate(421.508 56.332) rotate(7)"/>
</clipPath>
</defs>
</svg>
