<svg width="246" height="203" viewBox="0 0 246 203" fill="none" xmlns="http://www.w3.org/2000/svg">
<circle cx="57.6765" cy="81.5599" r="45" transform="rotate(20 57.6765 81.5599)" fill="#EFEEEC"/>
<g clip-path="url(#clip0_1895_2594)">
<path d="M80.2629 79.2307C79.7243 78.7947 79.1593 78.362 78.5715 77.9333C78.8398 77.532 79.0972 77.1331 79.3409 76.7377C83.3423 70.2439 84.4551 64.2443 81.9039 61.2071C79.4576 58.2947 73.7166 58.3134 66.983 60.9025C66.3355 61.1515 65.6774 61.4251 65.0117 61.7205C64.7976 61.2868 64.5802 60.8639 64.3588 60.4544C60.7314 53.7451 56.0892 49.7844 52.1838 50.4778C48.4389 51.1426 45.5878 56.1258 44.4681 63.2527C44.36 63.941 44.268 64.6508 44.1914 65.3785C43.3525 65.3176 42.5348 65.2805 41.7434 65.2697C34.6627 65.1734 29.4002 67.1461 28.104 70.7074C26.7653 74.3854 29.7304 79.6425 35.4608 84.2615C35.913 84.626 36.3882 84.988 36.8828 85.3475C36.4409 86.0038 36.0276 86.6543 35.6457 87.2963C32.0249 93.3821 31.1049 98.926 33.5422 101.828C36.0598 104.825 42.095 104.883 48.959 102.227C49.5016 102.017 50.0535 101.785 50.6129 101.536C50.9612 102.248 51.3188 102.931 51.6846 103.584C55.1487 109.76 59.4925 113.326 63.2239 112.663C67.0779 111.979 70.1421 106.779 71.2684 99.5057C71.3544 98.9502 71.4277 98.3774 71.4898 97.7899C71.9057 97.8155 72.3161 97.8351 72.719 97.8468C80.3433 98.0689 86.0964 96.0358 87.453 92.3086C88.7539 88.7345 85.8697 83.7704 80.2629 79.2307ZM72.7976 95.15C72.4339 95.1393 72.0632 95.1219 71.6872 95.0991C71.8016 92.4479 71.7081 89.5504 71.4184 86.4865C73.5304 84.3672 75.4135 82.2257 77.0034 80.129C77.5466 80.5257 78.0684 80.9255 78.5651 81.3277C83.369 85.2172 85.7016 89.2319 84.9176 91.3858C84.0826 93.6801 79.3806 95.3416 72.7976 95.15ZM68.602 99.0929C68.104 102.309 67.2016 105.052 66.0364 107.03C64.9894 108.806 63.8162 109.818 62.7521 110.007C60.4877 110.409 57.0001 107.546 54.0376 102.264C53.698 101.658 53.3652 101.022 53.0406 100.36C55.3786 99.1394 57.8238 97.6215 60.3144 95.8538C63.2762 96.6435 66.1383 97.2138 68.8033 97.5403C68.7466 98.0727 68.6798 98.5909 68.602 99.0929ZM39.828 101.451C37.7657 101.431 36.3036 100.92 35.6085 100.093C34.1294 98.3316 34.8682 93.8804 37.9647 88.6759C38.3193 88.0798 38.7034 87.4748 39.1149 86.8632C41.3505 88.2857 43.9004 89.6519 46.6915 90.9318C47.4927 93.8402 48.4393 96.59 49.4953 99.0804C48.9837 99.3081 48.4799 99.5189 47.9855 99.7103C44.9503 100.885 42.123 101.473 39.828 101.451ZM37.154 82.1609C34.6201 80.1185 32.6981 77.9631 31.5705 75.964C30.5573 74.1677 30.2697 72.6456 30.6393 71.6301C31.4258 69.469 35.651 67.8852 41.7066 67.9675C42.4413 67.9775 43.2018 68.0117 43.9834 68.0683C43.8468 70.7544 43.9017 73.6347 44.1478 76.6167C42.0135 78.7752 40.0915 80.9816 38.452 83.1527C37.9998 82.8238 37.5662 82.493 37.154 82.1609ZM47.1335 63.6714C48.0928 57.5653 50.3986 53.5349 52.6554 53.1343C55.0593 52.7075 58.8533 55.9445 61.9853 61.7376C62.1855 62.1079 62.3824 62.4909 62.5767 62.8836C60.1784 64.1076 57.7073 65.5954 55.2436 67.3C52.3582 66.5428 49.5351 65.9859 46.876 65.6483C46.9477 64.9708 47.033 64.3106 47.1335 63.6714ZM70.4332 79.3106C70.2151 78.0825 69.9727 76.8727 69.7087 75.6857C71.5152 76.6143 73.2138 77.5924 74.776 78.6014C73.6678 80.0545 72.4065 81.5365 71.0164 83.0204C70.8501 81.8024 70.6558 80.5647 70.4332 79.3106ZM63.6944 65.3424C64.4027 67.035 65.059 68.8758 65.6523 70.8298C64.5114 70.3525 63.3467 69.8962 62.1618 69.465C60.9881 69.0378 59.8115 68.6411 58.6383 68.2751C60.3448 67.1743 62.0402 66.1917 63.6944 65.3424ZM49.4803 71.7043C48.5234 72.508 47.5916 73.3295 46.6879 74.1634C46.5869 72.1437 46.582 70.192 46.6712 68.3416C48.5024 68.579 50.4209 68.9264 52.3879 69.3764C51.4108 70.1217 50.4397 70.8984 49.4803 71.7043ZM45.8394 87.5369C43.9744 86.6125 42.2485 85.6515 40.6897 84.6668C41.8298 83.1654 43.1154 81.6417 44.5204 80.1275C44.6782 81.3469 44.8661 82.5765 45.0853 83.8107C45.3085 85.0681 45.5612 86.3121 45.8394 87.5369ZM51.9244 97.8984C51.1946 96.1645 50.518 94.2941 49.9089 92.3254C51.029 92.7836 52.1793 93.2281 53.3568 93.6566C54.5665 94.0969 55.7722 94.5049 56.9683 94.8809C55.241 96.0307 53.5513 97.0424 51.9244 97.8984ZM68.9042 88.8992C69.0393 90.9959 69.0713 92.9887 68.9968 94.8454C67.1332 94.6116 65.1602 94.2516 63.1172 93.7741C64.0886 93.022 65.0635 92.2359 66.0382 91.4172C67.0244 90.5889 67.9806 89.7479 68.9042 88.8992ZM64.3031 89.3512C62.7899 90.6222 61.2785 91.8111 59.784 92.9087C57.977 92.3936 56.134 91.7962 54.2796 91.1213C52.4327 90.449 50.657 89.7378 48.9679 88.9959C48.4965 87.1612 48.0839 85.2669 47.7416 83.3391C47.4002 81.4164 47.1371 79.5071 46.95 77.6356C48.2975 76.3185 49.7249 75.0225 51.216 73.7701L51.2157 73.7703C52.7107 72.5145 54.2331 71.333 55.7609 70.2364C57.5745 70.7454 59.4097 71.3346 61.2389 72.0003C63.0763 72.6691 64.8631 73.3989 66.5787 74.1757C67.0328 75.9815 67.4348 77.8579 67.7764 79.7824C68.1219 81.7285 68.3972 83.6322 68.6017 85.4754C67.2527 86.7836 65.8143 88.0818 64.3031 89.3512ZM79.838 62.9426C81.4083 64.8121 80.4988 69.7155 77.0441 75.3222C76.8237 75.6799 76.5906 76.0412 76.3479 76.405C74.0924 74.9407 71.5725 73.5447 68.8688 72.2632C68.0832 69.3474 67.1617 66.6211 66.1307 64.1759C66.7465 63.9032 67.3541 63.6506 67.9513 63.4209C73.7207 61.2025 78.3638 61.1876 79.838 62.9426ZM59.7074 76.2083C62.6343 77.2736 64.1435 80.5099 63.0782 83.4369C62.0129 86.3638 58.7765 87.8729 55.8496 86.8077C52.9227 85.7424 51.4136 82.5059 52.4789 79.5791C53.5442 76.6521 56.7806 75.143 59.7074 76.2083Z" fill="#737373"/>
</g>
<circle cx="153.976" cy="160.859" r="35" transform="rotate(-13 153.976 160.859)" fill="#EFEEEC"/>
<path d="M164.413 144.979L173.301 142.927L159.93 186.388L128.859 153.188L137.637 151.161L145.858 149.263L153.132 156.946L156.191 146.877L164.413 144.979Z" fill="#737373"/>
<path d="M128.859 153.188L159.93 186.388L173.301 142.927L164.413 144.979L156.39 171.056L137.637 151.161L128.859 153.188Z" fill="#737373"/>
<path d="M137.641 151.16L156.42 171.166L164.417 144.978L156.195 146.877L153.136 156.945L145.862 149.262L137.641 151.16Z" fill="#737373"/>
<circle cx="196.011" cy="49.476" r="40" transform="rotate(16 196.011 49.476)" fill="#EFEEEC"/>
<path d="M202.167 63.6188L183.294 58.2071L179.209 63.3554L189.119 73.5075L202.904 70.1498L202.167 63.6188ZM208.292 26.9902L214.298 65.242L223.311 39.9637L208.292 26.9902ZM197.51 23.8985L177.899 26.9421L172.147 53.1553L197.51 23.8985ZM188.7 51.5626L201.112 55.1217L199.228 38.2532L188.7 51.5626Z" fill="#737373"/>
<defs>
<clipPath id="clip0_1895_2594">
<rect width="63.1579" height="56.25" fill="white" transform="translate(37.6953 44.3555) rotate(20)"/>
</clipPath>
</defs>
</svg>
