<svg width="239" height="168" viewBox="0 0 239 168" fill="none" xmlns="http://www.w3.org/2000/svg">
<circle cx="188.149" cy="117.149" r="45" transform="rotate(7 188.149 117.149)" fill="#EFEEEC"/>
<path d="M191.166 91.6237C178.188 90.0302 178.307 95.7577 178.307 95.7577L177.606 101.59L189.99 103.111L189.775 104.861L172.472 102.737C172.472 102.737 164.283 100.775 162.675 113.87C161.067 126.965 168.373 127.391 168.373 127.391L172.698 127.922L173.445 121.845C173.445 121.845 174.101 114.568 181.467 115.473L193.751 116.981C193.751 116.981 200.638 117.94 201.471 111.158L202.847 99.9458C202.847 99.9458 204.728 93.289 191.166 91.6237ZM183.856 94.706C185.088 94.8573 185.961 95.9755 185.81 97.2076C185.659 98.4398 184.541 99.3134 183.308 99.1621C182.076 99.0108 181.203 97.8927 181.354 96.6605C181.505 95.4283 182.623 94.5547 183.856 94.706Z" fill="#737373"/>
<path d="M185.286 142.525C198.264 144.118 198.144 138.391 198.144 138.391L198.846 132.558L186.461 131.038L186.676 129.287L203.98 131.412C203.98 131.412 212.169 133.373 213.777 120.278C215.384 107.183 208.079 106.758 208.079 106.758L203.753 106.227L203.007 112.303C203.007 112.303 202.35 119.58 194.984 118.676L182.701 117.168C182.701 117.168 175.813 116.209 174.981 122.99L173.604 134.203C173.604 134.203 171.723 140.859 185.286 142.525ZM192.596 139.442C191.364 139.291 190.49 138.173 190.641 136.941C190.793 135.709 191.911 134.835 193.143 134.986C194.375 135.138 195.249 136.256 195.098 137.488C194.946 138.72 193.828 139.594 192.596 139.442Z" fill="#737373"/>
<circle cx="83.4573" cy="52.456" r="45" transform="rotate(-6 83.4573 52.456)" fill="#EFEEEC"/>
<g clip-path="url(#clip0_1895_2640)">
<path d="M59.6198 66.5579L63.6132 66.1382C63.6996 66.13 63.78 66.0908 63.8396 66.0277C63.8992 65.9647 63.9339 65.8822 63.9373 65.7955L64.341 61.0726L67.4441 60.7465C68.7466 60.6424 70.0246 60.3346 71.2315 59.8341C72.2057 59.3941 73.0687 58.741 73.7566 57.9228C74.3791 57.2325 74.8786 56.4407 75.2336 55.5816C75.5855 54.7407 75.8043 53.8501 75.8819 52.9418C76.0541 51.9801 75.9971 50.9913 75.7155 50.0558C75.434 49.1202 74.9359 48.2642 74.2616 47.5572C73.5006 46.9308 72.6116 46.4786 71.6572 46.2324C70.7028 45.9862 69.706 45.9519 68.7369 46.132L61.1062 46.934C61.0151 46.9477 60.9313 46.9918 60.8683 47.0591C60.8054 47.1264 60.767 47.2129 60.7594 47.3048L59.1901 66.1402C59.1625 66.2511 59.1748 66.3681 59.2249 66.4708C59.2787 66.5163 59.3428 66.5479 59.4116 66.5631C59.4804 66.5783 59.5518 66.5765 59.6198 66.5579ZM65.2222 50.1275L67.7658 49.8601C68.2429 49.7443 68.7382 49.7243 69.2231 49.8013C69.708 49.8784 70.1727 50.051 70.5904 50.309C71.0709 50.7214 71.2381 51.5782 71.1375 52.8232C71.1248 53.9289 70.7167 54.9935 69.9871 55.8244C69.0468 56.5682 67.8909 56.9874 66.6924 57.0194L64.6575 57.2333L65.2222 50.1275ZM89.8954 45.0911C88.412 44.2234 86.6583 43.9401 84.9771 44.2965L81.9503 44.6146L82.3191 40.0497C82.3385 39.9955 82.3454 39.9376 82.3394 39.8804C82.3334 39.8231 82.3146 39.768 82.2844 39.719C82.1906 39.6954 82.0914 39.7058 82.0046 39.7484L78.0111 40.1681C77.9248 40.1763 77.8443 40.2156 77.7847 40.2786C77.7252 40.3416 77.6905 40.4241 77.6871 40.5108L76.1205 59.3716C76.101 59.4214 76.0937 59.475 76.0993 59.5282C76.1048 59.5813 76.1231 59.6323 76.1526 59.6769C76.1876 59.7207 76.233 59.7549 76.2847 59.7765C76.3364 59.798 76.3928 59.8061 76.4485 59.8001L80.3656 59.3884C80.4558 59.3791 80.5392 59.336 80.5988 59.2677C80.6585 59.1993 80.6899 59.1109 80.6869 59.0203L81.5574 48.462L84.3808 48.1652C85.5254 48.0449 85.9591 48.2565 86.1024 48.3958C86.2322 48.6349 86.3136 48.8972 86.3421 49.1678C86.3705 49.4384 86.3454 49.7119 86.2681 49.9728L85.5827 58.3771C85.5631 58.4268 85.5558 58.4805 85.5614 58.5337C85.567 58.5868 85.5853 58.6378 85.6148 58.6824C85.6511 58.7245 85.6968 58.7575 85.7481 58.7789C85.7995 58.8003 85.8551 58.8094 85.9106 58.8056L89.8786 58.3885C89.9697 58.3748 90.0535 58.3307 90.1165 58.2634C90.1794 58.1961 90.2178 58.1096 90.2254 58.0177L90.9443 49.1984C91.1345 48.4812 91.138 47.7272 90.9544 47.0083C90.7708 46.2893 90.4062 45.6293 89.8954 45.0911ZM101.256 42.5855L93.2947 43.4223C93.2475 43.4237 93.2011 43.4345 93.1582 43.4539C93.1152 43.4734 93.0765 43.5011 93.0442 43.5356C93.012 43.57 92.9869 43.6105 92.9704 43.6547C92.9538 43.6989 92.9462 43.7459 92.9479 43.793L91.1885 62.777C91.1709 62.8315 91.1648 62.8891 91.1708 62.946C91.1768 63.003 91.1947 63.0581 91.2233 63.1077C91.2617 63.1448 91.308 63.1729 91.3588 63.1898C91.4095 63.2067 91.4634 63.2121 91.5164 63.2055L95.6625 62.7697C95.7538 62.7675 95.8408 62.7306 95.9058 62.6664C95.9708 62.6022 96.0087 62.5156 96.012 62.4243L96.4665 57.6961L99.6969 57.3566C101.041 57.2451 102.36 56.9331 103.611 56.4308C104.69 56.0051 105.657 55.3407 106.442 54.4874C107.087 53.7966 107.612 53.0025 107.995 52.1382C108.355 51.2976 108.583 50.4062 108.669 49.4957C108.848 48.5324 108.792 47.5401 108.505 46.6032C108.219 45.6662 107.71 44.8122 107.023 44.1139C106.227 43.461 105.301 42.9867 104.306 42.723C103.311 42.4593 102.271 42.4124 101.256 42.5855ZM103.574 49.4655C103.537 50.5829 103.102 51.6503 102.347 52.4747C101.371 53.2252 100.182 53.6472 98.9505 53.6804L96.9156 53.8942L97.5513 46.7295L100.095 46.4622C101.099 46.2307 102.153 46.3862 103.047 46.8977C103.502 47.3128 103.593 48.1776 103.574 49.4655Z" fill="#737373"/>
</g>
<circle cx="179.433" cy="33.4325" r="30" transform="rotate(7 179.433 33.4325)" fill="#EFEEEC"/>
<g clip-path="url(#clip1_1895_2640)">
<path d="M164.837 31.6402C164.128 37.4181 166.873 42.8235 171.451 45.7875L166.83 25.8548C165.798 27.5708 165.097 29.524 164.837 31.6402ZM189.379 33.9059C189.6 32.1019 189.106 30.773 188.669 29.7323C188.077 28.4391 187.509 27.3357 187.656 26.1333C187.821 24.7914 188.992 23.6673 190.425 23.8434C190.49 23.8513 190.551 23.8669 190.613 23.8782C188.308 21.1801 185.027 19.3027 181.227 18.8361C176.127 18.2099 171.319 20.2755 168.223 23.918C168.564 23.9703 168.886 24.0172 169.16 24.0508C170.687 24.2383 173.073 24.3432 173.073 24.3432C173.865 24.3934 173.816 25.5606 173.019 25.5571C173.019 25.5571 172.217 25.553 171.331 25.4911L174.705 41.9549L179.076 32.7666L177.567 26.2562C176.786 26.1136 176.053 25.9291 176.053 25.9291C175.272 25.7864 175.512 24.5951 176.293 24.7381C176.293 24.7381 178.681 25.2193 180.115 25.3954C181.642 25.5828 184.028 25.6878 184.028 25.6878C184.821 25.7381 184.772 26.9052 183.974 26.9017C183.974 26.9017 183.17 26.8974 182.286 26.8357L185.635 43.1748L187.688 38.4882C188.567 36.5467 189.225 35.1555 189.379 33.9059ZM179.534 34.7408L173.591 46.9294C174.852 47.4744 176.209 47.8544 177.642 48.0304C179.342 48.2391 181.008 48.1454 182.591 47.7981C182.559 47.7308 182.532 47.6601 182.512 47.5843L179.534 34.7408ZM193.102 28.0019C193.108 28.4746 193.082 28.9781 193.017 29.515C192.835 30.9962 192.354 32.6274 191.265 34.6071L185.223 46.951C189.873 44.9532 193.37 40.6101 194.031 35.225C194.343 32.6872 193.987 30.2212 193.102 28.0019ZM181.524 16.4174C172.141 15.2654 163.571 21.9611 162.419 31.3433C161.266 40.7266 167.963 49.2965 177.345 50.4485C186.727 51.6005 195.299 44.9052 196.451 35.5219C197.603 26.1396 190.905 17.5693 181.524 16.4174ZM177.441 49.6686C168.489 48.5694 162.1 40.3916 163.199 31.4391C164.298 22.4871 172.475 16.0984 181.428 17.1976C190.379 18.2967 196.768 26.4739 195.669 35.4259C194.57 44.3784 186.392 50.7677 177.441 49.6686Z" fill="#737373"/>
</g>
<circle cx="39.0045" cy="129.005" r="35" transform="rotate(-7 39.0045 129.005)" fill="#EFEEEC"/>
<g clip-path="url(#clip2_1895_2640)">
<path d="M35.6518 109.54C36.2494 109.101 37.0396 109.004 37.7248 109.285C41.1147 110.676 51.3161 114.862 54.707 116.252C55.3929 116.533 55.8698 117.15 55.9582 117.87C56.3953 121.43 57.7109 132.145 58.148 135.705C58.2365 136.425 57.923 137.139 57.3254 137.578C54.3726 139.747 45.4869 146.277 42.5331 148.446C41.9355 148.885 41.1452 148.982 40.4601 148.701C37.0702 147.31 26.8688 143.124 23.4779 141.734C22.7928 141.452 22.3161 140.836 22.2276 140.116C21.7905 136.556 20.4749 125.841 20.0378 122.281C19.9494 121.561 20.2628 120.847 20.8604 120.408C23.8123 118.239 32.6999 111.709 35.6518 109.54Z" fill="#737373"/>
<path d="M22.6276 140.998C22.3349 140.692 22.2597 140.377 22.2069 139.947C21.7724 136.408 20.4643 125.755 20.0296 122.215C19.9417 121.498 20.2546 120.788 20.8507 120.352C23.7935 118.195 32.6508 111.7 35.5935 109.542C36.1894 109.105 37.0572 109.006 37.7411 109.286C41.1185 110.667 51.2461 114.785 54.6235 116.166C54.8963 116.279 55.1123 116.428 55.3142 116.634L22.6276 140.998Z" fill="#737373"/>
<path d="M37.4761 115.758C30.1691 116.655 24.9699 123.31 25.8671 130.617C26.7643 137.924 33.4189 143.123 40.7259 142.226C48.0329 141.328 53.232 134.674 52.3348 127.367C51.4377 120.06 44.783 114.861 37.4761 115.758ZM39.9134 135.609C36.2647 136.057 32.9321 133.453 32.484 129.804C32.036 126.155 34.6397 122.823 38.2885 122.375C41.9373 121.927 45.2699 124.531 45.7179 128.179C46.1659 131.828 43.5622 135.161 39.9134 135.609Z" fill="#EFEEEC"/>
<path d="M55.3191 116.643C55.8629 117.04 55.938 117.729 56.0045 118.271C56.4449 121.858 57.6675 132.065 58.1467 135.648C58.1965 136.022 58.121 136.431 57.9722 136.751L38.7139 129.04L55.3191 116.643Z" fill="#737373"/>
<path d="M48.0859 124.051L49.0312 123.935L49.9597 131.497L49.0145 131.613L48.0859 124.051ZM50.9218 123.703L51.867 123.587L52.7956 131.149L51.8503 131.265L50.9218 123.703Z" fill="#EFEEEC"/>
<path d="M46.7701 129.012L54.3323 128.083L54.4483 129.028L46.8861 129.957L46.7701 129.012ZM46.4219 126.176L53.9841 125.247L54.1002 126.193L46.5379 127.121L46.4219 126.176Z" fill="#EFEEEC"/>
</g>
<defs>
<clipPath id="clip0_1895_2640">
<rect width="51.4286" height="24.6083" fill="white" transform="translate(56.5547 42.3555) rotate(-6)"/>
</clipPath>
<clipPath id="clip1_1895_2640">
<rect width="34.4202" height="34.2857" fill="white" transform="translate(164.508 14.3281) rotate(7)"/>
</clipPath>
<clipPath id="clip2_1895_2640">
<rect width="36.1911" height="40" fill="white" transform="translate(18.6953 111.348) rotate(-7)"/>
</clipPath>
</defs>
</svg>
