<svg width="398" height="139" viewBox="0 0 398 139" fill="none" xmlns="http://www.w3.org/2000/svg">
<circle cx="49.4573" cy="49.456" r="45" transform="rotate(-6 49.4573 49.456)" fill="#EFEEEC"/>
<g clip-path="url(#clip0_1873_2264)">
<path d="M25.6198 63.5579L29.6132 63.1382C29.6996 63.13 29.78 63.0908 29.8396 63.0277C29.8992 62.9647 29.9339 62.8822 29.9373 62.7955L30.341 58.0726L33.4441 57.7465C34.7466 57.6424 36.0246 57.3346 37.2315 56.8341C38.2057 56.3941 39.0687 55.741 39.7566 54.9228C40.3791 54.2325 40.8786 53.4407 41.2336 52.5816C41.5855 51.7407 41.8043 50.8501 41.8819 49.9418C42.0541 48.9801 41.9971 47.9913 41.7155 47.0558C41.434 46.1202 40.9359 45.2642 40.2616 44.5572C39.5006 43.9308 38.6116 43.4786 37.6572 43.2324C36.7028 42.9862 35.706 42.9519 34.7369 43.132L27.1062 43.934C27.0151 43.9477 26.9313 43.9918 26.8683 44.0591C26.8054 44.1264 26.767 44.2129 26.7594 44.3048L25.1901 63.1402C25.1625 63.2511 25.1748 63.3681 25.2249 63.4708C25.2787 63.5163 25.3428 63.5479 25.4116 63.5631C25.4804 63.5783 25.5518 63.5765 25.6198 63.5579ZM31.2222 47.1275L33.7658 46.8601C34.2429 46.7443 34.7382 46.7243 35.2231 46.8013C35.708 46.8784 36.1727 47.051 36.5904 47.309C37.0709 47.7214 37.2381 48.5782 37.1375 49.8232C37.1248 50.9289 36.7167 51.9935 35.9871 52.8244C35.0468 53.5682 33.8909 53.9874 32.6924 54.0194L30.6575 54.2333L31.2222 47.1275ZM55.8954 42.0911C54.412 41.2234 52.6583 40.9401 50.9771 41.2965L47.9503 41.6146L48.3191 37.0497C48.3385 36.9955 48.3454 36.9376 48.3394 36.8804C48.3334 36.8231 48.3146 36.768 48.2844 36.719C48.1906 36.6954 48.0914 36.7058 48.0046 36.7484L44.0111 37.1681C43.9248 37.1763 43.8443 37.2156 43.7847 37.2786C43.7252 37.3416 43.6905 37.4241 43.6871 37.5108L42.1205 56.3716C42.101 56.4214 42.0937 56.475 42.0993 56.5282C42.1048 56.5813 42.1231 56.6323 42.1526 56.6769C42.1876 56.7207 42.233 56.7549 42.2847 56.7765C42.3364 56.798 42.3928 56.8061 42.4485 56.8001L46.3656 56.3884C46.4558 56.3791 46.5392 56.336 46.5988 56.2677C46.6585 56.1993 46.6899 56.1109 46.6869 56.0203L47.5574 45.462L50.3808 45.1652C51.5254 45.0449 51.9591 45.2565 52.1024 45.3958C52.2322 45.6349 52.3136 45.8972 52.3421 46.1678C52.3705 46.4384 52.3454 46.7119 52.2681 46.9728L51.5827 55.3771C51.5631 55.4268 51.5558 55.4805 51.5614 55.5337C51.567 55.5868 51.5853 55.6378 51.6148 55.6824C51.6511 55.7245 51.6968 55.7575 51.7481 55.7789C51.7995 55.8003 51.8551 55.8094 51.9106 55.8056L55.8786 55.3885C55.9697 55.3748 56.0535 55.3307 56.1165 55.2634C56.1794 55.1961 56.2178 55.1096 56.2254 55.0177L56.9443 46.1984C57.1345 45.4812 57.138 44.7272 56.9544 44.0083C56.7708 43.2893 56.4062 42.6293 55.8954 42.0911ZM67.2561 39.5855L59.2947 40.4223C59.2475 40.4237 59.2011 40.4345 59.1582 40.4539C59.1152 40.4734 59.0765 40.5011 59.0442 40.5356C59.012 40.57 58.9869 40.6105 58.9704 40.6547C58.9538 40.6989 58.9462 40.7459 58.9479 40.793L57.1885 59.777C57.1709 59.8315 57.1648 59.8891 57.1708 59.946C57.1768 60.003 57.1947 60.0581 57.2233 60.1077C57.2617 60.1448 57.308 60.1729 57.3588 60.1898C57.4095 60.2067 57.4634 60.2121 57.5164 60.2055L61.6625 59.7697C61.7538 59.7675 61.8408 59.7306 61.9058 59.6664C61.9708 59.6022 62.0087 59.5156 62.012 59.4243L62.4665 54.6961L65.6969 54.3566C67.0406 54.2451 68.3601 53.9331 69.6114 53.4308C70.6896 53.0051 71.6572 52.3407 72.4418 51.4874C73.0871 50.7966 73.6121 50.0025 73.995 49.1382C74.3552 48.2976 74.5825 47.4062 74.6688 46.4957C74.8479 45.5324 74.7918 44.5401 74.5053 43.6032C74.2187 42.6662 73.7103 41.8122 73.0231 41.1139C72.2273 40.461 71.3006 39.9867 70.3057 39.723C69.3107 39.4593 68.2708 39.4124 67.2561 39.5855ZM69.5737 46.4655C69.5373 47.5829 69.1022 48.6503 68.347 49.4747C67.3705 50.2252 66.1815 50.6472 64.9505 50.6804L62.9156 50.8942L63.5513 43.7295L66.0949 43.4622C67.0985 43.2307 68.1526 43.3862 69.0467 43.8977C69.5018 44.3128 69.5926 45.1776 69.5737 46.4655Z" fill="#737373"/>
</g>
<circle cx="152.005" cy="99.0049" r="35" transform="rotate(-7 152.005 99.0049)" fill="#EFEEEC"/>
<g clip-path="url(#clip1_1873_2264)">
<path d="M148.652 79.5399C149.249 79.1009 150.04 79.0039 150.725 79.2853C154.115 80.6759 164.316 84.8619 167.707 86.2523C168.393 86.5327 168.87 87.1497 168.958 87.87C169.395 91.4299 170.711 102.145 171.148 105.705C171.236 106.425 170.923 107.139 170.325 107.578C167.373 109.747 158.487 116.277 155.533 118.446C154.935 118.885 154.145 118.982 153.46 118.701C150.07 117.31 139.869 113.124 136.478 111.734C135.793 111.452 135.316 110.836 135.228 110.116C134.791 106.556 133.475 95.8413 133.038 92.2814C132.949 91.5611 133.263 90.8471 133.86 90.4082C136.812 88.2389 145.7 81.7091 148.652 79.5399Z" fill="#737373"/>
<path d="M135.628 110.998C135.335 110.692 135.26 110.377 135.207 109.947C134.772 106.408 133.464 95.7549 133.03 92.2148C132.942 91.4983 133.255 90.7882 133.851 90.3523C136.793 88.1948 145.651 81.7003 148.593 79.5418C149.189 79.1049 150.057 79.0061 150.741 79.2857C154.118 80.6673 164.246 84.7846 167.623 86.1662C167.896 86.2785 168.112 86.4276 168.314 86.6341L135.628 110.998Z" fill="#737373"/>
<path d="M150.476 85.7599C143.169 86.657 137.97 93.3116 138.867 100.619C139.764 107.926 146.419 113.125 153.726 112.228C161.033 111.33 166.232 104.676 165.335 97.3688C164.438 90.0618 157.783 84.8627 150.476 85.7599ZM152.913 105.611C149.265 106.059 145.932 103.455 145.484 99.8062C145.036 96.1574 147.64 92.8248 151.289 92.3768C154.937 91.9288 158.27 94.5325 158.718 98.1813C159.166 101.83 156.562 105.163 152.913 105.611Z" fill="#EFEEEC"/>
<path d="M168.319 86.6432C168.863 87.0399 168.938 87.7292 169.004 88.2709C169.445 91.8582 170.667 102.065 171.147 105.648C171.196 106.022 171.121 106.431 170.972 106.751L151.714 99.0402L168.319 86.6432Z" fill="#737373"/>
<path d="M161.086 94.0527L162.031 93.9367L162.96 101.499L162.014 101.615L161.086 94.0527ZM163.922 93.7045L164.867 93.5885L165.796 101.151L164.85 101.267L163.922 93.7045Z" fill="#EFEEEC"/>
<path d="M159.77 99.0097L167.332 98.0811L167.448 99.0264L159.886 99.9549L159.77 99.0097ZM159.422 96.1738L166.984 95.2453L167.1 96.1906L159.538 97.1191L159.422 96.1738Z" fill="#EFEEEC"/>
</g>
<circle cx="261.149" cy="56.1487" r="45" transform="rotate(7 261.149 56.1487)" fill="#EFEEEC"/>
<path d="M264.166 30.6256C251.188 29.0321 251.307 34.7597 251.307 34.7597L250.606 40.592L262.99 42.1127L262.775 43.8633L245.472 41.7387C245.472 41.7387 237.283 39.7772 235.675 52.872C234.067 65.9669 241.373 66.3925 241.373 66.3925L245.698 66.9237L246.445 60.8472C246.445 60.8472 247.101 53.5701 254.467 54.4745L266.751 55.9827C266.751 55.9827 273.638 56.9416 274.471 50.1604L275.847 38.9477C275.847 38.9477 277.728 32.2909 264.166 30.6256ZM256.856 33.708C258.088 33.8593 258.961 34.9774 258.81 36.2096C258.659 37.4418 257.541 38.3154 256.308 38.1641C255.076 38.0128 254.203 36.8946 254.354 35.6625C254.505 34.4303 255.623 33.5567 256.856 33.708Z" fill="#737373"/>
<path d="M258.286 81.5267C271.264 83.1202 271.144 77.3927 271.144 77.3927L271.846 71.5603L259.461 70.0397L259.676 68.2891L276.98 70.4137C276.98 70.4137 285.169 72.3752 286.777 59.2803C288.384 46.1854 281.079 45.7598 281.079 45.7598L276.753 45.2286L276.007 51.3052C276.007 51.3052 275.35 58.5822 267.984 57.6778L255.701 56.1696C255.701 56.1696 248.813 55.2107 247.981 61.992L246.604 73.2046C246.604 73.2046 244.723 79.8614 258.286 81.5267ZM265.596 78.4444C264.364 78.2931 263.49 77.1749 263.641 75.9427C263.793 74.7106 264.911 73.837 266.143 73.9882C267.375 74.1395 268.249 75.2577 268.098 76.4899C267.946 77.722 266.828 78.5957 265.596 78.4444Z" fill="#737373"/>
<circle cx="364.433" cy="98.4325" r="30" transform="rotate(7 364.433 98.4325)" fill="#EFEEEC"/>
<g clip-path="url(#clip2_1873_2264)">
<path d="M349.837 96.6402C349.128 102.418 351.873 107.823 356.451 110.788L351.83 90.8548C350.798 92.5708 350.097 94.524 349.837 96.6402ZM374.379 98.9059C374.6 97.1019 374.106 95.773 373.669 94.7323C373.077 93.4391 372.509 92.3357 372.656 91.1333C372.821 89.7914 373.992 88.6673 375.425 88.8434C375.49 88.8513 375.551 88.8669 375.613 88.8782C373.308 86.1801 370.027 84.3027 366.227 83.8361C361.127 83.2099 356.319 85.2755 353.223 88.918C353.564 88.9703 353.886 89.0172 354.16 89.0508C355.687 89.2383 358.073 89.3432 358.073 89.3432C358.865 89.3934 358.816 90.5606 358.019 90.5571C358.019 90.5571 357.217 90.553 356.331 90.4911L359.705 106.955L364.076 97.7666L362.567 91.2562C361.786 91.1136 361.053 90.9291 361.053 90.9291C360.272 90.7864 360.512 89.5951 361.293 89.7381C361.293 89.7381 363.681 90.2193 365.115 90.3954C366.642 90.5828 369.028 90.6878 369.028 90.6878C369.821 90.7381 369.772 91.9052 368.974 91.9017C368.974 91.9017 368.17 91.8974 367.286 91.8357L370.635 108.175L372.688 103.488C373.567 101.547 374.225 100.155 374.379 98.9059ZM364.534 99.7408L358.591 111.929C359.852 112.474 361.209 112.854 362.642 113.03C364.342 113.239 366.008 113.145 367.591 112.798C367.559 112.731 367.532 112.66 367.512 112.584L364.534 99.7408ZM378.102 93.0019C378.108 93.4746 378.082 93.9781 378.017 94.515C377.835 95.9962 377.354 97.6274 376.265 99.6071L370.223 111.951C374.873 109.953 378.37 105.61 379.031 100.225C379.343 97.6872 378.987 95.2212 378.102 93.0019ZM366.524 81.4174C357.141 80.2654 348.571 86.9611 347.419 96.3433C346.266 105.727 352.963 114.297 362.345 115.449C371.727 116.6 380.299 109.905 381.451 100.522C382.603 91.1396 375.905 82.5693 366.524 81.4174ZM362.441 114.669C353.489 113.569 347.1 105.392 348.199 96.4391C349.298 87.4871 357.475 81.0984 366.428 82.1976C375.379 83.2967 381.768 91.4739 380.669 100.426C379.57 109.378 371.392 115.768 362.441 114.669Z" fill="#737373"/>
</g>
<defs>
<clipPath id="clip0_1873_2264">
<rect width="51.4286" height="24.6083" fill="white" transform="translate(22.5547 39.3555) rotate(-6)"/>
</clipPath>
<clipPath id="clip1_1873_2264">
<rect width="36.1911" height="40" fill="white" transform="translate(131.695 81.3477) rotate(-7)"/>
</clipPath>
<clipPath id="clip2_1873_2264">
<rect width="34.4202" height="34.2857" fill="white" transform="translate(349.508 79.3281) rotate(7)"/>
</clipPath>
</defs>
</svg>
