<svg width="328" height="149" viewBox="0 0 328 149" fill="none" xmlns="http://www.w3.org/2000/svg">
<circle cx="57.6765" cy="57.6771" r="45" transform="rotate(20 57.6765 57.6771)" fill="#EFEEEC"/>
<g clip-path="url(#clip0_1873_2281)">
<path d="M80.2629 55.3499C79.7243 54.9139 79.1593 54.4812 78.5715 54.0525C78.8398 53.6511 79.0972 53.2523 79.3409 52.8568C83.3423 46.3631 84.4551 40.3634 81.9039 37.3262C79.4576 34.4139 73.7166 34.4325 66.983 37.0217C66.3355 37.2706 65.6774 37.5442 65.0117 37.8397C64.7976 37.406 64.5802 36.983 64.3588 36.5736C60.7314 29.8642 56.0892 25.9036 52.1838 26.5969C48.4389 27.2617 45.5878 32.245 44.4681 39.3718C44.36 40.0602 44.268 40.7699 44.1914 41.4976C43.3525 41.4367 42.5348 41.3996 41.7434 41.3888C34.6627 41.2925 29.4002 43.2652 28.104 46.8265C26.7653 50.5046 29.7304 55.7617 35.4608 60.3807C35.913 60.7452 36.3882 61.1071 36.8828 61.4666C36.4409 62.123 36.0276 62.7734 35.6457 63.4155C32.0249 69.5012 31.1049 75.0451 33.5422 77.9472C36.0598 80.9445 42.095 81.0022 48.959 78.3457C49.5016 78.1357 50.0535 77.9044 50.6129 77.6551C50.9612 78.3668 51.3188 79.0505 51.6846 79.7028C55.1487 85.8791 59.4925 89.445 63.2239 88.7825C67.0779 88.0983 70.1421 82.8984 71.2684 75.6249C71.3544 75.0694 71.4277 74.4966 71.4898 73.909C71.9057 73.9347 72.3161 73.9543 72.719 73.9659C80.3433 74.188 86.0964 72.155 87.453 68.4278C88.7539 64.8536 85.8697 59.8895 80.2629 55.3499ZM72.7976 71.2691C72.4339 71.2584 72.0632 71.2411 71.6872 71.2183C71.8016 68.567 71.7081 65.6696 71.4184 62.6057C73.5304 60.4864 75.4135 58.3449 77.0034 56.2482C77.5466 56.6448 78.0684 57.0446 78.5651 57.4468C83.369 61.3364 85.7016 65.3511 84.9176 67.505C84.0826 69.7993 79.3806 71.4608 72.7976 71.2691ZM68.602 75.212C68.104 78.4283 67.2016 81.1716 66.0364 83.1488C64.9894 84.9255 63.8162 85.9371 62.7521 86.1259C60.4877 86.5278 57.0001 83.6647 54.0376 78.3827C53.698 77.7772 53.3652 77.1416 53.0406 76.4788C55.3786 75.2585 57.8238 73.7406 60.3144 71.9729C63.2762 72.7626 66.1383 73.333 68.8033 73.6594C68.7466 74.1919 68.6798 74.71 68.602 75.212ZM39.828 77.5703C37.7657 77.5506 36.3036 77.0394 35.6085 76.2119C34.1294 74.4507 34.8682 69.9995 37.9647 64.795C38.3193 64.199 38.7034 63.5939 39.1149 62.9824C41.3505 64.4048 43.9004 65.7711 46.6915 67.051C47.4927 69.9594 48.4393 72.7091 49.4953 75.1996C48.9837 75.4273 48.4799 75.638 47.9855 75.8294C44.9503 77.0041 42.123 77.5923 39.828 77.5703ZM37.154 58.28C34.6201 56.2376 32.6981 54.0822 31.5705 52.0832C30.5573 50.2868 30.2697 48.7648 30.6393 47.7493C31.4258 45.5882 35.651 44.0044 41.7066 44.0867C42.4413 44.0967 43.2018 44.1308 43.9834 44.1874C43.8468 46.8735 43.9017 49.7538 44.1478 52.7358C42.0135 54.8944 40.0915 57.1007 38.452 59.2719C37.9998 58.9429 37.5662 58.6121 37.154 58.28ZM47.1335 39.7905C48.0928 33.6844 50.3986 29.6541 52.6554 29.2535C55.0593 28.8267 58.8533 32.0636 61.9853 37.8568C62.1855 38.227 62.3824 38.61 62.5767 39.0028C60.1784 40.2267 57.7073 41.7145 55.2436 43.4191C52.3582 42.6619 49.5351 42.105 46.876 41.7674C46.9477 41.09 47.033 40.4298 47.1335 39.7905ZM70.4332 55.4298C70.2151 54.2017 69.9727 52.9918 69.7087 51.8048C71.5152 52.7334 73.2138 53.7115 74.776 54.7205C73.6678 56.1736 72.4065 57.6556 71.0164 59.1396C70.8501 57.9216 70.6558 56.6838 70.4332 55.4298ZM63.6944 41.4616C64.4027 43.1541 65.059 44.9949 65.6523 46.9489C64.5114 46.4716 63.3467 46.0154 62.1618 45.5841C60.9881 45.1569 59.8115 44.7603 58.6383 44.3943C60.3448 43.2935 62.0402 42.3108 63.6944 41.4616ZM49.4803 47.8234C48.5234 48.6271 47.5916 49.4486 46.6879 50.2826C46.5869 48.2629 46.582 46.3111 46.6712 44.4608C48.5024 44.6982 50.4209 45.0455 52.3879 45.4955C51.4108 46.2409 50.4397 47.0175 49.4803 47.8234ZM45.8394 63.656C43.9744 62.7316 42.2485 61.7706 40.6897 60.786C41.8298 59.2845 43.1154 57.7609 44.5204 56.2466C44.6782 57.466 44.8661 58.6956 45.0853 59.9299C45.3085 61.1872 45.5612 62.4313 45.8394 63.656ZM51.9244 74.0176C51.1946 72.2837 50.518 70.4133 49.9089 68.4445C51.029 68.9027 52.1793 69.3472 53.3568 69.7758C54.5665 70.2161 55.7722 70.6241 56.9683 71.0001C55.241 72.1499 53.5513 73.1616 51.9244 74.0176ZM68.9042 65.0183C69.0393 67.1151 69.0713 69.1079 68.9968 70.9645C67.1332 70.7308 65.1602 70.3707 63.1172 69.8932C64.0886 69.1411 65.0635 68.3551 66.0382 67.5364C67.0244 66.708 67.9806 65.867 68.9042 65.0183ZM64.3031 65.4704C62.7899 66.7413 61.2785 67.9302 59.784 69.0278C57.977 68.5127 56.134 67.9154 54.2796 67.2404C52.4327 66.5682 50.657 65.8569 48.9679 65.115C48.4965 63.2804 48.0839 61.386 47.7416 59.4582C47.4002 57.5356 47.1371 55.6263 46.95 53.7548C48.2975 52.4376 49.7249 51.1416 51.216 49.8892L51.2157 49.8894C52.7107 48.6337 54.2331 47.4521 55.7609 46.3555C57.5745 46.8645 59.4097 47.4537 61.2389 48.1195C63.0763 48.7882 64.8631 49.518 66.5787 50.2948C67.0328 52.1007 67.4348 53.977 67.7764 55.9015C68.1219 57.8476 68.3972 59.7513 68.6017 61.5946C67.2527 62.9028 65.8143 64.2009 64.3031 65.4704ZM79.838 39.0617C81.4083 40.9312 80.4988 45.8347 77.0441 51.4413C76.8237 51.7991 76.5906 52.1604 76.3479 52.5241C74.0924 51.0598 71.5725 49.6639 68.8688 48.3824C68.0832 45.4665 67.1617 42.7402 66.1307 40.295C66.7465 40.0223 67.3541 39.7697 67.9513 39.54C73.7207 37.3217 78.3638 37.3067 79.838 39.0617ZM59.7074 52.3275C62.6343 53.3928 64.1435 56.6291 63.0782 59.556C62.0129 62.4829 58.7765 63.9921 55.8496 62.9268C52.9227 61.8615 51.4136 58.6251 52.4789 55.6982C53.5442 52.7712 56.7806 51.2622 59.7074 52.3275Z" fill="#737373"/>
</g>
<circle cx="168.976" cy="106.976" r="35" transform="rotate(-13 168.976 106.976)" fill="#EFEEEC"/>
<path d="M179.413 91.0946L188.301 89.0425L174.93 132.504L143.859 99.3027L152.637 97.2763L160.858 95.3782L168.132 103.061L171.191 92.9927L179.413 91.0946Z" fill="#737373"/>
<path d="M143.859 99.3027L174.93 132.504L188.301 89.0425L179.413 91.0946L171.39 117.171L152.637 97.2763L143.859 99.3027Z" fill="#737373"/>
<path d="M152.641 97.2754L171.42 117.281L179.417 91.0936L171.195 92.9918L168.136 103.06L160.862 95.3773L152.641 97.2754Z" fill="#737373"/>
<circle cx="278.003" cy="58.5932" r="40" transform="rotate(16 278.003 58.5932)" fill="#EFEEEC"/>
<path d="M284.159 72.734L265.286 67.3223L261.201 72.4706L271.111 82.6227L284.896 79.2651L284.159 72.734ZM290.284 36.1055L296.29 74.3573L305.303 49.0789L290.284 36.1055ZM279.502 33.0137L259.891 36.0573L254.139 62.2706L279.502 33.0137ZM270.692 60.6778L283.104 64.237L281.22 47.3684L270.692 60.6778Z" fill="#737373"/>
<defs>
<clipPath id="clip0_1873_2281">
<rect width="63.1579" height="56.25" fill="white" transform="translate(37.6953 20.4746) rotate(20)"/>
</clipPath>
</defs>
</svg>
