<svg width="427" height="124" viewBox="0 0 427 124" fill="none" xmlns="http://www.w3.org/2000/svg">
<circle cx="57.6765" cy="57.6771" r="45" transform="rotate(20 57.6765 57.6771)" fill="#EFEEEC"/>
<g clip-path="url(#clip0_1895_2564)">
<path d="M80.2629 55.3479C79.7243 54.9119 79.1593 54.4792 78.5715 54.0505C78.8398 53.6492 79.0972 53.2503 79.3409 52.8549C83.3423 46.3611 84.4551 40.3615 81.9039 37.3243C79.4576 34.4119 73.7166 34.4306 66.983 37.0197C66.3355 37.2687 65.6774 37.5423 65.0117 37.8377C64.7976 37.404 64.5802 36.9811 64.3588 36.5716C60.7314 29.8623 56.0892 25.9016 52.1838 26.595C48.4389 27.2597 45.5878 32.243 44.4681 39.3699C44.36 40.0582 44.268 40.7679 44.1914 41.4957C43.3525 41.4348 42.5348 41.3977 41.7434 41.3868C34.6627 41.2905 29.4002 43.2633 28.104 46.8245C26.7653 50.5026 29.7304 55.7597 35.4608 60.3787C35.913 60.7432 36.3882 61.1052 36.8828 61.4647C36.4409 62.121 36.0276 62.7714 35.6457 63.4135C32.0249 69.4993 31.1049 75.0432 33.5422 77.9453C36.0598 80.9426 42.095 81.0002 48.959 78.3437C49.5016 78.1337 50.0535 77.9025 50.6129 77.6531C50.9612 78.3648 51.3188 79.0485 51.6846 79.7009C55.1487 85.8771 59.4925 89.443 63.2239 88.7805C67.0779 88.0963 70.1421 82.8964 71.2684 75.6229C71.3544 75.0674 71.4277 74.4946 71.4898 73.9071C71.9057 73.9327 72.3161 73.9523 72.719 73.964C80.3433 74.1861 86.0964 72.153 87.453 68.4258C88.7539 64.8517 85.8697 59.8876 80.2629 55.3479ZM72.7976 71.2672C72.4339 71.2565 72.0632 71.2391 71.6872 71.2163C71.8016 68.5651 71.7081 65.6676 71.4184 62.6037C73.5304 60.4844 75.4135 58.3429 77.0034 56.2462C77.5466 56.6429 78.0684 57.0426 78.5651 57.4448C83.369 61.3344 85.7016 65.3491 84.9176 67.503C84.0826 69.7973 79.3806 71.4588 72.7976 71.2672ZM68.602 75.2101C68.104 78.4263 67.2016 81.1696 66.0364 83.1468C64.9894 84.9235 63.8162 85.9351 62.7521 86.124C60.4877 86.5258 57.0001 83.6628 54.0376 78.3808C53.698 77.7753 53.3652 77.1396 53.0406 76.4769C55.3786 75.2566 57.8238 73.7387 60.3144 71.971C63.2762 72.7607 66.1383 73.331 68.8033 73.6575C68.7466 74.1899 68.6798 74.708 68.602 75.2101ZM39.828 77.5684C37.7657 77.5486 36.3036 77.0374 35.6085 76.2099C34.1294 74.4488 34.8682 69.9976 37.9647 64.7931C38.3193 64.197 38.7034 63.592 39.1149 62.9804C41.3505 64.4029 43.9004 65.7691 46.6915 67.049C47.4927 69.9574 48.4393 72.7072 49.4953 75.1976C48.9837 75.4253 48.4799 75.636 47.9855 75.8274C44.9503 77.0021 42.123 77.5903 39.828 77.5684ZM37.154 58.2781C34.6201 56.2356 32.6981 54.0803 31.5705 52.0812C30.5573 50.2848 30.2697 48.7628 30.6393 47.7473C31.4258 45.5862 35.651 44.0024 41.7066 44.0847C42.4413 44.0947 43.2018 44.1289 43.9834 44.1855C43.8468 46.8715 43.9017 49.7519 44.1478 52.7339C42.0135 54.8924 40.0915 57.0988 38.452 59.2699C37.9998 58.941 37.5662 58.6102 37.154 58.2781ZM47.1335 39.7886C48.0928 33.6825 50.3986 29.6521 52.6554 29.2515C55.0593 28.8247 58.8533 32.0617 61.9853 37.8548C62.1855 38.2251 62.3824 38.608 62.5767 39.0008C60.1784 40.2248 57.7073 41.7125 55.2436 43.4172C52.3582 42.66 49.5351 42.1031 46.876 41.7655C46.9477 41.088 47.033 40.4278 47.1335 39.7886ZM70.4332 55.4278C70.2151 54.1997 69.9727 52.9899 69.7087 51.8029C71.5152 52.7315 73.2138 53.7096 74.776 54.7185C73.6678 56.1717 72.4065 57.6537 71.0164 59.1376C70.8501 57.9196 70.6558 56.6819 70.4332 55.4278ZM63.6944 41.4596C64.4027 43.1522 65.059 44.993 65.6523 46.947C64.5114 46.4697 63.3467 46.0134 62.1618 45.5822C60.9881 45.155 59.8115 44.7583 58.6383 44.3923C60.3448 43.2915 62.0402 42.3088 63.6944 41.4596ZM49.4803 47.8214C48.5234 48.6251 47.5916 49.4467 46.6879 50.2806C46.5869 48.2609 46.582 46.3092 46.6712 44.4588C48.5024 44.6962 50.4209 45.0436 52.3879 45.4936C51.4108 46.2389 50.4397 47.0156 49.4803 47.8214ZM45.8394 63.6541C43.9744 62.7297 42.2485 61.7687 40.6897 60.784C41.8298 59.2826 43.1154 57.7589 44.5204 56.2446C44.6782 57.4641 44.8661 58.6936 45.0853 59.9279C45.3085 61.1853 45.5612 62.4293 45.8394 63.6541ZM51.9244 74.0156C51.1946 72.2817 50.518 70.4113 49.9089 68.4426C51.029 68.9008 52.1793 69.3453 53.3568 69.7738C54.5665 70.2141 55.7722 70.6221 56.9683 70.9981C55.241 72.1479 53.5513 73.1596 51.9244 74.0156ZM68.9042 65.0163C69.0393 67.1131 69.0713 69.1059 68.9968 70.9626C67.1332 70.7288 65.1602 70.3688 63.1172 69.8912C64.0886 69.1391 65.0635 68.3531 66.0382 67.5344C67.0244 66.7061 67.9806 65.8651 68.9042 65.0163ZM64.3031 65.4684C62.7899 66.7394 61.2785 67.9283 59.784 69.0258C57.977 68.5108 56.134 67.9134 54.2796 67.2385C52.4327 66.5662 50.657 65.855 48.9679 65.113C48.4965 63.2784 48.0839 61.3841 47.7416 59.4562C47.4002 57.5336 47.1371 55.6243 46.95 53.7528C48.2975 52.4357 49.7249 51.1397 51.216 49.8872L51.2157 49.8875C52.7107 48.6317 54.2331 47.4502 55.7609 46.3536C57.5745 46.8626 59.4097 47.4517 61.2389 48.1175C63.0763 48.7863 64.8631 49.5161 66.5787 50.2929C67.0328 52.0987 67.4348 53.9751 67.7764 55.8996C68.1219 57.8457 68.3972 59.7494 68.6017 61.5926C67.2527 62.9008 65.8143 64.199 64.3031 65.4684ZM79.838 39.0598C81.4083 40.9292 80.4988 45.8327 77.0441 51.4394C76.8237 51.7971 76.5906 52.1584 76.3479 52.5222C74.0924 51.0579 71.5725 49.6619 68.8688 48.3804C68.0832 45.4646 67.1617 42.7383 66.1307 40.2931C66.7465 40.0203 67.3541 39.7678 67.9513 39.538C73.7207 37.3197 78.3638 37.3047 79.838 39.0598ZM59.7074 52.3255C62.6343 53.3908 64.1435 56.6271 63.0782 59.5541C62.0129 62.481 58.7765 63.9901 55.8496 62.9248C52.9227 61.8595 51.4136 58.6231 52.4789 55.6963C53.5442 52.7693 56.7806 51.2602 59.7074 52.3255Z" fill="#737373"/>
</g>
<circle cx="227.976" cy="81.9758" r="35" transform="rotate(-13 227.976 81.9758)" fill="#EFEEEC"/>
<path d="M238.413 66.0965L247.301 64.0445L233.93 107.506L202.859 74.3047L211.637 72.2783L219.858 70.3802L227.132 78.063L230.191 67.9947L238.413 66.0965Z" fill="#737373"/>
<path d="M202.859 74.3047L233.93 107.506L247.301 64.0445L238.413 66.0965L230.39 92.1732L211.637 72.2783L202.859 74.3047Z" fill="#737373"/>
<path d="M211.641 72.2773L230.42 92.2834L238.417 66.0956L230.195 67.9937L227.136 78.062L219.862 70.3792L211.641 72.2773Z" fill="#737373"/>
<circle cx="377.011" cy="60.5932" r="40" transform="rotate(16 377.011 60.5932)" fill="#EFEEEC"/>
<path d="M383.167 74.736L364.294 69.3243L360.209 74.4726L370.119 84.6247L383.904 81.267L383.167 74.736ZM389.292 38.1074L395.298 76.3592L404.311 51.0809L389.292 38.1074ZM378.51 35.0157L358.899 38.0593L353.147 64.2725L378.51 35.0157ZM369.7 62.6797L382.112 66.2389L380.228 49.3704L369.7 62.6797Z" fill="#737373"/>
<defs>
<clipPath id="clip0_1895_2564">
<rect width="63.1579" height="56.25" fill="white" transform="translate(37.6953 20.4727) rotate(20)"/>
</clipPath>
</defs>
</svg>
