<svg width="229" height="123" viewBox="0 0 229 123" fill="none" xmlns="http://www.w3.org/2000/svg">
<circle cx="178.149" cy="72.1467" r="45" transform="rotate(7 178.149 72.1467)" fill="#EFEEEC"/>
<path d="M181.166 46.6237C168.188 45.0302 168.307 50.7577 168.307 50.7577L167.606 56.5901L179.99 58.1107L179.775 59.8613L162.472 57.7367C162.472 57.7367 154.283 55.7752 152.675 68.8701C151.067 81.965 158.373 82.3906 158.373 82.3906L162.698 82.9217L163.445 76.8452C163.445 76.8452 164.101 69.5682 171.467 70.4726L183.751 71.9808C183.751 71.9808 190.638 72.9397 191.471 66.1584L192.847 54.9458C192.847 54.9458 194.728 48.289 181.166 46.6237ZM173.856 49.706C175.088 49.8573 175.961 50.9755 175.81 52.2076C175.659 53.4398 174.541 54.3134 173.308 54.1621C172.076 54.0108 171.203 52.8927 171.354 51.6605C171.505 50.4283 172.623 49.5547 173.856 49.706Z" fill="#737373"/>
<path d="M175.286 97.5247C188.264 99.1182 188.144 93.3907 188.144 93.3907L188.846 87.5583L176.461 86.0377L176.676 84.2871L193.98 86.4117C193.98 86.4117 202.169 88.3732 203.777 75.2783C205.384 62.1835 198.079 61.7578 198.079 61.7578L193.753 61.2267L193.007 67.3032C193.007 67.3032 192.35 74.5803 184.984 73.6759L172.701 72.1677C172.701 72.1677 165.813 71.2087 164.981 77.99L163.604 89.2027C163.604 89.2027 161.723 95.8595 175.286 97.5247ZM182.596 94.4424C181.364 94.2911 180.49 93.173 180.641 91.9408C180.793 90.7086 181.911 89.835 183.143 89.9863C184.375 90.1376 185.249 91.2557 185.098 92.4879C184.946 93.7201 183.828 94.5937 182.596 94.4424Z" fill="#737373"/>
<circle cx="46.3382" cy="46.3351" r="40" transform="rotate(-10 46.3382 46.3351)" fill="#EFEEEC"/>
<path d="M39.3333 58.1878C39.3333 58.1878 37.479 59.7536 41.0873 59.5366C45.4579 59.2699 47.6352 58.8137 52.1991 57.0876C52.1991 57.0876 53.5777 57.6471 55.4302 58.0155C45.6457 64.4181 31.4295 61.9766 39.3333 58.1878Z" fill="#737373"/>
<path d="M36.9995 52.4967C36.9995 52.4967 34.9846 54.6206 38.5883 54.3627C43.2483 54.0278 46.8695 53.4291 52.9114 51.122C52.9114 51.122 53.9311 51.8465 55.3759 52.0863C43.2387 58.0847 28.3773 57.1511 36.9995 52.4967Z" fill="#737373"/>
<path d="M46.1335 40.5321C49.2709 43.0749 46.4541 46.3575 46.4541 46.3575C46.4541 46.3575 52.4734 41.7713 48.6774 38.0268C45.1331 34.5355 42.6051 32.9361 53.1912 24.018C53.1912 24.018 35.4968 31.9045 46.1335 40.5321Z" fill="#737373"/>
<path d="M63.7127 58.4032C63.7127 58.4032 65.4638 59.3934 62.4228 60.9346C56.6397 63.8626 37.4197 67.8278 31.6412 66.4382C29.5641 65.9391 32.9765 64.1366 34.0714 63.6915C35.2128 63.2249 35.8995 63.1533 35.8995 63.1533C33.4876 62.0202 22.5556 68.566 30.6949 68.4534C52.8921 68.148 69.7555 59.9411 63.7127 58.4032Z" fill="#737373"/>
<path d="M38.2098 45.9595C38.2098 45.9595 28.7947 50.0262 35.291 49.7546C38.034 49.6409 43.3619 48.6178 48.2644 47.3234C52.2706 46.2633 56.2255 44.8139 56.2255 44.8139C56.2255 44.8139 54.8998 45.6809 53.9872 46.5722C44.4712 50.9561 24.9788 53.1343 30.0551 49.4713C34.3484 46.375 38.2098 45.9595 38.2098 45.9595Z" fill="#737373"/>
<path d="M57.5694 52.7052C66.7838 45.6454 61.2005 41.4069 58.0472 42.6666C57.2742 42.9751 56.942 43.1829 56.942 43.1829C56.942 43.1829 57.1576 42.6637 57.6909 42.3614C63.7657 38.9426 70.332 47.0566 57.4123 53.0069C57.4123 53.0069 57.5446 52.839 57.5694 52.7052Z" fill="#737373"/>
<path d="M44.4728 14.1697C44.4728 14.1697 51.0816 18.7989 41.6592 29.3706C34.1038 37.8503 41.5768 40.608 44.3711 44.7715C38.4322 41.0522 33.9546 37.6457 35.8093 33.4134C38.5315 27.2009 48.3135 22.6967 44.4728 14.1697Z" fill="#737373"/>
<path d="M43.4521 69.9214C53.2989 68.8278 68.0801 65.2223 67.6218 60.5526C67.6218 60.5526 67.2491 62.4192 60.1273 65.1051C52.0925 68.1345 41.8103 69.7592 35.5542 69.8289C35.5542 69.8289 36.9804 70.6394 43.4521 69.9214Z" fill="#737373"/>
</svg>
