<svg width="786" height="320" viewBox="0 0 786 320" fill="none" xmlns="http://www.w3.org/2000/svg">
<path d="M70.357 157.412C78.718 159.569 85.165 163.738 89.7 169.919C94.234 176.101 96.502 184.223 96.502 194.286C96.502 207.367 92.605 217.718 84.811 225.337C77.017 232.812 66.318 236.55 52.715 236.55H0V89.4883H47.826C60.721 89.4883 70.853 92.9384 78.222 99.8387C85.59 106.595 89.275 115.651 89.275 127.008C89.275 134.34 87.645 140.665 84.386 145.984C81.127 151.159 76.45 154.969 70.357 157.412ZM15.942 152.237H49.739C64.901 152.237 72.483 143.827 72.483 127.008C72.483 119.389 70.286 113.495 65.893 109.326C61.5 105.157 55.407 103.073 47.613 103.073H15.942V152.237ZM50.589 223.181C59.658 223.181 66.744 220.593 71.845 215.418C77.088 210.243 79.71 203.199 79.71 194.286C79.71 185.373 77.088 178.401 71.845 173.369C66.744 168.194 59.658 165.606 50.589 165.606H15.942V223.181H50.589Z" fill="#EFEEEC"/>
<path d="M211.118 135.633V236.55H196.664V221.671C192.554 227.421 187.524 231.95 181.572 235.256C175.62 238.419 169.102 240 162.016 240C152.522 240 144.02 237.7 136.509 233.1C128.999 228.5 123.118 222.102 118.867 213.908C114.616 205.714 112.49 196.37 112.49 185.876C112.49 175.526 114.545 166.325 118.654 158.275C122.906 150.081 128.716 143.684 136.084 139.084C143.595 134.483 152.097 132.183 161.591 132.183C168.818 132.183 175.408 133.836 181.359 137.143C187.453 140.305 192.554 144.834 196.664 150.728V135.633H211.118ZM161.591 226.631C168.393 226.631 174.416 224.906 179.659 221.456C185.044 218.005 189.224 213.19 192.2 207.008C195.176 200.827 196.664 193.854 196.664 186.092C196.664 178.329 195.176 171.357 192.2 165.175C189.224 158.994 185.044 154.178 179.659 150.728C174.416 147.278 168.393 145.553 161.591 145.553C154.931 145.553 148.979 147.278 143.736 150.728C138.493 154.178 134.384 158.994 131.408 165.175C128.432 171.213 126.944 178.113 126.944 185.876C126.944 193.783 128.432 200.827 131.408 207.008C134.384 213.19 138.493 218.005 143.736 221.456C148.979 224.906 154.931 226.631 161.591 226.631Z" fill="#EFEEEC"/>
<path d="M299.233 236.55L264.374 184.582L252.258 196.442V236.55H237.804V80H252.258V177.898L295.832 135.633H314.538L274.364 174.879L315.388 236.55H299.233Z" fill="#EFEEEC"/>
<path d="M331.446 236.55V80H345.9V236.55H331.446Z" fill="#EFEEEC"/>
<path d="M416.495 132.183C425.423 132.183 433.501 134.411 440.728 138.868C447.955 143.324 453.623 149.434 457.732 157.197C461.842 164.816 463.896 173.369 463.896 182.857C463.896 185.589 463.826 187.673 463.684 189.111H381.849C382.416 199.461 385.746 208.302 391.839 215.633C397.933 222.965 406.221 226.631 416.708 226.631C425.21 226.631 432.225 225.049 437.752 221.887C443.42 218.58 447.955 214.052 451.356 208.302L462.833 216.065C458.157 223.54 451.993 229.434 444.341 233.747C436.689 237.916 427.619 240 417.133 240C407.497 240 398.924 237.7 391.414 233.1C383.904 228.5 378.022 222.102 373.771 213.908C369.52 205.714 367.395 196.442 367.395 186.092C367.395 175.741 369.45 166.469 373.559 158.275C377.81 150.081 383.62 143.684 390.989 139.084C398.499 134.483 407.001 132.183 416.495 132.183ZM449.443 177.035C448.026 166.541 444.553 158.706 439.026 153.531C433.5 148.212 425.989 145.553 416.495 145.553C407.284 145.553 399.704 148.571 393.752 154.609C387.942 160.503 384.257 167.978 382.698 177.035H449.443Z" fill="#EFEEEC"/>
<path d="M532.636 132.183C539.58 132.183 545.957 133.621 551.767 136.496C557.718 139.371 562.395 143.612 565.795 149.218C569.338 154.825 571.109 161.438 571.109 169.057V236.55H556.655V175.526C556.655 155.544 547.87 145.553 530.298 145.553C520.095 145.553 512.443 149.218 507.342 156.55C502.24 163.881 499.69 173.729 499.69 186.092V236.55H485.236V135.633H499.69V152.453C503.091 145.984 507.554 141.024 513.081 137.574C518.749 133.98 525.268 132.183 532.636 132.183Z" fill="#EFEEEC"/>
<path d="M642.34 132.183C651.27 132.183 659.34 134.411 666.57 138.868C673.8 143.324 679.47 149.434 683.58 157.197C687.69 164.816 689.74 173.369 689.74 182.857C689.74 185.589 689.67 187.673 689.53 189.111H607.693C608.26 199.461 611.59 208.302 617.683 215.633C623.78 222.965 632.07 226.631 642.55 226.631C651.05 226.631 658.07 225.049 663.6 221.887C669.26 218.58 673.8 214.052 677.2 208.302L688.68 216.065C684 223.54 677.84 229.434 670.19 233.747C662.53 237.916 653.46 240 642.98 240C633.34 240 624.77 237.7 617.258 233.1C609.748 228.5 603.867 222.102 599.616 213.908C595.364 205.714 593.239 196.442 593.239 186.092C593.239 175.741 595.294 166.469 599.403 158.275C603.654 150.081 609.464 143.684 616.833 139.084C624.34 134.483 632.85 132.183 642.34 132.183ZM675.29 177.035C673.87 166.541 670.4 158.706 664.87 153.531C659.34 148.212 651.83 145.553 642.34 145.553C633.13 145.553 625.55 148.571 619.596 154.609C613.786 160.503 610.102 167.978 608.543 177.035H675.29Z" fill="#EFEEEC"/>
<path d="M771.33 135.633H786L749.86 236.55H733.92L698 135.633H713.09L742.43 220.809L771.33 135.633Z" fill="#EFEEEC"/>
<path d="M22.262 318C18.046 318 13.942 317.066 9.95001 315.198C5.95901 313.279 2.642 310.704 0 307.473L5.14401 303.383C7.16801 306.261 9.75401 308.558 12.902 310.275C16.05 311.941 19.451 312.774 23.105 312.774C27.097 312.774 30.133 311.992 32.213 310.426C34.293 308.811 35.333 306.64 35.333 303.913C35.333 300.934 34.208 298.662 31.96 297.097C29.767 295.481 26.254 294.067 21.419 292.856C9.27601 290.18 3.20401 285.231 3.20401 278.011C3.20401 273.518 4.835 270.059 8.095 267.635C11.356 265.212 15.881 264 21.672 264C25.888 264 29.655 264.707 32.972 266.121C36.345 267.534 39.352 269.705 41.994 272.634L37.019 276.421C34.995 273.947 32.775 272.129 30.357 270.968C27.94 269.756 25.045 269.15 21.672 269.15C18.13 269.15 15.235 269.907 12.986 271.422C10.738 272.886 9.61301 274.906 9.61301 277.481C9.61301 280.107 10.653 282.202 12.733 283.767C14.813 285.282 18.327 286.569 23.274 287.63C29.121 289.043 33.646 290.987 36.851 293.461C40.111 295.935 41.741 299.419 41.741 303.913C41.741 306.69 40.954 309.139 39.38 311.259C37.806 313.38 35.529 315.046 32.55 316.258C29.627 317.419 26.197 318 22.262 318Z" fill="#DAD9D6"/>
<path d="M52.1992 316.788V265.136H84.4112V269.907H58.5232V287.933H78.7612V292.553H58.5232V312.093H84.6642V316.788H52.1992Z" fill="#DAD9D6"/>
<path d="M117.292 318C112.514 318 108.241 316.864 104.475 314.592C100.765 312.269 97.841 309.063 95.705 304.973C93.625 300.884 92.585 296.238 92.585 291.038C92.585 285.837 93.625 281.192 95.705 277.102C97.841 272.962 100.765 269.756 104.475 267.484C108.241 265.161 112.514 264 117.292 264C122.071 264 126.315 265.161 130.026 267.484C133.792 269.756 136.716 272.962 138.796 277.102C140.932 281.192 142 285.863 142 291.114C142 296.314 140.932 300.959 138.796 305.049C136.716 309.088 133.792 312.269 130.026 314.592C126.315 316.864 122.071 318 117.292 318ZM117.292 312.774C120.778 312.774 123.898 311.865 126.653 310.048C129.464 308.18 131.656 305.604 133.23 302.323C134.804 298.99 135.591 295.229 135.591 291.038C135.591 286.847 134.804 283.086 133.23 279.753C131.656 276.421 129.464 273.82 126.653 271.952C123.898 270.084 120.778 269.15 117.292 269.15C113.807 269.15 110.659 270.084 107.848 271.952C105.093 273.82 102.929 276.421 101.355 279.753C99.781 283.086 98.994 286.847 98.994 291.038C98.994 295.229 99.781 298.99 101.355 302.323C102.929 305.604 105.093 308.18 107.848 310.048C110.659 311.865 113.807 312.774 117.292 312.774Z" fill="#DAD9D6"/>
</svg>
