<svg width="600" height="600" viewBox="0 0 600 600" fill="none" xmlns="http://www.w3.org/2000/svg">
<mask id="path-1-inside-1_950_816" fill="white">
<path d="M300 552.105C300 578.557 321.578 600.39 347.693 596.185C390.067 589.362 430.676 573.492 466.671 549.441C516.006 516.476 554.458 469.623 577.164 414.805C599.87 359.987 605.811 299.667 594.236 241.473C582.66 183.279 554.088 129.824 512.132 87.868C470.176 45.9122 416.721 17.34 358.527 5.76442C300.333 -5.81115 240.013 0.129855 185.195 22.8361C130.377 45.5424 83.5236 83.9942 50.5591 133.329C26.5079 169.324 10.6385 209.933 3.81507 252.307C-0.390255 278.422 21.4433 300 47.895 300C74.3466 300 95.2335 278.27 101.381 252.542C106.975 229.131 116.693 206.769 130.205 186.547C152.644 152.965 184.538 126.791 221.852 111.334C259.167 95.8782 300.227 91.8342 339.839 99.7137C379.452 107.593 415.839 127.042 444.398 155.602C472.958 184.161 492.407 220.548 500.286 260.161C508.166 299.773 504.122 340.833 488.666 378.148C473.209 415.462 447.035 447.356 413.453 469.795C393.231 483.307 370.869 493.025 347.458 498.619C321.73 504.767 300 525.653 300 552.105Z"/>
</mask>
<path d="M300 552.105C300 578.557 321.578 600.39 347.693 596.185C390.067 589.362 430.676 573.492 466.671 549.441C516.006 516.476 554.458 469.623 577.164 414.805C599.87 359.987 605.811 299.667 594.236 241.473C582.66 183.279 554.088 129.824 512.132 87.868C470.176 45.9122 416.721 17.34 358.527 5.76442C300.333 -5.81115 240.013 0.129855 185.195 22.8361C130.377 45.5424 83.5236 83.9942 50.5591 133.329C26.5079 169.324 10.6385 209.933 3.81507 252.307C-0.390255 278.422 21.4433 300 47.895 300C74.3466 300 95.2335 278.27 101.381 252.542C106.975 229.131 116.693 206.769 130.205 186.547C152.644 152.965 184.538 126.791 221.852 111.334C259.167 95.8782 300.227 91.8342 339.839 99.7137C379.452 107.593 415.839 127.042 444.398 155.602C472.958 184.161 492.407 220.548 500.286 260.161C508.166 299.773 504.122 340.833 488.666 378.148C473.209 415.462 447.035 447.356 413.453 469.795C393.231 483.307 370.869 493.025 347.458 498.619C321.73 504.767 300 525.653 300 552.105Z" stroke="#484848" stroke-width="2" mask="url(#path-1-inside-1_950_816)"/>
<circle cx="299.997" cy="300" r="64.1154" stroke="#484848"/>
</svg>
